<?xml version="1.0" encoding="utf-8"?>
<!-- Generator: Adobe Illustrator 25.1.0, SVG Export Plug-In . SVG Version: 6.00 Build 0)  -->
<svg version="1.1" id="Layer_1" xmlns="http://www.w3.org/2000/svg" xmlns:xlink="http://www.w3.org/1999/xlink" x="0px" y="0px"
	 viewBox="0 0 496.2 496.2" style="enable-background:new 0 0 496.2 496.2;" xml:space="preserve">
<style type="text/css">
	.st0{fill:#FFFFFF;}
</style>
<path d="M362,172.9H128.3c-32.1,0-58,26-58,58v38.3c0,32,26,58,58,58H362c32.1,0,58-26,58-58v-38.3C420,198.9,394,172.9,362,172.9z"
	/>
<ellipse cx="245.1" cy="248.1" rx="119.9" ry="120.7"/>
<g>
	<path class="st0" d="M361.5,185c-40.7,0-62.1,0-62.1,0s-47.1,1.6-47.1,48.4v35.5c0,0,2,24.1-24.1,47l135.3-0.1c0,0,44-5.4,44-45.3
		s0-39.9,0-39.9S402.2,185,361.5,185z"/>
	<polygon class="st0" points="171.3,209.6 164.6,254.9 156.4,209.8 136.8,209.8 128.4,254.9 121.9,209.8 99.7,209.8 118.3,287 
		137.8,287 146.3,239.4 155,287 174.7,287 193,209.6 	"/>
	<rect x="202.3" y="230.7" class="st0" width="19.9" height="55.8"/>
	<path class="st0" d="M212.5,205.2c-6.4,0-11.6,4.5-11.6,10s5.2,10,11.6,10c6.4,0,11.6-4.5,11.6-10
		C224.1,209.6,218.9,205.2,212.5,205.2z"/>
</g>
<rect x="357.9" y="230.7" width="19.9" height="55.8"/>
<ellipse cx="368" cy="215.1" rx="11.6" ry="10"/>
<polygon points="345.6,227.9 345.6,209.8 279.3,209.8 279.3,286.4 300.6,286.4 300.6,263 341.1,263 341.1,245.1 300.6,245.1 
	300.6,227.9 "/>
</svg>
