<?xml version="1.0" encoding="utf-8"?>
<!-- Generator: Adobe Illustrator 25.1.0, SVG Export Plug-In . SVG Version: 6.00 Build 0)  -->
<svg version="1.1" id="Capa_1" xmlns="http://www.w3.org/2000/svg" xmlns:xlink="http://www.w3.org/1999/xlink" x="0px" y="0px"
	 viewBox="0 0 413.3 413.3" style="enable-background:new 0 0 413.3 413.3;" xml:space="preserve">
<style type="text/css">
	.st0{fill-rule:evenodd;clip-rule:evenodd;stroke:#FFFFFF;stroke-width:0.25;stroke-miterlimit:10;}
	.st1{fill:#030404;stroke:#FFFFFF;stroke-width:0.25;stroke-miterlimit:10;}
</style>
<g>
	<path class="st0" d="M214.4,208.8c0,1.6-1.2,2.8-2.8,2.8V206C213.2,206,214.4,207.3,214.4,208.8L214.4,208.8z M200.3,215.9h8.5
		c1.5,0,2.8-1.3,2.8-2.9c2.4,0,4.2-1.8,4.2-4.2c0-2.4-1.8-4.3-4.2-4.3v-1.4h-10.3c0,1.8,0,3.6,0,5.3c1.7,0.3,1,2.2,1.1,3.7
		c0,0.1-0.1,0.1-0.1,0.2c-0.3,0.9-1.1,1-2.8,0.8c-0.3-0.1-0.6-0.3-0.9-0.8c-0.1,0-0.1-1.8,0-2.9c0.1-0.6,0.4-1,1.1-1v-5.3h-2.4v9.9
		C197.4,214.6,198.8,215.9,200.3,215.9L200.3,215.9z"/>
</g>
<path class="st1" d="M203.3,201.6c0,0.1,0,0.1,0.1,0.2c0,0.1,0.1,0.2,0.2,0.3c0.1,0.1,0.1,0.1,0.2,0.2c0.1,0.1,0.2,0.1,0.2,0.1
	s0-0.1,0-0.2c0-0.1,0-0.3,0-0.5c0-0.1,0-0.2,0.1-0.3c0-0.1,0.1-0.2,0.1-0.3c0-0.1,0.1-0.2,0.2-0.3l0-0.1l0-0.1l0,0
	c0-0.1,0.1-0.1,0.1-0.2c0.1-0.2,0.1-0.3,0.1-0.5c0-0.2,0-0.3,0-0.5c0-0.2,0-0.3-0.1-0.4c0-0.1-0.1-0.2-0.1-0.4
	c0-0.1-0.1-0.2-0.2-0.3c-0.1-0.1-0.1-0.1-0.1-0.2c0-0.1-0.1-0.1-0.1-0.1c0,0,0,0,0,0s0,0.1,0,0.2c0,0.1,0,0.3,0,0.5
	c0,0.2,0,0.4-0.1,0.7c0,0.1,0,0.2-0.1,0.3c0,0.1-0.1,0.2-0.1,0.3c0,0,0,0.1-0.1,0.2l0,0l0,0l0,0l0,0c0,0,0,0,0,0l0,0l0,0l-0.1,0.1
	c0,0.1-0.1,0.2-0.1,0.2c0,0.1,0,0.2-0.1,0.2c0,0.2,0,0.3,0,0.5C203.3,201.5,203.3,201.6,203.3,201.6z"/>
<path class="st1" d="M205.3,200.4c0,0.1,0,0.1,0.1,0.2c0,0.1,0.1,0.2,0.2,0.3c0.1,0.1,0.1,0.1,0.2,0.2c0.1,0.1,0.2,0.1,0.2,0.1
	s0-0.1,0-0.2c0-0.1,0-0.3,0-0.5c0-0.1,0-0.2,0.1-0.3c0-0.1,0.1-0.2,0.1-0.3c0-0.1,0.1-0.2,0.2-0.3l0-0.1l0-0.1l0,0
	c0-0.1,0.1-0.1,0.1-0.2c0.1-0.2,0.1-0.3,0.1-0.5c0-0.2,0-0.3,0-0.5c0-0.2,0-0.3-0.1-0.4c0-0.1-0.1-0.2-0.1-0.4
	c0-0.1-0.1-0.2-0.2-0.3c0-0.1-0.1-0.1-0.1-0.2c0-0.1-0.1-0.1-0.1-0.1c0,0,0,0,0,0s0,0.1,0,0.2c0,0.1,0,0.3,0,0.5
	c0,0.2,0,0.4-0.1,0.7c0,0.1,0,0.2-0.1,0.3c0,0.1-0.1,0.2-0.1,0.3c0,0,0,0.1-0.1,0.2l0,0l0,0l0,0l0,0c0,0,0,0,0,0l0,0l0,0l-0.1,0.1
	c0,0.1-0.1,0.2-0.1,0.2c0,0.1,0,0.2-0.1,0.2c0,0.2,0,0.3,0,0.5C205.3,200.2,205.3,200.3,205.3,200.4z"/>
</svg>
