<?xml version="1.0" encoding="utf-8"?>
<!-- Generator: Adobe Illustrator 25.1.0, SVG Export Plug-In . SVG Version: 6.00 Build 0)  -->
<svg version="1.1" id="Capa_1" xmlns="http://www.w3.org/2000/svg" xmlns:xlink="http://www.w3.org/1999/xlink" x="0px" y="0px"
	 viewBox="0 0 413.3 413.3" style="enable-background:new 0 0 413.3 413.3;" xml:space="preserve">
<style type="text/css">
	.st0{fill:#030404;stroke:#FFFFFF;stroke-width:0.25;stroke-miterlimit:10;}
</style>
<g>
	<path class="st0" d="M211.1,199.5c-1.9-2.1-4.7-3.5-7.7-3.5c-2.1,0-4.1,0.6-5.7,1.7c1.1,0.9,4.2,3.9,5.1,8.8
		C204.6,205.4,208.2,203,211.1,199.5z"/>
	<path class="st0" d="M196.1,199c-1.9,1.9-3,4.4-3,7.3c0,5.7,4.6,10.3,10.3,10.3c1.3,0,2.6-0.3,3.8-0.7c-1.7-0.7-5.5-2.7-6.2-7.8
		c0,0,0,0,0,0c0-0.1,0-0.2,0-0.3C200.3,202.2,196.3,199.2,196.1,199z"/>
	<path class="st0" d="M209.1,214.8c2.3-1.6,4-4.1,4.4-7l-0.6,0.3c-0.2,0.8-0.7,2.3-2.8,3.3c-0.7,0.4-1.5,0.6-2.3,0.6
		c-0.6,0-1.1-0.1-1.7-0.3c-0.3-0.1-0.6-0.3-0.7-0.5l-0.1-0.1c0,0-0.1-0.1-0.1-0.3l0-0.1c0-0.1,0-0.2,0-0.2c0-0.2,0-0.3,0-0.5
		c0.2-1,0.8-2.4,2.3-3.3c1-0.6,1.9-0.9,2.9-0.9c0.6,0,1.1,0.1,1.4,0.2l1.7-1.1c-0.2-1.4-0.6-2.6-1.3-3.8c-3.5,4.1-7.6,6.6-9.3,7.4
		c1,4.6,5.3,5.6,5.5,5.7C208.8,214.3,209,214.5,209.1,214.8z"/>
	<path class="st0" d="M203.4,219.8c7.4,0,13.5-6.1,13.5-13.5c0,0,0-0.1,0-0.1l-2,1c-0.5,5.9-5.4,10.6-11.5,10.6
		c-6.4,0-11.5-5.2-11.5-11.5c0-6.4,5.2-11.5,11.5-11.5c5.6,0,10.4,4.1,11.3,9.5l1.8-1.1c-1.4-5.9-6.8-10.3-13.1-10.3
		c-7.4,0-13.5,6.1-13.5,13.5C189.9,213.7,195.9,219.8,203.4,219.8z"/>
	<path class="st0" d="M207.8,207.2c-1.3,0.8-1.8,2-2,2.9c0,0.1,0,0.2,0,0.4c0,0.1,0,0.1,0,0.1c0,0,0,0,0,0c0,0.1,0,0.1,0.1,0.1
		c0,0,0,0,0,0c0.1,0.1,0.3,0.2,0.5,0.3c0.9,0.3,2.2,0.4,3.5-0.3c2.1-1.1,2.5-2.7,2.5-3.2l9.5-4.6l0.6-0.3c0.2-0.1,0.4-0.2,0.5-0.4
		c0,0,0.1-0.1,0.1-0.1c0,0,0.1-0.1,0.1-0.1c0.3-0.4,0.3-0.8,0.1-1.2c0,0,0,0,0,0l0,0c0,0,0,0,0,0c0,0-0.1-0.1-0.1-0.1
		c0,0,0-0.1-0.1-0.1c0,0-0.1,0-0.1-0.1c0,0-0.1-0.1-0.1-0.1c0,0,0,0-0.1,0c-0.1,0-0.1-0.1-0.2-0.1c0,0,0,0-0.1,0c-0.1,0-0.1,0-0.2,0
		c0,0-0.1,0-0.1,0c0,0-0.1,0-0.1,0c-0.1,0-0.2,0-0.3,0c0,0,0,0,0,0c-0.2,0-0.4,0.1-0.6,0.3l-0.5,0.3l-8.9,5.8
		C211.4,206.4,209.9,205.9,207.8,207.2z M210.8,209.1c-1.2,1.8-2.9,1.5-2.9,1.5c0,0,0,0,0,0c0,0-0.1-0.1-0.1-0.1
		c0-0.1,0.1-0.1,0.1-0.1c0.1,0,1.5,0.3,2.7-1.4c0-0.1,0.1-0.1,0.2,0C210.8,209,210.9,209,210.8,209.1z"/>
</g>
</svg>
