<?xml version="1.0" encoding="utf-8"?>
<!-- Generator: Adobe Illustrator 25.1.0, SVG Export Plug-In . SVG Version: 6.00 Build 0)  -->
<svg version="1.1" id="Capa_1" xmlns="http://www.w3.org/2000/svg" xmlns:xlink="http://www.w3.org/1999/xlink" x="0px" y="0px"
	 viewBox="0 0 413.3 413.3" style="enable-background:new 0 0 413.3 413.3;" xml:space="preserve">
<style type="text/css">
	.st0{fill-rule:evenodd;clip-rule:evenodd;stroke:#FFFFFF;stroke-width:0.25;stroke-miterlimit:10;}
</style>
<g>
	<g>
		<g>
			<path class="st0" d="M207.5,213.4l-0.1-6.8c2.2-0.5,3.9-2.7,3.9-5.5c0-1-0.3-2.1-0.8-3l-0.1-0.1l-7.6,0.1l-0.1,0.1
				c-0.5,0.9-0.8,1.9-0.8,3.1c0.1,2.7,1.8,4.9,4.1,5.3l0.1,6.8c-1.3,0.1-2.3,0.3-2.3,0.5c0,0.3,1.4,0.5,3,0.5c1.7-0.1,3-0.3,3-0.6
				C209.8,213.6,208.9,213.4,207.5,213.4L207.5,213.4z M207.7,200.1c1.6-0.9,2.5-0.7,2.9-0.5c-0.1-0.3-0.2-0.6-0.3-0.9l-7-0.1
				c-0.3,0.5-0.5,1-0.6,1.5C202.8,200.1,205.3,201.6,207.7,200.1L207.7,200.1z"/>
		</g>
	</g>
</g>
</svg>
