<?xml version="1.0" encoding="utf-8"?>
<!-- Generator: Adobe Illustrator 25.1.0, SVG Export Plug-In . SVG Version: 6.00 Build 0)  -->
<svg version="1.1" id="Capa_1" xmlns="http://www.w3.org/2000/svg" xmlns:xlink="http://www.w3.org/1999/xlink" x="0px" y="0px"
	 viewBox="0 0 1200 1200" style="enable-background:new 0 0 1200 1200;" xml:space="preserve">
<style type="text/css">
	.st0{fill:#4CAC33;}
	.st1{fill:#FFFFFF;}
	.st2{fill:#F7FBFD;}
	.st3{fill:none;stroke:#FBFDFF;stroke-width:0.25;stroke-miterlimit:10;}
</style>
<path class="st0" d="M605.3,637.4h-9c-1.8,0-3.2-1.4-3.2-3.2v-8.3c0-1.8,1.4-3.2,3.2-3.2h9c1.8,0,3.2,1.4,3.2,3.2v8.3
	C608.5,636,607.1,637.4,605.3,637.4z"/>
<g>
	<g>
		<g>
			<path class="st1" d="M605.6,628.8c-0.2-0.3-0.5-0.4-0.9-0.4H604c-0.1-1.9-1.5-3.5-3.2-3.5c-1.7,0-3.1,1.6-3.2,3.5h-0.8
				c-0.3,0-0.6,0.2-0.9,0.4c-0.3,0.4-0.4,0.8-0.3,1.3l0.9,4c0.1,0.6,0.6,1,1.1,1h6.1c0.5,0,1-0.4,1.1-1l0.9-4
				C606,629.7,605.9,629.2,605.6,628.8L605.6,628.8z M600.8,625.8c1.3,0,2.3,1.2,2.3,2.6h-4.7C598.5,626.9,599.5,625.8,600.8,625.8z
				 M605.1,630l-0.9,4c0,0.2-0.2,0.4-0.3,0.4h-6.1c-0.1,0-0.3-0.2-0.3-0.4l-0.9-4c0-0.2-0.1-0.7,0.3-0.7h7.9
				C605.2,629.3,605.1,629.7,605.1,630L605.1,630z"/>
			<path class="st1" d="M598.7,630.1c-0.2,0-0.4,0.2-0.4,0.4v2.7c0,0.2,0.2,0.4,0.4,0.4c0.2,0,0.4-0.2,0.4-0.4v-2.7
				C599.1,630.3,598.9,630.1,598.7,630.1z"/>
			<path class="st1" d="M600.7,630.1c-0.2,0-0.4,0.2-0.4,0.4v2.7c0,0.2,0.2,0.4,0.4,0.4c0.2,0,0.4-0.2,0.4-0.4v-2.7
				C601.2,630.3,601,630.1,600.7,630.1z"/>
			<path class="st1" d="M602.8,630.1c-0.2,0-0.4,0.2-0.4,0.4v2.7c0,0.2,0.2,0.4,0.4,0.4s0.4-0.2,0.4-0.4v-2.7
				C603.3,630.3,603.1,630.1,602.8,630.1z"/>
		</g>
	</g>
</g>
<g>
	<g id="XMLID_15_">
		<g>
			<path class="st0" d="M604.2,626.1c1.4,0,2.6,1.2,2.6,2.6s-1.2,2.6-2.6,2.6s-2.6-1.2-2.6-2.6S602.7,626.1,604.2,626.1z
				 M606.2,628.6c0-1.1-0.9-2.1-2.1-2.1c-1.1,0-2.1,0.9-2.1,2.1c0,1.1,0.9,2.1,2.1,2.1C605.3,630.7,606.2,629.8,606.2,628.6z"/>
			<path class="st0" d="M604.2,626.6c1.1,0,2.1,0.9,2.1,2.1c0,1.1-0.9,2.1-2.1,2.1c-1.1,0-2.1-0.9-2.1-2.1
				C602.1,627.5,603,626.6,604.2,626.6z M605.7,628.6c0-0.1-0.1-0.3-0.3-0.3h-1v-1c0-0.1-0.1-0.3-0.3-0.3s-0.3,0.1-0.3,0.3v1h-1
				c-0.1,0-0.3,0.1-0.3,0.3s0.1,0.3,0.3,0.3h1v1c0,0.1,0.1,0.3,0.3,0.3s0.3-0.1,0.3-0.3v-1h1C605.6,628.9,605.7,628.8,605.7,628.6z"
				/>
			<path class="st2" d="M605.4,628.4c0.1,0,0.3,0.1,0.3,0.3s-0.1,0.3-0.3,0.3h-1v1c0,0.1-0.1,0.3-0.3,0.3s-0.3-0.1-0.3-0.3v-1h-1
				c-0.1,0-0.3-0.1-0.3-0.3s0.1-0.3,0.3-0.3h1v-1c0-0.1,0.1-0.3,0.3-0.3s0.3,0.1,0.3,0.3v1H605.4z"/>
		</g>
		<g>
			<circle class="st3" cx="604.2" cy="628.6" r="2.1"/>
		</g>
	</g>
</g>
</svg>
