<?xml version="1.0" encoding="utf-8"?>
<!-- Generator: Adobe Illustrator 25.1.0, SVG Export Plug-In . SVG Version: 6.00 Build 0)  -->
<svg version="1.1" id="Livello_1" xmlns="http://www.w3.org/2000/svg" xmlns:xlink="http://www.w3.org/1999/xlink" x="0px" y="0px"
	 viewBox="0 0 512 512" style="enable-background:new 0 0 512 512;" xml:space="preserve">
<style type="text/css">
	.st0{fill:#797E83;}
	.st1{fill:#4CAC30;}
	.st2{fill:#F8FCFD;}
	.st3{fill:none;stroke:#FCFEFE;stroke-width:0.25;stroke-miterlimit:10;}
</style>
<g>
	<g>
		<g>
			<g>
				<path class="st0" d="M260.7,254.7c-0.2-0.3-0.6-0.5-1-0.5h-0.8c-0.1-2.1-1.6-3.9-3.5-3.9c-1.9,0-3.5,1.7-3.5,3.9h-0.8
					c-0.4,0-0.7,0.2-1,0.5c-0.3,0.4-0.4,0.9-0.3,1.5l1,4.4c0.2,0.7,0.7,1.1,1.3,1.1h6.7c0.6,0,1.1-0.5,1.3-1.1l1-4.4
					C261.1,255.7,261,255.1,260.7,254.7L260.7,254.7z M255.4,251.3c1.4,0,2.5,1.3,2.6,2.9h-5.2C252.9,252.6,254,251.3,255.4,251.3z
					 M260.1,256l-1,4.4c-0.1,0.2-0.2,0.4-0.3,0.4h-6.7c-0.1,0-0.3-0.2-0.3-0.4l-1-4.4c-0.1-0.2-0.1-0.8,0.3-0.8h8.7
					C260.2,255.2,260.2,255.7,260.1,256L260.1,256z"/>
				<path class="st0" d="M253.1,256.1c-0.3,0-0.5,0.2-0.5,0.5v3c0,0.3,0.2,0.5,0.5,0.5s0.5-0.2,0.5-0.5v-3
					C253.5,256.4,253.3,256.1,253.1,256.1z"/>
				<path class="st0" d="M255.3,256.1c-0.3,0-0.5,0.2-0.5,0.5v3c0,0.3,0.2,0.5,0.5,0.5s0.5-0.2,0.5-0.5v-3
					C255.8,256.4,255.6,256.1,255.3,256.1z"/>
				<path class="st0" d="M257.6,256.1c-0.3,0-0.5,0.2-0.5,0.5v3c0,0.3,0.2,0.5,0.5,0.5c0.3,0,0.5-0.2,0.5-0.5v-3
					C258.1,256.4,257.9,256.1,257.6,256.1z"/>
			</g>
		</g>
	</g>
	<g>
		<g id="XMLID_2_">
			<g>
				<path class="st1" d="M259.4,251.7c1.6,0,2.8,1.3,2.8,2.8s-1.3,2.8-2.8,2.8s-2.8-1.3-2.8-2.8S257.8,251.7,259.4,251.7z
					 M261.7,254.5c0-1.3-1-2.3-2.3-2.3s-2.3,1-2.3,2.3s1,2.3,2.3,2.3C260.6,256.8,261.7,255.8,261.7,254.5z"/>
				<path class="st1" d="M259.4,252.3c1.3,0,2.3,1,2.3,2.3s-1,2.3-2.3,2.3s-2.3-1-2.3-2.3C257.1,253.3,258.1,252.3,259.4,252.3z
					 M261.1,254.5c0-0.2-0.1-0.3-0.3-0.3h-1.1v-1.1c0-0.2-0.1-0.3-0.3-0.3c-0.2,0-0.3,0.1-0.3,0.3v1.1H258c-0.2,0-0.3,0.1-0.3,0.3
					s0.1,0.3,0.3,0.3h1.1v1.1c0,0.2,0.1,0.3,0.3,0.3s0.3-0.1,0.3-0.3v-1.1h1.1C261,254.8,261.1,254.7,261.1,254.5z"/>
				<path class="st2" d="M260.8,254.2c0.2,0,0.3,0.1,0.3,0.3s-0.1,0.3-0.3,0.3h-1.1v1.1c0,0.2-0.1,0.3-0.3,0.3
					c-0.2,0-0.3-0.1-0.3-0.3v-1.1H258c-0.2,0-0.3-0.1-0.3-0.3s0.1-0.3,0.3-0.3h1.1v-1.1c0-0.2,0.1-0.3,0.3-0.3s0.3,0.1,0.3,0.3v1.1
					H260.8z"/>
			</g>
			<g>
				
					<ellipse transform="matrix(0.1602 -0.9871 0.9871 0.1602 -33.3493 469.8026)" class="st3" cx="259.4" cy="254.5" rx="2.3" ry="2.3"/>
			</g>
		</g>
	</g>
</g>
</svg>
