<?xml version="1.0" encoding="utf-8"?>
<!-- Generator: Adobe Illustrator 25.1.0, SVG Export Plug-In . SVG Version: 6.00 Build 0)  -->
<svg version="1.1" id="Capa_1" xmlns="http://www.w3.org/2000/svg" xmlns:xlink="http://www.w3.org/1999/xlink" x="0px" y="0px"
	 viewBox="0 0 325 325" style="enable-background:new 0 0 325 325;" xml:space="preserve">
<g>
	<path d="M159.7,166.7c-0.2,0.9-0.3,1.3-1,1.4c-0.2,0-0.3,0.1-0.3,0.3s0.1,0.3,0.2,0.4c0,0,1.1,0.4,2.3,0.4l0,0
		c0.9,0,1.6-0.2,2.2-0.6c0.7-0.5,1.2-1.2,1.4-2.2l-2.4-2.4C160.2,164.3,159.9,165.7,159.7,166.7z"/>
	<path d="M172.2,156.3c-0.1-0.1-0.2-0.1-0.4-0.1s-0.8,0-4.1,2.9c-1.6,1.3-3.4,3-4.8,4.4l2.2,2.3c1.5-1.5,3.2-3.4,4.5-5.1
		c0.9-1,1.5-1.9,2-2.5C172.3,157.1,172.5,156.6,172.2,156.3z"/>
	<path d="M163.7,169.4c-0.8,0.5-1.7,0.8-2.7,0.8c-1.4,0-2.6-0.5-2.7-0.5c-0.6-0.2-0.9-0.8-0.8-1.4c0.1-0.6,0.6-1.1,1.2-1.1
		c0.1-0.2,0.1-0.4,0.1-0.6c0.1-0.6,0.3-1.3,0.8-2c0.5-0.8,1.3-1.2,2.4-1.4c0.6-0.6,1.3-1.2,2-1.9c-0.4-0.1-0.7-0.3-0.9-0.7
		c-0.3-0.6,0-1.3,0.6-1.6s1.4,0,1.7,0.6c0.1,0.1,0.1,0.2,0.1,0.4c0.6-0.5,1.2-1,1.7-1.5l0,0c-0.6-1.2-1.5-2.2-2.6-3.1
		c-1.6-1.2-3.4-1.8-5.4-1.8l0,0c-1.3,0-2.9,0.5-4.2,1.2c-1.6,0.9-2.4,2.1-2.4,3.4c0,1.6,0.9,2.2,1.6,2.8c0.6,0.4,1,0.8,1,1.5
		s-0.5,1.1-1,1.5c-0.7,0.5-1.6,1.2-1.6,2.8c0,1.3,0.9,2.5,2.4,3.4c1.3,0.7,2.9,1.2,4.2,1.2l0,0c2.4,0,4.7-0.9,6.4-2.6
		c1.3-1.3,2.1-2.8,2.5-4.5c-0.9,0.9-1.7,1.9-2.5,2.6C165.1,167.9,164.5,168.8,163.7,169.4z M159.3,157.1c0.2-0.7,0.8-1.1,1.5-0.9
		c0.7,0.2,1.1,0.8,0.9,1.5c-0.2,0.7-0.8,1.1-1.5,0.9C159.6,158.5,159.1,157.8,159.3,157.1z M155.3,159.4c-0.4-0.5-0.3-1.3,0.2-1.7
		s1.3-0.3,1.7,0.2s0.3,1.3-0.2,1.7C156.5,160,155.7,159.9,155.3,159.4z M155.9,167.5c-0.5-0.4-0.6-1.2-0.2-1.7
		c0.4-0.5,1.2-0.6,1.7-0.2c0.5,0.4,0.6,1.2,0.2,1.7C157.2,167.8,156.4,167.9,155.9,167.5z"/>
</g>
</svg>
