<?xml version="1.0" encoding="utf-8"?>
<!-- Generator: Adobe Illustrator 25.1.0, SVG Export Plug-In . SVG Version: 6.00 Build 0)  -->
<svg version="1.1" id="Capa_1" xmlns="http://www.w3.org/2000/svg" xmlns:xlink="http://www.w3.org/1999/xlink" x="0px" y="0px"
	 viewBox="0 0 1200 1200" style="enable-background:new 0 0 1200 1200;" xml:space="preserve">
<style type="text/css">
	.st0{fill:#030404;}
	.st1{fill:#FFFFFF;}
	.st2{fill:none;stroke:#FFFFFF;stroke-width:0.25;stroke-miterlimit:10;}
</style>
<g>
	<g>
		<g>
			<path class="st0" d="M605.6,620c-0.3-0.4-0.7-0.6-1.1-0.6h-1c-0.1-2.5-1.9-4.6-4.2-4.6c-2.2,0-4.1,2-4.2,4.6h-1
				c-0.4,0-0.8,0.2-1.1,0.6c-0.4,0.5-0.5,1.1-0.4,1.7l1.2,5.2c0.2,0.8,0.8,1.3,1.5,1.3h8c0.7,0,1.3-0.6,1.5-1.3l1.2-5.2
				C606.1,621.1,605.9,620.4,605.6,620L605.6,620z M599.3,615.9c1.6,0,3,1.5,3.1,3.4h-6.1C596.3,617.5,597.6,615.9,599.3,615.9z
				 M604.8,621.4l-1.2,5.2c-0.1,0.3-0.2,0.5-0.4,0.5h-8c-0.2,0-0.3-0.2-0.4-0.5l-1.2-5.2c-0.1-0.3-0.1-0.9,0.4-0.9h10.3
				C605,620.5,604.9,621.2,604.8,621.4L604.8,621.4z"/>
			<path class="st0" d="M596.5,621.6c-0.3,0-0.6,0.2-0.6,0.6v3.5c0,0.3,0.2,0.6,0.6,0.6s0.6-0.2,0.6-0.6v-3.5
				C597.1,621.9,596.8,621.6,596.5,621.6z"/>
			<path class="st0" d="M599.2,621.6c-0.3,0-0.6,0.2-0.6,0.6v3.5c0,0.3,0.2,0.6,0.6,0.6c0.3,0,0.6-0.2,0.6-0.6v-3.5
				C599.8,621.9,599.5,621.6,599.2,621.6z"/>
			<path class="st0" d="M601.9,621.6c-0.3,0-0.6,0.2-0.6,0.6v3.5c0,0.3,0.2,0.6,0.6,0.6s0.6-0.2,0.6-0.6v-3.5
				C602.5,621.9,602.2,621.6,601.9,621.6z"/>
		</g>
	</g>
	<g>
		<g id="XMLID_7_">
			<g>
				<path class="st0" d="M604,616.4c1.9,0,3.4,1.5,3.4,3.3c0,1.9-1.5,3.4-3.4,3.4s-3.4-1.5-3.4-3.4
					C600.6,617.8,602.1,616.4,604,616.4z M606.7,619.7c0-1.5-1.2-2.7-2.7-2.7c-1.5,0-2.7,1.2-2.7,2.7c0,1.5,1.2,2.7,2.7,2.7
					C605.5,622.4,606.7,621.2,606.7,619.7z"/>
				<path class="st0" d="M604,617c1.5,0,2.7,1.2,2.7,2.7c0,1.5-1.2,2.7-2.7,2.7c-1.5,0-2.7-1.2-2.7-2.7
					C601.3,618.2,602.5,617,604,617z M606,619.7c0-0.2-0.2-0.3-0.3-0.3h-1.3V618c0-0.2-0.1-0.3-0.3-0.3s-0.3,0.1-0.3,0.3v1.3h-1.3
					c-0.2,0-0.3,0.2-0.3,0.3c0,0.2,0.1,0.3,0.3,0.3h1.3v1.3c0,0.2,0.2,0.3,0.3,0.3s0.3-0.1,0.3-0.3V620h1.3
					C605.8,620,606,619.9,606,619.7z"/>
				<path class="st1" d="M605.7,619.4c0.2,0,0.3,0.2,0.3,0.3c0,0.2-0.2,0.3-0.3,0.3h-1.3v1.3c0,0.2-0.1,0.3-0.3,0.3
					s-0.3-0.1-0.3-0.3V620h-1.3c-0.2,0-0.3-0.2-0.3-0.3c0-0.2,0.1-0.3,0.3-0.3h1.3V618c0-0.2,0.2-0.3,0.3-0.3s0.3,0.1,0.3,0.3v1.3
					H605.7z"/>
			</g>
			<g>
				<path class="st2" d="M604,617c-1.5,0-2.7,1.2-2.7,2.7c0,1.5,1.2,2.7,2.7,2.7c1.5,0,2.7-1.2,2.7-2.7
					C606.7,618.2,605.5,617,604,617z"/>
			</g>
		</g>
	</g>
</g>
</svg>
