<?xml version="1.0" encoding="UTF-8" standalone="no"?>
<svg
   xmlns:dc="http://purl.org/dc/elements/1.1/"
   xmlns:cc="http://creativecommons.org/ns#"
   xmlns:rdf="http://www.w3.org/1999/02/22-rdf-syntax-ns#"
   xmlns:svg="http://www.w3.org/2000/svg"
   xmlns="http://www.w3.org/2000/svg"
   viewBox="0 0 133.33333 133.34666"
   height="133.34666"
   width="133.33333"
   xml:space="preserve"
   id="svg2"
   version="1.1"><metadata
     id="metadata8"><rdf:RDF><cc:Work
         rdf:about=""><dc:format>image/svg+xml</dc:format><dc:type
           rdf:resource="http://purl.org/dc/dcmitype/StillImage" /></cc:Work></rdf:RDF></metadata><defs
     id="defs6" /><g
     transform="matrix(1.3333333,0,0,-1.3333333,0,133.34667)"
     id="g10"><g
       transform="scale(0.1)"
       id="g12"><path
         id="path14"
         style="fill:#f5a428;fill-opacity:1;fill-rule:nonzero;stroke:none"
         d="m 543.82,465.18 c -29.734,22.398 -143.523,90.539 -143.523,90.539 0,0 114.418,-63.981 144.211,-85.68 54.719,-39.848 208.383,-153 208.383,-153 0,0 -154.989,107.406 -209.071,148.141 z M 324.438,612.809 c 22.734,-17.782 45.109,-35.278 68.449,-53.528 -17.594,-0.074 -68.883,40.418 -68.449,53.528 z m 27.238,22.695 c 11.992,-10.125 38.164,-42.859 40.293,-50.391 -36.891,19.086 -47.145,31.907 -40.293,50.391 z m 12.816,19.457 c 4.559,-6.418 11.117,-11.07 12.367,-19.762 -4.964,5.852 -9.929,11.703 -14.898,17.555 0.844,0.734 1.684,1.469 2.531,2.207 z m 43.953,0.867 c -11.398,7.805 -16.297,20.129 -26.722,27.184 12.058,-1.414 24.257,-14.711 26.722,-27.184 z m 31.106,-39.262 c 20.051,-26.589 66.824,-112.476 66.824,-112.476 0,0 -47.73,75.445 -64.492,103.664 -5.539,9.324 -29.34,44.805 -29.34,44.805 0,0 20.648,-27.567 27.008,-35.993 z m 339.121,-287.66 c -14.57,21.395 -32.09,40.477 -50.082,59.117 -53.957,55.899 -113.445,105.973 -173.664,155.243 -20.774,16.996 -44.016,31.757 -62.082,51.117 -25.207,27.012 -49.535,54.824 -75.914,80.816 -7.567,7.457 -7.063,16.004 -1.274,23.106 5.145,6.3 7.645,10.523 3.535,18.867 -2.343,4.773 -5.168,11.547 -8.433,11.891 -5.457,0.558 -7.461,-7.036 -11.141,-10.946 -1.351,-1.433 -0.804,-5.375 0.035,-7.797 2.055,-5.929 1.477,-11.722 1.106,-20.238 -8.742,9.465 -7.727,17.93 -4.985,26.465 2.844,8.812 -1.007,16.324 -8.019,19.504 -9.629,4.359 -20.656,6.316 -31.637,4.969 -1.773,-0.219 -4.023,-2.34 -4.887,0.062 -3.976,11.039 -6.953,1.766 -10.039,-0.41 -2.418,-1.703 -4.886,-5.899 -7.046,-0.527 -6.266,15.601 -19.969,14.644 -33.571,16.418 -8.297,1.082 -7.988,-1.172 -8.246,-7.239 -0.199,-4.742 -1.949,-12.648 -8.086,-10.785 -10.769,3.274 -18.324,-6.363 -28.265,-4.312 -2.336,0.484 -2.379,-1.856 -2.145,-4.106 1.191,-11.504 1.152,-23.07 9.504,-32.867 2.781,-3.266 3.777,-8.731 1.437,-13.328 -4.941,-9.727 -5.027,-19.453 -0.718,-29.336 0.863,-1.055 2.281,-2.129 0.761,-3.508 -1.527,-1.391 -2.503,0.184 -3.558,0.988 -4.16,-6.289 -10.008,-8.136 -17.5,-7.101 -3.481,0.48 -9.457,1.488 -6.043,-5.571 4.949,-10.253 4.609,-21.679 10.453,-32.293 7.703,-13.996 16.008,-21.144 32.344,-17.589 15.078,3.281 23.336,2.191 33.211,-4.371 -47.434,-9.375 -47.434,-9.375 -53.313,-18.09 10.246,0.707 16.313,-7.711 26.305,-9.356 6.547,-1.074 11.25,-2.722 16.203,1.496 18.105,15.403 23.863,15.727 43.195,1.754 2.883,-2.082 5.856,-4.066 8.727,-6.16 34.68,-25.273 71.801,-46.918 101.051,-79.543 55.121,-61.457 113.589,-119.965 175.797,-174.848 18.75,-16.543 40.078,-29.632 59.289,-45.531 17.972,-14.875 36.355,-15.015 56.828,-3.105 10.367,6.031 19.5,13.515 27.32,22.465 17.09,19.55 18.047,33.375 3.547,54.679" /><path
         id="path16"
         style="fill:#f5a428;fill-opacity:1;fill-rule:nonzero;stroke:none"
         d="m 500,908.027 c -225.332,0 -408,-182.668 -408,-408 0,-225.332 182.668,-407.9957 408,-407.9957 225.332,0 408.004,182.6637 408.004,407.9957 0,225.332 -182.672,408 -408.004,408 z m 0,-38.25 c 203.883,0 369.75,-165.867 369.75,-369.75 0,-203.879 -165.867,-369.75 -369.75,-369.75 -203.883,0 -369.754,165.871 -369.754,369.75 0,203.883 165.871,369.75 369.754,369.75" /></g></g></svg>