<?xml version="1.0" encoding="UTF-8" standalone="no"?>
<svg
   xmlns:dc="http://purl.org/dc/elements/1.1/"
   xmlns:cc="http://creativecommons.org/ns#"
   xmlns:rdf="http://www.w3.org/1999/02/22-rdf-syntax-ns#"
   xmlns:svg="http://www.w3.org/2000/svg"
   xmlns="http://www.w3.org/2000/svg"
   viewBox="0 0 133.34666 133.33333"
   height="133.33333"
   width="133.34666"
   xml:space="preserve"
   id="svg2"
   version="1.1"><metadata
     id="metadata8"><rdf:RDF><cc:Work
         rdf:about=""><dc:format>image/svg+xml</dc:format><dc:type
           rdf:resource="http://purl.org/dc/dcmitype/StillImage" /></cc:Work></rdf:RDF></metadata><defs
     id="defs6" /><g
     transform="matrix(1.3333333,0,0,-1.3333333,0,133.33333)"
     id="g10"><g
       transform="scale(0.1)"
       id="g12"><path
         id="path14"
         style="fill:#f5a428;fill-opacity:1;fill-rule:nonzero;stroke:none"
         d="m 752.219,458.246 c -12.215,-3.445 -23.879,-8.555 -34.77,-14.922 -1.254,14.547 -5.203,26.953 -11.597,37.453 0.656,0.739 1.429,1.387 2.039,2.161 0.722,0.925 1.422,1.882 2.336,2.625 0.894,0.73 1.961,1.23 3.019,1.722 4.242,1.969 8.496,3.938 12.738,5.903 3.25,1.507 6.864,3.429 7.711,6.828 0.524,2.097 -0.16,4.285 -0.879,6.328 -2.55,7.261 -5.73,14.297 -9.269,21.152 -0.051,0.535 -0.109,1.102 -0.27,1.754 -7.039,28.371 -14.57,57.754 -33.332,80.563 -3.066,3.734 -6.476,7.359 -8.183,11.835 -1.192,3.125 -1.473,6.5 -1.707,9.829 -0.703,10.093 -1,20.339 -3.946,30.046 -3.222,10.629 -9.484,20.157 -16.402,28.969 -7.766,9.891 -16.699,19.274 -28.043,25.051 -16.894,8.605 -38.406,7.973 -54.73,-1.617 1.418,-8.324 11.871,-11.199 19.214,-15.727 4.797,-2.961 8.641,-7.136 12.411,-11.261 4.136,-4.512 8.273,-9.028 12.41,-13.54 -11.453,2.715 -24.992,7.442 -27.281,18.665 -5.481,-0.254 -9.743,-5.243 -10.797,-10.461 -1.051,-5.219 0.386,-10.582 2.007,-15.664 5.477,-17.204 13.207,-33.727 22.93,-49.063 2.285,-3.598 4.688,-7.145 7.555,-10.32 10.832,-12.004 27.129,-17.649 42.68,-22.825 -3.047,-7.339 0.582,-15.554 4.378,-22.558 10.141,-18.668 22.075,-36.399 35.43,-53.051 -1.367,-3.18 -4.098,-6.183 -7.234,-9.078 -37.489,32.953 -109.516,39.187 -192.301,39.187 -80.801,0 -151.227,-3.109 -189.422,-34.019 -3.269,2.984 -6.148,6.086 -7.566,9.379 13.355,16.652 25.293,34.379 35.429,53.051 3.797,6.996 7.426,15.218 4.379,22.558 15.559,5.176 31.848,10.821 42.684,22.821 2.863,3.179 5.269,6.726 7.551,10.324 9.726,15.336 17.453,31.859 22.929,49.062 1.621,5.082 3.059,10.446 2.008,15.664 -1.055,5.219 -5.316,10.203 -10.797,10.457 -2.289,-11.218 -15.828,-15.945 -27.273,-18.66 4.129,4.512 8.265,9.028 12.402,13.539 3.774,4.125 7.617,8.301 12.41,11.262 7.344,4.523 17.797,7.402 19.215,15.727 -16.324,9.589 -37.836,10.222 -54.73,1.617 -11.34,-5.778 -20.282,-15.16 -28.043,-25.051 -6.918,-8.813 -13.18,-18.34 -16.403,-28.969 -2.937,-9.707 -3.242,-19.949 -3.937,-30.051 -0.234,-3.324 -0.524,-6.699 -1.715,-9.824 -1.703,-4.476 -5.117,-8.101 -8.184,-11.836 -18.761,-22.808 -26.289,-52.191 -33.332,-80.562 -0.16,-0.653 -0.218,-1.219 -0.265,-1.75 -3.535,-6.86 -6.723,-13.899 -9.27,-21.156 -0.722,-2.043 -1.406,-4.231 -0.883,-6.329 0.848,-3.398 4.461,-5.316 7.715,-6.828 4.242,-1.968 8.492,-3.933 12.739,-5.906 1.054,-0.488 2.121,-0.988 3.015,-1.719 0.918,-0.742 1.613,-1.699 2.336,-2.625 0.485,-0.613 1.098,-1.117 1.61,-1.707 -7.434,-11.207 -12.125,-24.859 -13.637,-41.445 -9.926,5.465 -20.457,9.898 -31.418,12.992 -32.985,-19.383 -63.61,-42.543 -91.035,-68.844 4.836,-2.98 11.195,-2.73 16.57,-0.789 5.371,1.946 10.004,5.375 14.645,8.645 19.753,13.887 41.21,25.492 63.773,34.484 6.301,-10.879 16.453,-19.07 26.383,-27 2.422,-1.933 4.84,-3.867 7.261,-5.801 0.141,-0.371 0.286,-0.738 0.438,-1.109 -6.926,1.445 -13.914,2.551 -20.984,2.856 -23.688,-22.86 -44.598,-48.426 -62.145,-76.004 4.699,-1.547 10.004,-0.082 14.113,2.617 4.118,2.703 7.293,6.512 10.516,10.179 13.699,15.61 29.324,29.633 46.426,41.68 7.594,-7.91 17.867,-12.793 27.894,-17.504 3.75,-1.758 7.5,-3.519 11.25,-5.277 1.235,-1.324 2.364,-2.688 3.66,-3.984 -6.011,-0.415 -12.003,-1.11 -17.875,-2.438 -14.781,-25.387 -26.472,-52.469 -34.753,-80.492 4.46,-0.235 8.683,2.289 11.566,5.598 2.887,3.312 4.684,7.359 6.555,11.3 7.949,16.75 17.961,32.582 29.75,47.055 8.554,-5.059 18.679,-6.859 28.547,-8.574 4.621,-0.797 9.234,-1.598 13.855,-2.399 0.066,0.188 0.133,0.41 0.199,0.602 38.567,-23.551 88.774,-38.723 143.844,-38.723 62.605,0 118.965,19.571 159,48.852 0.844,0.144 1.687,0.293 2.535,0.437 9.863,1.707 19.992,3.512 28.551,8.571 11.789,-14.469 21.797,-30.305 29.754,-47.055 1.863,-3.938 3.66,-7.988 6.547,-11.301 2.882,-3.308 7.109,-5.832 11.57,-5.601 -8.285,28.027 -19.977,55.109 -34.754,80.5 -4.527,1.019 -9.121,1.765 -13.746,2.246 0.559,0.648 1.172,1.269 1.719,1.922 1.742,0.656 3.492,1.316 5.234,1.968 10.391,3.91 21.039,7.973 29.27,15.266 16.039,-13.348 30.441,-28.547 42.804,-45.18 2.907,-3.91 5.754,-7.953 9.625,-10.969 3.875,-3.011 9.043,-4.894 13.86,-3.714 -15.207,28.859 -33.914,55.984 -55.621,80.625 -6.243,0.214 -12.477,-0.168 -18.684,-0.852 1.961,1.566 3.918,3.137 5.879,4.703 9.93,7.93 20.09,16.121 26.383,27 22.562,-8.992 44.023,-20.597 63.773,-34.484 4.645,-3.27 9.278,-6.699 14.649,-8.645 5.371,-1.941 11.73,-2.191 16.574,0.789 -27.43,26.301 -58.059,49.461 -91.039,68.844" /><path
         id="path16"
         style="fill:#f5a428;fill-opacity:1;fill-rule:nonzero;stroke:none"
         d="m 500.051,904.504 c -224.367,0 -406.2541,-181.887 -406.2541,-406.25 0,-224.367 181.8871,-406.2501 406.2541,-406.2501 224.363,0 406.25,181.8831 406.25,406.2501 0,224.363 -181.887,406.25 -406.25,406.25 z m 0,-38.086 c 203.008,0 368.164,-165.164 368.164,-368.164 0,-203.012 -165.156,-368.164 -368.164,-368.164 -203.004,0 -368.164,165.152 -368.164,368.164 0,203 165.16,368.164 368.164,368.164" /></g></g></svg>