<?xml version="1.0" encoding="UTF-8" standalone="no"?>
<svg
   xmlns:dc="http://purl.org/dc/elements/1.1/"
   xmlns:cc="http://creativecommons.org/ns#"
   xmlns:rdf="http://www.w3.org/1999/02/22-rdf-syntax-ns#"
   xmlns:svg="http://www.w3.org/2000/svg"
   xmlns="http://www.w3.org/2000/svg"
   viewBox="0 0 133.34666 133.33333"
   height="133.33333"
   width="133.34666"
   xml:space="preserve"
   id="svg2"
   version="1.1"><metadata
     id="metadata8"><rdf:RDF><cc:Work
         rdf:about=""><dc:format>image/svg+xml</dc:format><dc:type
           rdf:resource="http://purl.org/dc/dcmitype/StillImage" /></cc:Work></rdf:RDF></metadata><defs
     id="defs6" /><g
     transform="matrix(1.3333333,0,0,-1.3333333,0,133.33333)"
     id="g10"><g
       transform="scale(0.1)"
       id="g12"><path
         id="path14"
         style="fill:#f5a428;fill-opacity:1;fill-rule:nonzero;stroke:none"
         d="m 501.465,652.289 c 0.625,-10.34 1.012,-20.578 1.137,-30.711 -9.028,10.555 -18.93,20.402 -23.348,33.688 8.031,-2.067 15.453,-3.016 22.211,-2.977 z M 482.078,329.703 c 12.61,27.051 23.66,54.688 32.758,83.016 6.879,-6.965 17.519,-11.055 30.965,-10.785 14.125,0.277 26.465,5.234 38.375,12.457 52.937,32.097 75.176,81.793 79.469,143.523 -29.641,-35.426 -71.555,-47 -111.325,-62.742 -7.152,-2.832 -13.582,-6.641 -19.261,-11.254 3.48,18.234 6.101,36.773 7.757,55.645 17.856,-14.833 36.059,-14.411 54.2,1.515 45.238,39.727 46.453,161.383 -1.618,207.981 -3.632,-48.184 -31.597,-83.536 -54.039,-122.047 -1.589,12.367 -3.777,24.609 -6.55,36.726 11.367,11.43 14.586,30.856 7,55.895 -12.93,42.715 -45.899,76.269 -51.758,128.687 -38.692,-58.16 -40.778,-113.511 -12.68,-189.043 -23.457,8.969 -30.801,35.196 -53.223,52.008 -8.679,-51.351 -8.668,-97.555 12.649,-141.789 16.82,-34.918 40.391,-45.437 63.246,-31.254 -3.273,-26.371 -8.238,-51.851 -14.68,-76.371 -1.273,6.719 -3.508,13.711 -6.855,20.801 -1.781,3.777 -3.582,7.734 -6.231,10.902 -24.554,29.426 -51.183,57.114 -75.3,95.43 -12.696,-52.973 -16.829,-99.063 1.711,-144.223 12.769,-31.113 40.89,-44.152 65.382,-33.691 2.379,1.015 4.532,2.289 6.543,3.707 -8.246,-20.906 -22.168,-48.094 -37.699,-76.234 -3.496,15.035 -11.434,28.949 -23.949,41.726 -19.094,19.481 -36.813,39.883 -48.418,65.109 -4.84,10.52 -13.934,20.34 -20.184,1.2 -15.851,-48.578 -25,-97.539 1.239,-145.996 14.164,-26.164 29.902,-37.438 49.593,-34.524 -9.406,-15.89 -18.066,-30.387 -25.007,-42.16 -7.2,-12.238 -15.278,-29.094 2.097,-39.371 18.129,-10.731 32.449,0.226 42.445,15.469 7.946,12.117 15.668,24.332 23.161,36.64 10.179,-16.429 29.945,-18.566 63.855,-8.359 76.449,23.008 118.797,79.969 147.859,160.504 -40.546,-21.305 -73.808,-38.879 -111.335,-45.539 -17.348,-3.086 -34.286,-7.215 -50.192,-13.559" /><path
         id="path16"
         style="fill:#f5a428;fill-opacity:1;fill-rule:nonzero;stroke:none"
         d="m 493.355,904.988 c -222.746,0 -403.312,-180.562 -403.312,-403.304 0,-222.743 180.566,-403.309 403.312,-403.309 222.739,0 403.305,180.566 403.305,403.309 0,222.742 -180.566,403.304 -403.305,403.304 z m 0,-37.804 c 201.532,0 365.497,-163.965 365.497,-365.5 0,-201.539 -163.965,-365.496 -365.497,-365.496 -201.539,0 -365.5,163.957 -365.5,365.496 0,201.535 163.961,365.5 365.5,365.5" /></g></g></svg>