<?xml version="1.0" encoding="UTF-8" standalone="no"?>
<svg
   xmlns:dc="http://purl.org/dc/elements/1.1/"
   xmlns:cc="http://creativecommons.org/ns#"
   xmlns:rdf="http://www.w3.org/1999/02/22-rdf-syntax-ns#"
   xmlns:svg="http://www.w3.org/2000/svg"
   xmlns="http://www.w3.org/2000/svg"
   viewBox="0 0 133.34666 133.33333"
   height="133.33333"
   width="133.34666"
   xml:space="preserve"
   id="svg2"
   version="1.1"><metadata
     id="metadata8"><rdf:RDF><cc:Work
         rdf:about=""><dc:format>image/svg+xml</dc:format><dc:type
           rdf:resource="http://purl.org/dc/dcmitype/StillImage" /></cc:Work></rdf:RDF></metadata><defs
     id="defs6" /><g
     transform="matrix(1.3333333,0,0,-1.3333333,0,133.33333)"
     id="g10"><g
       transform="scale(0.1)"
       id="g12"><path
         id="path14"
         style="fill:#f5a428;fill-opacity:1;fill-rule:nonzero;stroke:none"
         d="m 409.434,627.383 c -47.661,-34.61 -115.141,0 -115.141,0 0,0 35.062,74.898 64.789,108.93 h 104.711 c 29.684,-34.032 64.793,-108.93 64.793,-108.93 0,0 -71.535,34.582 -119.152,0 z m 137.238,7.949 c -1.453,3.07 -30.711,65.211 -59.645,103.383 6.45,3.926 10.871,12.34 10.871,22.129 0,13.527 -8.488,24.504 -18.96,24.504 H 343.91 c -10.472,0 -18.933,-10.977 -18.933,-24.504 0,-9.789 4.41,-18.203 10.859,-22.129 -28.949,-38.172 -58.195,-100.313 -59.645,-103.383 l -1.765,-3.809 v -4.14 -347.344 c 0,-36.016 30.293,-65.387 67.476,-65.387 h 139.036 c 37.238,0 67.542,29.371 67.542,65.387 v 347.344 4.172 l -1.808,3.777" /><path
         id="path16"
         style="fill:#f5a428;fill-opacity:1;fill-rule:nonzero;stroke:none"
         d="m 642.441,373.992 c -19.851,-13.015 -69.175,0.309 -69.175,0.309 l -3.84,48.613 h 143.383 l -3.817,-49.18 c 0,0 -46.687,13.336 -66.551,0.258 z m -85.839,60.481 16.773,-214.059 h 135.547 l 16.754,214.059 H 556.602" /><path
         id="path18"
         style="fill:#f5a428;fill-opacity:1;fill-rule:nonzero;stroke:none"
         d="M 500.051,907.996 C 274.719,907.996 92.0508,725.332 92.0508,500 92.0508,274.668 274.719,92.0039 500.051,92.0039 c 225.332,0 408,182.6641 408,407.9961 0,225.332 -182.668,407.996 -408,407.996 z m 0,-38.246 c 203.879,0 369.75,-165.867 369.75,-369.75 0,-203.883 -165.871,-369.75 -369.75,-369.75 -203.883,0 -369.754,165.867 -369.754,369.75 0,203.883 165.871,369.75 369.754,369.75" /></g></g></svg>