<?xml version="1.0" encoding="UTF-8" standalone="no"?>
<svg
   xmlns:dc="http://purl.org/dc/elements/1.1/"
   xmlns:cc="http://creativecommons.org/ns#"
   xmlns:rdf="http://www.w3.org/1999/02/22-rdf-syntax-ns#"
   xmlns:svg="http://www.w3.org/2000/svg"
   xmlns="http://www.w3.org/2000/svg"
   viewBox="0 0 133.34666 133.33333"
   height="133.33333"
   width="133.34666"
   xml:space="preserve"
   id="svg2"
   version="1.1"><metadata
     id="metadata8"><rdf:RDF><cc:Work
         rdf:about=""><dc:format>image/svg+xml</dc:format><dc:type
           rdf:resource="http://purl.org/dc/dcmitype/StillImage" /></cc:Work></rdf:RDF></metadata><defs
     id="defs6" /><g
     transform="matrix(1.3333333,0,0,-1.3333333,0,133.33333)"
     id="g10"><g
       transform="scale(0.1)"
       id="g12"><path
         id="path14"
         style="fill:#f5a428;fill-opacity:1;fill-rule:nonzero;stroke:none"
         d="m 505.141,441.617 c -5,-5.074 -28.286,0 -28.286,0 H 299.141 c 0,0 -21.969,-4.785 -26.684,0 -4.398,4.457 0,25.235 0,25.235 v 51.336 c 0,0 -7.98,37.671 0,45.761 3.836,3.895 21.719,0 21.719,0 H 481.82 c 0,0 19.2,4.18 23.321,0 3.242,-3.285 0,-18.582 0,-18.582 v -76.504 c 0,0 4.754,-22.433 0,-27.246 z m 52.203,-4.211 c 0,37.793 -3.352,121.09 -4.785,158.539 -0.735,19.004 -3.813,67.196 -3.813,67.196 0,0 10.16,19.984 6.789,23.402 -3.801,3.852 -28.293,-4.07 -28.293,-4.07 0,0 -132.73,9.226 -175.726,9.226 -29.039,0 -112.438,-9.226 -112.438,-9.226 0,0 -21.148,12.07 -24.57,8.601 -2.848,-2.886 5.211,-24.918 5.211,-24.918 0,0 6.703,-45.351 6.703,-61.941 0,-40.031 -12.676,-136.875 -13.359,-182.66 -0.399,-26.285 6.656,-104.946 6.656,-104.946 0,0 -9.469,-21.211 -5.824,-24.91 3.425,-3.469 25.183,3.969 25.183,3.969 0,0 175.91,-8.273 233.809,-8.273 12.285,0 46.91,8.273 46.91,8.273 0,0 31.308,-12.176 36.426,-6.984 4.832,4.902 -7.477,34.722 -7.477,34.722 0,0 8.598,85.879 8.598,114" /><path
         id="path16"
         style="fill:#f5a428;fill-opacity:1;fill-rule:nonzero;stroke:none"
         d="m 744.516,374.973 c 2.808,4.418 3.582,8.949 3.726,13.582 0.074,2.164 2.332,6.34 -2.734,5.3 -3.766,-0.769 -10.391,2.301 -10.031,-5.906 0.269,-6.176 5.429,-8.746 9.039,-12.976 z m -30.063,-81.668 c 3.945,2.84 3.828,5.715 4.555,8.215 7.883,27.058 6.515,54.277 1.312,81.55 -0.34,1.797 0.41,4.426 -2.121,4.926 -2.285,0.449 -4.168,-1.141 -5.715,-2.754 -1.82,-1.89 -1.765,-4.437 -2.207,-6.847 -3.129,-17.133 -0.89,-34.235 0.407,-51.309 0.832,-10.898 2.398,-21.738 3.769,-33.781 z m -24.98,87.402 c 3.617,5.031 4.703,11.598 11.015,13.625 2.457,0.785 2.418,2.438 0.899,4.57 -10.742,15.086 -22.559,28.797 -39.356,37.696 -7.172,3.797 -13.121,4.031 -19.722,-0.192 -1.746,-1.117 -3.325,-2.965 -6.211,-2.578 -0.379,3.527 1.593,6.098 3.804,8.164 4.965,4.625 1.918,5.895 -2.406,7.793 -10.578,4.649 -21.164,1.504 -31.769,0.742 -2.129,-0.152 -4.235,-1.402 -6.446,-0.152 -0.695,3.41 3.903,3.52 3.961,7.34 -6.918,0.863 -13.969,1.75 -21.015,2.629 12.73,5.375 25.941,1.711 39.007,2.84 -11.882,6.175 -24.879,9.113 -36.492,15.902 11.457,3.414 22.664,0.059 34.352,-1.727 -1.559,4.321 -5.281,6.961 -6.258,12.075 10.539,-2.864 17.769,-10.032 27.191,-15.469 -1.824,8.078 3.723,11.98 7.332,16.926 2.731,3.734 6.082,3.64 9.707,1.804 3.27,-1.656 4.497,-3.437 0.629,-6.203 -1.054,-0.754 0.86,-2.5 1.696,-3.637 2.464,-3.351 5.55,-6.406 7.32,-10.089 4.605,-9.653 12.473,-12.899 22.969,-12.844 -3.258,5.082 -8.739,7.336 -12.215,11.609 -1.18,1.461 -3.481,2.746 -2.41,4.899 1.082,2.168 3.429,1.168 5.277,0.832 1.68,-0.305 3.324,-0.809 4.961,-1.285 11.676,-3.414 18.336,2.132 17.434,14.484 -0.247,3.301 -2.332,6.504 3.175,8.797 3.059,1.269 -8.933,33.988 -6.492,40.808 2.035,5.696 -1.797,10.954 -4.664,15.676 -2.555,4.215 -4.437,8.176 -2.621,13.071 0.535,1.453 0.711,2.746 -0.121,4.191 -4.621,8.012 -20.434,9.43 -25.774,2.062 -4.304,-5.929 -10.824,-5.546 -16.597,-5.601 -11.059,-0.106 -21.414,14.961 -18.477,25.535 1.047,3.75 3.324,3.824 6.153,2.68 2.859,-1.157 5.621,-2.551 9.031,-4.121 0.574,4.593 -1.902,7.277 -3.18,10.265 -2.48,5.824 -1.812,10.746 4.18,13.621 2.598,1.246 3.699,2.442 2.113,4.864 -2.305,3.527 -4.277,6.851 -3.957,11.496 0.195,2.804 -2.152,2.215 -4.164,1.043 -15.031,-8.739 -30.418,-1.934 -34.883,15.234 -0.472,1.813 -1.801,3.43 -2.844,5.066 -1.925,3 -2.003,5.274 1.704,7.082 4.707,2.297 5.312,4.958 -0.016,7.454 -1.352,0.632 -2.996,1.683 -2.539,3.214 2.391,7.965 -3.391,7.493 -8.125,8.407 -2.848,0.55 -6.149,0.883 -8.266,2.566 -3.359,2.668 -7.261,6.067 -7.015,10.672 0.297,5.5 6.89,3.316 9.91,6.398 -5.121,2.852 -10.535,5.133 -15.047,8.606 -4.168,3.203 -12.363,5.808 -5.223,13.754 0.754,0.836 0.465,2.008 -0.351,2.621 -5.043,3.805 -5.317,9.641 -6.485,15.098 -0.382,1.796 -1.367,3.625 -3.027,3.859 -7.117,1.004 -10.711,7.973 -17.363,9.91 -4.266,1.246 -7.547,4.391 -9.086,8.961 -1.367,4.063 -4.141,7.066 -7.254,9.961 -10.758,9.988 -21.645,19.961 -35.227,25.781 -6.293,2.699 -11.636,6.719 -17.597,9.684 -4.953,2.461 -7.41,6.304 -9.075,10.89 -2.722,7.555 -0.16,11.766 7.793,12.821 14.715,1.953 29.067,1.465 42.676,-5.844 3.918,-2.105 9.168,-1.453 13.453,-1.5 14.059,-0.148 26.996,-5.793 41.047,-6.633 13.129,-0.781 26.641,-4.832 38.61,-11.531 4.043,-2.262 6.808,-6.285 7.914,-11.106 0.41,-1.808 0.273,-3.972 2.558,-4.746 0.516,0.387 0.973,0.59 1.242,0.938 1.875,2.437 -2.996,7.246 1.95,7.988 4.871,0.738 10.468,1.106 14.199,-3.683 2.91,-3.747 4.668,-7.317 11.265,-7.145 5.848,0.148 8.583,-7.168 10.668,-12.746 1.43,-3.813 1.75,-8 7.387,-3.106 4.215,3.661 9.957,-0.984 11.82,-9.082 3.141,0.86 4.426,6.95 8.18,4.372 4.531,-3.11 9.57,-7.754 8.297,-13.715 -1.754,-8.203 1.168,-14.457 4.82,-21.032 1.231,-2.211 1.723,-4.058 4.645,-1.789 2.199,1.715 4.074,7.102 7.238,3.641 3.133,-3.43 7.785,-7.074 6.438,-13.195 -0.668,-3.039 -1.778,-6.078 -1.207,-9.227 1.832,-0.82 2.855,0.613 4.172,1.051 3.636,1.203 7.652,5.832 10.984,0.808 2.98,-4.476 4.637,-10.296 0.43,-15.085 -4.289,-4.899 -4.504,-6.418 1.867,-10.711 9.453,-6.356 15.043,-16.27 12.246,-29.207 -1.68,-7.77 6.832,-19.215 6.898,-19.532 1.567,-7.297 8.668,-9.207 12.719,-13.898 2.492,-2.887 -0.125,-8.078 -2.758,-11.481 -2.34,-3.015 -3.554,-6.175 -3.863,-10.043 -0.508,-6.312 -3.109,-11.625 -8.234,-15.808 -4.536,-3.695 -6.899,-8.067 0.07,-12.031 3.746,-2.129 2.008,-8.18 7.062,-9.61 3.692,-1.051 7.149,-2.926 11.278,-4.676 -2.535,-3.968 -5.785,-3.367 -8.418,-0.957 -5.035,4.614 -9.805,4.782 -14.578,0.106 -6.477,-6.348 -13.684,-4.586 -20.946,-2.207 -8.875,2.902 -6.332,-5.824 -8.836,-9.094 -2.593,-3.383 1.5,-22.273 3.911,-24.219 6.796,-5.453 1.777,-29.265 7.3,-33.988 5.907,-5.055 7.114,-13.32 8.235,-20.805 1.621,-10.879 5.668,-20.578 11.664,-29.609 2.957,0.605 2.312,3.012 2.5,4.738 1.992,18.52 7.836,35.867 15.476,52.703 0.797,1.743 1.875,3.879 1.5,5.532 -1.261,5.55 -0.152,8.218 6.2,8.371 3.71,0.086 4.449,4.058 4.738,7.332 0.328,3.711 1.543,6.047 5.914,5.445 4.203,-0.578 6.445,1.992 7.094,5.789 1.332,7.778 6.289,11.094 13.562,12.215 3.09,0.473 6.051,1.734 9.699,2.828 -0.25,-2.82 0.34,-5.379 2.77,-7.312 1.625,-1.297 -8.262,-6.243 -9.66,-8.891 -2.52,-4.781 -3.301,-10.074 -5.106,-15.047 -1.043,-2.863 -6.777,-10.941 -8.363,-14.777 -1.926,-4.645 -5.766,-7.754 -9.344,-11.149 -7.586,-7.187 -13.597,-15.254 -12.246,-26.734 0.391,-3.301 -1.094,-6.266 -3.027,-8.871 -1.895,-2.555 -3.988,-4.961 -5.949,-7.465 -1.77,-2.262 -5.051,-4.82 -3.157,-7.508 1.84,-2.613 4.871,0.449 7.168,1.34 15.485,6.024 30.922,12.066 47.68,13.668 4.102,0.391 8,2.039 11.758,3.926 16.383,8.211 34.246,9.015 52,10.222 1.836,0.129 3.965,0.293 5.5,-1.894 -22.625,-11.953 -45,-23.652 -71.356,-25.492 -15.468,-1.078 -31.246,-1.891 -46.125,-7.371 -2.175,-0.801 -4.863,-0.809 -6.5,-4.078 15.071,0.296 30.028,2.472 45.172,-4.336 -2.812,-2.004 -4.609,-1.098 -6.316,-0.758 -10.824,2.168 -21.363,0.414 -31.828,-2.332 -1.446,-0.383 -3.11,-0.949 -2.719,-2.77 0.41,-1.933 2.285,-1.676 3.633,-1.222 17.304,5.871 34.355,1.003 51.371,-1.512 6.426,-0.953 11.871,0.281 17.629,2.648 9.144,3.774 18.554,4.969 28.203,-0.168 -7.219,-1.59 -14.387,-3.468 -21.66,-4.675 -5.375,-0.887 -1.371,-3.094 -0.891,-4.989 -5.836,-0.761 -11.844,0.242 -17.254,-2.91 1.289,-3.441 6.055,-1.871 7.375,-5.629 -13.586,-1.25 -27.023,-2.492 -41.875,-3.859 6.473,-3.699 11.735,-7.098 16.25,-14.473 -11.086,5.028 -20.586,8.516 -30.578,10.367 -2.398,0.442 -4.762,1.168 -7.176,1.403 -12.113,1.168 -12.922,0.425 -14.937,-11.742 -0.637,-3.86 -1.258,-7.84 -2.703,-11.426 -9.262,-23.02 -9.157,-48.02 -15.215,-71.676 -4.707,-18.363 -10.301,-36.512 -15.762,-54.676 -3.594,-11.965 -7.566,-23.82 -11.531,-35.672 -1.727,-5.14 -13.512,-8.972 -17.969,-6.05 -2.461,1.617 -0.723,3.605 -0.238,5.246 3.387,11.527 6.469,23.183 10.535,34.472 8.324,23.117 7.09,46.699 4.852,70.516 -1.969,20.996 -3.84,42.047 -1.024,63.141 0.543,4.058 -0.383,6.281 -5.066,5.167 -3.043,-0.722 -6.164,-1.109 -9.25,-1.648" /><path
         id="path18"
         style="fill:#f5a428;fill-opacity:1;fill-rule:nonzero;stroke:none"
         d="m 502.891,912.051 c -226.45,0 -410.0238,-183.574 -410.0238,-410.024 0,-226.453 183.5738,-410.0231 410.0238,-410.0231 226.449,0 410.023,183.5701 410.023,410.0231 0,226.45 -183.574,410.024 -410.023,410.024 z m 0,-38.442 c 204.89,0 371.582,-166.691 371.582,-371.582 0,-204.894 -166.692,-371.589 -371.582,-371.589 -204.895,0 -371.586,166.695 -371.586,371.589 0,204.891 166.691,371.582 371.586,371.582" /></g></g></svg>