<?xml version="1.0" encoding="UTF-8" standalone="no"?>
<svg
   xmlns:dc="http://purl.org/dc/elements/1.1/"
   xmlns:cc="http://creativecommons.org/ns#"
   xmlns:rdf="http://www.w3.org/1999/02/22-rdf-syntax-ns#"
   xmlns:svg="http://www.w3.org/2000/svg"
   xmlns="http://www.w3.org/2000/svg"
   viewBox="0 0 133.34666 133.33333"
   height="133.33333"
   width="133.34666"
   xml:space="preserve"
   id="svg2"
   version="1.1"><metadata
     id="metadata8"><rdf:RDF><cc:Work
         rdf:about=""><dc:format>image/svg+xml</dc:format><dc:type
           rdf:resource="http://purl.org/dc/dcmitype/StillImage" /></cc:Work></rdf:RDF></metadata><defs
     id="defs6" /><g
     transform="matrix(1.3333333,0,0,-1.3333333,0,133.33333)"
     id="g10"><g
       transform="scale(0.1)"
       id="g12"><path
         id="path14"
         style="fill:#f5a428;fill-opacity:1;fill-rule:nonzero;stroke:none"
         d="M 448.227,292.578 C 560.945,323.727 666.492,368.684 763.176,430.703 674.109,354.023 568.809,308.594 448.227,292.578 Z M 396.98,306.273 C 515.016,377.328 640.168,439.27 737.887,536.34 650.355,426.223 525.57,363.809 396.98,306.273 Z m -30.578,21.399 C 465.703,436.582 570.707,541.125 661.879,656.684 584.855,530.715 478.391,427.066 366.402,327.672 Z M 561.121,717.441 C 487.535,600.973 415.414,483.773 351.711,362.289 398.262,492.262 472.383,608.512 561.121,717.441 Z M 334.449,401.016 C 327.086,542.652 397.195,658.328 475.582,771.23 415.113,652.313 342.984,537.266 334.449,401.016 Z m -32.75,-2.399 c -11.633,119.414 0.199,236.317 46.156,349.352 C 320.328,632.867 310.211,515.895 301.699,398.617 Z m 492.172,146.68 C 766.91,691.785 628.699,797.305 462.305,797.758 392.027,800.289 326.113,777.75 269.535,731 237.266,704.336 217.012,671.316 211,629.68 c -7.543,-52.254 3.668,-101.575 19.668,-150.594 5.332,-16.336 7.812,-30.641 -6.773,-45.277 -30.758,-30.883 -29.215,-42.739 6.496,-67.996 11.265,-7.969 23.625,-14.922 36.351,-20.5 28.731,-12.586 55.629,-26.692 73.602,-53.168 9.136,-13.469 24.883,-16.133 40.375,-15.231 21.043,1.231 36.629,-6.633 49.945,-21.715 10.375,-11.754 22.016,-22.566 33.774,-33.113 33.765,-30.285 55.914,-26.688 71.914,14.422 8.992,23.101 23.222,34.308 47.949,36.91 12.894,1.363 25.383,6.035 38.164,8.73 146.644,30.895 190.152,161.321 171.406,263.149" /><path
         id="path16"
         style="fill:#f5a428;fill-opacity:1;fill-rule:nonzero;stroke:none"
         d="M 500.051,910.051 C 273.598,910.051 90.0234,726.477 90.0234,500.023 90.0234,273.574 273.598,90 500.051,90 726.5,90 910.074,273.574 910.074,500.023 c 0,226.454 -183.574,410.028 -410.023,410.028 z m 0,-38.442 c 204.89,0 371.586,-166.691 371.586,-371.586 0,-204.89 -166.696,-371.585 -371.586,-371.585 -204.895,0 -371.582,166.695 -371.582,371.585 0,204.895 166.687,371.586 371.582,371.586" /></g></g></svg>