<?xml version="1.0" encoding="UTF-8" standalone="no"?>
<svg
   xmlns:dc="http://purl.org/dc/elements/1.1/"
   xmlns:cc="http://creativecommons.org/ns#"
   xmlns:rdf="http://www.w3.org/1999/02/22-rdf-syntax-ns#"
   xmlns:svg="http://www.w3.org/2000/svg"
   xmlns="http://www.w3.org/2000/svg"
   viewBox="0 0 133.34666 133.33333"
   height="133.33333"
   width="133.34666"
   xml:space="preserve"
   id="svg2"
   version="1.1"><metadata
     id="metadata8"><rdf:RDF><cc:Work
         rdf:about=""><dc:format>image/svg+xml</dc:format><dc:type
           rdf:resource="http://purl.org/dc/dcmitype/StillImage" /></cc:Work></rdf:RDF></metadata><defs
     id="defs6" /><g
     transform="matrix(1.3333333,0,0,-1.3333333,0,133.33333)"
     id="g10"><g
       transform="scale(0.1)"
       id="g12"><path
         id="path14"
         style="fill:#f5a428;fill-opacity:1;fill-rule:nonzero;stroke:none"
         d="m 589.047,313.676 c 0,0 -75.274,-6.086 -101.781,-5.985 -23.301,0.086 -88.926,5.985 -88.926,5.985 v 197.34 c 0,0 65.371,-8.157 88.926,-8.157 26.164,0 101.781,8.157 101.781,8.157 z m 48.078,178.703 c -0.051,10.254 -1.207,20.512 -1.773,30.762 -0.196,3.589 -0.911,7.175 -1.172,10.761 -0.348,4.629 -1.09,9.246 -1.539,13.868 -0.512,5.304 -1.746,10.5 -3.364,15.593 -3.031,9.547 -7.48,18.508 -12.269,27.274 -7.246,13.254 -15.637,25.816 -24.43,38.101 -6.43,8.977 -13.129,17.77 -20.058,26.367 -0.332,0.415 -0.68,0.817 -0.977,1.25 -0.383,0.547 -0.305,0.895 0.277,1.321 0.243,0.179 0.5,0.332 0.762,0.484 0.898,0.512 1.18,1.317 1.086,2.285 -0.328,3.438 -0.129,6.883 -0.234,10.325 -0.028,0.675 0.019,1.375 -0.153,2.007 -0.222,0.828 -0.261,1.61 -0.101,2.434 0.113,0.586 0.125,1.191 0.14,1.793 0.172,8.457 -0.035,16.914 0.43,25.371 0.211,3.809 0.098,7.637 0.121,11.453 0.02,2.543 0.07,5.094 0.012,7.637 -0.031,1.207 -0.074,2.363 0.465,3.5 0.437,0.937 0.226,1.91 -0.227,2.824 -0.437,0.887 -1.086,1.609 -1.848,2.246 -0.925,0.778 -1.96,1.391 -3.039,1.938 -2.496,1.269 -5.109,2.246 -7.793,3.031 -4.937,1.445 -9.961,2.492 -15.039,3.266 -2.613,0.398 -5.234,0.738 -7.851,1.093 -1.344,0.184 -2.25,0.797 -2.406,2.239 -0.047,0.371 -0.168,0.734 -0.243,1.097 -5.922,29.219 -11.839,58.438 -17.757,87.653 -0.747,3.671 -1.512,7.339 -2.231,11.011 -0.226,1.164 -0.695,2.114 -1.73,2.77 -5.789,3.644 -11.262,3.66 -17.028,0.082 -0.871,-0.543 -1.437,-1.305 -1.652,-2.317 -0.156,-0.73 -0.316,-1.46 -0.465,-2.195 -1.719,-8.515 -3.43,-17.035 -5.152,-25.555 -4.797,-23.789 -9.598,-47.578 -14.403,-71.359 -0.117,-0.586 -0.254,-1.172 -0.402,-1.754 -0.211,-0.801 -0.707,-1.305 -1.551,-1.43 -0.972,-0.14 -1.937,-0.308 -2.91,-0.429 -6.68,-0.836 -13.312,-1.926 -19.805,-3.692 -3.503,-0.949 -6.925,-2.129 -10.125,-3.875 -1.203,-0.656 -2.293,-1.437 -3.234,-2.425 -1.113,-1.164 -1.656,-2.508 -1.289,-4.106 0.25,-1.109 0.25,-2.226 0.25,-3.355 0.012,-6.739 0.027,-13.477 0.043,-20.215 0.019,-7.938 0.027,-15.871 0.055,-23.813 0.004,-0.898 -0.086,-1.843 0.168,-2.675 0.359,-1.18 0.265,-2.309 0.246,-3.5 -0.055,-3.668 -0.149,-7.34 0.215,-10.997 0.125,-1.328 -0.071,-2.511 -0.829,-3.628 -1.597,-2.364 -3.113,-4.786 -4.73,-7.133 -6.18,-8.965 -12.41,-17.891 -18.578,-26.867 -5.356,-7.797 -10.61,-15.665 -15.629,-23.684 -6.172,-9.863 -12.141,-19.848 -16.953,-30.461 -2.899,-6.387 -5.238,-12.934 -5.992,-19.937 -0.543,-5.063 -1.055,-10.129 -1.375,-15.204 -0.414,-6.347 -0.664,-12.711 -0.895,-19.066 -0.254,-6.809 -0.035,-13.621 -0.441,-20.434 -0.207,-3.504 -0.106,-7.035 -0.078,-10.554 0.113,-15.645 -0.207,-31.289 0.32,-46.938 0.344,-10.472 -0.035,-20.957 0.445,-31.437 0.34,-7.403 0.051,-14.821 0.449,-22.227 0.34,-6.199 0.094,-12.422 0.442,-18.633 0.336,-6.05 0.117,-12.125 0.476,-18.183 0.301,-4.926 0.133,-9.871 0.426,-14.813 0.313,-5.301 0.16,-10.621 0.492,-15.933 0.266,-4.258 0.188,-8.528 0.403,-12.793 0.261,-5.301 0.3,-10.621 0.55,-15.934 0.157,-3.437 0.157,-6.879 0.364,-10.32 0.293,-4.926 0.211,-9.875 0.531,-14.813 0.203,-3.133 0.184,-6.277 0.375,-9.418 0.324,-5.379 0.484,-10.769 0.57,-16.156 0.055,-3.383 0.364,-6.727 0.942,-10.055 1.73,-10.066 5.648,-19.218 11.8,-27.422 0.922,-1.234 2.036,-2.171 3.422,-2.855 3.118,-1.539 6.282,-2.953 9.508,-4.238 15.5,-6.157 31.598,-10.121 48.063,-12.703 5.746,-0.907 11.515,-1.61 17.3,-2.106 3.008,-0.265 6.012,-0.594 9.04,-0.637 2.339,-0.035 4.671,-6.886 7.007,-7.078 0.446,-0.035 0.875,5.789 1.313,-6.925 6.344,0 12.691,0 19.039,0 0.855,12.714 1.762,6.957 2.672,6.988 5.203,0.179 10.418,3.547 15.613,3.887 5.648,0.371 11.305,2.289 16.945,2.792 8.36,0.747 16.672,2.571 24.926,4.036 7.371,1.3 14.649,3.41 21.785,5.664 7.793,2.453 15.332,5.711 22.469,9.711 2.832,1.589 5.492,3.539 8.195,5.32 0.832,0.547 1.493,1.305 2.067,2.105 6.035,8.387 9.875,17.696 11.211,27.914 0.449,3.407 0.48,6.879 0.582,10.325 0.23,7.703 0.25,15.429 0.625,23.129 0.25,5.168 0.117,10.336 0.426,15.488 0.367,6.062 0.136,12.133 0.476,18.187 0.332,5.836 0.109,11.688 0.43,17.512 0.386,7.035 0.113,14.082 0.48,21.102 0.371,7.187 0.121,14.375 0.41,21.558 0.633,15.719 2.707,31.446 2.891,47.164 0.008,0.907 2.777,1.785 2.777,2.66 0,27.415 0,54.825 0,82.239 0,0.871 -2.773,1.758 -2.777,2.66" /><path
         id="path16"
         style="fill:#f5a428;fill-opacity:1;fill-rule:nonzero;stroke:none"
         d="M 500.051,912.047 C 275.359,912.047 93.2148,729.898 93.2148,505.211 93.2148,280.52 275.359,98.3672 500.051,98.3672 c 224.691,0 406.84,182.1528 406.84,406.8438 0,224.687 -182.149,406.836 -406.84,406.836 z m 0,-38.141 c 203.301,0 368.695,-165.398 368.695,-368.695 0,-203.301 -165.394,-368.703 -368.695,-368.703 -203.305,0 -368.699,165.402 -368.699,368.703 0,203.297 165.394,368.695 368.699,368.695" /></g></g></svg>