<?xml version="1.0" encoding="UTF-8" standalone="no"?>
<svg
   xmlns:dc="http://purl.org/dc/elements/1.1/"
   xmlns:cc="http://creativecommons.org/ns#"
   xmlns:rdf="http://www.w3.org/1999/02/22-rdf-syntax-ns#"
   xmlns:svg="http://www.w3.org/2000/svg"
   xmlns="http://www.w3.org/2000/svg"
   viewBox="0 0 133.34666 133.33333"
   height="133.33333"
   width="133.34666"
   xml:space="preserve"
   id="svg2"
   version="1.1"><metadata
     id="metadata8"><rdf:RDF><cc:Work
         rdf:about=""><dc:format>image/svg+xml</dc:format><dc:type
           rdf:resource="http://purl.org/dc/dcmitype/StillImage" /></cc:Work></rdf:RDF></metadata><defs
     id="defs6" /><g
     transform="matrix(1.3333333,0,0,-1.3333333,0,133.33333)"
     id="g10"><g
       transform="scale(0.1)"
       id="g12"><path
         id="path14"
         style="fill:#f5a428;fill-opacity:1;fill-rule:nonzero;stroke:none"
         d="m 593.121,264.633 c -8.957,-8.719 -19.308,-13.465 -29.273,-13.465 -0.442,0 -0.875,0.008 -1.297,0.023 -12.547,0.528 -27.879,6.219 -29.715,30.407 l -0.008,0.394 c -0.262,16.996 7.695,35.856 20.727,49.223 8.883,9.098 18.894,14.152 28.238,14.254 0.164,0 0.332,0 0.512,0 19.769,0 29.98,-11.918 30.351,-35.446 0.235,-16.035 -7.246,-33.429 -19.535,-45.39 z M 472.227,190.844 c -0.504,-0.024 -1,-0.039 -1.504,-0.039 -7.262,0 -13.844,2.586 -19.086,7.508 -6.969,6.542 -10.895,16.675 -11.074,28.527 v 0.015 c -0.231,15.958 7.722,34.458 20.273,47.133 8.875,8.957 18.984,13.895 28.477,13.895 0.039,0 0.062,0 0.101,0 13.891,-0.051 30.66,-6.238 31.637,-35.383 0.906,-27.117 -25.559,-60.551 -48.824,-61.656 z m -71.211,17.269 c -0.258,0 -0.52,-0.011 -0.774,-0.011 -9.183,0 -18.91,4.593 -27.476,12.984 -13.114,12.84 -21.168,31.656 -21.036,49.129 l 0.008,0.308 c 1.489,27.457 18.196,32.586 32.598,32.227 23.027,-0.758 47.34,-30.824 47.273,-58.512 -0.078,-29.16 -16.675,-35.742 -30.593,-36.125 z m -59.707,96.754 c -0.899,-0.054 -1.766,-0.078 -2.625,-0.078 -24.852,0 -29.164,21.973 -32.039,36.691 -0.551,2.758 -1.075,5.489 -1.704,8.067 l -0.347,1.41 1.414,7.434 c 3.394,18.597 8.055,44.074 37.328,45.55 9.789,0.489 17.703,-2.128 23.633,-7.773 10.531,-10.02 11.746,-26.891 11.746,-38.707 -0.024,-41.641 -20.356,-51.598 -37.406,-52.594 z m 43.246,194.567 c 9.543,8.707 19.972,13.101 29.25,12.308 25.785,-2.14 27.812,-24.89 28.476,-32.371 l 0.028,-0.539 c 0.113,-17.742 -8.356,-37.422 -21.579,-50.133 -8.363,-8.047 -17.792,-12.429 -26.699,-12.429 -0.41,0 -0.816,0.007 -1.215,0.039 -11.586,0.523 -30.98,5.976 -30.8,36.39 0.101,15.949 8.941,34.293 22.539,46.735 z m 78.41,-130.684 c 0.023,-15.699 -8.672,-34.238 -22.145,-47.23 -8.918,-8.598 -18.636,-13.293 -27.504,-13.293 -0.324,0 -0.628,0 -0.937,0.015 -12.852,0.485 -28.492,6.719 -29.992,33.672 -0.848,15.395 6.133,33.137 18.215,46.324 9.121,9.953 19.64,15.625 29.632,15.946 8.356,0.254 16.422,-2.68 22.262,-8.34 6.731,-6.504 10.453,-16.121 10.469,-27.094 z m 1.625,129.57 c 8.57,8.141 18.23,12.356 26.84,12.086 13.379,-0.523 29.504,-6.847 30.273,-34.023 v -0.332 c -0.41,-17.629 -9.277,-37.113 -22.594,-49.633 -8.093,-7.609 -16.711,-11.598 -25,-11.598 -0.336,0 -0.668,0 -1,0.008 -13.894,0.555 -30.39,7.402 -30.004,37.004 0.192,16.02 8.633,34.262 21.485,46.488 z m 87.348,-129.222 c 0.796,-14.856 -6.364,-32.379 -18.676,-45.719 -9.207,-10.012 -19.641,-15.664 -29.367,-15.934 -0.434,-0.011 -0.86,-0.011 -1.278,-0.011 -27.301,0 -30.121,24.476 -31.058,32.593 l -0.039,0.664 c -0.231,16.286 7.418,34.207 19.96,46.766 9.122,9.145 19.59,14.16 29.516,14.16 0.133,0 0.242,0 0.359,0 13.192,-0.168 29.204,-5.937 30.583,-32.519 z M 593.777,827.98 C 501.648,833.676 432.184,782.48 420.918,691.824 412.168,621.348 390.613,558.02 345.133,501.672 318.121,468.203 301.379,428.832 292.996,386.5 271.113,275.953 360.059,171.293 479.973,171.785 c 26.394,-1.531 54.582,5.988 81.027,20.805 77.063,43.152 122.359,133.598 108.965,221.086 -7.996,52.215 -3.754,102.613 15.383,152.117 13.035,33.727 23.406,68.312 34.109,102.852 20.43,65.925 -46.41,154.429 -125.68,159.335" /><path
         id="path16"
         style="fill:#f5a428;fill-opacity:1;fill-rule:nonzero;stroke:none"
         d="M 500.051,907.996 C 274.719,907.996 92.0508,725.332 92.0508,500 92.0508,274.668 274.719,92.0039 500.051,92.0039 c 225.332,0 408,182.6641 408,407.9961 0,225.332 -182.668,407.996 -408,407.996 z m 0,-38.246 c 203.879,0 369.75,-165.867 369.75,-369.75 0,-203.883 -165.871,-369.75 -369.75,-369.75 -203.883,0 -369.754,165.867 -369.754,369.75 0,203.883 165.871,369.75 369.754,369.75" /></g></g></svg>