<?xml version="1.0" encoding="UTF-8" standalone="no"?>
<svg
   xmlns:dc="http://purl.org/dc/elements/1.1/"
   xmlns:cc="http://creativecommons.org/ns#"
   xmlns:rdf="http://www.w3.org/1999/02/22-rdf-syntax-ns#"
   xmlns:svg="http://www.w3.org/2000/svg"
   xmlns="http://www.w3.org/2000/svg"
   viewBox="0 0 133.34666 133.33333"
   height="133.33333"
   width="133.34666"
   xml:space="preserve"
   id="svg2"
   version="1.1"><metadata
     id="metadata8"><rdf:RDF><cc:Work
         rdf:about=""><dc:format>image/svg+xml</dc:format><dc:type
           rdf:resource="http://purl.org/dc/dcmitype/StillImage" /></cc:Work></rdf:RDF></metadata><defs
     id="defs6" /><g
     transform="matrix(1.3333333,0,0,-1.3333333,0,133.33333)"
     id="g10"><g
       transform="scale(0.1)"
       id="g12"><path
         id="path14"
         style="fill:#f5a428;fill-opacity:1;fill-rule:nonzero;stroke:none"
         d="m 674.145,357.617 c -35.993,26.809 -53.165,88.012 -30.707,115 21.113,25.367 45.761,18.09 68.554,1.77 34.442,-24.668 51.168,-89.035 31.09,-115.973 -14.762,-19.805 -42.977,-20.133 -68.937,-0.797" /><path
         id="path16"
         style="fill:#f5a428;fill-opacity:1;fill-rule:nonzero;stroke:none"
         d="m 349.746,312.285 c -24.453,27.496 -57.418,56.215 -30.074,93.086 25.68,34.617 61.965,14.149 87.652,-5.562 29.309,-22.481 57.531,-54.86 30.996,-91.336 -25.625,-35.219 -59.277,-9.43 -88.574,3.812" /><path
         id="path18"
         style="fill:#f5a428;fill-opacity:1;fill-rule:nonzero;stroke:none"
         d="m 305.199,615.758 c 39.551,-29.938 55.969,-91.399 32.504,-117.195 -22.144,-24.352 -46.863,-17.387 -69.019,-0.196 -35.52,27.551 -49.286,91.926 -25.446,116.227 21.375,21.797 43.457,12.98 61.961,1.164" /><path
         id="path20"
         style="fill:#f5a428;fill-opacity:1;fill-rule:nonzero;stroke:none"
         d="m 483.578,523.727 c 34.434,-26.317 50.91,-91.391 28.43,-116.547 -20.246,-22.66 -43.508,-16.16 -64.817,-1.559 -37.078,25.399 -54.187,87.383 -32.894,115.039 15.922,20.672 44.582,21.942 69.281,3.067" /><path
         id="path22"
         style="fill:#f5a428;fill-opacity:1;fill-rule:nonzero;stroke:none"
         d="m 546.875,522.152 c -37.844,28.215 -52.598,88.899 -29.52,116.129 19.625,23.16 42.278,18.145 63.606,3.442 35.262,-24.301 52.754,-87.793 31.859,-114.633 -20.672,-26.559 -44.465,-17.914 -65.945,-4.938" /><path
         id="path24"
         style="fill:#f5a428;fill-opacity:1;fill-rule:nonzero;stroke:none"
         d="m 697.063,539.75 c -38.434,28.602 -55.477,91.27 -33.938,117.922 21.508,26.609 45.188,17.305 67.539,0.68 37.422,-27.829 50.996,-86.719 26.481,-113.95 -20.309,-22.547 -42.047,-16.507 -60.082,-4.652" /><path
         id="path26"
         style="fill:#f5a428;fill-opacity:1;fill-rule:nonzero;stroke:none"
         d="m 515.742,286.738 c -19.547,16.66 -30.769,37.317 -8.558,62.457 22.046,24.953 84.281,24.071 118.277,-2.093 22.078,-17 35.844,-37.84 15.363,-64.172 -21.445,-27.586 -86.758,-26.02 -125.082,3.808" /><path
         id="path28"
         style="fill:#f5a428;fill-opacity:1;fill-rule:nonzero;stroke:none"
         d="m 395.762,718.18 c 37.367,-29.961 53.625,-90.52 31.855,-114.828 -22.328,-24.934 -46.531,-16.051 -68.883,1.507 -34.32,26.957 -50.254,87.059 -28.32,111.551 22.375,24.981 46.297,15.57 65.348,1.77" /><path
         id="path30"
         style="fill:#f5a428;fill-opacity:1;fill-rule:nonzero;stroke:none"
         d="m 503.227,905.461 c -223.575,0 -404.8168,-181.242 -404.8168,-404.82 0,-223.575 181.2418,-404.8207 404.8168,-404.8207 223.582,0 404.824,181.2457 404.824,404.8207 0,223.578 -181.242,404.82 -404.824,404.82 z m 0,-37.949 c 202.296,0 366.871,-164.578 366.871,-366.871 0,-202.289 -164.575,-366.871 -366.871,-366.871 -202.289,0 -366.864,164.582 -366.864,366.871 0,202.293 164.575,366.871 366.864,366.871" /></g></g></svg>