<?xml version="1.0" encoding="UTF-8" standalone="no"?>
<svg
   xmlns:dc="http://purl.org/dc/elements/1.1/"
   xmlns:cc="http://creativecommons.org/ns#"
   xmlns:rdf="http://www.w3.org/1999/02/22-rdf-syntax-ns#"
   xmlns:svg="http://www.w3.org/2000/svg"
   xmlns="http://www.w3.org/2000/svg"
   viewBox="0 0 133.34666 133.33333"
   height="133.33333"
   width="133.34666"
   xml:space="preserve"
   id="svg2"
   version="1.1"><metadata
     id="metadata8"><rdf:RDF><cc:Work
         rdf:about=""><dc:format>image/svg+xml</dc:format><dc:type
           rdf:resource="http://purl.org/dc/dcmitype/StillImage" /></cc:Work></rdf:RDF></metadata><defs
     id="defs6" /><g
     transform="matrix(1.3333333,0,0,-1.3333333,0,133.33333)"
     id="g10"><g
       transform="scale(0.1)"
       id="g12"><path
         id="path14"
         style="fill:#f5a428;fill-opacity:1;fill-rule:nonzero;stroke:none"
         d="m 530.227,332.488 c -4.071,2.446 -8.747,3.645 -14.016,3.645 -3.762,0 -7.234,-0.66 -10.418,-2.016 -3.188,-1.344 -5.93,-3.301 -8.23,-5.887 -2.293,-2.566 -4.11,-5.843 -5.446,-9.847 -1.332,-3.985 -1.988,-8.485 -1.988,-13.461 0,-5.02 0.656,-9.57 1.988,-13.621 1.336,-4.059 3.211,-7.43 5.637,-10.094 2.426,-2.676 5.211,-4.68 8.355,-6.012 3.149,-1.316 6.59,-1.976 10.352,-1.976 4.805,0 9.227,1.14 13.258,3.441 4.031,2.285 7.234,5.82 9.629,10.606 2.379,4.777 3.574,10.656 3.574,17.656 0,6.461 -1.102,12.07 -3.293,16.808 -2.191,4.735 -5.328,8.333 -9.402,10.758" /><path
         id="path16"
         style="fill:#f5a428;fill-opacity:1;fill-rule:nonzero;stroke:none"
         d="m 613.738,243.707 c -0.824,-0.816 -2.074,-1.227 -3.742,-1.227 h -27.949 c -1.91,0 -3.379,0.493 -4.453,1.508 -1.063,0.989 -1.594,2.168 -1.594,3.512 0,0.875 0.344,2.027 1.027,3.469 0.684,1.426 1.442,2.551 2.243,3.367 3.367,3.324 6.41,6.176 9.121,8.555 2.707,2.382 4.64,3.941 5.808,4.691 2.074,1.395 3.793,2.793 5.188,4.195 1.379,1.414 2.426,2.868 3.148,4.352 0.719,1.473 1.082,2.934 1.082,4.351 0,1.551 -0.39,2.918 -1.156,4.145 -0.777,1.215 -1.824,2.172 -3.16,2.84 -1.332,0.676 -2.778,1.004 -4.344,1.004 -3.316,0 -5.934,-1.379 -7.828,-4.149 -0.25,-0.367 -0.676,-1.347 -1.274,-2.972 -0.589,-1.614 -1.261,-2.852 -2.003,-3.719 -0.754,-0.875 -1.848,-1.301 -3.289,-1.301 -1.27,0 -2.321,0.402 -3.161,1.192 -0.836,0.793 -1.25,1.875 -1.25,3.25 0,1.664 0.391,3.41 1.184,5.21 0.773,1.801 1.957,3.454 3.508,4.918 1.558,1.469 3.535,2.661 5.929,3.559 2.391,0.902 5.2,1.367 8.418,1.367 3.868,0 7.176,-0.59 9.911,-1.746 1.769,-0.765 3.32,-1.828 4.668,-3.18 1.343,-1.347 2.378,-2.902 3.136,-4.683 0.742,-1.777 1.117,-3.617 1.117,-5.512 0,-2.984 -0.777,-5.719 -2.335,-8.16 -1.555,-2.438 -3.141,-4.359 -4.77,-5.734 -1.613,-1.395 -4.34,-3.579 -8.145,-6.536 -3.808,-2.968 -6.425,-5.277 -7.839,-6.906 -0.614,-0.656 -1.239,-1.433 -1.864,-2.355 h 19.825 c 1.968,0 3.476,-0.375 4.519,-1.153 1.035,-0.781 1.551,-1.816 1.551,-3.148 0,-1.191 -0.399,-2.18 -1.227,-3.004 z m -54.675,42.477 c -1.946,-5.586 -4.852,-10.446 -8.747,-14.536 -3.875,-4.089 -8.644,-7.222 -14.296,-9.39 -5.653,-2.184 -12.137,-3.27 -19.434,-3.27 -7.262,0 -13.766,1.125 -19.492,3.352 -5.742,2.226 -10.535,5.375 -14.379,9.43 -3.832,4.066 -6.742,8.945 -8.699,14.648 -1.969,5.707 -2.946,11.867 -2.946,18.504 0,6.789 1.024,13.012 3.075,18.683 2.043,5.668 5.011,10.477 8.886,14.461 3.895,3.981 8.617,7.024 14.18,9.129 5.578,2.114 11.906,3.176 19,3.176 9.617,0 17.883,-1.863 24.773,-5.59 6.907,-3.711 12.129,-9.004 15.676,-15.84 3.535,-6.863 5.317,-14.898 5.317,-24.136 0,-6.836 -0.981,-13.047 -2.914,-18.621 z M 455.09,272.617 c -2.902,-4.258 -7.129,-7.601 -12.695,-10.012 -5.575,-2.402 -12.176,-3.617 -19.813,-3.617 -9.16,0 -16.715,1.653 -22.664,4.942 -4.219,2.379 -7.652,5.539 -10.289,9.5 -2.641,3.957 -3.961,7.8 -3.961,11.535 0,2.176 0.801,4.035 2.379,5.578 1.582,1.559 3.594,2.324 6.051,2.324 1.976,0 3.652,-0.601 5.027,-1.808 1.367,-1.2 2.535,-2.993 3.516,-5.371 1.175,-2.805 2.453,-5.165 3.828,-7.051 1.367,-1.883 3.301,-3.442 5.789,-4.668 2.484,-1.227 5.765,-1.836 9.816,-1.836 5.563,0 10.09,1.226 13.578,3.703 3.481,2.477 5.223,5.559 5.223,9.262 0,2.925 -0.941,5.3 -2.816,7.144 -1.887,1.813 -4.305,3.219 -7.289,4.168 -2.965,0.969 -6.954,2.008 -11.926,3.094 -6.672,1.48 -12.242,3.215 -16.75,5.207 -4.489,1.977 -8.063,4.687 -10.699,8.133 -2.629,3.441 -3.95,7.707 -3.95,12.808 0,4.856 1.395,9.184 4.176,12.957 2.793,3.77 6.813,6.68 12.09,8.704 5.281,2.035 11.48,3.058 18.613,3.058 5.703,0 10.629,-0.683 14.778,-2.031 4.164,-1.344 7.617,-3.137 10.347,-5.36 2.746,-2.226 4.754,-4.574 6.024,-7.023 1.261,-2.457 1.898,-4.848 1.898,-7.18 0,-2.121 -0.793,-4.043 -2.383,-5.75 -1.578,-1.699 -3.547,-2.558 -5.914,-2.558 -2.148,0 -3.781,0.508 -4.906,1.543 -1.117,1.015 -2.332,2.683 -3.637,5.019 -1.691,3.352 -3.718,5.942 -6.074,7.805 -2.367,1.875 -6.164,2.805 -11.398,2.805 -4.852,0 -8.77,-1.016 -11.746,-3.039 -2.973,-2.028 -4.458,-4.469 -4.458,-7.321 0,-1.769 0.504,-3.289 1.524,-4.586 1.008,-1.285 2.398,-2.382 4.168,-3.308 1.781,-0.934 3.574,-1.653 5.387,-2.168 1.816,-0.535 4.808,-1.289 8.984,-2.301 5.227,-1.156 9.969,-2.453 14.215,-3.844 4.242,-1.418 7.844,-3.125 10.828,-5.136 2.969,-2.008 5.293,-4.551 6.953,-7.618 1.676,-3.078 2.512,-6.836 2.512,-11.304 0,-5.336 -1.453,-10.145 -4.336,-14.399 z m 259.621,29.899 c -30.023,65.164 -58.316,131.047 -87.594,196.531 -16.574,37.086 -32.922,74.297 -50.801,110.82 -20.339,41.555 -38.718,83.039 -31.984,130.645 1.836,12.968 -0.609,26.152 8.047,38.261 2.976,4.176 8.008,11.602 0.652,18.977 -9.523,-4.336 -16.504,-12.492 -17.621,-21.23 -4.945,-38.688 -9.297,-78.157 1.977,-116.012 7.933,-26.637 22.988,-51.336 34.676,-76.988 24.585,-53.969 48.91,-108.051 73.656,-161.954 7.894,-17.203 2.551,-25.457 -17.024,-25.461 -91.578,-0.015 -183.152,-0.031 -274.73,0.04 -17.402,0.011 -21.973,7.339 -14.824,22.71 31.449,67.633 59.023,136.887 90.511,204.407 19.082,40.922 30.114,81.031 26.77,125.367 -0.863,11.437 -3.43,21.664 -9.402,31.398 -2.817,4.598 -6.051,10.36 -12.043,7.871 -7.317,-3.031 -2.055,-8.878 -0.344,-13.269 14.64,-37.484 14.113,-74.945 -1.813,-111.695 C 386.871,556.891 340.434,451.035 294.008,345.176 281.539,316.734 267.41,289.117 271.055,256.547 c 3.343,-29.938 20.433,-53.895 43.758,-53.984 116.414,-0.422 232.824,-0.415 349.234,0.042 17.23,0.071 36.91,3.696 44.637,19.118 12.679,25.289 19.238,52.125 6.027,80.793" /><path
         id="path18"
         style="fill:#f5a428;fill-opacity:1;fill-rule:nonzero;stroke:none"
         d="M 496.211,907.996 C 270.879,907.996 88.2148,725.332 88.2148,500 88.2148,274.668 270.879,92.0039 496.211,92.0039 c 225.332,0 408.004,182.6641 408.004,407.9961 0,225.332 -182.672,407.996 -408.004,407.996 z m 0,-38.246 c 203.883,0 369.75,-165.867 369.75,-369.75 0,-203.883 -165.867,-369.75 -369.75,-369.75 -203.875,0 -369.746,165.867 -369.746,369.75 0,203.883 165.871,369.75 369.746,369.75" /></g></g></svg>