<?xml version="1.0" encoding="UTF-8" standalone="no"?>
<svg
   xmlns:dc="http://purl.org/dc/elements/1.1/"
   xmlns:cc="http://creativecommons.org/ns#"
   xmlns:rdf="http://www.w3.org/1999/02/22-rdf-syntax-ns#"
   xmlns:svg="http://www.w3.org/2000/svg"
   xmlns="http://www.w3.org/2000/svg"
   viewBox="0 0 133.34666 133.33333"
   height="133.33333"
   width="133.34666"
   xml:space="preserve"
   id="svg2"
   version="1.1"><metadata
     id="metadata8"><rdf:RDF><cc:Work
         rdf:about=""><dc:format>image/svg+xml</dc:format><dc:type
           rdf:resource="http://purl.org/dc/dcmitype/StillImage" /></cc:Work></rdf:RDF></metadata><defs
     id="defs6" /><g
     transform="matrix(1.3333333,0,0,-1.3333333,0,133.33333)"
     id="g10"><g
       transform="scale(0.1)"
       id="g12"><path
         id="path14"
         style="fill:#f5a428;fill-opacity:1;fill-rule:nonzero;stroke:none"
         d="m 614.766,405.914 c -0.993,-11.711 -2.106,-24.891 -8.133,-34.476 -45.348,-72.161 -118.547,-105.387 -199.699,-137.129 4.304,22.101 18.246,27.191 27.961,35.359 45.089,37.895 86.218,78.578 109.812,133.184 3.715,8.609 9.988,16.523 16.43,23.597 9.367,10.293 20.84,17.289 35.968,11.688 15.372,-5.696 18.809,-18.625 17.661,-32.223 z m 39.961,34.981 c -54.375,22.988 -108,47.652 -161.934,71.621 -55.051,24.48 -110.398,48.367 -165.004,73.75 -21.246,9.879 -32.242,5.613 -44.039,-14.504 -70.613,-120.371 -54.578,-232.797 25.59,-343.199 21.672,-29.833 36.906,-38.614 79.598,-37.454 148.722,4.024 229.093,84.907 283.937,205.329 10.465,22.972 4.855,34.73 -18.148,44.457" /><path
         id="path16"
         style="fill:#f5a428;fill-opacity:1;fill-rule:nonzero;stroke:none"
         d="m 731.109,535.504 c -0.789,-0.656 -4.035,-5.645 -7.832,-6.074 -7.054,-0.805 -10.91,5.468 -12.398,11.168 -10.25,39.105 -40.113,61.332 -72.836,81.621 -18.902,11.711 -28.516,28.449 -14.156,48.293 13.754,19 32.543,12.07 49.511,3.035 47.875,-25.504 78.594,-95.516 57.711,-138.043 z m 18.2,99.039 c -17.168,32.25 -45.907,52.699 -74.375,73.547 -22.715,16.633 -34.954,36.457 -28.047,64.769 2.793,11.457 7.855,23.594 -8.524,30.524 -14.883,6.297 -23.129,-1.668 -30.765,-12.02 -16.489,-22.343 -39.727,-26.527 -65.778,-22.617 -28.027,4.207 -55.922,9.379 -84.043,12.852 -42.097,5.195 -78.629,-6.61 -105.843,-38.86 -17.09,-20.254 -31.567,-41.738 -38.204,-68.629 -11.929,-48.328 -13.511,-48.019 33.887,-69.171 51.578,-23.02 103.207,-45.922 154.824,-68.86 54.977,-24.445 109.946,-48.898 164.922,-73.344 1.117,-0.504 2.328,-0.871 3.36,-1.504 24.886,-15.406 43.203,-6.468 60.785,13.243 41.195,46.187 47.539,104.199 17.801,160.07" /><path
         id="path18"
         style="fill:#f5a428;fill-opacity:1;fill-rule:nonzero;stroke:none"
         d="m 503.355,901.621 c -222.746,0 -403.312,-180.566 -403.312,-403.308 0,-222.743 180.566,-403.3091 403.312,-403.3091 222.739,0 403.305,180.5661 403.305,403.3091 0,222.742 -180.566,403.308 -403.305,403.308 z m 0,-37.812 c 201.532,0 365.497,-163.961 365.497,-365.496 0,-201.536 -163.965,-365.5 -365.497,-365.5 -201.539,0 -365.5,163.964 -365.5,365.5 0,201.535 163.961,365.496 365.5,365.496" /></g></g></svg>