<svg xmlns="http://www.w3.org/2000/svg" xmlns:xlink="http://www.w3.org/1999/xlink" version="1.1" id="Capa_1" x="0px" y="0px" style="enable-background:new 0 0 413.3 413.3;" xml:space="preserve" viewBox="199.07 195.87 15.25 19.3">
<style type="text/css">
	.st0{fill-rule:evenodd;clip-rule:evenodd;fill:#030404;stroke:#FFFFFF;stroke-width:0.25;stroke-miterlimit:10;}
</style>
<g>
	<path class="st0" d="M206.7,214.7c-4.6,1.9-7.5-4.4-7.5-8.5c0-4,3.1-6.3,7.1-4.6c-0.4-0.5-0.9-1.3-1.6-2.1   c-0.5-0.6-1.6-1.5-1.6-1.5c-0.2-0.1-0.2-0.3,0-0.4l1.4-0.6c0.2-0.1,0.4-0.1,0.5,0.1c0,0,1,1.4,2.2,4.4c3.6-1.6,7,0.7,7,4.6   C214.1,210.3,210.9,216.5,206.7,214.7L206.7,214.7z M207,200.3L207,200.3c-0.2-0.1-0.5-0.2-0.5-0.5c0,0-0.2-1.6,1-2.8   c1.2-1.1,2.8-1,2.8-1c0.2,0,0.5,0.2,0.5,0.4c0,0,0.1,1.6-1,2.8C208.6,200.3,207,200.3,207,200.3L207,200.3z"/>
</g>
</svg>