<svg xmlns="http://www.w3.org/2000/svg" xmlns:xlink="http://www.w3.org/1999/xlink" version="1.1" id="Capa_1" x="0px" y="0px" style="enable-background:new 0 0 413.3 413.3;" xml:space="preserve" viewBox="197.91 195.53 17.52 21.49">
<style type="text/css">
	.st0{fill-rule:evenodd;clip-rule:evenodd;stroke:#FFFFFF;stroke-width:0.25;stroke-miterlimit:10;}
</style>
<g>
	<path class="st0" d="M211.8,203.1c-0.3,0-0.6,0-1-0.1c0,1.3-1,2.4-2.3,2.6c-0.7,0.2-1.3,0-1.8-0.3c-0.3,0.3-0.9,0.4-1.3,0.5   c-1.4,0.3-2.7-0.4-3.4-1.6c-0.3,0.3-0.7,0.5-1.1,0.6c-1.3,0.2-2.6-0.7-2.8-2c-0.3-1.2,0.4-2.4,1.6-2.7c0-0.1,0-0.2,0-0.2   c-0.3-1.8,0.9-3.5,2.7-3.8c0.8-0.1,1.7,0.1,2.3,0.5c0.3-0.4,0.9-0.8,1.5-0.9c0.9-0.2,1.8,0.3,2.3,1c0.3-0.2,0.5-0.3,0.8-0.3   c1.3-0.3,2.5,0.6,2.7,1.9c0.1,0.3,0.1,0.8,0,1.1c0.7,0.1,1.3,0.6,1.4,1.4C213.5,201.9,212.9,202.9,211.8,203.1L211.8,203.1z    M206.5,208.4c1.1,0,1.9,0.9,1.9,1.9c0,1-0.9,1.8-1.9,1.8c-1,0-1.8-0.8-1.8-1.8C204.7,209.3,205.5,208.4,206.5,208.4L206.5,208.4z    M209.5,205.9c0.1,0.1,0.1,0.2,0.1,0.3c0,0.6-0.5,1.1-1.2,1.1c-0.6,0-1.2-0.5-1.2-1.1c0-0.1,0-0.1,0.1-0.1c0.3,0.2,0.8,0.2,1.2,0.2   C208.9,206.2,209.3,206,209.5,205.9L209.5,205.9z M207.9,213.4c0.7,0,1.2,0.5,1.2,1.2c0,0.6-0.5,1.2-1.2,1.2   c-0.6,0-1.2-0.6-1.2-1.2C206.7,213.9,207.3,213.4,207.9,213.4L207.9,213.4z M203.1,212.7c1,0,1.8,0.8,1.8,1.8c0,1-0.8,1.7-1.8,1.7   c-1,0-1.7-0.8-1.7-1.7C201.3,213.5,202.1,212.7,203.1,212.7L203.1,212.7z M201.9,209.5c0.5,0,1,0.4,1,1c0,0.5-0.4,1-1,1   c-0.6,0-1-0.5-1-1C200.9,210,201.3,209.5,201.9,209.5L201.9,209.5z M204.7,206.5c-0.1,1-0.9,1.8-1.8,1.8c-1,0-1.8-0.9-1.8-1.8   c0-0.3,0.1-0.6,0.3-0.9c0.3-0.1,0.5-0.3,0.7-0.4C202.6,206,203.7,206.6,204.7,206.5L204.7,206.5z M210.9,203.7v0.5   c0.4-0.3,0.9-0.4,1.3-0.4c1.8,0,3.1,2.3,3.1,5.1c0,2.8-1.4,5.2-3.1,5.2c-0.4,0-0.9-0.2-1.3-0.5v1.2c0,1.1-1,2.1-2.2,2.1h-7   c-1.1,0-2.1-1-2.1-2.1v-9.3c0.3,0.1,0.9,0.2,1.3,0.1c0.1,0,0.3,0,0.3-0.1c-0.2,0.3-0.3,0.7-0.3,1c0,1.1,0.9,2,2,2   c1,0,1.9-0.9,1.9-1.9c0.2,0,0.4,0,0.5,0c0.4-0.1,1-0.3,1.3-0.5c0.1,0,0.2,0.1,0.3,0.1c0,0.1-0.1,0.1-0.1,0.1c0,0.8,0.7,1.4,1.4,1.4   c0.8,0,1.4-0.6,1.4-1.4c0-0.2,0-0.3-0.1-0.4C210.3,205.3,210.8,204.5,210.9,203.7L210.9,203.7z M207.9,213.2c0.8,0,1.4,0.6,1.4,1.4   c0,0.7-0.6,1.3-1.4,1.3c-0.7,0-1.3-0.6-1.3-1.3C206.6,213.8,207.2,213.2,207.9,213.2L207.9,213.2z M203.1,212.5   c1.1,0,1.8,0.9,1.8,1.9c0.1,1-0.8,1.9-1.8,1.9c-1-0.1-1.9-0.9-1.9-1.9C201.1,213.4,202,212.5,203.1,212.5L203.1,212.5z    M201.9,209.3c0.6,0,1.1,0.5,1.1,1.2c0,0.6-0.5,1.1-1.1,1.1c-0.7,0-1.2-0.5-1.2-1.1C200.7,209.9,201.2,209.3,201.9,209.3   L201.9,209.3z M206.5,208.2c1.1,0,2.1,1,2.1,2.1c0,1.1-1,2-2.1,2c-1,0-2-0.9-2-2C204.5,209.2,205.4,208.2,206.5,208.2L206.5,208.2z    M210.9,205.8v6.1c0.3,0.5,0.8,0.8,1.3,0.8c1.1,0,2.1-1.7,2.1-3.8c0-2.1-1-3.8-2.1-3.8C211.6,205,211.2,205.3,210.9,205.8   L210.9,205.8z"/>
</g>
</svg>