<svg xmlns="http://www.w3.org/2000/svg" xmlns:xlink="http://www.w3.org/1999/xlink" version="1.1" id="Capa_1" x="0px" y="0px" style="enable-background:new 0 0 58.758 58.758;" xml:space="preserve" viewBox="0 1.19 58.76 56.39">
<path d="M57.29,19.325c0.592-1.844,0.106-3.888-1.312-5.282c-1.011-0.992-2.362-1.542-3.784-1.524  c-0.235-0.624-0.604-1.19-1.09-1.667c-0.745-0.732-1.698-1.169-2.723-1.301c-0.006,0.581-0.064,1.157-0.181,1.723  c0.618,0.92,0.958,2.008,0.958,3.122c0,1.096-0.329,2.167-0.928,3.077c0.104,0.483,0.155,0.977,0.155,1.476  c0,2.028-0.849,3.919-2.317,5.263c0,0.017,0,0.033,0,0.05c0,3.032-1.913,5.625-4.605,6.673c-0.112-0.009-0.228-0.005-0.342,0.027  c-0.356,0.098-0.743,0.004-0.997-0.247c-0.148-0.145-0.242-0.33-0.272-0.535c-0.026-0.18-0.071-0.355-0.131-0.524  c2.459-0.429,4.335-2.539,4.335-5.083c0-0.322-0.031-0.642-0.093-0.958c1.487-0.941,2.41-2.569,2.41-4.354  c0-0.661-0.129-1.312-0.377-1.92c0.725-0.68,1.149-1.625,1.149-2.633c0-1.009-0.431-1.963-1.162-2.645  c0.259-0.737,0.39-1.504,0.39-2.288c0-3.899-3.222-7.071-7.181-7.071c-0.751,0-1.486,0.114-2.196,0.341  c-1.13-1.175-2.714-1.858-4.37-1.858c-1.843,0-3.564,0.832-4.696,2.222c-0.938-0.463-1.968-0.704-3.028-0.704  c-3.746,0-6.794,3.002-6.794,6.692c0,0.013,0,0.026,0,0.039c-2.339,1.102-3.863,3.438-3.863,6.033c0,1.882,0.806,3.661,2.192,4.92  c-0.425,0.825-0.646,1.732-0.646,2.669c0,3.271,2.701,5.933,6.021,5.933c1.018,0,1.996-0.248,2.875-0.723  c0.495,0.52,1.066,0.959,1.686,1.308c0.798,3.115,0.939,7.17,0.883,10.359c-1.664-3.825-3.773-6.598-5.427-8.398  c0.318-0.143-0.365-0.562-0.537-0.573c-0.192-0.197-0.381-0.389-0.553-0.555c-0.361-0.348-0.921-0.375-1.313-0.065  c-0.084,0.066-0.15,0.138-0.221,0.208c-3.145-1.074-5.414-4.023-5.414-7.494c0-0.768,0.108-1.516,0.324-2.236  c-1.201-1.519-1.87-3.406-1.87-5.353c0-1.492,0.399-2.931,1.109-4.197c-1.257,0.07-2.437,0.552-3.35,1.413  c-1.87-0.588-3.974-0.089-5.361,1.274c-1.012,0.994-1.563,2.338-1.559,3.722c-0.632,0.23-1.206,0.591-1.69,1.066  C0.495,19.625,0,20.8,0,22.05s0.495,2.425,1.393,3.308c0.518,0.508,1.133,0.884,1.812,1.109c0.008,1.444,0.59,2.845,1.642,3.878  c1.036,1.018,2.407,1.586,3.87,1.604c0.077,0.964,0.496,1.888,1.207,2.585c0.785,0.771,1.827,1.196,2.935,1.196  c0.413,0,0.811-0.078,1.196-0.192c4.111,0.127,9.701,9.165,10.436,19.713c0.091,1.302,1.188,2.322,2.496,2.322h5  c1.276,0,2.349-0.958,2.493-2.229l0.076-0.702c1.391-12.887,4.309-19.422,8.676-19.422c0.098,0,0.191-0.02,0.281-0.046  c0.693,0.296,1.443,0.458,2.221,0.458c1.49,0,2.894-0.571,3.949-1.608c0.376-0.369,0.692-0.783,0.945-1.237  c1.255-0.004,2.433-0.486,3.321-1.357c0.977-0.959,1.468-2.276,1.382-3.603c0.697-0.258,1.331-0.66,1.867-1.186  c1.007-0.989,1.561-2.305,1.561-3.707C58.758,21.58,58.238,20.303,57.29,19.325z M12.685,23.86  c-0.492,1.213-1.428,2.163-2.634,2.672c-0.614,0.259-1.261,0.389-1.908,0.389c-0.624,0-1.248-0.121-1.844-0.362  c-2.504-1.016-3.715-3.88-2.699-6.385c0.207-0.512,0.79-0.759,1.303-0.551c0.512,0.208,0.758,0.791,0.551,1.303  c-0.602,1.482,0.115,3.178,1.598,3.78c1.482,0.601,3.179-0.114,3.78-1.598c0.209-0.513,0.794-0.757,1.303-0.551  C12.646,22.765,12.893,23.348,12.685,23.86z M33.746,29.408c0.51-0.318,0.985-0.692,1.404-1.133c0.639,0.612,1.433,1.035,2.29,1.266  c-1.326,1.49-2.507,3.285-3.474,5.02C34.027,32.638,33.913,30.887,33.746,29.408z M41.105,20.593  c-0.351,1.262-1.172,2.311-2.312,2.955c-0.76,0.43-1.587,0.633-2.403,0.633c-1.711,0-3.375-0.896-4.275-2.489  c-0.272-0.481-0.103-1.091,0.378-1.363c0.479-0.271,1.091-0.103,1.362,0.378c0.382,0.675,1.003,1.161,1.75,1.369  c0.745,0.206,1.529,0.111,2.204-0.27s1.161-1.002,1.369-1.75c0.207-0.747,0.111-1.53-0.27-2.204  c-0.272-0.481-0.103-1.091,0.378-1.363c0.479-0.272,1.091-0.102,1.362,0.378C41.294,18.009,41.456,19.331,41.105,20.593z   M32.748,10.295c0.428-0.353,1.057-0.29,1.408,0.135c0.493,0.598,1.189,0.968,1.961,1.042c0.782,0.077,1.527-0.157,2.124-0.65  c1.234-1.018,1.41-2.851,0.392-4.085c-0.352-0.426-0.291-1.056,0.135-1.408c0.428-0.353,1.057-0.29,1.408,0.135  c1.72,2.084,1.423,5.18-0.661,6.9c-0.887,0.731-1.977,1.121-3.111,1.121c-0.158,0-0.317-0.007-0.477-0.022  c-1.304-0.125-2.48-0.75-3.313-1.76C32.262,11.277,32.322,10.646,32.748,10.295z M28.476,11.748  c0.241-0.496,0.837-0.706,1.336-0.465c0.497,0.241,0.705,0.839,0.465,1.336c-0.697,1.44-0.093,3.179,1.348,3.876  c1.44,0.695,3.179,0.093,3.876-1.348c0.24-0.496,0.836-0.706,1.336-0.465c0.497,0.241,0.705,0.839,0.465,1.336  c-0.846,1.747-2.599,2.766-4.42,2.766c-0.716,0-1.441-0.157-2.128-0.489C28.32,17.117,27.299,14.18,28.476,11.748z M21.322,9.765  C22.307,7.248,25.15,6,27.673,6.983c0.514,0.201,0.769,0.781,0.567,1.295s-0.779,0.766-1.296,0.568  c-1.491-0.583-3.177,0.156-3.759,1.646c-0.583,1.491,0.156,3.177,1.646,3.759c0.514,0.201,0.769,0.781,0.567,1.295  c-0.154,0.395-0.532,0.637-0.932,0.637c-0.121,0-0.244-0.022-0.364-0.069C21.587,15.131,20.339,12.282,21.322,9.765z M23.317,23.985  c-2.476-1.083-3.61-3.978-2.528-6.455c0.221-0.504,0.806-0.736,1.316-0.516c0.506,0.221,0.737,0.811,0.516,1.317  c-0.64,1.466,0.031,3.181,1.497,3.821c0.712,0.312,1.5,0.326,2.221,0.043c0.722-0.283,1.29-0.829,1.601-1.54  c0.221-0.504,0.807-0.737,1.316-0.516c0.506,0.221,0.737,0.811,0.516,1.317c-0.523,1.2-1.483,2.124-2.703,2.601  c-0.579,0.227-1.185,0.34-1.789,0.34C24.612,24.397,23.946,24.26,23.317,23.985z"/>
<g>
</g>
<g>
</g>
<g>
</g>
<g>
</g>
<g>
</g>
<g>
</g>
<g>
</g>
<g>
</g>
<g>
</g>
<g>
</g>
<g>
</g>
<g>
</g>
<g>
</g>
<g>
</g>
<g>
</g>
</svg>