<svg xmlns="http://www.w3.org/2000/svg" xmlns:xlink="http://www.w3.org/1999/xlink" version="1.1" id="Capa_1" x="0px" y="0px" style="enable-background:new 0 0 413.3 413.3;" xml:space="preserve" viewBox="197.64 198.21 18.05 16.41">
<style type="text/css">
	.st0{fill:#030404;stroke:#FFFFFF;stroke-width:0.25;stroke-miterlimit:10;}
	.st1{fill-rule:evenodd;clip-rule:evenodd;stroke:#FFFFFF;stroke-width:0.25;stroke-miterlimit:10;}
</style>
<g>
	<g>
		<path class="st0" d="M215.4,205.8c-0.2-0.3-0.6-0.5-1.1-0.5h-2.2c0-0.3,0-0.6,0-0.8c0-0.2-0.2-0.3-0.3-0.3h-13.6    c-0.2,0-0.3,0.2-0.3,0.3c0,1.5,0.4,7.2,5.1,8.6h-4.4c-0.3,0-0.6,0.2-0.7,0.5l-0.1,0.4c-0.1,0.3,0,0.5,0.3,0.5H212    c0.3,0,0.4-0.2,0.3-0.5l-0.1-0.4c-0.1-0.3-0.4-0.5-0.7-0.5h-4.2c1.6-0.5,2.7-1.5,3.4-2.7c3-0.1,4.3-2.2,4.8-3.4    C215.6,206.5,215.6,206.1,215.4,205.8z M214.5,206.5c-0.5,1.1-1.4,2.5-3.3,2.7c0.4-1,0.7-2.1,0.8-3h2.3c0.1,0,0.2,0,0.2,0.1    C214.6,206.4,214.6,206.4,214.5,206.5z"/>
	</g>
	<g>
		<path class="st1" d="M203.2,202c-1.8,0.6,1.8,2.1,1.1-0.8c-0.1-0.3-0.3-0.6-0.4-0.9h-1.2C202.8,200.5,203.7,201.8,203.2,202    L203.2,202z"/>
		<path class="st1" d="M203.7,199.9L203.7,199.9c-0.1-0.2-0.1-0.4,0.1-0.5c0.6-0.4,0-1.3-0.6-1c-0.5,0.3-0.7,0.9-0.6,1.5H203.7z"/>
		<path class="st1" d="M206.2,202L206.2,202c-1.9,0.6,1.8,2.1,1.1-0.8c-0.1-0.3-0.3-0.6-0.5-0.9h-1.2    C205.8,200.5,206.7,201.8,206.2,202L206.2,202z"/>
		<path class="st1" d="M206.7,199.9L206.7,199.9c-0.1-0.2-0.1-0.4,0.1-0.5c0.6-0.4,0.1-1.3-0.5-1c-0.5,0.3-0.7,0.9-0.6,1.5H206.7z"/>
	</g>
</g>
</svg>