<svg xmlns="http://www.w3.org/2000/svg" xmlns:xlink="http://www.w3.org/1999/xlink" version="1.1" id="Capa_1" x="0px" y="0px" style="enable-background:new 0 0 413.3 413.3;" xml:space="preserve" viewBox="197.68 197.07 18.36 18.55">
<style type="text/css">
	.st0{fill:#030404;stroke:#FFFFFF;stroke-width:0.25;stroke-miterlimit:10;}
</style>
<g>
	<g>
		<g>
			<path class="st0" d="M214,206.1c0.4,0.2,0.6,0.6,0.7,1.1c0.1,0.6-0.3,1.3-0.9,1.9c-0.7,0.7-2,1.3-3.2,1.7     c-0.1,0.4-0.3,0.9-0.6,1.4c1.5-0.5,3.5-1.3,4.6-2.3c0.9-0.8,1.4-1.8,1.3-2.8c-0.1-0.8-0.5-1.5-1.2-1.9c-1.1-0.6-2.2-0.3-2.9,0     c-0.1,0.4-0.3,1.5-0.3,1.5C211.4,206.5,212.9,205.4,214,206.1z"/>
			<path class="st0" d="M201.9,213.4h6.2c1.6-1.1,2-2.9,2.2-3.7c0.3-1,0.8-4.3,0.9-5.3c-0.5,0-12.1,0-12.6,0c0.2,1,0.7,4.3,0.9,5.3     C199.9,210.4,200.4,212.3,201.9,213.4z"/>
			<g>
				<path class="st0" d="M208.8,215.5c1.8-0.5,2.9-1.2,3.6-1.7c-1.1,0-13.6,0-14.6,0c0.6,0.5,1.8,1.2,3.6,1.7H208.8z"/>
			</g>
		</g>
	</g>
	<path class="st0" d="M203.7,202.5c0,0.1,0,0.1,0.1,0.2c0.1,0.1,0.1,0.2,0.2,0.3c0.1,0.1,0.1,0.2,0.2,0.2c0.1,0.1,0.2,0.1,0.2,0.1   s0-0.1,0-0.2c0-0.1,0-0.3,0-0.5c0-0.1,0-0.2,0.1-0.3c0-0.1,0.1-0.2,0.1-0.3c0-0.1,0.1-0.2,0.2-0.3l0-0.1l0-0.1l0-0.1   c0-0.1,0.1-0.1,0.1-0.2c0.1-0.2,0.1-0.4,0.1-0.6c0-0.2,0-0.4,0-0.5c0-0.2,0-0.3-0.1-0.5c0-0.1-0.1-0.3-0.1-0.4   c-0.1-0.1-0.1-0.2-0.2-0.3c-0.1-0.1-0.1-0.2-0.2-0.2c0-0.1-0.1-0.1-0.1-0.1c0,0,0,0,0,0s0,0.1,0,0.2c0,0.1,0,0.3,0,0.6   c0,0.2,0,0.5-0.1,0.7c0,0.1,0,0.3-0.1,0.4c0,0.1-0.1,0.3-0.1,0.3c0,0-0.1,0.1-0.1,0.2l0,0.1l0,0l0,0l0,0c0,0,0,0,0,0l0,0l0,0   l-0.1,0.1c0,0.1-0.1,0.2-0.1,0.3c0,0.1,0,0.2-0.1,0.3c0,0.2,0,0.4,0,0.5C203.7,202.3,203.7,202.4,203.7,202.5z"/>
	<path class="st0" d="M205.9,201.1c0,0.1,0,0.1,0.1,0.2c0.1,0.1,0.1,0.2,0.2,0.3c0.1,0.1,0.1,0.2,0.2,0.2c0.1,0.1,0.2,0.1,0.2,0.1   s0-0.1,0-0.2c0-0.1,0-0.3,0-0.5c0-0.1,0-0.2,0.1-0.3c0-0.1,0.1-0.2,0.1-0.3c0-0.1,0.1-0.2,0.2-0.3l0-0.1l0-0.1l0-0.1   c0-0.1,0.1-0.1,0.1-0.2c0.1-0.2,0.1-0.4,0.1-0.6c0-0.2,0-0.4,0-0.5c0-0.2,0-0.3-0.1-0.5c0-0.1-0.1-0.3-0.1-0.4   c-0.1-0.1-0.1-0.2-0.2-0.3c-0.1-0.1-0.1-0.2-0.2-0.2c0-0.1-0.1-0.1-0.1-0.1c0,0,0,0,0,0s0,0.1,0,0.2c0,0.1,0,0.3,0,0.6   c0,0.2,0,0.5-0.1,0.7c0,0.1,0,0.3-0.1,0.4c0,0.1-0.1,0.3-0.1,0.3c0,0-0.1,0.1-0.1,0.2l0,0.1l0,0l0,0l0,0c0,0,0,0,0,0l0,0l0,0   l-0.1,0.1c0,0.1-0.1,0.2-0.1,0.3c0,0.1,0,0.2-0.1,0.3c0,0.2,0,0.4,0,0.5C205.9,200.9,205.9,201,205.9,201.1z"/>
</g>
</svg>