<svg xmlns="http://www.w3.org/2000/svg" xmlns:xlink="http://www.w3.org/1999/xlink" version="1.1" id="Capa_1" x="0px" y="0px" style="enable-background:new 0 0 413.3 413.3;" xml:space="preserve" viewBox="203.27 197.57 6.65 17.45">
<style type="text/css">
	.st0{fill-rule:evenodd;clip-rule:evenodd;stroke:#FFFFFF;stroke-width:0.25;stroke-miterlimit:10;}
</style>
<g>
	<path class="st0" d="M209.4,205.2c-0.1-0.3-0.1-0.5-0.2-0.7l-1.1-3.5c-0.1-0.1-0.1-0.2-0.1-0.4c0-0.1,0-0.3,0-0.5v-0.1l0.1-1.5l0,0   c0-0.2-0.1-0.4-0.3-0.5c-0.1-0.1-0.3-0.2-0.5-0.3h-0.1h-1H206c-0.2,0.1-0.4,0.2-0.5,0.3c-0.1,0.1-0.2,0.3-0.2,0.5l0,0l0.1,1.5v0.1   c0,0.1,0,0.3-0.1,0.5c0,0.2-0.1,0.3-0.1,0.5l-1.2,3.4c-0.1,0.2-0.1,0.6-0.1,0.9h0.1l-0.1-0.1c-0.1,0.1-0.1,0.2-0.1,0.3l0,0   l-0.1,1.7c0,0.1,0,0.2,0,0.3c0,0.3,0,0.6,0,0.8l0.1,0.5c0.1,0.3,0.1,0.7,0.1,1v1.5c0,0.1,0,0.3-0.1,0.5c-0.1,0.1-0.1,0.3-0.1,0.5   c-0.1,0.1-0.1,0.3-0.2,0.5c0,0.2-0.1,0.4-0.1,0.5c0,0.1,0.1,0.3,0.1,0.5c0.1,0.1,0.1,0.1,0.1,0.2c0.1,0.1,0.1,0.1,0.1,0.2l0,0   c0.1,0.1,0.2,0.1,0.4,0.2c0.1,0.1,0.2,0.2,0.4,0.2l0,0c0.1,0.1,0.3,0.1,0.5,0.1c0.2,0.1,0.4,0.1,0.6,0.1h0.5h1h0.5   c0.1,0,0.4,0,0.6-0.1c0.1,0,0.3-0.1,0.5-0.1l0,0c0.1,0,0.3-0.1,0.4-0.2c0.2-0.1,0.3-0.1,0.4-0.2l0,0c0-0.1,0.1-0.1,0.1-0.2   c0.1-0.1,0.1-0.2,0.1-0.3c0-0.1,0.1-0.2,0.1-0.3c0-0.1-0.1-0.3-0.1-0.5c0-0.2-0.1-0.3-0.1-0.5c-0.1-0.1-0.1-0.3-0.1-0.5   c-0.1-0.2-0.1-0.3-0.1-0.5v-1.5c0-0.3,0-0.7,0.1-1l0.1-0.5c0-0.2,0-0.5,0-0.8c0-0.1,0-0.2,0-0.3l-0.1-1.7c-0.1-0.1-0.1-0.1-0.1-0.1   C209.4,205.4,209.4,205.3,209.4,205.2l-0.3,0.1v0.1c-1.1,0.1-2.7,0-4.9,0.1v-0.1c0.1-0.3,0.1-0.5,0.1-0.7l1.2-3.5   c0.1-0.1,0.1-0.3,0.1-0.5c0-0.2,0.1-0.3,0.1-0.5v-0.1l-0.1-1.5l0,0c0-0.1,0.1-0.1,0.1-0.3c0.1-0.1,0.2-0.1,0.3-0.1l0.1-0.1h0.9   l0.1,0.1c0.1,0,0.2,0.1,0.3,0.1c0.1,0.1,0.1,0.2,0.1,0.3l0,0l-0.1,1.5v0.1c0,0.2,0.1,0.3,0.1,0.5c0,0.2,0.1,0.4,0.1,0.5l1.1,3.5   c0.1,0.1,0.1,0.5,0.2,0.7L209.4,205.2z"/>
</g>
</svg>