<svg xmlns="http://www.w3.org/2000/svg" xmlns:xlink="http://www.w3.org/1999/xlink" version="1.1" id="Capa_1" x="0px" y="0px" style="enable-background:new 0 0 413.3 413.3;" xml:space="preserve" viewBox="203.64 197.18 5.93 18.25">
<style type="text/css">
	.st0{fill:#030404;stroke:#FFFFFF;stroke-width:0.25;stroke-miterlimit:10;}
	.st1{fill-rule:evenodd;clip-rule:evenodd;fill:#FFFFFF;stroke:#FFFFFF;stroke-width:0.25;stroke-miterlimit:10;}
</style>
<g>
	<path class="st0" d="M208.2,215.3c0,0,0.8-0.1,1-1.2c0.2-1.1,0-1.8-0.1-2.4c-0.1-0.6-0.1-0.9,0.1-1.9c0.3-1.6,0.3-4.4,0.1-5.7   c-0.2-1.3-0.8-2.2-1.1-2.8c-0.5-1-0.5-2.3-0.5-2.3h0.3v-0.5l-0.1-0.1v-1c0,0-0.5-0.1-1.3-0.1c-0.8,0-1.3,0.1-1.3,0.1v1l-0.1,0.1   v0.5h0.3c0,0,0,1.3-0.5,2.3c-0.3,0.6-0.9,1.5-1.1,2.8c-0.2,1.3-0.2,4.1,0.1,5.7c0.2,1,0.3,1.3,0.1,1.9c-0.1,0.6-0.4,1.3-0.1,2.4   c0.2,1,1,1.2,1,1.2H208.2z"/>
	<path class="st1" d="M205,202.3h3.3c-0.1-0.2-0.3-0.5-0.4-0.7c-0.3-0.4-0.4-0.7-0.5-0.9c-0.1-0.3-0.1-0.7-0.1-0.9H206   c0,0.2-0.1,0.6-0.1,0.9c-0.1,0.3-0.2,0.5-0.5,0.9C205.3,201.9,205.1,202.1,205,202.3L205,202.3z"/>
</g>
</svg>