<svg xmlns="http://www.w3.org/2000/svg" xmlns:xlink="http://www.w3.org/1999/xlink" version="1.1" id="Capa_1" x="0px" y="0px" style="enable-background:new 0 0 413.3 413.3;" xml:space="preserve" viewBox="194.93 195.05 23.69 22.4">
<style type="text/css">
	.st0{fill:#030404;stroke:#FFFFFF;stroke-width:0.25;stroke-miterlimit:10;}
</style>
<g>
	<g>
		<g>
			<path class="st0" d="M203.2,211.2c0.5-0.2,0.9-0.9,1.2-1.5c-0.3-0.2-0.8-0.4-1.4-0.9c-0.9-0.6-2-1.4-2.7-2     c-1-0.7-1.9-1.5-2.7-2.1c-0.7-0.6-1.1-0.9-1.3-1.1c-0.2,0.4-0.4,0.8-0.5,1.2c-0.7,1.9-1.1,4.7-0.3,5.1     C196.2,210.2,202.5,211.5,203.2,211.2z"/>
		</g>
	</g>
	<g>
		<g>
			<path class="st0" d="M202.7,212.8c-0.3,0-0.6,0-1.1-0.1c-0.9-0.1-1.9-0.3-2.5-0.4c-0.1,0-1.8-0.3-3.1-0.7     c0.6,2.3,1.9,5.5,3.9,5.7C202,217.6,202.6,215,202.7,212.8z"/>
		</g>
	</g>
	<g>
		<g>
			<path class="st0" d="M212,203.9c0.4-0.6,0.2-7,0-7.9c-0.2-0.9-3-1-5.1-0.6c-0.4,0.1-0.8,0.2-1.3,0.3c0.2,0.3,0.4,0.7,0.9,1.5     c0.5,0.9,1.1,1.9,1.6,3c0.4,0.8,1,2,1.5,3c0.3,0.7,0.5,1.2,0.6,1.6C210.9,204.6,211.7,204.3,212,203.9z"/>
		</g>
	</g>
	<g>
		<g>
			<path class="st0" d="M218.5,201.7c0.1-2-2.8-3.8-4.9-4.8c0.1,1.3,0.1,3.1,0.1,3.2c0,0.7,0,1.7,0,2.6c0,0.4,0,0.8-0.1,1.1     C215.8,204,218.4,203.8,218.5,201.7z"/>
		</g>
	</g>
	<g>
		<g>
			<path class="st0" d="M207.5,207.4c0.5-0.4,1.4-1.3,1.4-2c0-0.7-4.1-8.5-4.7-9.2c-0.6-0.7-3,0.6-4.6,1.9c-1.5,1.3-3.2,3.5-2.6,4.2     c0.6,0.7,7.6,6.1,8.3,6.2C206,208.6,207,207.9,207.5,207.4z"/>
		</g>
	</g>
</g>
</svg>