<svg xmlns="http://www.w3.org/2000/svg" xmlns:xlink="http://www.w3.org/1999/xlink" version="1.1" id="Capa_1" x="0px" y="0px" style="enable-background:new 0 0 413.3 413.3;" xml:space="preserve" viewBox="200.47 195.27 12.35 22.05">
<style type="text/css">
	.st0{fill:#030404;stroke:#FFFFFF;stroke-width:0.25;stroke-miterlimit:10;}
</style>
<g>
	<path class="st0" d="M209.9,201c0.1-0.2,0.1-0.3,0.1-0.5c0-0.3-0.1-0.6-0.3-0.9l3-3.1l-1.1-1.1l-3,3.1c-0.5-0.9-1.5-1.5-2.7-1.5   c-1.2,0-2.2,0.7-2.8,1.6c0,0,0,0,0,0c-1,0-1.7,0.8-1.7,1.7c0,0.3,0.1,0.5,0.2,0.8c-0.4,0.3-0.8,0.9-0.9,1.6h-0.1v0.5   c0,2.5,1.9,9.9,4.8,10.7v2.2h-2.1v1.1h5.2v-1.1h-2.1v-2.2c2.9-0.8,4.8-8.2,4.8-10.7v-0.5H211C210.9,201.9,210.4,201.2,209.9,201z"/>
	<path class="st0" d="M205.8,213c-1.9,0-4-6.1-4.2-9.2h8.5C209.9,206.9,207.8,213,205.8,213z"/>
</g>
</svg>