<svg xmlns="http://www.w3.org/2000/svg" xmlns:xlink="http://www.w3.org/1999/xlink" version="1.1" id="Capa_1" x="0px" y="0px" style="enable-background:new 0 0 413.3 413.3;" xml:space="preserve" viewBox="192.34 199.34 28.78 13.96">
<style type="text/css">
	.st0{fill:#030404;stroke:#FBFDFF;stroke-width:0.25;stroke-miterlimit:10;}
</style>
<g id="g8263_1_" transform="translate(341.59998,-1166.22)">
	<path id="path7260_1_" class="st0" d="M-131.7,1365.7c-4.5,0.1-8.3,1.8-10,4.1c-1.2-1-3-1.6-5-1.6c-0.9,0-2.7,0-2.4,0.4   c1.7,2.6,4.1,4.1,4.1,4.1s-2.6,1.8-4,4.2c-0.2,0.4,1.6,0.3,2.4,0.3c2,0,3.8-0.7,5-1.7c1.8,2.3,5.6,3.9,10.1,3.9   c2.6,0,5-0.6,6.9-1.6c-0.5-0.2-1.1-0.4-1.5-0.7c-2.1-1.1-3.5-2.7-3.6-4.5c0-1.8,1.3-3.5,3.4-4.6c0.5-0.3,1-0.5,1.5-0.7   C-126.7,1366.2-129.1,1365.6-131.7,1365.7z M-137.6,1367.5c-2.1,1-3.5,2.6-3.6,4.4c-0.2,3.3,4.1,6.2,9.6,6.4c2.1,0.1,4-0.2,5.7-0.9   c-1.8,0.9-4.1,1.4-6.6,1.3c-5.4-0.2-9.7-3.1-9.6-6.4C-142,1370.3-140.3,1368.5-137.6,1367.5z M-123.6,1367.7   c-0.7,0.2-1.4,0.5-2,0.9c-1.9,1-2.9,2.4-2.9,3.8c0,1.4,1.1,2.8,3,3.7c0.6,0.3,1.3,0.6,2,0.8c1.8-1.2,2.9-2.9,2.9-4.7   C-120.6,1370.5-121.8,1368.9-123.6,1367.7z M-123.9,1369.5c0.5,0,1,0.4,1,0.9c0,0.5-0.4,0.9-1,0.9c-0.5,0-1-0.4-1-0.9   C-124.8,1369.9-124.4,1369.5-123.9,1369.5z"/>
</g>
</svg>