<svg xmlns="http://www.w3.org/2000/svg" xmlns:xlink="http://www.w3.org/1999/xlink" version="1.1" id="Capa_1" x="0px" y="0px" style="enable-background:new 0 0 413.3 413.3;" xml:space="preserve" viewBox="198.88 196.87 15.45 18.85">
<style type="text/css">
	.st0{fill:#030404;stroke:#FFFFFF;stroke-width:0.25;stroke-miterlimit:10;}
</style>
<path class="st0" d="M214.2,199l-0.8,9.8h-4.9c-0.4-0.7-1.1-1.1-1.9-1.1c-0.8,0-1.5,0.5-1.9,1.1h-4.9l-0.8-9.8c0,0,0.4,0.7,1.3,1.5  l-1-3.1l0.9-0.3l1.3,4.3c0.1,0.1,0.2,0.1,0.3,0.2l-1.3-4.3l0.9-0.3l1.5,4.7l0-3.7l0.9,0l0.1,4.3c0.1,0,0.2,0,0.3,0.1l0.2-4.9l0.9,0  l-0.3,5c0.3,0,0.7,0.1,1,0.1l-0.6-2.8l0.9-0.2l0.7,3c0.1,0,0.2,0,0.2,0l-0.8-4.2l0.9-0.2l0.8,4l0.7-3.4l0.9,0.2l-0.7,3.3  c0.2,0,0.4-0.1,0.6-0.2l0.9-3.3l0.9,0.2l-0.7,2.7c0.3-0.2,0.7-0.3,0.9-0.5l0.4-3.2l0.9,0.1l-0.3,2.3  C213.8,199.7,214.2,199,214.2,199z M206.6,211.9c-0.7,0-1.4-0.4-1.8-0.9H200l0.4,4.6h12.4l0.4-4.6h-4.8  C208,211.5,207.4,211.9,206.6,211.9z M208,208.4h-2.8v2.8h2.8V208.4z"/>
</svg>