<svg xmlns="http://www.w3.org/2000/svg" xmlns:xlink="http://www.w3.org/1999/xlink" version="1.1" id="Capa_1" x="0px" y="0px" style="enable-background:new 0 0 413.3 413.3;" xml:space="preserve" viewBox="194.68 197.18 23.85 18.15">
<style type="text/css">
	.st0{fill:#211F21;stroke:#FFFFFF;stroke-width:0.25;}
	.st1{fill:#030404;stroke:#FFFFFF;stroke-width:0.25;stroke-miterlimit:10;}
</style>
<g>
	<g>
		<path class="st0" d="M194.9,207.8c0,0.5,0.6,0.9,1.4,0.9h8.8l-4.5-1.8h-4.7C195.3,207,194.9,207.4,194.9,207.8z"/>
		<path class="st0" d="M218.4,207.8c0-0.4-0.4-0.8-0.9-0.9h-4.5l-4.4,1.8h8.5C217.8,208.8,218.4,208.3,218.4,207.8z"/>
		<path class="st0" d="M212.2,206.9h-10.8c1.7,0.7,5.2,2.1,5.4,2.2C207,209,210.5,207.6,212.2,206.9z"/>
		<path class="st1" d="M217.1,203.8c-3.5,0-6.9,0-10.4,0c-3.5,0-7,0-10.6,0c-0.9,0-1.3,0.3-1.3,1.2c0,0.8,0.4,1.2,1.3,1.2    c7,0,14,0,20.9,0c0.8,0,1.3-0.4,1.3-1.2C218.4,204.2,218,203.8,217.1,203.8z"/>
	</g>
	<g>
		<path class="st1" d="M206.6,197.3c-7.2,0-10.3,2.8-10.3,5.6h20.6C216.9,200.1,213.8,197.3,206.6,197.3z"/>
		<path class="st1" d="M206.7,197.9c0.2,0,0.4,0.1,0.4,0.3c0,0.2-0.2,0.3-0.4,0.3c-0.2,0-0.4-0.1-0.4-0.3    C206.2,198.1,206.4,197.9,206.7,197.9z"/>
		<path class="st1" d="M202.6,198.2c0.1,0,0.3,0.1,0.3,0.2c0,0.1-0.1,0.2-0.3,0.2c-0.1,0-0.3-0.1-0.3-0.2    C202.3,198.3,202.5,198.2,202.6,198.2z"/>
		<path class="st1" d="M211.9,198.6c0.2,0,0.4,0.1,0.4,0.3c0,0.2-0.2,0.3-0.4,0.3c-0.2,0-0.4-0.1-0.4-0.3    C211.5,198.8,211.7,198.6,211.9,198.6z"/>
		<path class="st1" d="M208.8,199.5c0.1,0,0.3,0.1,0.3,0.2s-0.1,0.2-0.3,0.2c-0.1,0-0.3-0.1-0.3-0.2S208.6,199.5,208.8,199.5z"/>
		<path class="st1" d="M203.1,199.6c0.2,0,0.3,0.1,0.3,0.2c0,0.1-0.1,0.2-0.3,0.2c-0.2,0-0.3-0.1-0.3-0.2    C202.8,199.7,202.9,199.6,203.1,199.6z"/>
		<path class="st1" d="M199.9,199.9c0.1,0,0.2,0,0.2,0.1c0.2,0.1,0.3,0.2,0.2,0.4c-0.1,0.1-0.2,0.1-0.4,0.1    c-0.2-0.1-0.3-0.2-0.2-0.4C199.8,200,199.8,199.9,199.9,199.9z"/>
		<path class="st1" d="M214.5,200c0.1,0,0.1,0,0.2,0.1c0.2,0.1,0.3,0.2,0.2,0.4c-0.1,0.1-0.2,0.1-0.4,0.1c-0.2-0.1-0.3-0.2-0.2-0.4    C214.3,200,214.4,200,214.5,200z"/>
		<path class="st1" d="M206.1,200.5c0.1,0,0.3,0.1,0.3,0.2c0,0.1-0.1,0.2-0.3,0.2c-0.1,0-0.3-0.1-0.3-0.2    C205.9,200.6,206,200.5,206.1,200.5z"/>
		<path class="st1" d="M213.5,200.7c0.2,0,0.3,0.1,0.3,0.2c0,0.1-0.1,0.2-0.3,0.2s-0.3-0.1-0.3-0.2    C213.2,200.8,213.3,200.7,213.5,200.7z"/>
		<path class="st1" d="M210.8,200.7c0.2,0,0.3,0.1,0.3,0.2c0,0.2-0.1,0.3-0.3,0.4c-0.2,0.1-0.5,0-0.5-0.2c0-0.2,0.1-0.3,0.3-0.4    C210.7,200.7,210.8,200.7,210.8,200.7z"/>
		<path class="st1" d="M197.9,201c0.2,0,0.4,0.1,0.4,0.3c0,0.2-0.2,0.3-0.4,0.3c-0.2,0-0.4-0.1-0.4-0.3    C197.4,201.1,197.6,201,197.9,201z"/>
		<path class="st1" d="M201.2,201.4c0.2,0,0.4,0.1,0.4,0.3c0,0.2-0.2,0.3-0.4,0.3c-0.2,0-0.4-0.1-0.4-0.3    C200.8,201.5,201,201.4,201.2,201.4z"/>
	</g>
	<path class="st1" d="M206.6,215.2c7.2,0,10.3-2.8,10.3-5.6h-20.6C196.3,212.5,199.5,215.2,206.6,215.2z"/>
</g>
</svg>