<svg xmlns="http://www.w3.org/2000/svg" xmlns:xlink="http://www.w3.org/1999/xlink" version="1.1" id="Capa_1" x="0px" y="0px" style="enable-background:new 0 0 413.3 413.3;" xml:space="preserve" viewBox="200.57 193.37 12.55 26.05">
<style type="text/css">
	.st0{fill:#030404;stroke:#FFFFFF;stroke-width:0.25;stroke-miterlimit:10;}
</style>
<g>
	<polygon class="st0" points="204.4,211.5 202.2,211.5 203.4,219.3 204.4,219.3 204.4,219.3 205.2,219.3 205.2,219.3 208.5,219.3    208.5,219.3 209.3,219.3 209.3,219.3 210.3,219.3 211.5,211.5 209.3,211.5 208.5,211.5 205.2,211.5  "/>
	<path class="st0" d="M211.8,209.6c0.1,0,0.2,0,0.3,0c0.5-1.1,0.4-2.1,0.4-2.6c-0.1,0-0.1,0-0.2,0h-10.9c-0.1,0-0.1,0-0.2,0   c-0.1,0.5-0.1,1.6,0.4,2.6c0.1,0,0.2,0,0.3,0H211.8z"/>
	<path class="st0" d="M212.3,205c0.6-2.5-2.4-2.9-6.1-3.3c-3.3-0.4-4.2-1.2-4.2-1.2c-2,2.2,0.2,4.5,0.2,4.5H212.3z"/>
	<path class="st0" d="M206,201c1.5,0.2,2.8,0.3,3.7,0.5c1.5,0.3,2.3,0.9,2.3,0.9c1.3-2-1-3.8-3-4.6c-4-1.5-2.8-4.3-2.8-4.3   s-4.9,2.3-4.3,5.3C202.1,199.9,203.1,200.7,206,201z"/>
	<path class="st0" d="M201.4,206.6h10.9c0.4,0,0.7-0.3,0.7-0.6c0-0.3-0.3-0.6-0.7-0.6h-10.9c-0.4,0-0.7,0.3-0.7,0.6   C200.7,206.4,201,206.6,201.4,206.6z"/>
	<path class="st0" d="M211.8,210h-9.9c-0.4,0-0.7,0.3-0.7,0.6c0,0.3,0.3,0.6,0.7,0.6h9.9c0.4,0,0.7-0.3,0.7-0.6   C212.6,210.2,212.2,210,211.8,210z"/>
</g>
</svg>