<svg xmlns="http://www.w3.org/2000/svg" xmlns:xlink="http://www.w3.org/1999/xlink" version="1.1" id="Capa_1" x="0px" y="0px" style="enable-background:new 0 0 413.3 413.3;" xml:space="preserve" viewBox="189.48 196.37 34.25 20.16">
<style type="text/css">
	.st0{fill:#191D1C;stroke:#FFFFFF;stroke-width:0.25;stroke-miterlimit:10;}
	.st1{fill:#191D1C;}
	.st2{fill:#FBFDFF;stroke:#1D1D1B;stroke-width:0.1;stroke-miterlimit:10;}
	.st3{fill:#1D1D1B;stroke:#FFFFFF;stroke-width:0.25;stroke-miterlimit:10;}
	.st4{fill:#1D1D1B;}
</style>
<g>
	<g>
		<path class="st0" d="M223.6,205.7c0-2.2-7.6-4.1-17-4.1c-9.4,0-17,1.8-17,4.1c0,2.2,7.6,10.7,17,10.7    C216,216.4,223.6,208,223.6,205.7z"/>
		<path class="st1" d="M223.6,205.6c0-2.2-7.6-3.9-17-3.9c-9.4,0-17,1.7-17,3.9c0,2.2,7.6,10.3,17,10.3    C216,215.9,223.6,207.7,223.6,205.6z"/>
		<path class="st1" d="M191.5,204.1c-1.1,0.9-1.5,1.9-1.1,2.8c0.9,2.2,8.9,9.5,14.6,8.5c5.7-1,6.8-10,5.9-12.1    c-0.2-0.4-0.5-0.8-1-1.1c-1.2-0.1-2.4-0.1-3.7-0.1C200,202.1,194.5,202.9,191.5,204.1z"/>
		<path class="st0" d="M223.6,205.7c0-3.6-7.6-6.4-17-6.4c-9.4,0-17,2.9-17,6.4c0,3.6,7.6,6.4,17,6.4    C216,212.2,223.6,209.3,223.6,205.7z"/>
		<path class="st0" d="M206.6,211.1c-8.6,0-16-2.6-16-5.6c0-3,7.3-5.6,16-5.6c8.6,0,16,2.6,16,5.6    C222.6,208.6,215.3,211.1,206.6,211.1z"/>
		<path class="st1" d="M203.9,202.7c-6-0.7-11.4,1.4-11.8,4.6c0,0.2,0,0.3,0,0.5c2.5,1.9,8.2,3.3,14.5,3.3c2.7,0,5.4-0.3,7.6-0.7    c0.1-0.2,0.1-0.4,0.1-0.6C214.8,206.7,210,203.4,203.9,202.7z"/>
		<path class="st1" d="M192.1,208.5c-0.1,0.4,1.5,1.3,3.7,2c2.2,0.7,4.1,0.9,4.2,0.5c0.1-0.4-1.9-0.3-4.1-1    C193.8,209.3,192.3,208.1,192.1,208.5z"/>
	</g>
	<g>
		<path class="st2" d="M194.2,209C194.2,209,194.2,209,194.2,209c0,0,0-0.1,0-0.2C194.2,208.9,194.2,209,194.2,209z"/>
		<path class="st2" d="M205.5,211c0-0.1,0-0.1,0-0.2c-0.1,0.1-0.2,0.2-0.4,0.2c0,0,0,0.1,0,0.1c0.1,0,0.2,0,0.2,0    C205.4,211.1,205.5,211,205.5,211z"/>
		<path class="st2" d="M208.1,199.3c0.1,0,0.2,0,0.3,0l0.1,0l0.2-0.2l-1.3,0C207.6,199.1,207.8,199.2,208.1,199.3    C208,199.3,208,199.3,208.1,199.3z"/>
		<path class="st2" d="M205,211.1c0,0,0.1,0,0.1,0c0,0,0-0.1,0-0.1C205.1,211.1,205,211.1,205,211.1z"/>
		<path class="st2" d="M194.2,206.8c0.4-3.5,3.2-5.5,6.3-6.6c0,0,0.1-0.1,0.1-0.1c-3.2,1.1-6.1,3.2-6.6,6.9c-0.1,0.6,0,1.2,0.1,1.8    c0,0.1,0,0.1,0,0.2c0.1,0,0.2,0.1,0.3,0.1C194.2,208.4,194.2,207.6,194.2,206.8z"/>
		<path class="st2" d="M195.1,207c0.2-1.7,1.1-3,2.3-4c0.6-0.7,1.4-1.2,2.2-1.7c0-0.1,0.1-0.1,0.1-0.2c-2.4,1-4.6,2.8-5,5.8    c-0.1,0.9,0,1.8,0.4,2.5c0.1,0,0.2,0.1,0.4,0.1C195.2,208.7,195,207.9,195.1,207z"/>
		<path class="st2" d="M194.7,206.9c0.4-3,2.6-4.8,5-5.8c0.1-0.2,0.3-0.4,0.5-0.6c0.1-0.1,0.2-0.2,0.3-0.3c-3.1,1.1-5.9,3.1-6.3,6.6    c-0.1,0.8,0,1.6,0.3,2.3c0.2,0.1,0.4,0.2,0.7,0.3C194.8,208.6,194.6,207.8,194.7,206.9z"/>
		<path class="st2" d="M209.7,199.7l-0.2,0.2c0.2,0.1,0.4,0.2,0.7,0.3c0,0,0.1,0,0.1,0l0.7-0.6l-1.3,0l-0.1,0.1L209.7,199.7z"/>
		<path class="st2" d="M197.2,209.8c-0.2-0.3-0.4-0.6-0.6-0.9c-0.5-0.8-0.7-1.8-0.6-2.8c0-0.1,0-0.3,0.1-0.4    c-0.2,0.4-0.3,0.8-0.3,1.2c-0.1,1.1,0.1,2.1,0.9,2.9c0,0,0.1,0.1,0.1,0.1c0.3,0.1,0.5,0.1,0.8,0.2    C197.4,210,197.3,209.9,197.2,209.8z"/>
		<path class="st2" d="M206,211.1c0.2,0,0.3,0,0.5,0c-0.1,0-0.3-0.1-0.4-0.1C206.1,211.1,206.1,211.1,206,211.1z"/>
		<path class="st2" d="M205.7,210.8C205.7,210.8,205.7,210.8,205.7,210.8c-0.1,0.1-0.1,0.1-0.2,0.2c0,0-0.1,0.1-0.1,0.1c0,0,0,0,0,0    C205.5,211,205.6,210.9,205.7,210.8z"/>
		<path class="st2" d="M195.2,206.8c0.2-1.5,1-2.7,2.1-3.7c0,0,0.1-0.1,0.1-0.1c-1.2,1-2,2.3-2.3,4c-0.1,0.9,0,1.8,0.4,2.6    c0.1,0,0.2,0.1,0.4,0.1C195.3,208.8,195.1,207.8,195.2,206.8z"/>
		<path class="st2" d="M209.5,199.7l-0.1,0.1c0.1,0,0.1,0.1,0.2,0.1l0.2-0.2L209.5,199.7z"/>
		<path class="st2" d="M195.7,206.8c0.1-0.4,0.2-0.9,0.3-1.2c0.2-1,0.6-1.8,1.2-2.5c-1.1,1-1.9,2.2-2.1,3.7c-0.1,1,0.1,2,0.7,2.9    c0.3,0.1,0.6,0.2,0.8,0.3c0,0-0.1-0.1-0.1-0.1C195.9,208.9,195.6,207.9,195.7,206.8z"/>
		<path class="st2" d="M205.7,210.8c-0.1,0.1-0.2,0.2-0.3,0.3c0.2,0,0.4,0,0.7,0c0,0,0-0.1,0.1-0.1C206,211,205.8,210.9,205.7,210.8    z"/>
		<path class="st2" d="M197.8,208.6c-0.7-0.8-0.9-1.7-0.8-2.7c0.1-1,0.6-1.9,1.3-2.6c0.1-0.3,0.3-0.7,0.5-1c-1.1,0.9-2,2-2.2,3.6    c-0.1,1,0.1,1.9,0.8,2.7c0.9,1,2.5,1.7,4.1,1.8C200,210.3,198.6,209.6,197.8,208.6z"/>
		<path class="st2" d="M196.1,205.9c0.3-2.1,1.6-3.5,3.4-4.5c0,0,0.1-0.1,0.1-0.1c-0.8,0.5-1.6,1-2.2,1.7c0,0-0.1,0.1-0.1,0.1    c-0.6,0.7-1,1.6-1.2,2.5c0,0.1-0.1,0.3-0.1,0.4c-0.1,1,0.1,2,0.6,2.8c0.1,0.2,0.3,0.4,0.4,0.6c0.2,0.3,0.5,0.5,0.8,0.8    c0.5,0.1,1,0.2,1.5,0.3c-0.9-0.4-1.7-0.9-2.3-1.5C196.3,208.1,196,207,196.1,205.9z"/>
		<path class="st2" d="M205.5,210.8C205.5,210.8,205.6,210.8,205.5,210.8c-0.1-0.2-0.2-0.3-0.4-0.5c0,0-0.1,0-0.1,0c0,0,0,0,0,0    c0,0,0,0,0,0c-0.2,0.1-0.4,0.3-0.7,0.4c-0.4,0.2-0.9,0.3-1.4,0.3c0.7,0.1,1.4,0.1,2.1,0.1c0.1,0,0.1-0.1,0.2-0.1    C205.3,211,205.4,210.9,205.5,210.8z"/>
		<path class="st2" d="M208.1,199.3C208,199.3,208,199.3,208.1,199.3c0.1,0.1,0.3,0.1,0.5,0.2l0.2,0l0,0c0.2,0.1,0.5,0.2,0.7,0.3    l0.1-0.1l0.1-0.1l0.2-0.2l-1.3,0l-0.1,0C208.3,199.3,208.2,199.3,208.1,199.3z"/>
		<path class="st2" d="M208.5,199.4c0,0,0.1,0,0.1,0.1l0,0L208.5,199.4z"/>
		<path class="st2" d="M204.4,210.7c0.3-0.1,0.5-0.2,0.7-0.4c-0.6,0.2-1.3,0.3-2.1,0.3c-0.5,0-0.9,0-1.3-0.1    c-1.7-0.1-3.2-0.8-4.1-1.8c-0.7-0.8-1-1.7-0.8-2.7c0.2-1.5,1.1-2.7,2.2-3.6c0.1-0.2,0.3-0.4,0.4-0.6c0.1-0.1,0.2-0.3,0.3-0.4    c-1.8,1-3.1,2.4-3.4,4.5c-0.2,1.2,0.2,2.2,0.9,3.1c0.6,0.6,1.4,1.2,2.3,1.5c1.1,0.2,2.3,0.4,3.6,0.5    C203.5,210.9,203.9,210.8,204.4,210.7z"/>
		<path class="st2" d="M198.3,207.9c0.4,0.5,1,0.8,1.6,1.1c-0.2-0.2-0.4-0.5-0.6-0.7c-0.2-0.1-0.4-0.3-0.5-0.5    c-0.3-0.4-0.5-0.8-0.5-1.3c-0.1-0.3-0.1-0.5-0.1-0.8c0-0.3-0.1-0.5-0.1-0.8c0-0.1,0-0.2,0-0.3c-0.2,0.4-0.4,0.8-0.4,1.2    C197.6,206.6,197.8,207.3,198.3,207.9z"/>
		<path class="st2" d="M204.2,210.1c-0.6,0.4-1.2,0.5-2,0.3c-0.4-0.1-0.8-0.3-1.2-0.5c-1.3-0.3-2.4-0.9-3.1-1.7    c-0.6-0.7-0.8-1.5-0.7-2.4c0.1-0.9,0.5-1.6,1.1-2.2c0-0.1,0-0.1,0.1-0.2c-0.7,0.7-1.2,1.5-1.3,2.6c-0.1,1,0.1,1.9,0.8,2.7    c0.8,0.9,2.2,1.6,3.8,1.9c0.4,0.1,0.9,0.1,1.3,0.1c0.8,0,1.5-0.1,2.1-0.3c0,0,0,0,0,0c0,0,0,0,0,0    C204.8,210.3,204.5,210.2,204.2,210.1z"/>
		<path class="st2" d="M200.3,209.4c-0.2-0.1-0.3-0.3-0.4-0.4c-0.7-0.3-1.2-0.7-1.6-1.1c-0.5-0.6-0.7-1.3-0.6-2    c0.1-0.5,0.2-0.9,0.4-1.2c0-0.4,0.1-0.7,0.2-1.1c-0.6,0.6-1,1.4-1.1,2.2c-0.1,0.9,0.1,1.7,0.7,2.4c0.7,0.8,1.8,1.4,3.1,1.7    C200.8,209.7,200.6,209.6,200.3,209.4C200.3,209.4,200.3,209.4,200.3,209.4z"/>
		<path class="st2" d="M200.3,207.8c-0.1-0.1-0.1-0.1-0.2-0.2C200.2,207.7,200.2,207.7,200.3,207.8    C200.3,207.8,200.3,207.8,200.3,207.8z"/>
		<path class="st2" d="M203.4,208.5c0.1,0,0.2,0,0.4,0c0,0-0.1,0-0.1-0.1c-0.1,0-0.3,0-0.4,0C203.3,208.4,203.3,208.5,203.4,208.5z"/>
		<path class="st2" d="M202.6,209.4c0.1,0,0.1,0,0.2,0c-0.5-0.1-0.9-0.4-1.3-0.7c-0.1,0-0.1,0-0.1,0    C201.7,209,202.1,209.3,202.6,209.4z"/>
		<path class="st2" d="M198.2,206.6c0.1,0.4,0.3,0.8,0.6,1.2c0.1,0.1,0.2,0.2,0.3,0.3c-0.5-0.7-0.8-1.5-0.9-2.3    C198.2,206,198.2,206.3,198.2,206.6z"/>
		<path class="st2" d="M201,208.6C201,208.6,201,208.6,201,208.6c0.1,0.1,0.1,0.1,0.2,0.2c0.1,0,0.1,0,0.1,0    c-0.1-0.1-0.3-0.2-0.4-0.3c0,0,0,0,0,0c-0.2-0.2-0.5-0.4-0.7-0.7c0,0,0,0-0.1,0C200.5,208.1,200.8,208.3,201,208.6z"/>
		<path class="st2" d="M200.7,203.9C200.7,203.9,200.7,204,200.7,203.9c0,0.4,0.1,0.7,0.1,1.1c0-0.1,0-0.2,0.1-0.3    c-0.1-0.3-0.1-0.6-0.1-0.9C200.7,203.8,200.7,203.9,200.7,203.9z"/>
		<path class="st2" d="M201.9,207.1c0.1,0,0.2,0.1,0.3,0.1c-0.1-0.2-0.3-0.3-0.4-0.5c-0.1-0.1-0.2-0.1-0.3-0.2    C201.6,206.7,201.7,206.9,201.9,207.1z"/>
		<path class="st2" d="M202.9,208.2C202.9,208.2,202.9,208.2,202.9,208.2c0.1,0.1,0.2,0.2,0.3,0.2c0.1,0,0.3,0,0.4,0    c-0.2-0.1-0.4-0.3-0.7-0.5c0,0-0.1-0.1-0.1-0.1c-0.1,0-0.2,0-0.3-0.1C202.6,207.9,202.8,208.1,202.9,208.2z"/>
		<path class="st2" d="M202.5,207.8c0.1,0,0.2,0.1,0.3,0.1c-0.2-0.2-0.5-0.4-0.7-0.7c-0.1,0-0.2-0.1-0.3-0.1    C202.1,207.3,202.3,207.6,202.5,207.8z"/>
		<path class="st2" d="M200.7,203.9c0,0,0.1-0.1,0.1-0.1c0,0,0-0.1,0-0.1c0-0.2,0-0.4,0-0.6C200.7,203.3,200.7,203.6,200.7,203.9z"/>
		<path class="st2" d="M206.5,205.8c0,0.1,0,0.1,0,0.2c0,0,0.1-0.1,0.1-0.1C206.6,205.8,206.6,205.8,206.5,205.8z"/>
		<path class="st2" d="M218.5,202.9c0.1,0.2,0.2,0.3,0.2,0.5c0.4,0.7,0.7,1.4,0.7,2.2c0,1.4-0.8,3-2,3.9c0,0,0,0,0,0    c-0.1,0.1-0.3,0.2-0.4,0.3c0.5-0.1,0.9-0.3,1.4-0.5c0.9-1,1.4-2.2,1.4-3.5C219.8,204.7,219.3,203.7,218.5,202.9z"/>
		<path class="st2" d="M214.1,210.5c0.2,0,0.4-0.1,0.6-0.1c-0.1,0-0.1,0-0.2,0C214.4,210.4,214.3,210.4,214.1,210.5z"/>
		<path class="st2" d="M216.9,209.2C216.9,209.2,216.9,209.2,216.9,209.2c-0.5,0.4-1,0.6-1.5,0.7c-0.1,0-0.1,0-0.2,0    c0,0-0.1,0-0.1,0c0.1,0,0.3,0,0.4-0.1c0.5-0.1,1.1-0.4,1.6-0.8c1.1-0.9,1.8-2.1,1.9-3.4c-0.2,0.9-0.6,1.8-1.2,2.5    C217.5,208.6,217.2,208.9,216.9,209.2z"/>
		<path class="st2" d="M217.4,209.5c1.3-1,2.1-2.5,2-3.9c0-0.8-0.2-1.5-0.7-2.2c0.2,0.5,0.3,1,0.3,1.6c0,0.3,0,0.5-0.1,0.8    c-0.1,1.3-0.8,2.5-1.9,3.4c-0.5,0.4-1,0.7-1.6,0.8c-0.1,0-0.3,0.1-0.4,0.1c0,0,0,0,0,0c0,0,0,0-0.1,0c-0.2,0.1-0.4,0.2-0.5,0.3    c0.1,0,0.1,0,0.2,0c0.8-0.2,1.6-0.4,2.3-0.6C217.1,209.7,217.3,209.6,217.4,209.5C217.4,209.5,217.4,209.5,217.4,209.5z"/>
		<path class="st2" d="M208.1,203.9c0.1,0.1,0.2,0.1,0.3,0.2c0,0,0,0,0,0C208.4,204,208.3,203.9,208.1,203.9    C208.2,203.9,208.1,203.9,208.1,203.9z"/>
		<path class="st2" d="M217.1,201.8c-1.9-1.7-4.2-1.8-6.2-1.4c0,0,0.1,0,0.1,0.1c0.7-0.1,1.5-0.1,2.2,0.1c1.3,0.1,2.6,0.5,3.7,1.5    c0.9,0.8,1.3,1.8,1.4,2.9c0,0.3,0,0.7-0.1,1c0.2-0.5,0.3-0.9,0.3-1.4C218.4,203.6,217.9,202.6,217.1,201.8z"/>
		<path class="st2" d="M207.3,204.3c0.2,0.1,0.3,0.2,0.5,0.3c0.1-0.1,0.2-0.2,0.3-0.3c-0.1-0.1-0.3-0.2-0.4-0.2    C207.6,204.2,207.5,204.2,207.3,204.3z"/>
		<path class="st2" d="M210.9,206.3C211,206.3,211,206.3,210.9,206.3c0.1,0,0.1,0,0.1,0C211,206.2,211,206.2,210.9,206.3    C211,206.2,211,206.3,210.9,206.3z"/>
		<path class="st2" d="M210.2,200.2c2.4-0.6,5.1-0.6,7.1,1.3c0.9,0.9,1.4,1.9,1.4,3.1c0,1.4-0.7,2.9-2,3.9c-0.3,0.4-0.7,0.7-1.1,1.1    c-0.2,0.2-0.4,0.3-0.7,0.5c0,0,0,0,0.1,0c0,0,0,0,0,0c0,0,0.1,0,0.1,0c0.6-0.2,1.2-0.5,1.7-0.9c0,0,0,0,0,0    c0.3-0.2,0.6-0.5,0.8-0.8c0.6-0.7,1.1-1.6,1.2-2.5c0-0.3,0.1-0.5,0.1-0.8c0-0.6-0.1-1.1-0.3-1.6c-0.1-0.2-0.1-0.3-0.2-0.5    c-0.2-0.4-0.6-0.8-1-1.2C215.4,199.7,212.7,199.5,210.2,200.2C210.2,200.2,210.2,200.2,210.2,200.2    C210.2,200.2,210.2,200.2,210.2,200.2z"/>
		<path class="st2" d="M210.4,206.9C210.4,206.9,210.4,207,210.4,206.9C210.4,207,210.4,207,210.4,206.9c0.1-0.1,0.3-0.2,0.4-0.3    c0,0,0,0,0,0C210.6,206.7,210.5,206.8,210.4,206.9z"/>
		<path class="st2" d="M218.8,204.6c0-1.1-0.5-2.2-1.4-3.1c-2.1-1.9-4.8-2-7.1-1.3c0,0,0.1,0,0.1,0.1c0.2,0.1,0.4,0.1,0.5,0.2    c2-0.5,4.3-0.4,6.2,1.4c0.8,0.8,1.3,1.7,1.3,2.8c0,0.5-0.1,0.9-0.3,1.4c-0.2,0.9-0.6,1.7-1.3,2.5    C218.1,207.5,218.8,206,218.8,204.6z"/>
		<path class="st2" d="M207.7,204.1c0.1,0.1,0.3,0.2,0.4,0.2c0.1-0.1,0.2-0.2,0.3-0.3c-0.1-0.1-0.2-0.1-0.3-0.2    C208,203.9,207.8,204,207.7,204.1z"/>
		<path class="st2" d="M210.7,206.6C210.7,206.6,210.7,206.6,210.7,206.6c0.1-0.1,0.2-0.2,0.3-0.3c0,0,0,0-0.1-0.1    C210.9,206.4,210.8,206.5,210.7,206.6z"/>
		<path class="st2" d="M210.5,209.3c0,0,0.1,0.1,0.1,0.1c0.2-0.1,0.3-0.2,0.5-0.3c0,0-0.1-0.1-0.1-0.1    C210.8,209.2,210.6,209.2,210.5,209.3z"/>
		<path class="st2" d="M203.1,205L203.1,205c0-0.1,0-0.1-0.1-0.2l0,0C203.1,204.9,203.1,204.9,203.1,205z"/>
		<path class="st2" d="M215.3,208.7c1.4-1.1,2.3-2.7,2.3-4.1c0-0.9-0.4-1.7-1.1-2.3c-0.3-0.3-0.6-0.5-0.9-0.6    c0.1,0.1,0.2,0.2,0.3,0.2c0.7,0.6,1.1,1.3,1.2,2.1c0.1,0.3,0.1,0.6,0.1,0.9c0,1.3-0.8,2.9-2.2,3.9c0,0,0,0,0,0    c0,0-0.1,0.1-0.1,0.1c0,0.1,0,0.1-0.1,0.2C215,208.9,215.1,208.8,215.3,208.7z"/>
		<path class="st2" d="M206.5,205.5c0,0.1,0,0.1,0,0.2c0.1,0,0.1,0.1,0.1,0.1c0-0.1,0.1-0.1,0.1-0.2    C206.7,205.6,206.6,205.6,206.5,205.5z"/>
		<path class="st2" d="M215.1,210c0.2-0.1,0.5-0.3,0.7-0.5c0.4-0.3,0.8-0.7,1.1-1.1c0.6-0.8,1.1-1.6,1.3-2.5c0.1-0.4,0.1-0.7,0.1-1    c0-1.1-0.5-2.1-1.4-2.9c-1.1-1-2.3-1.4-3.7-1.5c0,0,0.1,0,0.1,0c1.2,0.1,2.4,0.5,3.4,1.4c0.8,0.7,1.2,1.6,1.2,2.6    c0,1.5-0.9,3.2-2.4,4.4c-0.3,0.3-0.7,0.5-1.1,0.7c-0.2,0.3-0.4,0.5-0.6,0.8c0.1,0,0.2,0,0.3,0c0.1,0,0.3-0.1,0.4-0.2    C214.7,210.2,214.9,210.1,215.1,210z"/>
		<path class="st2" d="M211,209.1c0,0,0.1,0.1,0.1,0.1c0,0,0.1-0.1,0.1-0.1c0,0-0.1-0.1-0.1-0.1C211,209,211,209,211,209.1z"/>
		<path class="st2" d="M215.5,201.7c0.3,0.2,0.6,0.4,0.9,0.6c0.7,0.6,1.1,1.4,1.1,2.3c0,1.4-0.9,3-2.3,4.1c-0.2,0.1-0.3,0.2-0.5,0.3    c-0.1,0.2-0.2,0.4-0.3,0.5c0,0-0.1,0.1-0.1,0.1c0.4-0.2,0.7-0.4,1.1-0.7c1.5-1.2,2.4-2.9,2.4-4.4c0-1-0.4-1.9-1.2-2.6    c-1-0.9-2.2-1.3-3.4-1.4C214.1,200.8,214.9,201.1,215.5,201.7z"/>
		<path class="st2" d="M215.4,202.2c-1.1-1-2.3-1.3-3.6-1.2c0.2,0.1,0.4,0.2,0.6,0.3c1,0,2,0.4,2.8,1.1c0.6,0.6,1,1.3,1,2.1    c0,0.9-0.4,1.8-1,2.6c0,0,0,0,0,0.1c0.8-0.8,1.3-1.9,1.2-2.9C216.4,203.5,216.1,202.7,215.4,202.2z"/>
		<path class="st2" d="M211,200.6c0,0,0.1,0,0.1,0c1.6-0.2,3.2,0.1,4.5,1.3c0.7,0.7,1.1,1.5,1.2,2.4c0,1.2-0.6,2.5-1.7,3.5    c0,0.3-0.1,0.5-0.2,0.8c1.3-1,2.2-2.6,2.1-4c0-0.2,0-0.4-0.1-0.6c-0.1-0.8-0.5-1.5-1.2-2.1c-0.1-0.1-0.2-0.2-0.3-0.2    c-0.7-0.5-1.4-0.9-2.2-1c0,0-0.1,0-0.1,0C212.5,200.5,211.8,200.5,211,200.6z"/>
		<path class="st2" d="M210.4,206.9C210.4,207,210.3,207,210.4,206.9C210.3,207,210.3,207,210.4,206.9    C210.3,207,210.4,207,210.4,206.9C210.4,207,210.4,207,210.4,206.9C210.4,207,210.4,206.9,210.4,206.9z"/>
		<path class="st2" d="M207.3,204.3C207.3,204.3,207.3,204.3,207.3,204.3C207.3,204.3,207.3,204.3,207.3,204.3    c0.1,0.1,0.3,0.2,0.4,0.3c0,0,0,0,0,0C207.7,204.5,207.5,204.4,207.3,204.3z"/>
		<path class="st2" d="M206.1,202.4C206.1,202.4,206.1,202.4,206.1,202.4c-0.2,0.1-0.4,0.2-0.6,0.3c0,0,0,0,0,0c0,0,0,0,0,0    C205.7,202.7,205.9,202.5,206.1,202.4z"/>
		<path class="st2" d="M207.3,202.6c-0.2,0-0.3-0.1-0.5-0.1c-0.4,0.2-0.8,0.5-1.1,0.7c0,0.1,0.1,0.2,0.1,0.3    C206.3,203.2,206.8,202.9,207.3,202.6z"/>
		<path class="st2" d="M211.1,209c0,0,0.1,0.1,0.1,0.1c0,0,0,0,0.1,0C211.2,209,211.2,209,211.1,209C211.1,209,211.1,209,211.1,209z    "/>
		<path class="st2" d="M216.8,204.3c0-0.9-0.4-1.8-1.2-2.4c-1.3-1.2-2.9-1.5-4.5-1.3c0.2,0.1,0.4,0.2,0.7,0.3c1.3,0,2.5,0.3,3.6,1.2    c0.7,0.6,1,1.3,1,2.1c0,1-0.5,2-1.2,2.9c0,0.2,0,0.4,0,0.6C216.2,206.8,216.8,205.5,216.8,204.3z"/>
		<path class="st2" d="M210.3,207C210.3,207.1,210.3,207.1,210.3,207C210.3,207.1,210.3,207,210.3,207    C210.3,207,210.3,207,210.3,207C210.3,207,210.3,207,210.3,207z"/>
		<path class="st2" d="M207.3,204.3c-0.1,0.1-0.2,0.1-0.3,0.2c0.2,0.1,0.4,0.2,0.6,0.3c0,0,0.1-0.1,0.1-0.1    C207.6,204.5,207.5,204.4,207.3,204.3z"/>
		<path class="st2" d="M206.8,202.5c-0.2,0-0.5-0.1-0.7-0.1c-0.2,0.1-0.4,0.3-0.6,0.4c0.1,0.1,0.1,0.3,0.2,0.4    C206,203,206.4,202.8,206.8,202.5z"/>
		<path class="st2" d="M214.7,202.6c-0.5-0.4-1.1-0.7-1.7-0.8c0.1,0.1,0.2,0.2,0.3,0.3c0.3,0.1,0.6,0.3,0.8,0.5    c0.2,0.2,0.4,0.4,0.6,0.7c0.2,0.3,0.4,0.6,0.4,1l0,0l0,0c0,0,0,0,0,0c0,0.3,0,0.6-0.1,0.8c0,0.2,0.1,0.4,0.1,0.5    c0.3-0.5,0.4-1.1,0.4-1.6C215.4,203.6,215.2,203.1,214.7,202.6z"/>
		<path class="st2" d="M207.5,202.7c-0.1,0-0.1,0-0.2-0.1c-0.5,0.3-1,0.6-1.5,0.9c0,0.1,0,0.1,0.1,0.2    C206.4,203.4,206.9,203,207.5,202.7z"/>
		<path class="st2" d="M215.1,202.3c-0.8-0.7-1.8-1-2.8-1.1c0,0,0.1,0.1,0.1,0.1c0.9,0.1,1.8,0.3,2.5,1c0.6,0.5,0.9,1.2,0.9,1.9    c0,0.7-0.3,1.5-0.8,2.3c0,0.2,0.1,0.4,0.1,0.6c0.6-0.8,1-1.8,1-2.6C216.1,203.6,215.8,202.9,215.1,202.3z"/>
		<path class="st2" d="M211.6,208.6c-0.2,0.1-0.3,0.3-0.5,0.4c0.1,0,0.1,0,0.2,0.1c0.2-0.1,0.4-0.3,0.6-0.4    C211.8,208.6,211.7,208.6,211.6,208.6z"/>
		<path class="st2" d="M210.2,207.1C210.2,207.1,210.2,207.1,210.2,207.1c0,0,0.1,0,0.1-0.1C210.3,207.1,210.3,207.1,210.2,207.1    C210.2,207.1,210.2,207.1,210.2,207.1z"/>
		<path class="st2" d="M207,204.5C207,204.5,207,204.5,207,204.5c0.2,0.1,0.4,0.2,0.6,0.3c0,0,0,0,0.1-0.1    C207.4,204.7,207.2,204.6,207,204.5z"/>
		<path class="st2" d="M215,202.3c-0.7-0.6-1.6-0.9-2.5-1c0.2,0.1,0.4,0.3,0.6,0.5c0.6,0.1,1.2,0.4,1.7,0.8c0.5,0.4,0.7,1,0.8,1.6    c0,0.5-0.1,1-0.4,1.6c0,0.2,0,0.3,0,0.5c0,0.1,0,0.2,0,0.2c0.5-0.7,0.8-1.5,0.8-2.3C215.9,203.5,215.6,202.8,215,202.3z"/>
		<path class="st2" d="M211.8,208.5C211.7,208.6,211.7,208.6,211.8,208.5c-0.1,0-0.1,0.1-0.1,0.1    C211.7,208.6,211.8,208.6,211.8,208.5c0.1,0,0.2-0.1,0.3-0.1C212,208.5,211.9,208.5,211.8,208.5z"/>
		<path class="st2" d="M210.1,207.2C210.1,207.2,210.1,207.2,210.1,207.2C210.2,207.2,210.2,207.1,210.1,207.2    C210.2,207.1,210.2,207.1,210.1,207.2C210.2,207.1,210.1,207.1,210.1,207.2z"/>
		<path class="st2" d="M206.9,204.5c0,0-0.1,0-0.1,0.1c0.3,0.1,0.5,0.2,0.7,0.3c0,0,0,0,0.1-0.1    C207.4,204.7,207.2,204.6,206.9,204.5z"/>
		<path class="st2" d="M206.7,203.5c0.3-0.2,0.7-0.4,1.2-0.6c-0.1,0-0.2-0.1-0.3-0.1c-0.6,0.3-1.1,0.6-1.6,1c0,0.1,0.1,0.1,0.1,0.2    C206.2,203.8,206.4,203.6,206.7,203.5z"/>
		<path class="st2" d="M213.1,206.7C213.1,206.7,213.1,206.6,213.1,206.7C213.1,206.6,213.1,206.7,213.1,206.7    C213.1,206.7,213.1,206.7,213.1,206.7z"/>
		<path class="st2" d="M211.7,208.6C211.7,208.6,211.7,208.6,211.7,208.6c0.2-0.1,0.3-0.1,0.4-0.1c0.3-0.3,0.5-0.6,0.7-0.9    c0,0,0,0,0,0c-0.1,0.1-0.1,0.1-0.2,0.2C212.3,208,212,208.3,211.7,208.6z"/>
		<path class="st2" d="M215,204.4l-0.3,0c0,0,0,0,0,0c0,0.1,0.1,0.2,0.1,0.3c0,0.1,0.1,0.3,0.1,0.4C215,204.9,215,204.6,215,204.4    C215,204.4,215,204.4,215,204.4z"/>
		<path class="st2" d="M214,202.7c0.4,0.4,0.7,0.8,0.7,1.4l0.3,0.2c0-0.3-0.1-0.7-0.3-1c-0.1-0.3-0.3-0.5-0.6-0.7    c-0.3-0.2-0.6-0.4-0.8-0.5c0.1,0.1,0.1,0.2,0.2,0.2C213.7,202.4,213.9,202.6,214,202.7z"/>
		<path class="st2" d="M206.7,203.5c0.4-0.2,0.8-0.4,1.2-0.6c0,0,0,0,0,0C207.4,203,207,203.3,206.7,203.5z"/>
		<path class="st2" d="M210.1,207.2C210.1,207.2,210.1,207.2,210.1,207.2C210.1,207.2,210.1,207.2,210.1,207.2    C210.1,207.2,210.1,207.2,210.1,207.2C210.1,207.2,210.1,207.2,210.1,207.2z"/>
		<path class="st2" d="M206.8,204.6c0,0,0.1,0,0.1-0.1c0,0,0.1,0,0.1,0c0.1-0.1,0.2-0.1,0.3-0.2c0,0,0,0,0,0    C207.1,204.4,207,204.5,206.8,204.6c0.2,0.1,0.5,0.2,0.7,0.3c0,0,0,0,0,0C207.3,204.8,207.1,204.7,206.8,204.6z"/>
		<path class="st2" d="M214.7,204.4C214.7,204.4,214.7,204.4,214.7,204.4C214.7,204.4,214.7,204.4,214.7,204.4L214.7,204.4z"/>
		<path class="st2" d="M214,202.7c-0.1-0.1-0.3-0.2-0.5-0.3c0.3,0.3,0.5,0.7,0.7,1l0.3,0.2l-0.1,0c0,0.1,0.1,0.1,0.1,0.2l0.2,0.2    C214.7,203.5,214.4,203,214,202.7z"/>
		<path class="st2" d="M212.9,207.2c-0.1,0.1-0.2,0.3-0.3,0.4c0.1,0,0.1-0.1,0.2-0.2c0.1-0.3,0.2-0.5,0.3-0.8c0,0,0,0,0,0    C213,206.8,213,207,212.9,207.2z"/>
		<path class="st2" d="M206.3,205c0,0.2,0.1,0.3,0.1,0.5c0.1,0,0.2,0.1,0.3,0.1c0.1-0.1,0.2-0.2,0.3-0.4    C206.9,205.2,206.6,205.1,206.3,205z"/>
		<path class="st2" d="M206.8,204.6c0.2-0.1,0.4-0.2,0.5-0.3c0,0,0,0,0,0c0.1-0.1,0.2-0.1,0.4-0.2c0.1-0.1,0.3-0.1,0.4-0.2    c0,0,0,0,0.1,0c0.2-0.1,0.4-0.2,0.6-0.3c-0.1-0.1-0.2-0.2-0.3-0.3c-0.9,0.4-1.7,0.9-2.3,1.3c0,0,0,0.1,0,0.1    c0.4,0.1,0.8,0.2,1.2,0.4c0,0,0.1-0.1,0.1-0.1C207.3,204.8,207,204.7,206.8,204.6z"/>
		<path class="st2" d="M210,207.3C210,207.3,210,207.3,210,207.3c0.1,0,0.1-0.1,0.2-0.1c0,0,0,0,0,0    C210.1,207.2,210,207.2,210,207.3z"/>
		<path class="st2" d="M208.1,203c-0.1,0-0.1-0.1-0.2-0.1c-0.4,0.2-0.8,0.4-1.2,0.6c-0.3,0.1-0.5,0.3-0.7,0.4c0,0.1,0,0.1,0.1,0.2    C206.6,203.7,207.3,203.3,208.1,203z"/>
		<path class="st2" d="M208.5,203.2c-0.1-0.1-0.3-0.2-0.4-0.3c-0.7,0.3-1.4,0.7-2,1.1c0,0.1,0.1,0.3,0.1,0.4    C206.8,204.1,207.6,203.6,208.5,203.2z"/>
		<path class="st2" d="M209.9,207.3C209.9,207.3,209.9,207.3,209.9,207.3C210,207.3,210,207.3,209.9,207.3    C209.9,207.3,209.9,207.3,209.9,207.3z"/>
		<path class="st2" d="M206.2,204.6c0,0.1,0.1,0.3,0.1,0.4c0.3,0.1,0.5,0.2,0.8,0.3c0.1-0.1,0.2-0.2,0.3-0.3    C207.1,204.8,206.7,204.7,206.2,204.6z"/>
		<path class="st2" d="M206.6,210c0-0.1-0.1-0.1-0.1-0.2c0,0-0.1,0.1-0.1,0.1C206.4,210,206.5,210,206.6,210z"/>
		<path class="st2" d="M213.9,209.2c-0.6,0.7-1.4,1.3-2.2,1.7c0.2,0,0.3,0,0.5-0.1C212.9,210.4,213.5,209.8,213.9,209.2z"/>
		<path class="st2" d="M214.5,209.7c0,0,0.1-0.1,0.1-0.1c0.1-0.2,0.2-0.4,0.3-0.5c0-0.1,0-0.1,0.1-0.2c0-0.1,0.1-0.2,0.1-0.3    c0.1-0.3,0.1-0.5,0.2-0.8c0-0.2,0-0.4,0-0.6c0,0,0,0,0-0.1c0-0.2,0-0.4-0.1-0.6c0-0.1,0-0.2,0-0.2c0,0.2,0,0.4,0,0.5    c0,0.8-0.1,1.6-0.6,2.3c-0.3,0.6-0.8,1.1-1.3,1.5c0.2,0,0.5-0.1,0.7-0.1C214.1,210.3,214.3,210,214.5,209.7z"/>
		<path class="st2" d="M214.5,209.2c0.4-0.7,0.6-1.5,0.6-2.3c-0.1,0.6-0.3,1.1-0.6,1.6c-0.1,0.3-0.3,0.5-0.5,0.7    c-0.4,0.6-1,1.2-1.8,1.6c0.3,0,0.7-0.1,1-0.1C213.7,210.2,214.1,209.7,214.5,209.2z"/>
		<path class="st2" d="M207.9,210c0.1,0.1,0.2,0.1,0.3,0.2c0,0,0.1,0,0.1,0C208.1,210.1,208,210.1,207.9,210    C207.9,210,207.9,210,207.9,210z"/>
		<path class="st2" d="M206.5,205.8c0-0.1,0-0.1,0-0.2c0-0.2-0.1-0.3-0.1-0.5c0-0.1-0.1-0.3-0.1-0.4c0,0,0-0.1,0-0.1    c0-0.1-0.1-0.3-0.1-0.4c0-0.1,0-0.1-0.1-0.2c0-0.1-0.1-0.1-0.1-0.2c0-0.1,0-0.1-0.1-0.2c0-0.1-0.1-0.2-0.1-0.3    c-0.1-0.1-0.1-0.3-0.2-0.4c0,0,0,0,0,0c0,0,0,0,0,0c0.5,1,0.8,2.1,1,3.1c0,0,0.1,0.1,0.1,0.1c0,0,0,0,0,0    C206.5,205.9,206.5,205.8,206.5,205.8z"/>
		<path class="st2" d="M214,207.8c0.5-1,0.7-2,0.3-3.1c0-0.1,0-0.1-0.1-0.2l-0.4,0c0,0.1,0.1,0.2,0.1,0.3c0.4,1.1,0.3,2.2-0.3,3.3    c-0.2,0.3-0.4,0.6-0.7,0.9C213.4,208.6,213.7,208.2,214,207.8z"/>
		<path class="st2" d="M214.3,203.4c-0.2-0.4-0.5-0.7-0.7-1c-0.1-0.1-0.1-0.2-0.2-0.2c-0.1-0.1-0.2-0.2-0.3-0.3    c-0.2-0.2-0.4-0.3-0.6-0.5c0,0-0.1-0.1-0.1-0.1c-0.2-0.1-0.4-0.2-0.6-0.3c-0.2-0.1-0.4-0.2-0.7-0.3c0,0-0.1,0-0.1,0    c0,0-0.1,0-0.1-0.1c-0.2-0.1-0.4-0.1-0.5-0.2c0,0,0.1,0,0.1,0.1c1.4,0.5,2.6,1.3,3.4,2.5l0,0l0,0c0.1,0.1,0.2,0.3,0.3,0.4    L214.3,203.4z"/>
		<path class="st2" d="M214.4,203.7C214.4,203.7,214.4,203.7,214.4,203.7l0.1,0.2C214.5,203.8,214.4,203.7,214.4,203.7L214.4,203.7z    "/>
		<path class="st2" d="M206.6,210c0.1,0,0.2,0.1,0.3,0.1c0.2,0,0.4,0,0.6,0.1c-0.1-0.1-0.1-0.1-0.2-0.2c-0.1,0-0.3,0-0.4-0.1    c-0.1,0-0.2-0.1-0.4-0.1c0,0,0,0,0,0C206.5,209.9,206.5,210,206.6,210z"/>
		<path class="st2" d="M213.9,209.2c0.2-0.2,0.4-0.5,0.5-0.7c0.3-0.5,0.5-1.1,0.6-1.6c0-0.2,0-0.4,0-0.5c0-0.2,0-0.3,0-0.5    c0-0.2,0-0.4-0.1-0.5c0,0,0-0.1,0-0.1c0-0.1-0.1-0.3-0.1-0.4c0-0.1-0.1-0.2-0.1-0.3c0,0,0,0,0,0l-0.1,0c0,0,0,0.1,0,0.1    c0.4,1.2,0.3,2.4-0.4,3.5c-0.7,1.3-2.2,2.3-3.8,2.7c-0.4,0.1-0.7,0.3-1.1,0.4c0.8-0.1,1.6-0.1,2.3-0.2    C212.6,210.4,213.4,209.9,213.9,209.2z"/>
		<path class="st2" d="M204.3,202.5C204.4,202.5,204.4,202.5,204.3,202.5c0.1,0,0.1,0,0.2-0.1c0,0,0,0,0,0    C204.4,202.4,204.4,202.4,204.3,202.5z"/>
		<path class="st2" d="M205.2,203.3c0,0.1,0,0.2,0,0.3c0,0.5,0.3,1.1,0.7,1.7C205.7,204.6,205.5,203.9,205.2,203.3z"/>
		<path class="st2" d="M207.2,210c0.1,0.1,0.1,0.1,0.2,0.2c0.2,0,0.5,0,0.7,0c-0.1,0-0.2-0.1-0.3-0.2C207.7,210,207.4,210,207.2,210    z"/>
		<path class="st2" d="M205.5,202.8c-0.1,0.1-0.2,0.3-0.3,0.4c0.3,0.7,0.5,1.4,0.7,2c0.2,0.2,0.4,0.4,0.6,0.6    C206.2,204.9,206,203.8,205.5,202.8z"/>
		<path class="st2" d="M214.3,203.7L214.3,203.7C214.4,203.7,214.4,203.7,214.3,203.7L214.3,203.7z"/>
		<path class="st2" d="M213.9,202.9l-0.2,0l0.4,0.4C214.1,203.2,214,203,213.9,202.9z"/>
		<path class="st2" d="M210.5,200.4c0.9,0.5,1.8,1.1,2.4,1.6c0.1,0.1,0.1,0.1,0.2,0.2l0.8,0.7C213.1,201.6,211.8,200.8,210.5,200.4z    "/>
		<path class="st2" d="M214.2,204.5c0,0.1,0,0.1,0.1,0.2c0.3,1.1,0.2,2.2-0.3,3.1c-0.2,0.4-0.6,0.8-1,1.2c-0.6,0.7-1.5,1.3-2.5,1.7    c1.6-0.3,3.1-1.3,3.8-2.7c0.6-1.1,0.7-2.3,0.4-3.5c0,0,0-0.1,0-0.1L214.2,204.5z"/>
		<path class="st2" d="M202.8,203.3c0,0,0,0.1,0.1,0.1c0-0.1,0-0.2,0-0.3c0,0,0,0-0.1-0.1C202.8,203.2,202.8,203.2,202.8,203.3z"/>
		<path class="st2" d="M213.3,204.8c0.1,0.6,0,1.3-0.2,1.9c0,0,0,0,0,0c-0.1,0.3-0.2,0.5-0.3,0.8c0,0,0,0,0,0    c-0.2,0.3-0.4,0.6-0.7,0.9c-0.1,0.1-0.2,0.1-0.2,0.2c-0.2,0.1-0.4,0.3-0.6,0.4c0,0,0,0-0.1,0c0,0-0.1,0.1-0.1,0.1    c-0.2,0.1-0.3,0.2-0.5,0.3c-0.6,0.3-1.2,0.5-1.8,0.6c0,0,0,0,0,0c-0.2,0-0.4,0.1-0.5,0.1c0,0-0.1,0-0.1,0c-0.2,0-0.5,0-0.7,0    c-0.2,0-0.4,0-0.6-0.1c-0.1,0-0.2,0-0.3-0.1c-0.1,0-0.2-0.1-0.3-0.1c0,0,0,0,0,0c0.2,0.1,0.4,0.2,0.7,0.3c0.6,0.1,1.3,0.1,2,0    c1.8-0.3,3.5-1.4,4.2-2.7c0.5-0.8,0.6-1.7,0.3-2.6c0,0,0,0,0,0L213.3,204.8z"/>
		<path class="st2" d="M213,209c0.3-0.3,0.5-0.6,0.7-0.9c0.6-1,0.7-2.1,0.3-3.3c0-0.1-0.1-0.2-0.1-0.3l0,0c0,0,0,0,0,0    c0,0.1,0,0.1,0.1,0.2c0.3,1,0.2,2.1-0.3,3c-0.8,1.4-2.6,2.6-4.5,2.9c-0.7,0.1-1.5,0.2-2.2,0c-0.5-0.1-0.8-0.2-1.1-0.5    c-0.2,0.1-0.5,0.1-0.7,0.1c0.1,0.2,0.3,0.3,0.4,0.4c0,0,0,0,0.1,0c0,0,0,0,0,0c0.1,0.1,0.3,0.2,0.4,0.2c0.1,0,0.2,0.1,0.4,0.1    c0,0,0.1,0,0.1,0c0.9,0,1.9,0,2.8-0.1c0.4-0.1,0.8-0.2,1.1-0.4C211.5,210.3,212.4,209.7,213,209z"/>
		<path class="st2" d="M205.3,209.2c0.1,0,0.1,0,0.2-0.1c0,0,0,0-0.1-0.1c0,0,0,0,0,0C205.4,209.1,205.3,209.2,205.3,209.2z"/>
		<path class="st2" d="M213.6,204.5l0.3,0.2l0,0l0,0l-0.4,0c0,0,0,0,0,0c0.3,0.9,0.2,1.8-0.3,2.6c-0.7,1.3-2.4,2.4-4.2,2.7    c-0.7,0.1-1.4,0.1-2,0c-0.3,0-0.5-0.1-0.7-0.3c-0.1,0.1-0.3,0.2-0.4,0.2c0.3,0.2,0.6,0.4,1.1,0.5c0.7,0.1,1.4,0.1,2.2,0    c1.9-0.4,3.7-1.5,4.5-2.9c0.5-0.9,0.6-2,0.3-3c0-0.1,0-0.1-0.1-0.2C213.7,204.5,213.7,204.5,213.6,204.5z"/>
		<path class="st2" d="M212.1,206.6c-0.5,0.9-1.6,1.7-2.8,2.2c1.4-0.4,2.6-1.2,3.1-2.2c0.3-0.6,0.4-1.2,0.4-1.8l-0.3,0    C212.5,205.4,212.4,206.1,212.1,206.6z"/>
		<path class="st2" d="M206.8,209.9c0.1,0,0.3,0,0.4,0.1c0.2,0,0.4,0,0.6,0c0,0,0,0,0.1,0c0.3,0,0.6,0,0.9-0.1    c0.6-0.1,1.2-0.3,1.7-0.6c0.2-0.1,0.3-0.2,0.5-0.3c0,0,0.1,0,0.1-0.1c0,0,0,0,0,0c0.2-0.1,0.4-0.2,0.5-0.4c0,0,0,0,0.1,0    c0.3-0.3,0.6-0.6,0.9-0.9c0.1-0.1,0.2-0.3,0.3-0.4c0.1-0.2,0.2-0.4,0.2-0.5c0,0,0,0,0,0c0.2-0.6,0.3-1.2,0.2-1.9l-0.1,0    c0.1,0.7-0.1,1.4-0.4,2c-0.7,1.3-2.2,2.2-3.8,2.5c0,0,0,0,0,0c-0.6,0.1-1.3,0.1-1.9,0c0,0,0,0,0,0c-0.2,0.2-0.4,0.3-0.5,0.4    C206.6,209.9,206.7,209.9,206.8,209.9z"/>
		<path class="st2" d="M204.3,202.5C204.3,202.5,204.3,202.5,204.3,202.5C204.3,202.5,204.3,202.5,204.3,202.5c0,0.1,0,0.1,0,0.2    C204.4,202.6,204.4,202.6,204.3,202.5C204.4,202.5,204.4,202.5,204.3,202.5z"/>
		<path class="st2" d="M205.7,209.1c-0.1,0-0.2,0-0.2,0c0,0,0,0,0.1,0.1C205.6,209.1,205.6,209.1,205.7,209.1z"/>
		<path class="st2" d="M204.3,202.5c-0.1,0.1-0.1,0.1-0.2,0.2c0,0.1,0.1,0.1,0.1,0.2c0-0.1,0.1-0.2,0.1-0.3    C204.3,202.6,204.3,202.5,204.3,202.5z"/>
		<path class="st2" d="M207,209.4c0.6,0.1,1.2,0.1,1.9,0c0,0,0,0,0,0c1.7-0.3,3.1-1.3,3.8-2.5c0.4-0.6,0.5-1.3,0.4-2l-0.4,0    c0.1,0.6-0.1,1.2-0.4,1.8c-0.6,1-1.8,1.9-3.1,2.2c-0.3,0.1-0.7,0.2-1,0.3c-0.4,0.1-0.7,0.1-1,0.1    C207.1,209.3,207.1,209.3,207,209.4C207,209.4,207,209.4,207,209.4z"/>
		<path class="st2" d="M208.2,208.2c1.5-0.3,2.8-1.1,3.4-2.1c0.2-0.4,0.3-0.7,0.3-1.1c-0.2,0.1-0.3,0.1-0.5,0.2    c0,0.3-0.1,0.6-0.2,0.9c0,0.1-0.1,0.1-0.1,0.2c0,0,0,0.1-0.1,0.1c-0.1,0.1-0.2,0.2-0.3,0.3c-0.1,0.1-0.2,0.2-0.3,0.3    c0,0-0.1,0-0.1,0.1c0,0,0,0,0,0c0,0-0.1,0-0.1,0.1c0,0,0,0,0,0c0,0,0,0,0,0c0,0-0.1,0.1-0.1,0.1c0,0-0.1,0-0.1,0.1    C209.4,207.7,208.8,208,208.2,208.2c-0.1,0-0.1,0-0.1,0C208.1,208.2,208.2,208.2,208.2,208.2C208.2,208.2,208.2,208.2,208.2,208.2    z"/>
		<path class="st2" d="M204.1,202.8c0,0.1,0.1,0.1,0.1,0.2c0,0,0-0.1,0-0.1C204.2,202.8,204.2,202.8,204.1,202.8    C204.1,202.7,204.1,202.8,204.1,202.8z"/>
		<path class="st2" d="M208.2,209.1c0.4-0.1,0.7-0.2,1-0.3c1.2-0.5,2.3-1.2,2.8-2.2c0.3-0.6,0.4-1.2,0.4-1.9h0c0,0-0.1,0-0.1,0    c0,0,0,0,0,0c0,0.5-0.1,1-0.3,1.5c-0.6,1.1-2,2-3.6,2.3c0,0,0,0,0,0c-0.2,0-0.4,0.1-0.6,0.1c-0.2,0.2-0.3,0.4-0.5,0.5    C207.5,209.2,207.9,209.2,208.2,209.1z"/>
		<path class="st2" d="M208.3,208.6c1.6-0.3,3-1.2,3.6-2.3c0.3-0.5,0.4-1,0.3-1.5c-0.1,0-0.3,0.1-0.4,0.1c0,0.4-0.1,0.8-0.3,1.1    c-0.6,1-1.9,1.8-3.4,2.1c0,0,0,0,0,0c0,0-0.1,0-0.1,0c-0.1,0.2-0.3,0.3-0.4,0.5C207.9,208.7,208.1,208.7,208.3,208.6    C208.3,208.6,208.3,208.6,208.3,208.6z"/>
		<path class="st2" d="M204,202.9c0.1,0.1,0.1,0.1,0.1,0.2c0,0,0-0.1,0-0.1C204.2,202.9,204.1,202.8,204,202.9    C204.1,202.8,204,202.8,204,202.9z"/>
		<path class="st2" d="M210.4,205.8c-0.3,0.3-0.7,0.5-1,0.8C209.8,206.4,210.2,206.1,210.4,205.8z"/>
		<path class="st2" d="M209.9,207.3C209.9,207.3,209.9,207.3,209.9,207.3c0.1-0.1,0.2-0.1,0.2-0.2c0,0,0,0,0,0c0,0,0,0,0,0    c0,0,0.1-0.1,0.1-0.1c0,0,0,0,0,0c0,0,0.1,0,0.1-0.1c0.1-0.1,0.2-0.2,0.3-0.3c0.1-0.1,0.2-0.2,0.2-0.3c0,0,0-0.1,0.1-0.1    c0,0,0.1-0.1,0.1-0.1c0.2-0.3,0.2-0.6,0.3-0.9c-0.1,0-0.2,0.1-0.2,0.1c0,0.1-0.1,0.3-0.2,0.4c-0.4,0.7-1.3,1.4-2.3,1.8    c-0.1,0.2-0.3,0.3-0.4,0.5c0,0-0.1,0.1-0.1,0.1C208.8,208,209.4,207.7,209.9,207.3z"/>
		<path class="st2" d="M204,202.9c0.1,0.1,0.1,0.2,0.2,0.3c0,0,0-0.1,0-0.1C204.1,203,204.1,202.9,204,202.9    C204,202.9,204,202.9,204,202.9z"/>
		<path class="st2" d="M210.9,205.8c0.1-0.1,0.1-0.3,0.2-0.4c-0.3,0.1-0.5,0.3-0.7,0.5c-0.2,0.3-0.6,0.6-1,0.8    c-0.3,0.3-0.5,0.6-0.8,0.9C209.7,207.1,210.5,206.5,210.9,205.8z"/>
		<path class="st2" d="M206.8,202.5c0.2,0,0.3,0.1,0.5,0.1c0.1,0,0.1,0,0.2,0.1c0.1,0,0.2,0.1,0.3,0.1c0,0,0,0,0,0    c0.1,0,0.1,0.1,0.2,0.1c0.2,0.1,0.3,0.2,0.4,0.3c0.1,0.1,0.2,0.2,0.3,0.3c0,0,0,0.1,0.1,0.1c0.1-0.1,0.3-0.2,0.4-0.3    c-0.3-0.4-0.6-0.7-1.1-0.9c-0.8-0.2-1.5-0.3-2.1-0.1c0,0,0,0,0,0C206.4,202.4,206.6,202.5,206.8,202.5z"/>
		<path class="st2" d="M209.7,203.1c-0.1,0-0.1-0.1-0.2-0.1C209.5,203,209.6,203.1,209.7,203.1C209.7,203.1,209.7,203.1,209.7,203.1    z"/>
		<path class="st2" d="M204.5,202.4C204.5,202.4,204.5,202.4,204.5,202.4C204.5,202.3,204.5,202.3,204.5,202.4    C204.5,202.3,204.5,202.3,204.5,202.4z"/>
		<path class="st2" d="M202.8,203.1C202.8,203.1,202.8,203.1,202.8,203.1c0.1-0.1,0.1-0.3,0.2-0.5c0,0,0,0,0,0    C202.9,202.7,202.8,202.9,202.8,203.1z"/>
		<path class="st2" d="M203.9,203.1c0.1,0.1,0.1,0.2,0.2,0.3c0-0.1,0-0.2,0-0.3c0-0.1-0.1-0.2-0.2-0.3C204,203,204,203,203.9,203.1z    "/>
		<path class="st2" d="M204.7,205.5C204.7,205.5,204.7,205.5,204.7,205.5C204.7,205.5,204.7,205.5,204.7,205.5    C204.7,205.5,204.7,205.5,204.7,205.5z"/>
		<path class="st2" d="M209.3,203.4c0.1-0.1,0.2-0.2,0.3-0.2c0-0.1-0.1-0.1-0.1-0.2c-0.4-0.2-0.9-0.4-1.3-0.5    C208.6,202.7,209,203,209.3,203.4z"/>
		<path class="st2" d="M203,202.6C203,202.6,203,202.6,203,202.6c0-0.1,0.1-0.1,0.1-0.2C203.1,202.5,203,202.5,203,202.6z"/>
		<path class="st2" d="M203.9,203.5c0,0.6,0.3,1.3,0.8,2c0,0,0,0,0,0c-0.4-0.6-0.6-1.2-0.6-1.8c0-0.1,0-0.1,0-0.2    c-0.1-0.1-0.1-0.2-0.2-0.3C203.9,203.2,203.9,203.3,203.9,203.5z"/>
		<path class="st2" d="M198.3,203.4c0,0.1,0,0.1-0.1,0.2c-0.1,0.3-0.2,0.7-0.2,1.1c0,0.1,0,0.2,0,0.3c0,0.3,0,0.5,0.1,0.8    c0.1,0.8,0.5,1.6,0.9,2.3c0.1,0.1,0.1,0.2,0.2,0.2c0.2,0.3,0.4,0.5,0.6,0.7c0.1,0.1,0.3,0.3,0.4,0.4c0,0,0,0,0,0    c0.2,0.2,0.4,0.3,0.7,0.5c0.4,0.2,0.8,0.4,1.2,0.5c0.7,0.2,1.4,0.1,2-0.3c0,0,0,0,0,0c-0.2-0.1-0.5-0.2-0.7-0.3    c-0.4,0.1-0.7,0.1-1.2,0c-0.6-0.2-1.2-0.5-1.8-1c0,0,0,0,0,0c-1.3-1.1-2.1-2.7-2.1-4.2c0-0.8,0.2-1.6,0.6-2.3    c0.1-0.2,0.1-0.3,0.2-0.5c-0.2,0.2-0.3,0.4-0.4,0.6C198.6,202.7,198.5,203,198.3,203.4z"/>
		<path class="st2" d="M200.8,208.5c0.5,0.4,1.1,0.7,1.6,0.9c0.1,0,0.3,0.1,0.4,0.1c0,0-0.1,0-0.1,0c-0.1,0-0.1,0-0.2,0    c-0.4-0.1-0.9-0.4-1.3-0.7c-0.1,0-0.1-0.1-0.2-0.1c0,0,0,0,0,0c-0.3-0.2-0.5-0.5-0.8-0.8c0-0.1-0.1-0.1-0.1-0.2    c-0.7-0.8-1.1-1.8-1.3-2.7C198.9,206.2,199.7,207.6,200.8,208.5z"/>
		<path class="st2" d="M204.8,209.2c0.2,0,0.3,0,0.5,0c0,0,0.1-0.1,0.1-0.1c-0.1,0-0.2,0-0.4,0C205,209.1,204.9,209.2,204.8,209.2z"/>
		<path class="st2" d="M198.4,204.6c0,1.5,0.8,3.2,2.1,4.2c0,0,0,0,0,0c0.5,0.4,1.2,0.8,1.8,1c0.4,0.1,0.8,0.1,1.2,0    c-0.2-0.1-0.4-0.2-0.5-0.3c0,0,0,0-0.1,0c0,0,0,0,0,0c-0.1,0-0.3,0-0.4-0.1c-0.6-0.2-1.1-0.5-1.6-0.9c-1.1-0.9-1.9-2.3-2-3.7    c-0.1-0.3-0.1-0.6-0.1-0.9c0-0.6,0.1-1.2,0.3-1.7C198.6,203,198.4,203.8,198.4,204.6z"/>
		<path class="st2" d="M200.2,200.5c-0.2,0.2-0.3,0.4-0.5,0.6c0,0.1-0.1,0.1-0.1,0.2c0,0-0.1,0.1-0.1,0.1c-0.1,0.1-0.2,0.3-0.3,0.4    c-0.1,0.2-0.2,0.3-0.2,0.5c-0.2,0.5-0.3,1.1-0.3,1.7c0,0.3,0,0.6,0.1,0.9c0.2,1,0.6,1.9,1.3,2.7c0.1,0.1,0.1,0.1,0.2,0.2    c0.2,0.2,0.4,0.5,0.7,0.7c0,0,0,0,0,0c0.1,0.1,0.3,0.2,0.4,0.3c0.4,0.3,0.9,0.5,1.3,0.7c0,0,0.1,0,0.1,0c0,0,0,0,0,0    c0,0,0,0,0.1,0c-0.2-0.2-0.5-0.3-0.7-0.5c-0.4-0.3-0.8-0.7-1.1-1.2c-1.3-1.1-2-2.7-2.1-4.2c0-1.2,0.5-2.3,1.4-3.2    c3.8-3.7,9.7-0.7,12.2,1.5c0.1,0.1,0.1,0.1,0.2,0.2l0.3,0.3l-0.1,0c0.1,0.1,0.2,0.2,0.4,0.3c0.1,0.1,0.1,0.1,0.2,0.2l0.1,0.1    l0.2,0l0,0l0,0l-0.8-0.7c-0.1-0.1-0.1-0.1-0.2-0.2c-0.6-0.5-1.5-1.1-2.4-1.6c0,0-0.1,0-0.1-0.1c0,0-0.1,0-0.1-0.1c0,0,0,0,0,0    c-0.2-0.1-0.4-0.2-0.7-0.3c-0.1,0-0.1-0.1-0.2-0.1c-0.2-0.1-0.5-0.2-0.7-0.3c0,0-0.1,0-0.1-0.1c-0.2-0.1-0.3-0.1-0.5-0.2    c-0.2-0.1-0.4-0.1-0.7-0.2c-2.2-0.6-4.7-0.6-6.7,1.1c0,0-0.1,0.1-0.1,0.1C200.4,200.3,200.3,200.4,200.2,200.5z"/>
		<path class="st2" d="M207.8,199.7c-2.3-0.8-5-1-7.1,1c-0.8,0.8-1.3,1.8-1.2,2.9c0,0.5,0.1,1,0.3,1.5c-0.1-0.4-0.1-0.8-0.1-1.1    c0-1.2,0.4-2.2,1.3-3c1.1-1,2.3-1.4,3.7-1.5C205.6,199.3,206.7,199.4,207.8,199.7z"/>
		<path class="st2" d="M203.4,208.5C203.4,208.5,203.4,208.5,203.4,208.5c0.2,0,0.3,0,0.4,0c0,0,0,0,0,0    C203.6,208.5,203.5,208.5,203.4,208.5z"/>
		<path class="st2" d="M209.8,203.1C209.7,203.1,209.7,203.1,209.8,203.1c-0.1,0-0.1,0-0.1,0c-0.1,0.1-0.2,0.1-0.3,0.2    c-0.1,0.1-0.3,0.2-0.4,0.3c-0.2,0.1-0.3,0.2-0.4,0.4c0,0,0,0,0,0c-0.1,0.1-0.2,0.2-0.3,0.3c-0.1,0.1-0.2,0.2-0.3,0.3c0,0,0,0,0,0    c0,0-0.1,0.1-0.1,0.1c0,0,0,0-0.1,0.1c0,0,0,0-0.1,0.1c0,0,0,0,0,0c0,0-0.1,0.1-0.1,0.1c-0.1,0.1-0.2,0.2-0.3,0.3    c-0.1,0.1-0.2,0.2-0.3,0.4c0,0.1-0.1,0.1-0.1,0.2c0,0-0.1,0.1-0.1,0.1c0,0,0,0,0,0c0,0,0,0,0,0c0,0,0,0,0.1,0.1    C207.5,205,208.4,203.9,209.8,203.1z"/>
		<path class="st2" d="M204,208.9c0.2,0.1,0.4,0.2,0.5,0.2c0.1,0,0.2,0.1,0.3,0.1c0.1,0,0.1-0.1,0.2-0.1c-0.1,0-0.2,0-0.4-0.1    c-0.1,0-0.3-0.1-0.4-0.2C204.2,208.8,204.1,208.9,204,208.9z"/>
		<path class="st2" d="M207.6,206.3c0.7-0.9,1.7-2,3-2.8c-0.1-0.1-0.2-0.1-0.4-0.2c-1.4,0.8-2.4,1.9-3.2,2.9    c0.1,0.1,0.3,0.2,0.4,0.2C207.5,206.5,207.5,206.4,207.6,206.3z"/>
		<path class="st2" d="M199.7,205.2c-0.2-0.5-0.3-1-0.3-1.5c0-1.1,0.4-2.1,1.2-2.9c2.1-2.1,4.9-1.8,7.1-1c2,0.5,4,1.7,5.3,2.7l0.1,0    l-0.3-0.3c-0.1-0.1-0.1-0.1-0.2-0.2c-2.6-2.1-8.4-5.1-12.2-1.5c-0.9,0.9-1.4,2-1.4,3.2c0,1.5,0.8,3.1,2.1,4.2    C200.4,207,200,206.1,199.7,205.2z"/>
		<path class="st2" d="M203.4,208.5c0.2,0.1,0.4,0.3,0.6,0.4c0.1,0,0.2-0.1,0.3-0.1c-0.2-0.1-0.4-0.2-0.5-0.3    C203.6,208.5,203.5,208.5,203.4,208.5z"/>
		<path class="st2" d="M210.2,203.4c-0.1-0.1-0.3-0.2-0.4-0.2c-1.3,0.8-2.3,1.9-3.1,2.9c0.1,0.1,0.2,0.2,0.3,0.2    C207.8,205.3,208.8,204.1,210.2,203.4z"/>
		<path class="st2" d="M215,204.4L215,204.4L215,204.4L215,204.4L215,204.4l-0.3-0.3l-0.2-0.2l-0.1-0.1l-0.1-0.1l-0.2,0l0.2,0.1    l-0.5,0c-0.1,0-0.2,0-0.3,0l0.6,0.5l-0.5,0l0.1,0.1c0.1,0,0.1,0,0.2,0c0,0,0,0,0,0l0,0l0.4,0l0.4,0l0.1,0l0,0L215,204.4z"/>
		<path class="st2" d="M206.3,209.9C206.3,209.9,206.3,209.9,206.3,209.9c0.1,0,0.1-0.1,0.2-0.1c0,0,0,0,0,0    c0.2-0.1,0.4-0.3,0.5-0.4c0.1-0.1,0.1-0.1,0.2-0.2c0.2-0.2,0.3-0.3,0.5-0.5c0.1-0.2,0.3-0.3,0.4-0.5c0,0,0,0,0-0.1    c0,0,0.1-0.1,0.1-0.1c0.1-0.2,0.3-0.3,0.4-0.5c0.3-0.3,0.5-0.6,0.8-0.9c0.3-0.3,0.6-0.6,1-0.8c0.2-0.2,0.5-0.3,0.7-0.5    c0.1,0,0.2-0.1,0.2-0.1c0,0,0,0,0,0c0.2-0.1,0.3-0.2,0.5-0.2c0.1-0.1,0.3-0.1,0.4-0.1c0,0,0,0,0,0c-0.2,0-0.3,0-0.5,0    c-1.1,0.2-1.7,0.9-2.3,1.6c-0.4,0.4-0.8,0.9-1.3,1.1c-0.2,0.2-0.4,0.3-0.6,0.4c-0.1,0.1-0.2,0.2-0.3,0.2c-0.9,1-1.8,1.7-3.1,1.3    c-0.6-0.2-1.3-0.6-1.9-1.1c-1.5-1.3-2.5-3.1-2.5-4.7c0-1.1,0.4-2,1.2-2.8c1-0.9,2.1-1.3,3.4-1.4c0,0,0.1,0,0.1,0    c-1.3,0.1-2.6,0.5-3.7,1.5c-0.9,0.8-1.3,1.8-1.3,3c0,0.4,0.1,0.7,0.1,1.1c0.2,0.9,0.7,1.9,1.4,2.7c0.3,0.4,0.7,0.8,1.1,1.2    c0.2,0.2,0.5,0.3,0.7,0.5c0.2,0.1,0.4,0.2,0.5,0.3c0.2,0.1,0.5,0.2,0.7,0.3c0,0,0,0,0,0c0.3,0.1,0.6,0.2,0.9,0.2c0,0,0.1,0,0.1,0    c0.2,0,0.5-0.1,0.7-0.1C206,210.1,206.2,210,206.3,209.9z"/>
		<path class="st2" d="M201.3,201.3c-0.7,0.7-1.1,1.5-1.1,2.4c0,1.5,0.9,3.2,2.4,4.4c0.6,0.5,1.2,0.8,1.7,1c0.5,0.2,1,0.1,1.4-0.1    c0,0-0.1,0-0.1,0c-0.1,0-0.1,0.1-0.2,0.1c-0.1,0-0.1,0-0.2,0.1c-0.1,0-0.3,0-0.5,0c-0.1,0-0.2,0-0.3-0.1c-0.2-0.1-0.4-0.1-0.5-0.2    c-0.2-0.1-0.4-0.2-0.6-0.4c0,0,0,0,0,0c-0.1,0-0.1-0.1-0.2-0.1c-0.1-0.1-0.2-0.1-0.3-0.2c0,0,0,0,0,0c-0.1-0.1-0.3-0.2-0.4-0.4    c-0.2-0.2-0.5-0.5-0.6-0.7c-0.2-0.2-0.3-0.4-0.4-0.6c-0.3-0.5-0.5-1-0.6-1.5c-0.1-0.3-0.1-0.7-0.1-1c0,0,0,0,0-0.1    c0-0.3,0-0.6,0.1-0.9c0.1-0.8,0.5-1.6,1.2-2.2c0.1-0.1,0.2-0.2,0.3-0.3C201.9,200.8,201.6,201,201.3,201.3z"/>
		<path class="st2" d="M213.3,203.8C213.3,203.8,213.3,203.8,213.3,203.8l0.2,0.1c0.1,0,0.2,0,0.3,0l0.5,0l-0.2-0.1L213.3,203.8z"/>
		<path class="st2" d="M207,208.5c-0.4,0.3-0.8,0.5-1.2,0.6c-0.4,0.2-0.9,0.3-1.4,0.1c-0.6-0.2-1.2-0.6-1.7-1    c-1.4-1.2-2.4-2.9-2.4-4.4c0-1,0.4-1.8,1.1-2.4c0.3-0.3,0.6-0.5,0.9-0.7c0.7-0.6,1.4-0.9,2.2-1c-1.2,0.1-2.4,0.5-3.4,1.4    c-0.8,0.7-1.2,1.7-1.2,2.8c0,1.6,1,3.5,2.5,4.7c0.6,0.5,1.2,0.9,1.9,1.1c1.3,0.5,2.2-0.3,3.1-1.3    C207.2,208.3,207.1,208.4,207,208.5z"/>
		<path class="st2" d="M207.8,206.3c0.8-0.9,1.6-1.9,2.9-2.7c0,0,0,0,0,0c0,0,0,0,0,0c-1.3,0.8-2.3,1.9-3,2.8c0,0.1-0.1,0.1-0.1,0.2    c0,0,0.1,0,0.1,0c0,0,0,0,0,0C207.6,206.5,207.7,206.4,207.8,206.3z"/>
		<path class="st2" d="M207.8,199.7c-1.1-0.3-2.2-0.4-3.3-0.2c0,0-0.1,0-0.1,0c-0.8,0.2-1.5,0.5-2.2,1c-0.1,0.1-0.2,0.2-0.3,0.3    c-0.6,0.6-1,1.4-1.2,2.2c0,0.2,0,0.4,0,0.6c0,0,0,0.1,0,0.1c0,0.3,0.1,0.6,0.1,0.9c0.2,0.7,0.5,1.3,0.9,1.9    c0.1,0.2,0.3,0.4,0.4,0.5c0.2,0.2,0.4,0.5,0.7,0.7c0,0,0.1,0.1,0.1,0.1c0.2,0.2,0.4,0.3,0.7,0.5c0,0,0.1,0,0.1,0.1c0,0,0,0,0,0    c0.2,0.1,0.4,0.2,0.5,0.3c0.1,0.1,0.3,0.1,0.4,0.2c0.1,0,0.3,0.1,0.4,0.1c0.1,0,0.2,0,0.4,0c0,0,0,0,0,0c0.1,0,0.2,0,0.2,0    c0,0,0.1,0,0.1,0c0.4-0.1,0.8-0.3,1.2-0.6c-0.5,0.2-1,0.3-1.6,0c0,0,0,0,0,0c-0.2,0-0.4,0-0.6-0.1c-0.6-0.2-1.1-0.5-1.6-0.9    c0,0,0,0,0,0c-1.3-1.1-2.1-2.6-2.1-4.1c0-1,0.4-1.9,1.1-2.6c3.3-3.1,8.7-0.1,11.1,1.8c0.1,0.1,0.1,0.1,0.2,0.2l0.4,0.3l-0.5,0.1    c-0.2,0-0.4,0.1-0.5,0.1c0.1,0,0.1,0.1,0.2,0.1c0.1,0.1,0.1,0.1,0.2,0.1l0.3,0.2c0,0,0,0,0,0l0.8-0.1l0.2,0l0.1,0l0.1,0l0.1,0    l-0.3-0.2l-0.1-0.1l-0.4-0.4l-0.1-0.1c-0.1-0.1-0.1-0.1-0.2-0.2c-0.1-0.1-0.2-0.2-0.4-0.3C211.8,201.4,209.9,200.3,207.8,199.7z"/>
		<path class="st2" d="M212.7,202.8c-1.1-0.9-6.9-5-10.3-1.7c-0.7,0.6-1,1.4-1,2.3c0,1.2,0.7,2.5,1.7,3.5c-0.9-1-1.4-2.2-1.4-3.3    c0-0.9,0.3-1.6,1-2.2c2.6-2.4,7.1-0.2,9.6,1.6C212.4,202.9,212.6,202.9,212.7,202.8z"/>
		<path class="st2" d="M207.8,206.3c0.7-0.9,1.6-1.9,3.1-2.5c-0.1-0.1-0.2-0.1-0.3-0.2C209.4,204.3,208.5,205.4,207.8,206.3    c-0.1,0.1-0.2,0.2-0.3,0.3c0,0,0,0,0.1,0C207.7,206.5,207.7,206.4,207.8,206.3z"/>
		<path class="st2" d="M203.9,207.6c-0.3-0.2-0.5-0.5-0.8-0.8c-1-1-1.7-2.3-1.7-3.5c0-0.9,0.3-1.6,1-2.3c3.4-3.2,9.2,0.8,10.3,1.7    c-0.2,0-0.3,0.1-0.5,0.1c0.2,0.1,0.3,0.2,0.4,0.3c0.2,0,0.4-0.1,0.5-0.1l0.5-0.1l-0.4-0.3c-0.1,0-0.1-0.1-0.2-0.2    c-2.4-2-7.8-4.9-11.1-1.8c-0.7,0.7-1.1,1.6-1.1,2.6c0,1.4,0.8,3,2.1,4.1c0,0,0,0,0,0c0.5,0.4,1.1,0.7,1.6,0.9    c0.2,0.1,0.4,0.1,0.6,0.1C204.9,208.3,204.4,208,203.9,207.6z"/>
		<path class="st2" d="M203.1,201.6c-0.5,0.4-0.7,1-0.7,1.7c0,1.1,0.8,2.5,1.9,3.5c0,0,0,0,0,0c0.1,0.1,0.3,0.2,0.4,0.3    c-0.6-0.5-1.1-1.2-1.5-1.9c0-0.1-0.1-0.2-0.1-0.3c0-0.1-0.1-0.1-0.1-0.2c-0.2-0.4-0.3-0.9-0.3-1.3c0-0.1,0-0.1,0-0.2    c0-0.1,0-0.2,0-0.3c0-0.2,0.1-0.3,0.2-0.5c0-0.1,0.1-0.1,0.1-0.2c0.1-0.3,0.3-0.5,0.6-0.7c0.7-0.6,1.5-0.9,2.3-0.9    C204.9,200.7,203.9,200.9,203.1,201.6z"/>
		<path class="st2" d="M213.3,203.8l-0.3-0.2c-0.1,0-0.1-0.1-0.2-0.1c-0.1,0-0.1-0.1-0.2-0.1c-0.1-0.1-0.3-0.2-0.4-0.3    c-2.5-1.8-7-4-9.6-1.6c-0.6,0.6-1,1.4-1,2.2c0,1.1,0.5,2.3,1.4,3.3c0.2,0.3,0.5,0.5,0.8,0.8c0.5,0.4,1,0.7,1.5,0.9c0,0,0,0,0,0    c0.6,0.2,1.1,0.2,1.6,0c0.1-0.1,0.2-0.1,0.4-0.2c0.1-0.1,0.2-0.1,0.3-0.2c-0.4,0.2-0.8,0.2-1.2,0.1c-0.3,0-0.6,0-0.9-0.1    c-0.5-0.2-1-0.5-1.5-0.9c0,0,0,0,0,0c-1.3-1-2.1-2.5-2.1-3.8c0-0.8,0.3-1.5,0.9-2c2.7-2.5,7.6,0.3,9.8,2.1    c0.1,0.1,0.1,0.1,0.2,0.1l0.4,0.3l-0.3,0l0.6,0.5l0.5,0l-0.6-0.5L213.3,203.8z"/>
		<path class="st2" d="M208,206.3c0.7-0.9,1.6-1.9,3-2.4c0,0-0.1,0-0.1-0.1c-1.5,0.6-2.4,1.7-3.1,2.5c-0.1,0.1-0.2,0.2-0.2,0.3    c0.1,0,0.1,0,0.1,0C207.8,206.5,207.9,206.4,208,206.3z"/>
		<path class="st2" d="M206.2,208c-0.5-0.2-0.9-0.5-1.4-0.8h0c0,0-0.1-0.1-0.1-0.1c-0.1-0.1-0.3-0.2-0.4-0.3c0,0,0,0,0,0    c-1.2-1-1.9-2.3-1.9-3.5c0-0.7,0.2-1.2,0.7-1.7c0.8-0.7,1.8-0.9,2.9-0.8c1.9,0,3.9,1.1,5.2,1.9c0.8,0.5,1.4,1,1.4,1    c0,0,0.1,0.1,0.1,0.1l0.1,0.1l0.3,0l-0.4-0.3c-0.1,0-0.1-0.1-0.2-0.1c-2.2-1.8-7.1-4.6-9.8-2.1c-0.6,0.5-0.9,1.2-0.9,2    c0,1.3,0.8,2.8,2.1,3.8c0,0,0,0,0,0c0.5,0.4,1,0.7,1.5,0.9c0.3,0.1,0.6,0.2,0.9,0.1C206.3,208.1,206.3,208,206.2,208z"/>
		<path class="st2" d="M208.2,206.1c0.6-0.8,1.5-1.7,2.9-2.2c0,0-0.1-0.1-0.1-0.1c-1.4,0.5-2.3,1.6-3,2.4c-0.1,0.1-0.2,0.2-0.3,0.3    c0,0,0,0,0.1,0C207.9,206.5,208.1,206.3,208.2,206.1z"/>
		<path class="st2" d="M212.4,204.8c-0.2,0-0.4,0-0.6,0.1c0.2,0,0.3,0,0.5,0C212.4,204.8,212.4,204.8,212.4,204.8L212.4,204.8l0.3,0    l0.4,0l0.1,0l0.2,0l0.4,0l0,0L212.4,204.8z"/>
		<path class="st2" d="M204.1,202c-0.4,0.3-0.6,0.8-0.6,1.3c0,1,0.7,2.2,1.8,3.1c0.2,0.2,0.4,0.3,0.6,0.4c0,0,0,0,0,0    c-0.5-0.4-0.8-0.8-1.1-1.3c0,0,0,0,0,0c-0.5-0.7-0.8-1.4-0.8-2c0-0.1,0-0.3,0.1-0.4c0-0.1,0-0.1,0.1-0.2c0,0,0,0,0-0.1    c0,0,0-0.1,0-0.1c0,0,0-0.1,0-0.1c0-0.1,0.1-0.1,0.2-0.2c0,0,0,0,0,0c0,0,0,0,0,0c0,0,0.1-0.1,0.1-0.1c0,0,0,0,0.1,0    c0.1-0.1,0.2-0.2,0.3-0.3c0.3-0.3,0.7-0.5,1-0.6C205.2,201.4,204.6,201.6,204.1,202z"/>
		<path class="st2" d="M207.2,207.6c-0.3,0.1-0.6,0.1-0.9-0.1c-0.4-0.2-0.9-0.4-1.3-0.8c-1.2-1-1.9-2.3-1.9-3.4    c0-0.6,0.3-1.2,0.7-1.6c1.1-1,2.7-0.9,4.3-0.4c1.1,0.3,2.2,0.8,3.1,1.4c-1.3-0.9-3.4-2-5.2-1.9c-0.8,0-1.7,0.3-2.3,0.9    c-0.2,0.2-0.4,0.5-0.6,0.7c0,0.1-0.1,0.1-0.1,0.2c-0.1,0.2-0.1,0.4-0.1,0.5c0,0.1,0,0.2,0,0.3c0,0,0,0.1,0,0.1    c0,0.4,0.1,0.8,0.2,1.2c0,0.1,0.1,0.2,0.1,0.2c0,0.1,0.1,0.2,0.1,0.3c0.3,0.7,0.8,1.3,1.5,1.9c0,0,0.1,0.1,0.1,0.1h0    c0.4,0.4,0.9,0.6,1.4,0.8c0.1,0,0.1,0,0.2,0.1c0.5,0.1,0.9,0.1,1.2-0.1c0.2-0.1,0.4-0.3,0.6-0.4    C208,207.7,207.6,207.7,207.2,207.6z"/>
		<path class="st2" d="M208.1,206.5c0.1-0.1,0.2-0.3,0.3-0.4c0.4-0.4,0.7-0.9,1.2-1.3c0.4-0.4,0.9-0.7,1.5-0.9    c-0.2-0.1-0.4-0.2-0.6-0.4c0,0,0,0,0,0c0.1,0.1,0.2,0.1,0.3,0.2c0,0,0.1,0,0.1,0.1c0,0,0.1,0.1,0.1,0.1c-1.4,0.4-2.2,1.4-2.9,2.2    c-0.2,0.2-0.3,0.4-0.5,0.5C207.9,206.6,208,206.6,208.1,206.5z"/>
		<path class="st2" d="M203.8,201.7c-0.5,0.4-0.7,1-0.7,1.6c0,1.1,0.7,2.5,1.9,3.4c0.4,0.3,0.9,0.6,1.3,0.8c0.4,0.1,0.7,0.2,0.9,0.1    c-0.1,0-0.1,0-0.2-0.1c-0.4-0.2-0.8-0.4-1.2-0.7c-0.2-0.1-0.4-0.3-0.6-0.4c-1.1-0.9-1.8-2.1-1.8-3.1c0-0.5,0.2-0.9,0.6-1.3    c0.5-0.5,1.1-0.6,1.8-0.7c0.7-0.2,1.5-0.2,2.3,0C206.6,200.8,204.9,200.7,203.8,201.7z"/>
		<path class="st2" d="M208.4,206.1c-0.1,0.1-0.2,0.3-0.3,0.4c0.2-0.1,0.4-0.4,0.7-0.7c0.3-0.3,0.5-0.6,0.9-1    C209.2,205.2,208.8,205.7,208.4,206.1z"/>
		<path class="st2" d="M212.9,203.9l-0.1-0.1c0,0-0.1-0.1-0.1-0.1c-0.1-0.1-0.6-0.5-1.4-1c-0.8-0.5-2-1.1-3.1-1.4    c-0.8-0.2-1.5-0.2-2.3,0c-0.4,0.1-0.7,0.3-1,0.6c-0.1,0.1-0.2,0.2-0.3,0.3c0,0,0,0,0,0c0,0.1-0.1,0.1-0.1,0.2c0,0,0,0,0,0.1    c0,0.1-0.1,0.2-0.1,0.3c0,0,0,0.1,0,0.1c0,0,0,0.1,0,0.1c0,0,0,0.1,0,0.1c0,0.1,0,0.2,0,0.3c0,0.1,0,0.1,0,0.2    c0,0.6,0.2,1.2,0.6,1.8c0,0,0,0,0,0.1c0.3,0.5,0.7,0.9,1.1,1.3c0,0,0,0,0,0c0.4,0.3,0.8,0.6,1.2,0.7c0.1,0,0.1,0,0.2,0.1    c0.4,0.1,0.7,0.1,1,0c0.5-0.2,0.9-0.7,1.3-1.1c0.6-0.7,1.2-1.4,2.3-1.6c0.2,0,0.4-0.1,0.6-0.1l1.4,0l0,0l-0.3-0.2l-0.1-0.1    L212.9,203.9z M205,202c2-1.8,5.7,0.4,7.4,1.8c0,0,0.1,0.1,0.1,0.1l0.4,0.4l-0.6,0c-1.7,0-2.4,1-3.1,1.8c-0.6,0.7-1.2,1.4-2.1,1    c-0.4-0.1-0.8-0.4-1.1-0.7c-1-0.8-1.7-2-1.6-3C204.4,202.9,204.6,202.4,205,202z"/>
		<path class="st2" d="M209,205.8c0.6-0.8,1.4-1.7,2.9-1.9c-1.5-1.1-4.9-3.1-6.6-1.6c-0.3,0.3-0.5,0.6-0.5,1.1    c0,0.8,0.6,1.9,1.5,2.6c0.3,0.3,0.7,0.5,1,0.6C208,206.9,208.3,206.6,209,205.8z M207.8,206.6    C207.8,206.6,207.7,206.6,207.8,206.6c-0.1,0-0.2,0-0.2,0c0,0,0,0-0.1,0c0,0,0,0,0,0c0,0-0.1,0-0.1,0c-0.1-0.1-0.3-0.1-0.4-0.2    c-0.1-0.1-0.2-0.2-0.3-0.2c0,0-0.1,0-0.1-0.1c0,0,0,0,0,0c0,0-0.1-0.1-0.1-0.1c-0.2-0.2-0.4-0.4-0.6-0.6c-0.4-0.6-0.7-1.2-0.7-1.7    c0-0.1,0-0.2,0-0.3c0-0.2,0.1-0.3,0.3-0.4c0,0,0,0,0,0c0,0,0,0,0,0c0.2-0.2,0.4-0.3,0.6-0.3c0.6-0.2,1.3-0.2,2.1,0.1    c0.4,0.1,0.9,0.3,1.3,0.5c0.1,0,0.1,0.1,0.2,0.1c0,0,0,0,0.1,0c0.1,0.1,0.3,0.2,0.4,0.2c0.1,0.1,0.3,0.1,0.4,0.2c0,0,0,0,0,0    c0.2,0.1,0.4,0.2,0.6,0.4c-0.6,0.2-1.1,0.5-1.5,0.9c-0.4,0.3-0.6,0.7-0.9,1c-0.3,0.4-0.5,0.6-0.7,0.7    C208,206.6,207.9,206.6,207.8,206.6z"/>
		<path class="st2" d="M204.4,203.4c0,1,0.6,2.1,1.6,3c0.4,0.3,0.7,0.5,1.1,0.7c1,0.4,1.5-0.3,2.1-1c0.7-0.8,1.5-1.7,3.1-1.8l0.6,0    l-0.4-0.4c0,0-0.1-0.1-0.1-0.1c-1.7-1.4-5.4-3.6-7.4-1.8C204.6,202.4,204.4,202.9,204.4,203.4z M207.3,206.7    c-0.3-0.1-0.7-0.3-1-0.6c-0.9-0.7-1.5-1.8-1.5-2.6c0-0.4,0.2-0.8,0.5-1.1c1.7-1.5,5.1,0.4,6.6,1.6c-1.5,0.2-2.2,1.1-2.9,1.9    C208.3,206.6,208,206.9,207.3,206.7z"/>
	</g>
	<g>
		<g>
			<path class="st3" d="M213,201.3c0,0,0.1-0.1,0.1-0.2c-0.5-2-4.3-2.6-5.5-1c-0.7,0.9,0.3,2.1,1.3,2.2c1.4,0.1,2.5-1.3,3.9-0.9     C212.8,201.5,213,201.4,213,201.3z"/>
			<path class="st4" d="M209.7,200.8c-0.3,0.1-0.9,0.3-1.1,0c-0.3-0.4,1.4-0.7,1.5-0.7c0.7-0.1,1.3,0.1,1.8,0.4     c-0.3,0-0.6,0-0.8,0.1C210.7,200.7,210.2,200.7,209.7,200.8z"/>
			<path class="st3" d="M203.3,197.1c1.2,1,0.6,2.6,1.5,3.7c0.6,0.8,2.1,0.9,2.5-0.2c0.6-1.9-2.1-4.7-4-4c-0.1,0-0.1,0.1-0.1,0.1     C203.2,196.9,203.2,197.1,203.3,197.1z"/>
			<path class="st4" d="M204.8,198c-0.1-0.2-0.2-0.5-0.4-0.7c0.6,0.3,1,0.7,1.4,1.3c0.1,0.1,0.7,1.7,0.3,1.6c-0.4,0-0.5-0.6-0.6-0.9     C205.3,198.8,205,198.4,204.8,198z"/>
		</g>
	</g>
</g>
</svg>