<svg xmlns="http://www.w3.org/2000/svg" xmlns:xlink="http://www.w3.org/1999/xlink" version="1.1" id="Capa_1" x="0px" y="0px" style="enable-background:new 0 0 413.3 413.3;" xml:space="preserve" viewBox="199.78 195.58 14.05 21.35">
<style type="text/css">
	.st0{fill:#030404;stroke:#FFFFFF;stroke-width:0.25;stroke-miterlimit:10;}
</style>
<g id="b1_pear">
	<path class="st0" d="M211,205.4c0-0.3,0.1-0.6,0.1-0.9c0-2.6-2-4.8-4.4-4.8c-2.4,0-4.4,2.1-4.4,4.8c0,0.3,0,0.6,0.1,0.9   c-1.5,1.2-2.5,3-2.5,5c0,3.6,3.1,6.4,6.9,6.4c3.8,0,6.9-2.9,6.9-6.4C213.5,208.4,212.5,206.6,211,205.4z"/>
	<path class="st0" d="M206.6,200.6c-0.5-0.5-0.9-0.9-1.2-1.3c-0.3-0.4-0.5-0.7-0.7-0.9c-0.2-0.3-0.3-0.6-0.5-0.9   c-0.2-0.4-0.4-0.8-0.8-1.4c0.6-0.4,1.3-0.5,2-0.3c0.6,0.2,1.2,0.7,1.6,1.2c0.4,0.6,0.5,1.2,0.4,1.8   C207.4,199.5,207.2,200.1,206.6,200.6z"/>
	<path class="st0" d="M207.3,199.4c0-0.5,0.2-0.8,0.5-1.1c0.2-0.3,0.5-0.4,0.8-0.5c0.3-0.1,0.7-0.1,1-0.1c0.3,0.1,0.7,0.2,1,0.6   c-0.3,0.4-0.5,0.6-0.7,0.8c-0.2,0.2-0.5,0.3-0.7,0.4c-0.2,0.1-0.5,0.1-0.8,0.1C208.1,199.6,207.8,199.6,207.3,199.4z"/>
</g>
</svg>