<svg xmlns="http://www.w3.org/2000/svg" xmlns:xlink="http://www.w3.org/1999/xlink" version="1.1" id="Capa_1" x="0px" y="0px" style="enable-background:new 0 0 413.3 413.3;" xml:space="preserve" viewBox="195.28 194.18 22.95 24.25">
<style type="text/css">
	.st0{fill:#030404;stroke:#FFFFFF;stroke-width:0.25;stroke-miterlimit:10;}
</style>
<g>
	<path class="st0" d="M197.4,206.9c0,1.6,0.4,3.1,1.1,4.4l7.3-4.2l-7.4-4.3C197.8,204,197.4,205.4,197.4,206.9z M199.7,209.2   c-0.2,0.1-0.5,0.2-0.7,0.2c-0.1,0-0.4,0.1-0.5-0.1c0-0.2,0.2-0.3,0.3-0.3c0.2,0,0.3-0.1,0.5-0.2c0.1-0.1,0.4-0.1,0.5,0   C200.1,209,199.8,209.1,199.7,209.2z M202.9,206.3c0.3,0,0.6,0.3,0.6,0.6c0,0.3-0.3,0.6-0.6,0.6c-0.3,0-0.6-0.3-0.6-0.6   C202.3,206.6,202.5,206.3,202.9,206.3z M201.2,207.3c0,0.5-0.4,0.9-0.9,0.9c-0.5,0-0.9-0.4-0.9-0.9c0-0.5,0.4-0.9,0.9-0.9   C200.7,206.3,201.2,206.7,201.2,207.3z M199.3,204c0.3,0,0.6,0.3,0.6,0.6c0,0.3-0.3,0.6-0.6,0.6c-0.3,0-0.6-0.3-0.6-0.6   C198.6,204.3,198.9,204,199.3,204z M198.1,206.7c-0.5,0,0.1-0.4,0.3-0.4C199,206.3,198.4,206.7,198.1,206.7z"/>
	<path class="st0" d="M206.2,197.2v-1.7c-3.9,0.1-7.3,2.3-9.2,5.4l1.4,0.8C200.1,199.1,202.9,197.4,206.2,197.2z"/>
	<path class="st0" d="M215.7,200.5l1.4-0.8c-1.9-3.1-5.3-5.2-9.2-5.4v1.7C211.2,196.1,214,197.9,215.7,200.5z"/>
	<path class="st0" d="M216.2,213l-1.4-0.8c-1.7,2.5-4.5,4.3-7.7,4.4v1.7C210.9,218.1,214.2,216,216.2,213z"/>
	<path class="st0" d="M215.3,202.5c0.7,1.3,1.1,2.8,1.1,4.4c0,1.6-0.4,3.2-1.1,4.6l1.4,0.8c0.9-1.6,1.4-3.4,1.4-5.4   c0-1.9-0.5-3.7-1.3-5.2L215.3,202.5z"/>
	<path class="st0" d="M198.1,211.5c-0.7-1.4-1.1-2.9-1.1-4.6c0-1.6,0.4-3.1,1.1-4.4l-1.4-0.8c-0.8,1.6-1.3,3.3-1.3,5.2   c0,1.9,0.5,3.8,1.4,5.4L198.1,211.5z"/>
	<path class="st0" d="M206.2,218.2v-1.7c-3.2-0.1-6-1.9-7.7-4.4l-1.4,0.8C199,216,202.4,218.1,206.2,218.2z"/>
	<path class="st0" d="M206.2,197.7c-3.1,0.1-5.9,1.8-7.4,4.3l7.4,4.3V197.7z M201.6,202.3c-0.5,0-0.9-0.4-0.9-0.9   c0-0.5,0.4-0.9,0.9-0.9c0.5,0,0.9,0.4,0.9,0.9C202.6,201.9,202.2,202.3,201.6,202.3z M204.5,204c-0.3,0-0.6-0.3-0.6-0.6   c0-0.3,0.3-0.6,0.6-0.6c0.3,0,0.6,0.3,0.6,0.6C205.1,203.7,204.8,204,204.5,204z M204.4,201.7c-0.1-0.1-0.3-0.2-0.4-0.3   c-0.2,0-0.2-0.2-0.1-0.4c0.1-0.2,0.4-0.2,0.6-0.2c0.3,0.1,0.5,0.2,0.7,0.5C205.4,201.6,204.7,201.9,204.4,201.7z M204.7,200.2   c-0.3,0-0.6-0.3-0.6-0.6c0-0.3,0.3-0.6,0.6-0.6c0.3,0,0.6,0.3,0.6,0.6C205.4,199.9,205.1,200.2,204.7,200.2z"/>
	<path class="st0" d="M215.9,206.9c0-1.5-0.4-2.9-1-4.1l-7.4,4.3l7.3,4.2C215.5,209.9,215.9,208.5,215.9,206.9z M214.6,204.2   c0.5,0-0.1,0.4-0.3,0.4C213.7,204.6,214.4,204.2,214.6,204.2z M210.7,207.6c-0.3,0-0.6-0.3-0.6-0.6c0-0.3,0.3-0.6,0.6-0.6   c0.3,0,0.6,0.3,0.6,0.6C211.3,207.3,211,207.6,210.7,207.6z M212.4,206.4c0.4,0-0.4,0.3-0.5,0.3   C211.5,206.7,212.2,206.4,212.4,206.4z M212.1,208.4c-0.5,0,0-0.5,0.3-0.5C212.9,207.9,212.4,208.4,212.1,208.4z M213.7,210   c-0.3,0-0.6-0.3-0.6-0.6c0-0.3,0.3-0.6,0.6-0.6c0.3,0,0.6,0.3,0.6,0.6C214.3,209.7,214,210,213.7,210z M214,207.5   c-0.5,0-0.9-0.4-0.9-0.9c0-0.5,0.4-0.9,0.9-0.9c0.5,0,0.9,0.4,0.9,0.9C215,207.1,214.5,207.5,214,207.5z"/>
	<path class="st0" d="M206.2,216.1v-8.4l-7.3,4.2C200.5,214.4,203.2,216,206.2,216.1z M204.9,215.4c-0.5,0,0-0.4,0.3-0.4   C205.8,215,205.2,215.4,204.9,215.4z M204.7,210c0.3,0,0.6,0.3,0.6,0.6c0,0.3-0.3,0.6-0.6,0.6c-0.3,0-0.6-0.3-0.6-0.6   C204.1,210.3,204.4,210,204.7,210z M203.1,211.5c0.5,0,0,0.5-0.3,0.5C202.3,212,202.8,211.5,203.1,211.5z M203.5,212.3   c0.5,0,0.9,0.4,0.9,0.9c0,0.5-0.4,0.9-0.9,0.9c-0.5,0-0.9-0.4-0.9-0.9C202.6,212.7,203,212.3,203.5,212.3z M200.8,211.6   c0.3,0,0.6,0.3,0.6,0.6c0,0.3-0.3,0.6-0.6,0.6c-0.3,0-0.6-0.3-0.6-0.6C200.2,211.8,200.5,211.6,200.8,211.6z"/>
	<path class="st0" d="M214.3,212l-7.3-4.2v8.4C210.1,216,212.8,214.4,214.3,212z M208.4,214.8c-0.3,0-0.6-0.3-0.6-0.6   c0-0.3,0.3-0.6,0.6-0.6c0.3,0,0.6,0.3,0.6,0.6C209,214.5,208.7,214.8,208.4,214.8z M208.8,212.2c-0.5,0-0.9-0.4-0.9-0.9   c0-0.5,0.4-0.9,0.9-0.9c0.5,0,0.9,0.4,0.9,0.9C209.8,211.8,209.3,212.2,208.8,212.2z M209.8,213.6c-0.4,0,0.4-0.3,0.5-0.3   C210.7,213.3,209.9,213.6,209.8,213.6z M212.1,212.9c-0.3,0-0.6-0.3-0.6-0.6c0-0.3,0.3-0.6,0.6-0.6c0.3,0,0.6,0.3,0.6,0.6   C212.8,212.6,212.5,212.9,212.1,212.9z"/>
	<path class="st0" d="M207.9,196.4v8.6l7.4-4.3C213.7,198.3,211,196.6,207.9,196.4z M210.3,197.7c0.3,0,0.6,0.3,0.6,0.6   c0,0.3-0.3,0.6-0.6,0.6c-0.3,0-0.6-0.3-0.6-0.6C209.6,198,209.9,197.7,210.3,197.7z M208.9,197.1c0.5,0,0,0.5-0.3,0.5   C208.1,197.6,208.6,197.1,208.9,197.1z M209.3,202.9c-0.5,0-0.9-0.4-0.9-0.9c0-0.5,0.4-0.9,0.9-0.9c0.5,0,0.9,0.4,0.9,0.9   C210.3,202.5,209.9,202.9,209.3,202.9z M210.3,200.1c-0.2,0.1-0.4,0.2-0.6,0c-0.2-0.1-0.4-0.2-0.6-0.2c-0.2,0-0.3-0.2-0.3-0.4   c0.1-0.2,0.3-0.3,0.5-0.3c0.3,0.1,0.7,0.1,0.9,0.3C210.5,199.8,210.4,200,210.3,200.1z M210.8,201.6c-0.5,0-0.1-0.5,0.3-0.5   C211.6,201.1,211.2,201.6,210.8,201.6z M212.1,200.7c-0.3,0-0.6-0.3-0.6-0.6c0-0.3,0.3-0.6,0.6-0.6c0.3,0,0.6,0.3,0.6,0.6   C212.8,200.5,212.5,200.7,212.1,200.7z M213.2,200.5c-0.4,0,0.4-0.3,0.5-0.3C214.1,200.1,213.4,200.5,213.2,200.5z"/>
</g>
</svg>