<svg xmlns="http://www.w3.org/2000/svg" xmlns:xlink="http://www.w3.org/1999/xlink" version="1.1" id="Capa_1" x="0px" y="0px" style="enable-background:new 0 0 413.3 413.3;" xml:space="preserve" viewBox="194.68 195.98 23.65 20.55">
<style type="text/css">
	.st0{fill:#030404;}
	.st1{fill:none;stroke:#FBFDFF;stroke-width:0.25;stroke-miterlimit:10;}
	.st2{fill:#030404;stroke:#FBFDFF;stroke-width:0.25;stroke-miterlimit:10;}
</style>
<g>
	<g>
		<g id="XMLID_1_">
			<g>
				<path class="st0" d="M218.2,214.8v0.3c0,0.6-0.5,1.2-1.2,1.2h-20.8c-0.6,0-1.2-0.5-1.2-1.2v-0.3c0-0.6,0.5-1.2,1.2-1.2h3.6      c-2.5-2-4.1-5-4.1-8.4c0-0.6,0.5-1.2,1.2-1.2h0.1c0-0.8,0.5-1.5,1.3-1.8c0-0.1,0-0.2,0-0.4c0-1.2,1-2.2,2.2-2.2      c0.1,0,0.3,0,0.4,0c0.2-0.8,0.8-1.4,1.6-1.5c0-0.1,0-0.2-0.1-0.3c0-0.4,0.1-0.7,0.4-0.9c0.5-0.4,1.1-0.6,1.7-0.6      c0.3,0,0.7,0.1,1,0.2c0.5,0.2,0.9,0.5,1.2,0.9c0.3-0.5,0.7-0.9,1.3-1.1c0.3-0.1,0.7-0.2,1-0.2c0.6,0,1.2,0.2,1.6,0.6      c0.3,0.2,0.4,0.6,0.4,0.9c0,0.2-0.1,0.3-0.1,0.5c0.8,0.2,1.4,0.8,1.6,1.5c0.1,0,0.3,0,0.4,0c1.2,0,2.2,1,2.2,2.2      c0,0.1,0,0.2,0,0.3c0.7,0.3,1.2,1,1.3,1.8h0.1c0.6,0,1.2,0.5,1.2,1.2c0,3.4-1.6,6.4-4.1,8.4h3.6      C217.7,213.6,218.2,214.2,218.2,214.8z M217.3,215.1v-0.3c0-0.2-0.1-0.3-0.3-0.3h-8c-0.2,0-0.4-0.2-0.4-0.4      c0-0.2,0.2-0.4,0.4-0.4h2.8c2.9-1.7,4.8-4.8,4.8-8.4c0-0.2-0.1-0.3-0.3-0.3h-3.7c-0.2,0-0.4-0.2-0.4-0.4s0.2-0.4,0.4-0.4h2.7      c-0.1-0.6-0.5-1-1-1.2c-0.5-0.1-0.2-0.7-0.2-1c0-0.7-0.6-1.3-1.3-1.3c-0.2,0-0.4,0-0.6,0.1c-0.1,0.1-0.3,0-0.4,0      c-0.1-0.1-0.2-0.2-0.2-0.3c0-0.7-0.6-1.3-1.3-1.3c-0.3,0.4-0.6,0.7-1.1,0.8c-0.3,0.1-0.7,0.2-1,0.2c-0.6,0-1.1-0.2-1.6-0.5      c0,0-0.1,0.1-0.1,0.1c-0.5,0.4-1.1,0.6-1.7,0.6c-0.3,0-0.7-0.1-1-0.2c-0.5-0.2-0.9-0.6-1.2-1c-0.7,0.1-1.2,0.6-1.2,1.3      c0,0.1-0.1,0.3-0.2,0.3c-0.1,0.1-0.3,0.1-0.4,0c-0.2-0.1-0.4-0.1-0.6-0.1c-0.7,0-1.3,0.6-1.3,1.3c0,0.3,0.3,0.9-0.2,1      c-0.6,0.1-1,0.6-1,1.2h12.6c0.2,0,0.4,0.2,0.4,0.4s-0.2,0.4-0.4,0.4h-13.6c-0.2,0-0.3,0.1-0.3,0.3c0,0.4,0,0.8,0.1,1.2h6      c0.2,0,0.4,0.2,0.4,0.4c0,0.2-0.2,0.4-0.4,0.4h-5.9c0.1,0.6,0.3,1.1,0.5,1.7c0,0,0.1,0,0.1,0h3.1c0.2,0,0.4,0.2,0.4,0.4      c0,0.2-0.2,0.4-0.4,0.4h-2.7c0.8,1.6,2.1,2.9,3.6,3.8h5.8c0.2,0,0.4,0.2,0.4,0.4c0,0.2-0.2,0.4-0.4,0.4h-10.9      c-0.2,0-0.3,0.1-0.3,0.3v0.3c0,0.2,0.1,0.3,0.3,0.3H217C217.2,215.4,217.3,215.3,217.3,215.1z M210.1,197.7c0-0.1,0-0.1-0.1-0.2      c-0.3-0.2-0.7-0.4-1.1-0.4c-0.2,0-0.5,0-0.7,0.1c-0.5,0.2-0.8,0.6-1,1l1.2-0.5c0.2-0.1,0.5,0,0.6,0.2c0.1,0.2,0,0.5-0.2,0.6      l-1.2,0.5c0.2,0.1,0.5,0.2,0.8,0.2c0.2,0,0.5,0,0.7-0.1C209.6,198.9,210,198.3,210.1,197.7z M204.9,198l1.2,0.5      c-0.2-0.5-0.5-0.8-1-1c-0.2-0.1-0.4-0.1-0.7-0.1c-0.4,0-0.8,0.1-1.1,0.4c0,0-0.1,0.1-0.1,0.2c0.1,0.6,0.5,1.2,1.1,1.4      c0.2,0.1,0.4,0.1,0.7,0.1c0.3,0,0.5-0.1,0.8-0.2l-1.2-0.5c-0.2-0.1-0.3-0.3-0.2-0.5C204.4,198,204.7,197.9,204.9,198z"/>
				<path class="st0" d="M217.3,214.8v0.3c0,0.2-0.1,0.3-0.3,0.3h-20.8c-0.2,0-0.3-0.1-0.3-0.3v-0.3c0-0.2,0.1-0.3,0.3-0.3h10.9      c0.2,0,0.4-0.2,0.4-0.4c0-0.2-0.2-0.4-0.4-0.4h-5.8c-1.5-0.9-2.8-2.2-3.6-3.8h2.7c0.2,0,0.4-0.2,0.4-0.4c0-0.2-0.2-0.4-0.4-0.4      h-3.1c0,0-0.1,0-0.1,0c-0.2-0.5-0.4-1.1-0.5-1.7h5.9c0.2,0,0.4-0.2,0.4-0.4c0-0.2-0.2-0.4-0.4-0.4h-6c-0.1-0.4-0.1-0.8-0.1-1.2      c0-0.2,0.1-0.3,0.3-0.3h13.6c0.2,0,0.4-0.2,0.4-0.4s-0.2-0.4-0.4-0.4h-12.6c0.1-0.6,0.5-1,1-1.2c0.5-0.1,0.2-0.7,0.2-1      c0-0.7,0.6-1.3,1.3-1.3c0.2,0,0.4,0,0.6,0.1c0.1,0.1,0.3,0,0.4,0c0.1-0.1,0.2-0.2,0.2-0.3c0-0.7,0.5-1.2,1.2-1.3      c0.3,0.4,0.7,0.8,1.2,1c0.3,0.1,0.7,0.2,1,0.2c0.6,0,1.2-0.2,1.7-0.6c0,0,0.1-0.1,0.1-0.1c0.5,0.3,1,0.5,1.6,0.5      c0.3,0,0.7-0.1,1-0.2c0.4-0.2,0.8-0.5,1.1-0.8c0.7,0,1.3,0.6,1.3,1.3c0,0.1,0.1,0.3,0.2,0.3c0.1,0.1,0.3,0.1,0.4,0      c0.2-0.1,0.4-0.1,0.6-0.1c0.7,0,1.3,0.6,1.3,1.3c0,0.3-0.3,0.9,0.2,1c0.6,0.1,1,0.6,1,1.2h-2.7c-0.2,0-0.4,0.2-0.4,0.4      s0.2,0.4,0.4,0.4h3.7c0.2,0,0.3,0.1,0.3,0.3c0,3.5-1.9,6.6-4.8,8.4H209c-0.2,0-0.4,0.2-0.4,0.4c0,0.2,0.2,0.4,0.4,0.4h8      C217.2,214.5,217.3,214.6,217.3,214.8z"/>
				<path class="st0" d="M210,197.5c0.1,0,0.1,0.1,0.1,0.2c-0.1,0.6-0.5,1.2-1.1,1.4c-0.2,0.1-0.4,0.1-0.7,0.1      c-0.3,0-0.5-0.1-0.8-0.2l1.2-0.5c0.2-0.1,0.3-0.3,0.2-0.6c-0.1-0.2-0.3-0.3-0.6-0.2l-1.2,0.5c0.2-0.5,0.5-0.8,1-1      c0.2-0.1,0.4-0.1,0.7-0.1C209.3,197.1,209.7,197.3,210,197.5z"/>
				<path class="st0" d="M206.1,198.5l-1.2-0.5c-0.2-0.1-0.5,0-0.5,0.2c-0.1,0.2,0,0.5,0.2,0.5l1.2,0.5c-0.2,0.1-0.5,0.2-0.8,0.2      c-0.2,0-0.5,0-0.7-0.1c-0.6-0.2-1-0.8-1.1-1.4c0-0.1,0-0.1,0.1-0.2c0.3-0.2,0.7-0.4,1.1-0.4c0.2,0,0.5,0,0.7,0.1      C205.6,197.6,205.9,198,206.1,198.5z"/>
			</g>
			<g>
				<path class="st1" d="M217,213.6h-3.6c2.5-2,4.1-5,4.1-8.4c0-0.6-0.5-1.2-1.2-1.2h-0.1c0-0.8-0.5-1.5-1.3-1.8c0-0.1,0-0.2,0-0.3      c0-1.2-1-2.2-2.2-2.2c-0.1,0-0.3,0-0.4,0c-0.2-0.8-0.9-1.4-1.6-1.5c0-0.2,0.1-0.3,0.1-0.5c0-0.4-0.1-0.7-0.4-0.9      c-0.5-0.4-1-0.6-1.6-0.6c-0.3,0-0.7,0.1-1,0.2c-0.5,0.2-1,0.6-1.3,1.1c-0.3-0.4-0.7-0.7-1.2-0.9c-0.3-0.1-0.7-0.2-1-0.2      c-0.6,0-1.2,0.2-1.7,0.6c-0.3,0.2-0.4,0.6-0.4,0.9c0,0.1,0,0.2,0.1,0.3c-0.8,0.2-1.4,0.8-1.6,1.5c-0.1,0-0.3,0-0.4,0      c-1.2,0-2.2,1-2.2,2.2c0,0.1,0,0.2,0,0.4c-0.7,0.3-1.2,1-1.3,1.8h-0.1c-0.6,0-1.2,0.5-1.2,1.2c0,3.4,1.6,6.4,4.1,8.4h-3.6      c-0.6,0-1.2,0.5-1.2,1.2v0.3c0,0.6,0.5,1.2,1.2,1.2H217c0.6,0,1.2-0.5,1.2-1.2v-0.3C218.2,214.2,217.7,213.6,217,213.6z"/>
				<path class="st1" d="M208.2,197.3c0.2-0.1,0.4-0.1,0.7-0.1c0.4,0,0.8,0.1,1.1,0.4c0.1,0,0.1,0.1,0.1,0.2      c-0.1,0.6-0.5,1.2-1.1,1.4c-0.2,0.1-0.4,0.1-0.7,0.1c-0.3,0-0.5-0.1-0.8-0.2l1.2-0.5c0.2-0.1,0.3-0.3,0.2-0.6      c-0.1-0.2-0.3-0.3-0.6-0.2l-1.2,0.5C207.4,197.8,207.7,197.5,208.2,197.3z"/>
				<path class="st1" d="M203.3,197.7c0.3-0.2,0.7-0.4,1.1-0.4c0.2,0,0.5,0,0.7,0.1c0.5,0.2,0.8,0.6,1,1l-1.2-0.5      c-0.2-0.1-0.5,0-0.5,0.2c-0.1,0.2,0,0.5,0.2,0.5l1.2,0.5c-0.2,0.1-0.5,0.2-0.8,0.2c-0.2,0-0.5,0-0.7-0.1c-0.6-0.2-1-0.8-1.1-1.4      C203.2,197.8,203.2,197.7,203.3,197.7z"/>
				<path class="st1" d="M217.3,215.1c0,0.2-0.1,0.3-0.3,0.3h-20.8c-0.2,0-0.3-0.1-0.3-0.3v-0.3c0-0.2,0.1-0.3,0.3-0.3h10.9      c0.2,0,0.4-0.2,0.4-0.4c0-0.2-0.2-0.4-0.4-0.4h-5.8c-1.5-0.9-2.8-2.2-3.6-3.8h2.7c0.2,0,0.4-0.2,0.4-0.4c0-0.2-0.2-0.4-0.4-0.4      h-3.1c0,0-0.1,0-0.1,0c-0.2-0.5-0.4-1.1-0.5-1.7h5.9c0.2,0,0.4-0.2,0.4-0.4c0-0.2-0.2-0.4-0.4-0.4h-6c-0.1-0.4-0.1-0.8-0.1-1.2      c0-0.2,0.1-0.3,0.3-0.3h13.6c0.2,0,0.4-0.2,0.4-0.4s-0.2-0.4-0.4-0.4h-12.6c0.1-0.6,0.5-1,1-1.2c0.5-0.1,0.2-0.7,0.2-1      c0-0.7,0.6-1.3,1.3-1.3c0.2,0,0.4,0,0.6,0.1c0.1,0.1,0.3,0,0.4,0c0.1-0.1,0.2-0.2,0.2-0.3c0-0.7,0.5-1.2,1.2-1.3      c0.3,0.4,0.7,0.8,1.2,1c0.3,0.1,0.7,0.2,1,0.2c0.6,0,1.2-0.2,1.7-0.6c0,0,0.1-0.1,0.1-0.1c0.5,0.3,1,0.5,1.6,0.5      c0.3,0,0.7-0.1,1-0.2c0.4-0.2,0.8-0.5,1.1-0.8c0.7,0,1.3,0.6,1.3,1.3c0,0.1,0.1,0.3,0.2,0.3c0.1,0.1,0.3,0.1,0.4,0      c0.2-0.1,0.4-0.1,0.6-0.1c0.7,0,1.3,0.6,1.3,1.3c0,0.3-0.3,0.9,0.2,1c0.6,0.1,1,0.6,1,1.2h-2.7c-0.2,0-0.4,0.2-0.4,0.4      s0.2,0.4,0.4,0.4h3.7c0.2,0,0.3,0.1,0.3,0.3c0,3.5-1.9,6.6-4.8,8.4H209c-0.2,0-0.4,0.2-0.4,0.4c0,0.2,0.2,0.4,0.4,0.4h8      c0.2,0,0.3,0.1,0.3,0.3V215.1z"/>
			</g>
		</g>
	</g>
	<g>
		<g>
			<path class="st2" d="M215.2,208.6c-0.2-0.1-0.5,0-0.6,0.2c-0.1,0.3-0.3,0.6-0.4,0.8c-0.1,0.2-0.1,0.5,0.1,0.6     c0.1,0,0.1,0.1,0.2,0.1c0.1,0,0.3-0.1,0.4-0.2c0.2-0.3,0.3-0.6,0.5-0.9C215.5,209,215.4,208.7,215.2,208.6z"/>
		</g>
	</g>
	<g>
		<g>
			<path class="st2" d="M215.9,205.3c-0.2,0-0.4,0.2-0.4,0.4c0,0.7-0.2,1.4-0.4,2.1c-0.1,0.2,0.1,0.5,0.3,0.5c0,0,0.1,0,0.1,0     c0.2,0,0.3-0.1,0.4-0.3c0.2-0.7,0.4-1.5,0.4-2.3C216.3,205.6,216.1,205.4,215.9,205.3z"/>
		</g>
	</g>
	<g>
		<g>
			<path class="st2" d="M208,201h-0.5c-0.2,0-0.4,0.2-0.4,0.4c0,0.2,0.2,0.4,0.4,0.4h0.5c0.2,0,0.4-0.2,0.4-0.4     C208.4,201.2,208.2,201,208,201z"/>
		</g>
	</g>
	<g>
		<g>
			<path class="st2" d="M201.1,202.4h-0.5c-0.2,0-0.4,0.2-0.4,0.4c0,0.2,0.2,0.4,0.4,0.4h0.5c0.2,0,0.4-0.2,0.4-0.4     C201.6,202.6,201.4,202.4,201.1,202.4z"/>
		</g>
	</g>
	<g>
		<g>
			<ellipse class="st2" cx="203" cy="201.6" rx="0.5" ry="0.5"/>
		</g>
	</g>
	<g>
		<g>
			<ellipse class="st2" cx="209.8" cy="202.9" rx="0.5" ry="0.5"/>
		</g>
	</g>
	<g>
		<g>
			<path class="st2" d="M205.8,202.5l-0.3-0.3c-0.1-0.1-0.3-0.1-0.3,0l-0.3,0.3c-0.1,0.1-0.1,0.2,0,0.3l0.3,0.3     c0.1,0.1,0.3,0.1,0.3,0l0.3-0.3C205.9,202.8,205.9,202.6,205.8,202.5z"/>
		</g>
	</g>
	<g>
		<g>
			<path class="st2" d="M212.7,201.7l-0.3-0.3c-0.1-0.1-0.3-0.1-0.3,0l-0.3,0.3c-0.1,0.1-0.1,0.2,0,0.3l0.3,0.3     c0.1,0.1,0.2,0.1,0.3,0l0.3-0.3C212.8,201.9,212.8,201.8,212.7,201.7z"/>
		</g>
	</g>
</g>
</svg>