<svg xmlns="http://www.w3.org/2000/svg" xmlns:xlink="http://www.w3.org/1999/xlink" version="1.1" id="Capa_1" x="0px" y="0px" style="enable-background:new 0 0 413.3 413.3;" xml:space="preserve" viewBox="204.07 197.98 4.75 16.65">
<style type="text/css">
	.st0{fill-rule:evenodd;clip-rule:evenodd;fill:#030404;stroke:#FFFFFF;stroke-width:0.25;stroke-miterlimit:10;}
</style>
<g>
	<path class="st0" d="M204.9,198.1c-0.3,1.3-0.6,2.8-0.7,4.4v1c0.1,2.1,0.7,3.5,2.1,3.7c0.2,2.1,0.1,4.6,0,6.7   c-0.1,0-0.1,0.2-0.2,0.2c-0.1,0.1-0.2,0.1-0.3,0.1c-0.4,0-0.8,0.1-1.2,0.1c-0.1,0-0.3,0-0.4,0.2h4.5c-0.1-0.2-0.2-0.2-0.4-0.2   c-0.3-0.1-0.8-0.1-1.2-0.1c-0.1,0-0.2,0-0.3-0.1c0,0-0.2-0.2-0.2-0.2c0-0.1,0-0.3,0-0.5c-0.1-2-0.1-4.4,0-6.2   c1.4-0.2,2-1.6,2.1-3.7v-1c-0.1-1.7-0.4-3.1-0.7-4.4H204.9z"/>
</g>
</svg>