<svg xmlns="http://www.w3.org/2000/svg" xmlns:xlink="http://www.w3.org/1999/xlink" version="1.1" id="Capa_1" x="0px" y="0px" style="enable-background:new 0 0 490 490;" xml:space="preserve" viewBox="0 1.2 490 487.6">
<g>
	<g>
		<g>
			<path d="M162.9,112c5.4,0,9.7-4.3,9.7-9.7v-44c0-5.4-4.3-9.7-9.7-9.7s-9.7,4.3-9.7,9.7v43.6C153.2,107.7,157.5,112,162.9,112z"/>
			<path d="M245,112c5.4,0,9.7-4.3,9.7-9.7V10.9c0-5.4-4.3-9.7-9.7-9.7s-9.7,4.3-9.7,9.7v91.4C235.3,107.7,239.6,112,245,112z"/>
			<path d="M327.1,112c5.4,0,9.7-4.3,9.7-9.7v-44c0-5.4-4.3-9.7-9.7-9.7s-9.7,4.3-9.7,9.7v43.6C316.9,107.7,321.6,112,327.1,112z"/>
			<ellipse cx="245" cy="199.1" rx="218.9" ry="52.1"/>
			<polygon points="0,431.3 31.5,488.8 458.5,488.8 490,431.3    "/>
			<path d="M28.4,232.9C43.6,339.1,134.9,420.8,245,420.8S446.4,339.1,461.6,233c-55.2,36.6-197.2,38.1-216.6,38.1     S83.6,269.5,28.4,232.9z"/>
		</g>
	</g>
</g>
<g>
</g>
<g>
</g>
<g>
</g>
<g>
</g>
<g>
</g>
<g>
</g>
<g>
</g>
<g>
</g>
<g>
</g>
<g>
</g>
<g>
</g>
<g>
</g>
<g>
</g>
<g>
</g>
<g>
</g>
</svg>