<svg xmlns="http://www.w3.org/2000/svg" xmlns:xlink="http://www.w3.org/1999/xlink" version="1.1" id="Capa_1" x="0px" y="0px" style="enable-background:new 0 0 413.3 413.3;" xml:space="preserve" viewBox="247.17 164.73 30.4 22.29">
<style type="text/css">
	.st0{fill:#030404;stroke:#FFFFFF;stroke-width:0.25;stroke-miterlimit:10;}
	.st1{fill:#0D0C0A;stroke:#FFFFFF;stroke-width:0.25;stroke-miterlimit:10;}
	.st2{fill:#0E0E0D;stroke:#FFFFFF;stroke-width:0.25;stroke-miterlimit:10;}
</style>
<g>
	<path class="st0" d="M261.6,185.6c-3.2,0-6.3-0.8-8.9-2.2c-0.2,0.3-0.3,0.5-0.3,0.8c0,1.6,3.7,2.7,9.1,2.7c5.4,0,9.1-1.1,9.1-2.7   c0-0.2-0.1-0.5-0.3-0.8C267.8,184.8,264.7,185.6,261.6,185.6z"/>
	<path class="st0" d="M275.9,174.8c-0.7,0.1-1.8,0.3-3.7,0.4c-2.8,0.2-6.6,0.3-10.6,0.3c-4,0-7.8-0.1-10.6-0.3   c-1.9-0.1-3-0.2-3.7-0.4c0.5,5.1,5.5,10.2,14.3,10.2C270.4,185,275.4,179.9,275.9,174.8z M266.5,183.2c0,0,6-6.2,4.2-6.8h3.2   C273.9,176.4,274.1,180.8,266.5,183.2z"/>
	<path class="st1" d="M266.5,172.4c0.4-3.9,9.1-2,7.3-7.1c-0.3-0.8-1.5-0.4-1.2,0.3c0.8,2.2-2.2,2.5-3.8,3c-1.8,0.6-3.4,1.6-3.6,3.7   C265.1,173.2,266.4,173.2,266.5,172.4z"/>
	<path class="st1" d="M270.1,172.9c0.6-2,3.2-2,4.8-2.5c1.8-0.5,2.8-1.7,2.5-3.6c-0.1-0.8-1.4-0.8-1.3,0c0.3,2.3-1.8,2.4-3.5,2.8   c-1.7,0.4-3.2,1.1-3.8,2.9c-0.1,0.3,0,0.5,0.2,0.6c0.3,0,0.6,0,0.8,0C270,173.1,270.1,173,270.1,172.9z"/>
	<path class="st2" d="M261.6,173.6c-7.7,0-12.7,0.3-14.3,0.6c1.6,0.3,6.6,0.6,14.3,0.6c7.7,0,12.7-0.3,14.3-0.6   C274.3,173.9,269.2,173.6,261.6,173.6z"/>
</g>
</svg>