<svg xmlns="http://www.w3.org/2000/svg" xmlns:xlink="http://www.w3.org/1999/xlink" version="1.1" id="Capa_1" x="0px" y="0px" style="enable-background:new 0 0 413.3 413.3;" xml:space="preserve" viewBox="245.47 164.67 33.45 22.05">
<style type="text/css">
	.st0{fill:#191D1C;stroke:#FFFFFF;stroke-width:0.25;stroke-miterlimit:10;}
	.st1{fill:#191D1C;}
	.st2{fill:#FBFDFF;}
</style>
<g>
	<g>
		<path class="st0" d="M278.8,171.1c0-3.3-7.5-5.9-16.6-5.9c-9.2,0-16.6,2.6-16.6,5.9c0,3.3,7.5,15.5,16.6,15.5    C271.4,186.6,278.8,174.3,278.8,171.1z"/>
		<path class="st1" d="M277.8,171.2c0-2.9-7-5.3-15.6-5.3c-8.6,0-15.6,2.4-15.6,5.3s7,14.1,15.6,14.1    C270.8,185.3,277.8,174.1,277.8,171.2z"/>
		<ellipse class="st0" cx="262.2" cy="170.9" rx="16.6" ry="5.1"/>
		<path class="st0" d="M262.2,175c-8.5,0-15.6-2.3-15.6-5.1c0-2.7,7.2-5.1,15.6-5.1c8.5,0,15.6,2.3,15.6,5.1    C277.8,172.7,270.6,175,262.2,175z"/>
		<path class="st1" d="M262.2,175c6.2,0,11.7-1.4,14.2-3.3c-0.5-2.6-6.8-4.8-14.2-4.8c-7.4,0-13.7,2.2-14.2,4.8    C250.5,173.6,256,175,262.2,175z"/>
		<path class="st2" d="M250.3,173c2.9,1.2,7.2,2,11.9,2c5.7,0,10.7-1.2,13.5-2.8c-1.8-2.3-6.8-4.1-12.4-4.1    C256.9,168.1,251.5,170.3,250.3,173z"/>
		<path class="st1" d="M248,172.3c-0.1,0.4,1.5,1.3,3.7,2c2.1,0.7,4,0.9,4.1,0.5c0.1-0.4-1.7-0.6-3.9-1.3    C249.7,172.9,248.1,171.9,248,172.3z"/>
		<path class="st2" d="M252.1,177.3c-0.6-0.9-1.2-1.5-1.5-1.3c-0.2,0.2,0,1,0.6,1.9c0.6,0.9,1.2,1.5,1.5,1.3    C252.9,179.1,252.6,178.2,252.1,177.3z"/>
		<path class="st2" d="M253.9,180.3c-0.3-0.3-0.7-0.4-0.8-0.2c-0.1,0.2,0.1,0.5,0.4,0.8c0.3,0.3,0.7,0.4,0.8,0.2    C254.4,180.9,254.2,180.5,253.9,180.3z"/>
	</g>
	<g>
		<g>
			<path class="st1" d="M258.9,169.4c0.5,0.1,0.6,0.6,1,0.8c0.3,0.1,0.8-0.1,0.7-0.5c-0.1-0.6-1.4-1-1.8-0.5     C258.8,169.3,258.8,169.3,258.9,169.4C258.8,169.3,258.8,169.4,258.9,169.4z"/>
			<path class="st1" d="M259.3,169.4c-0.1-0.1-0.2-0.2-0.3-0.2c0.3,0,0.6,0.1,0.9,0.2c0.1,0,0.7,0.5,0.5,0.6     c-0.2,0.1-0.4-0.1-0.5-0.2C259.7,169.6,259.5,169.6,259.3,169.4z"/>
		</g>
		<g>
			<path class="st1" d="M250.2,172.2c0.6,0,0.8,0.7,1.4,0.9c0.4,0.1,1-0.2,0.8-0.7c-0.3-0.8-1.9-1.1-2.3-0.4c0,0,0,0.1,0,0.1     C250.1,172.1,250.1,172.2,250.2,172.2z"/>
			<path class="st1" d="M250.8,172.1c-0.1-0.1-0.3-0.2-0.4-0.2c0.4-0.1,0.8,0,1.1,0.1c0.1,0,1,0.5,0.7,0.7c-0.2,0.1-0.5-0.1-0.6-0.2     C251.3,172.4,251,172.3,250.8,172.1z"/>
		</g>
		<g>
			<path class="st1" d="M269.6,169.5c0,0.4-0.9,0.8-2,0.8c-1.1,0-2-0.3-2-0.8c0-0.4,0.9-0.8,2-0.8     C268.7,168.7,269.6,169.1,269.6,169.5z"/>
			<path class="st1" d="M265.6,169.4c0.3,0.2,1,0.4,1.7,0.4c1,0,1.9-0.3,2-0.7c-0.3-0.2-1-0.4-1.7-0.4     C266.5,168.7,265.7,169,265.6,169.4z"/>
			<path class="st1" d="M267.8,169.3c0,0.1-0.3,0.3-0.7,0.3c-0.4,0-0.7-0.1-0.7-0.3c0-0.1,0.3-0.3,0.7-0.3     C267.5,169,267.8,169.1,267.8,169.3z"/>
		</g>
		<g>
			<path class="st1" d="M258.9,170.1c0,0.4-0.9,0.8-2,0.8c-1.1,0-2-0.3-2-0.8c0-0.4,0.9-0.8,2-0.8     C258.1,169.4,258.9,169.7,258.9,170.1z"/>
			<path class="st1" d="M255,170.1c0.3,0.2,1,0.4,1.7,0.4c1,0,1.9-0.3,2-0.7c-0.3-0.2-1-0.4-1.7-0.4     C255.9,169.4,255.1,169.7,255,170.1z"/>
			<path class="st1" d="M257.2,169.9c0,0.1-0.3,0.3-0.7,0.3c-0.4,0-0.7-0.1-0.7-0.3c0-0.1,0.3-0.3,0.7-0.3     C256.9,169.7,257.2,169.8,257.2,169.9z"/>
		</g>
		<g>
			<path class="st1" d="M256.3,172.4c0,0.4-0.9,0.8-2,0.8c-1.1,0-2-0.3-2-0.8c0-0.4,0.9-0.8,2-0.8     C255.4,171.7,256.3,172,256.3,172.4z"/>
			<path class="st1" d="M252.4,172.4c0.3,0.2,1,0.4,1.7,0.4c1,0,1.9-0.3,2-0.7c-0.3-0.2-1-0.4-1.7-0.4     C253.3,171.7,252.5,172,252.4,172.4z"/>
			<path class="st1" d="M254.6,172.2c0,0.1-0.3,0.3-0.7,0.3c-0.4,0-0.7-0.1-0.7-0.3c0-0.1,0.3-0.3,0.7-0.3     C254.3,172,254.6,172.1,254.6,172.2z"/>
		</g>
		<g>
			<path class="st1" d="M258.6,174.7c0.4,0,0.6,0.5,1,0.6c0.3,0.1,0.7-0.2,0.6-0.5c-0.2-0.6-1.3-0.7-1.7-0.2     C258.5,174.6,258.5,174.6,258.6,174.7C258.5,174.6,258.6,174.7,258.6,174.7z"/>
			<path class="st1" d="M259,174.6c-0.1-0.1-0.2-0.1-0.3-0.1c0.3-0.1,0.5,0,0.8,0.1c0.1,0,0.7,0.4,0.5,0.5c-0.1,0.1-0.3-0.1-0.5-0.2     C259.4,174.8,259.2,174.7,259,174.6z"/>
		</g>
		<g>
			<path class="st1" d="M268.2,172.5c0,0.4-0.9,0.8-2,0.8c-1.1,0-2-0.3-2-0.8c0-0.4,0.9-0.8,2-0.8     C267.3,171.7,268.2,172.1,268.2,172.5z"/>
			<path class="st1" d="M264.3,172.4c0.3,0.2,1,0.4,1.7,0.4c1,0,1.9-0.3,2-0.7c-0.3-0.2-1-0.4-1.7-0.4     C265.2,171.7,264.4,172,264.3,172.4z"/>
			<path class="st1" d="M266.5,172.3c0,0.1-0.3,0.3-0.7,0.3c-0.4,0-0.7-0.1-0.7-0.3c0-0.1,0.3-0.3,0.7-0.3     C266.2,172,266.5,172.1,266.5,172.3z"/>
		</g>
		<g>
			<path class="st1" d="M266.7,170.5c0.8,0.3,0.8,1.2,1.4,1.6c0.4,0.3,1.2,0.1,1.2-0.5c0-1.1-1.9-2-2.7-1.3c0,0,0,0.1,0,0.1     C266.6,170.4,266.6,170.5,266.7,170.5z"/>
			<path class="st1" d="M267.4,170.7c-0.1-0.2-0.3-0.3-0.5-0.4c0.5,0.1,0.9,0.3,1.3,0.6c0.1,0.1,1,1,0.6,1.1     c-0.3,0.1-0.5-0.3-0.7-0.5C268,171.2,267.7,171,267.4,170.7z"/>
		</g>
		<g>
			<path class="st1" d="M271.8,168.3C271.8,168.3,271.8,168.3,271.8,168.3c-0.6-0.6-2-0.1-2.1,0.7c-0.1,0.5,0.5,0.6,0.9,0.5     c0.5-0.3,0.6-0.9,1.1-1.1C271.8,168.4,271.8,168.3,271.8,168.3z"/>
			<path class="st1" d="M270.6,169c-0.1,0.1-0.3,0.4-0.5,0.3c-0.2-0.1,0.4-0.7,0.5-0.8c0.3-0.2,0.6-0.3,1-0.3     c-0.1,0.1-0.3,0.2-0.4,0.3C271,168.7,270.8,168.8,270.6,169z"/>
		</g>
		<g>
			<path class="st1" d="M269.1,173.1C269.1,173.1,269.1,173.1,269.1,173.1c-0.5-0.5-1.5,0.1-1.6,0.7c0,0.4,0.4,0.5,0.7,0.3     C268.6,173.9,268.7,173.4,269.1,173.1C269.1,173.2,269.1,173.2,269.1,173.1z"/>
			<path class="st1" d="M268.2,173.7c-0.1,0.1-0.2,0.3-0.4,0.3c-0.2-0.1,0.3-0.6,0.4-0.6c0.2-0.2,0.5-0.3,0.7-0.3     c-0.1,0.1-0.2,0.1-0.3,0.2C268.5,173.5,268.4,173.6,268.2,173.7z"/>
		</g>
		<g>
			<path class="st1" d="M262.5,172.6C262.5,172.5,262.5,172.5,262.5,172.6c-0.7-0.7-2.3,0.1-2.4,1c0,0.5,0.7,0.7,1,0.5     c0.6-0.3,0.6-1.1,1.2-1.4C262.5,172.7,262.5,172.6,262.5,172.6z"/>
			<path class="st1" d="M261.1,173.5c-0.1,0.2-0.3,0.5-0.6,0.4c-0.3-0.1,0.5-0.9,0.6-0.9c0.3-0.3,0.7-0.4,1.1-0.5     c-0.1,0.1-0.3,0.2-0.4,0.4C261.6,173.1,261.3,173.2,261.1,173.5z"/>
		</g>
		<g>
			<path class="st1" d="M254.2,169.7c0.5,0,1,0.2,1.4,0.5c-0.5-0.6-1.2-0.9-1.9-0.9c-1.2,0-2.2,0.8-2.5,1.9c0.2,0,0.5,0,0.8,0.1     C252.4,170.4,253.3,169.7,254.2,169.7z"/>
			<path class="st1" d="M255.7,170.2c-0.4-0.3-0.9-0.5-1.4-0.5c-1,0-1.8,0.6-2.2,1.5c0.5,0,1,0,1.6,0c1.1,0,2.1-0.1,2.7-0.1     C256.2,170.8,256,170.5,255.7,170.2z"/>
		</g>
		<g>
			<path class="st1" d="M264.5,173.5c0.5,0,1,0.2,1.4,0.5c-0.5-0.6-1.2-0.9-1.9-0.9c-1.2,0-2.2,0.8-2.5,1.9c0.2,0,0.5,0,0.8,0.1     C262.6,174.2,263.5,173.5,264.5,173.5z"/>
			<path class="st1" d="M265.9,174c-0.4-0.3-0.9-0.5-1.4-0.5c-1,0-1.8,0.6-2.2,1.5c0.5,0,1,0,1.6,0c1.1,0,2.1-0.1,2.7-0.1     C266.5,174.6,266.2,174.3,265.9,174z"/>
		</g>
		<g>
			<path class="st1" d="M273.2,170.6c0.5,0,1,0.2,1.4,0.5c-0.5-0.6-1.2-0.9-1.9-0.9c-1.2,0-2.2,0.8-2.5,1.9c0.2,0,0.5,0,0.8,0.1     C271.3,171.2,272.2,170.6,273.2,170.6z"/>
			<path class="st1" d="M274.6,171c-0.4-0.3-0.9-0.5-1.4-0.5c-1,0-1.8,0.6-2.2,1.5c0.5,0,1,0,1.6,0c1.1,0,2.1-0.1,2.7-0.1     C275.1,171.6,274.9,171.3,274.6,171z"/>
		</g>
		<g>
			<path class="st1" d="M263.3,168.3c0.4,0,0.7,0.1,1,0.4c-0.3-0.4-0.9-0.7-1.4-0.7c-0.9,0-1.6,0.6-1.8,1.4c0.2,0,0.4,0,0.6,0     C261.9,168.8,262.5,168.3,263.3,168.3z"/>
			<path class="st1" d="M264.3,168.7c-0.3-0.2-0.6-0.4-1-0.4c-0.7,0-1.4,0.5-1.6,1.1c0.4,0,0.8,0,1.2,0c0.8,0,1.5,0,2-0.1     C264.7,169.1,264.5,168.9,264.3,168.7z"/>
		</g>
		<g>
			<path class="st1" d="M257,172.7c0.4,0,0.7,0.1,1,0.4c-0.3-0.4-0.9-0.7-1.4-0.7c-0.9,0-1.6,0.6-1.8,1.4c0.2,0,0.4,0,0.6,0     C255.6,173.1,256.3,172.7,257,172.7z"/>
			<path class="st1" d="M258,173c-0.3-0.2-0.6-0.4-1-0.4c-0.7,0-1.4,0.5-1.6,1.1c0.4,0,0.8,0,1.2,0c0.8,0,1.5,0,2-0.1     C258.4,173.4,258.3,173.2,258,173z"/>
		</g>
		<g>
			<path class="st1" d="M257,175c0.4,0,0.9,0,1.3,0c0-0.4-0.9-0.8-2-0.8c-0.8,0-1.5,0.2-1.8,0.4C255.3,174.9,256.1,175,257,175z"/>
			<path class="st1" d="M257,175c0.2,0,0.4,0,0.6,0c0.2-0.1,0.3-0.2,0.3-0.4c-0.3-0.2-1-0.4-1.7-0.4c-0.8,0-1.5,0.2-1.8,0.4     C255.3,174.9,256.1,175,257,175z"/>
			<path class="st1" d="M256.4,175c0.1,0,0.1-0.1,0.1-0.1c0-0.1-0.3-0.3-0.7-0.3c-0.4,0-0.6,0.1-0.7,0.3     C255.6,174.9,256,175,256.4,175z"/>
		</g>
		<g>
			<path class="st1" d="M270.3,174.5c0.5-0.2,1-0.3,1.4-0.4c0.4-0.1,0.9-0.3,1.3-0.5c-0.3-0.2-0.8-0.3-1.4-0.3c-1.1-0.1-2,0.2-2,0.6     C269.6,174.1,269.8,174.4,270.3,174.5z"/>
			<path class="st1" d="M271.7,174.1c0.4-0.1,0.9-0.3,1.3-0.5c-0.3-0.2-0.8-0.3-1.4-0.3c-1-0.1-1.9,0.2-2,0.6     c0.3,0.2,0.8,0.4,1.4,0.5C271.3,174.3,271.5,174.2,271.7,174.1z"/>
			<path class="st1" d="M271.8,173.9c0,0.1-0.3,0.2-0.7,0.2c-0.4,0-0.6-0.2-0.6-0.3c0-0.1,0.3-0.2,0.7-0.2     C271.5,173.6,271.8,173.7,271.8,173.9z"/>
		</g>
		<path class="st1" d="M266.7,170.7c-0.7-0.3-1.4-0.4-2.1-0.4c-0.1,0-0.2,0.2,0,0.2c0.1,0,0.2,0.1,0.3,0.1c-0.2,0-0.4,0-0.5,0.1    c-0.1-0.1-0.3-0.1-0.4-0.2c0.3-0.1,0.5-0.2,0.7-0.3c0.1-0.1,0.1-0.2-0.1-0.2c-0.4,0-0.8,0.1-1.2,0.3c0,0,0,0,0,0    c0-0.1-0.1-0.2-0.2-0.2c-0.1,0-0.1,0-0.2,0c-0.4-0.1-0.8-0.2-1.2-0.3c-0.1,0-0.2,0.2-0.1,0.3c0.1,0.1,0.3,0.1,0.4,0.2    c-0.1,0-0.2,0-0.3,0.1c-0.3-0.1-0.5-0.3-0.8-0.4c-0.1-0.1-0.3,0.1-0.1,0.2c0.1,0.1,0.2,0.1,0.3,0.2c-0.3-0.2-0.6-0.3-0.9-0.3    c-0.1,0-0.1,0.1-0.1,0.2c-0.1,0-0.2-0.1-0.4-0.1c-0.2-0.1-0.3,0.3-0.1,0.4c0,0,0,0,0.1,0c-0.2,0-0.4-0.1-0.7-0.1    c-0.2-0.1-0.3-0.2-0.5-0.4c-0.2-0.1-0.3,0.2-0.2,0.3c0.1,0.1,0.2,0.2,0.3,0.3c0,0.1,0.1,0.2,0.2,0.2c0,0,0,0,0.1,0.1    c-0.5,0.1-0.9,0.3-1.3,0.5c0,0,0,0,0,0c0,0,0-0.1-0.1-0.1c-0.6,0-1.1,0.2-1.7,0.3c-0.1,0-0.1,0.1,0,0.1c0.5,0.1,1.1,0,1.6-0.1    c0,0,0.1,0,0.1,0c0,0.1,0.1,0.3,0.3,0.2c0.1,0,0.1-0.1,0.2-0.1c0.2,0,0.4,0,0.6,0c0.1,0,0.1-0.1,0-0.1c-0.1,0-0.1,0-0.2,0    c0,0,0.1,0,0.1,0c0,0,0,0.1,0.1,0.1c0.3,0,0.7,0,1,0c-0.2,0.1-0.4,0.3-0.5,0.5c0,0,0,0.1,0,0.2c0,0.1,0.1,0.2,0.2,0.2    c0,0,0.1,0,0.1,0c0,0,0,0,0,0c0,0,0,0.1,0,0.1c-0.3,0-0.5,0.1-0.8,0.2c-0.2,0-0.2,0.4,0,0.4c0.3,0,0.7-0.1,0.8-0.3    c0,0,0-0.1,0-0.1c0,0,0,0,0.1,0c0-0.1,0.1-0.1,0.1-0.1c0.5,0,1.1,0.1,1.6,0c0.1,0,0.3,0.1,0.4,0.1c0.3,0.2,0.6,0.3,0.9,0.2    c0.1,0,0.1-0.2,0-0.2c-0.1-0.1-0.3-0.2-0.4-0.3c0.1,0,0.1,0,0.2-0.1c0.1,0,0.1-0.1,0-0.2c0.1,0.1,0.2,0.2,0.3,0.1    c0.4-0.2,0.9,0.2,1.3,0.1c0.2,0,0.3-0.3,0.1-0.4c-0.1,0-0.2-0.1-0.2-0.1c0,0,0,0,0,0c0,0,0,0,0,0c0.4,0.1,1,0.1,1.3-0.1    c0.1,0,0.1-0.1,0-0.2c-0.5-0.3-1.1-0.1-1.7-0.2c-0.1,0-0.2,0.1-0.2,0.2c-0.1,0-0.2,0-0.2,0c-0.3,0-0.5-0.1-0.8-0.1c0,0,0,0-0.1,0    c0.2,0,0.4-0.1,0.6-0.1c0.3,0,0.5,0,0.8-0.2c0.1-0.1,0.1-0.2,0-0.2c0,0-0.1,0-0.1,0c0.1,0,0.2,0,0.3,0c0,0.1,0,0.2,0.1,0.2    c0.4,0.1,0.8,0.1,1.2,0.2c0.4,0.1,0.8,0.2,1.3,0.1c0.1,0,0.2-0.1,0.1-0.2c-0.1-0.1-0.2-0.1-0.3-0.2c0.1,0,0.2,0,0.3,0    C266.8,170.9,266.9,170.7,266.7,170.7z M261.5,171c0.1,0.1,0.3,0.2,0.4,0.2c0,0.1,0,0.1,0.1,0.2c-0.4,0-0.8-0.1-1.2-0.1    C261.1,171.2,261.3,171.1,261.5,171z M259.9,170.9C260,170.9,260,170.8,259.9,170.9c0.3,0,0.6,0,0.9,0c-0.2,0.1-0.4,0.2-0.6,0.3    c0,0,0,0,0,0l-0.1,0c0,0,0,0-0.1-0.1c0.1,0,0.1,0,0.2,0c0.1,0,0-0.1,0-0.1c-0.1,0-0.2,0-0.3,0c0,0-0.1-0.1-0.1-0.1    C259.9,170.9,259.9,170.9,259.9,170.9z M260.6,171.7c-0.2-0.1-0.3,0.3-0.1,0.4c-0.1,0-0.1,0-0.2,0c0,0,0,0-0.1-0.1    c-0.1,0-0.2,0-0.3,0c0,0,0,0,0,0c0.2-0.1,0.3-0.2,0.5-0.3C260.4,171.6,260.4,171.6,260.6,171.7c0.1-0.1,0.3-0.1,0.5-0.1    c0,0.1,0.1,0.2,0.2,0.3C261,171.8,260.8,171.7,260.6,171.7z M262.6,171.7c-0.1,0.1-0.1,0.2-0.1,0.3c0,0,0,0-0.1,0    c-0.2,0-0.4,0-0.6,0c-0.2-0.1-0.3-0.2-0.5-0.4c0.3,0,0.6,0,0.8,0c0.1,0,0.1-0.2,0-0.2c0,0,0,0,0,0c0.1,0,0.1,0,0.2-0.1    c-0.1,0.1-0.2,0.3,0,0.3C262.5,171.7,262.6,171.7,262.6,171.7z M262.4,170.6C262.3,170.6,262.3,170.6,262.4,170.6    c0.1-0.1,0.2-0.1,0.3-0.1c0.2,0.1,0.4,0.1,0.6,0.2C263,170.6,262.7,170.6,262.4,170.6z"/>
		<g>
			<path class="st1" d="M257.2,171.6c0.6,0.1,0.6,0.8,1.2,1c0.3,0.1,0.9-0.1,0.8-0.5c-0.1-0.7-1.5-1.2-2-0.6c0,0,0,0,0,0.1     C257.1,171.5,257.2,171.6,257.2,171.6z"/>
			<path class="st1" d="M257.8,171.7c-0.1-0.1-0.2-0.2-0.4-0.2c0.3,0,0.7,0.1,1,0.3c0.1,0,0.8,0.6,0.5,0.7c-0.2,0.1-0.4-0.2-0.5-0.3     C258.2,171.9,258,171.8,257.8,171.7z"/>
		</g>
	</g>
</g>
</svg>