<svg xmlns="http://www.w3.org/2000/svg" xmlns:xlink="http://www.w3.org/1999/xlink" version="1.1" id="Capa_1" x="0px" y="0px" style="enable-background:new 0 0 413.3 413.3;" xml:space="preserve" viewBox="192.98 195.17 26.45 21.95">
<style type="text/css">
	.st0{fill:#030404;}
	.st1{fill:#FFFFFF;}
	.st2{fill:none;stroke:#FBFDFF;stroke-width:0.25;stroke-miterlimit:10;}
</style>
<g>
	<g id="XMLID_3_">
		<g>
			<path class="st0" d="M219.3,203.8v9.1c0,2.2-3.1,4.1-7,4.1c-3.9,0-7-1.8-7-4.1v-0.8v-0.8v-0.8v-6.7v-0.1h0c0-0.2,0.1-0.5,0.2-0.7     c0.1-0.2,0.3-0.5,0.6-0.7c0.3-0.2,0.6-0.5,1-0.7c0.2-0.1,0.5-0.2,0.7-0.3c0.2-0.1,0.5-0.2,0.7-0.2c1.1-0.3,2.4-0.5,3.8-0.5     c2.7,0,5.1,0.7,6.2,1.8c0.2,0.2,0.4,0.5,0.6,0.7C219.2,203.2,219.3,203.5,219.3,203.8L219.3,203.8z M217.9,203.8     C217.9,203.8,217.9,203.8,217.9,203.8c-0.1-0.3-0.3-0.5-0.8-0.8c-0.4-0.2-1-0.5-1.8-0.7c-0.8-0.2-1.8-0.4-3-0.4     c-1.2,0-2.2,0.2-3,0.4c-0.3,0.1-0.6,0.2-0.8,0.2c-0.3,0.1-0.5,0.2-0.7,0.3c-0.1,0.1-0.2,0.1-0.3,0.2c-0.2,0.1-0.3,0.2-0.4,0.3     c-0.2,0.1-0.3,0.3-0.4,0.4c0,0,0,0.1,0,0.1c0,0.1,0.1,0.3,0.4,0.5c0.2,0.1,0.4,0.3,0.7,0.4c0.2,0.1,0.5,0.2,0.7,0.3     c0.9,0.3,2.2,0.6,3.8,0.6C215.9,205.7,217.9,204.3,217.9,203.8z"/>
			<path class="st1" d="M217.8,203.7C217.9,203.8,217.9,203.8,217.8,203.7c0,0.6-1.9,1.9-5.6,1.9c-1.6,0-2.9-0.3-3.8-0.6     c-0.3-0.1-0.5-0.2-0.7-0.3c-0.3-0.2-0.5-0.3-0.7-0.4c-0.2-0.2-0.4-0.4-0.4-0.5c0,0,0-0.1,0-0.1c0-0.1,0.2-0.3,0.4-0.4     c0.1-0.1,0.2-0.2,0.4-0.3c0.1-0.1,0.2-0.1,0.3-0.2c0.2-0.1,0.5-0.2,0.7-0.3c0.2-0.1,0.5-0.2,0.8-0.2c0.8-0.2,1.8-0.4,3-0.4     c1.2,0,2.2,0.2,3,0.4c0.8,0.2,1.4,0.5,1.8,0.7C217.5,203.3,217.8,203.5,217.8,203.7z M214.9,203.8     C214.9,203.8,214.9,203.8,214.9,203.8c-0.2-0.4-0.9-0.7-1.6-0.8c-0.4-0.1-0.7-0.1-1-0.1c-0.3,0-0.6,0-0.9,0.1     c-0.2-0.1-0.4-0.1-0.6-0.1c-0.6,0-1.1,0.2-1.1,0.4c0,0.1,0.1,0.2,0.1,0.2c-0.1,0.1-0.1,0.1-0.1,0.2c0,0,0,0.1,0,0.1     c0,0.5,1.6,0.9,2.6,0.9c0.3,0,0.6,0,0.8-0.1c0.2,0,0.3,0.1,0.6,0.1c0.5,0,1-0.1,1-0.3c0-0.1-0.1-0.1-0.2-0.2     C214.7,204.1,214.9,204,214.9,203.8z"/>
			<path class="st0" d="M214.9,203.7C214.9,203.8,214.9,203.8,214.9,203.7c0,0.2-0.1,0.4-0.4,0.5c0.1,0,0.2,0.1,0.2,0.2     c0,0.2-0.4,0.3-1,0.3c-0.2,0-0.4,0-0.6-0.1c-0.3,0.1-0.6,0.1-0.8,0.1c-1,0-2.6-0.4-2.6-0.9c0,0,0-0.1,0-0.1     c0-0.1,0.1-0.1,0.1-0.2c-0.1-0.1-0.1-0.1-0.1-0.2c0-0.2,0.5-0.4,1.1-0.4c0.2,0,0.4,0,0.6,0.1c0.3,0,0.6-0.1,0.9-0.1     c0.3,0,0.7,0,1,0.1C214.1,203.2,214.8,203.4,214.9,203.7z"/>
			<path class="st0" d="M207.1,198.7v2.2c-0.6,0.3-1.1,0.6-1.5,0.9c-0.3,0.3-0.6,0.6-0.7,0.9c-0.1,0.1-0.1,0.2-0.1,0.3h-0.1l0,0.7     v0.1v7.1c-1.2,0.6-2.8,0.9-4.5,0.9c-3.9,0-7-1.8-7-4.1v-9.1v-0.1h0c0-0.2,0.1-0.5,0.2-0.7c0.1-0.2,0.3-0.5,0.6-0.7     c1.2-1.1,3.5-1.8,6.2-1.8c2.7,0,5.1,0.7,6.2,1.8c0.2,0.2,0.4,0.5,0.6,0.7C207,198.1,207.1,198.3,207.1,198.7L207.1,198.7     L207.1,198.7z M205.6,198.7C205.6,198.6,205.6,198.6,205.6,198.7c-0.1-0.3-0.3-0.5-0.8-0.8c-0.4-0.2-1-0.5-1.8-0.7     c-0.8-0.2-1.8-0.4-3-0.4c-1.2,0-2.2,0.1-3,0.4c-0.8,0.2-1.4,0.5-1.8,0.7c-0.4,0.3-0.7,0.5-0.8,0.7c0,0,0,0.1,0,0.1     c0,0.5,1.9,1.9,5.6,1.9C203.7,200.5,205.6,199.1,205.6,198.7z"/>
			<path class="st1" d="M205.6,198.6C205.6,198.6,205.6,198.6,205.6,198.6c0,0.6-1.9,1.9-5.6,1.9c-3.7,0-5.6-1.4-5.6-1.9     c0,0,0-0.1,0-0.1c0.1-0.2,0.3-0.4,0.8-0.7c0.4-0.2,1-0.5,1.8-0.7c0.8-0.2,1.8-0.4,3-0.4c1.2,0,2.2,0.1,3,0.4     c0.8,0.2,1.4,0.5,1.8,0.7C205.3,198.1,205.6,198.4,205.6,198.6z M202.7,198.7C202.7,198.6,202.7,198.6,202.7,198.7     c-0.1-0.2-0.3-0.4-0.7-0.5c0.1-0.1,0.1-0.2,0.1-0.3c0,0,0,0,0,0c0-0.3-0.4-0.6-0.8-0.6c-0.4,0-0.8,0.2-0.8,0.5     c-0.2,0-0.3,0-0.5,0c-0.3,0-0.7,0-1,0.1c-0.1,0-0.2,0.1-0.4,0.1c-0.1,0-0.1-0.1-0.2-0.1c-0.1,0-0.2,0-0.3,0s-0.2,0-0.3,0     c-0.4,0.1-0.6,0.3-0.6,0.5c0,0.1,0,0.1,0.1,0.2c0,0.1,0.1,0.1,0.2,0.2c0.2,0.5,1.6,0.8,2.6,0.8c0,0,0.1,0,0.1,0     c0.2,0.3,0.7,0.4,1.2,0.4c0.7,0,1.3-0.3,1.3-0.7c0-0.1-0.1-0.2-0.2-0.4C202.6,198.8,202.7,198.8,202.7,198.7z"/>
			<path class="st0" d="M202.7,198.6C202.7,198.6,202.7,198.6,202.7,198.6c0,0.2,0,0.3-0.2,0.4c0.1,0.1,0.2,0.2,0.2,0.4     c0,0.4-0.6,0.7-1.3,0.7c-0.6,0-1-0.2-1.2-0.4c0,0-0.1,0-0.1,0c-1,0-2.4-0.3-2.6-0.8c-0.1,0-0.1-0.1-0.2-0.2     c0-0.1-0.1-0.1-0.1-0.2c0-0.2,0.2-0.4,0.6-0.5c0.1,0,0.2,0,0.3,0s0.2,0,0.3,0c0.1,0,0.2,0.1,0.2,0.1c0.1,0,0.2-0.1,0.4-0.1     c0.4-0.1,0.7-0.1,1-0.1c0.2,0,0.3,0,0.5,0c0-0.3,0.4-0.5,0.8-0.5c0.5,0,0.8,0.2,0.8,0.6c0,0,0,0,0,0c0,0.1-0.1,0.2-0.1,0.3     C202.4,198.3,202.6,198.4,202.7,198.6z"/>
		</g>
		<g>
			<path class="st2" d="M207.1,200.8v-2.2v-0.1h0c0-0.2-0.1-0.5-0.2-0.7c-0.1-0.2-0.3-0.5-0.6-0.7c-1.2-1.1-3.5-1.8-6.2-1.8     c-2.7,0-5.1,0.7-6.2,1.8c-0.2,0.2-0.4,0.5-0.6,0.7c-0.1,0.2-0.2,0.5-0.2,0.7h0v0.1v9.1c0,2.2,3.1,4.1,7,4.1     c1.7,0,3.3-0.4,4.5-0.9v-7.1v-0.1l0-0.7h0.1c0-0.1,0.1-0.2,0.1-0.3c0.2-0.3,0.4-0.6,0.7-0.9C206,201.4,206.5,201.1,207.1,200.8z"/>
			<path class="st2" d="M200.1,200.5c-3.7,0-5.6-1.4-5.6-1.9c0,0,0-0.1,0-0.1c0.1-0.2,0.3-0.4,0.8-0.7c0.4-0.2,1-0.5,1.8-0.7     c0.8-0.2,1.8-0.4,3-0.4c1.2,0,2.2,0.1,3,0.4c0.8,0.2,1.4,0.5,1.8,0.7c0.5,0.3,0.7,0.5,0.8,0.7c0,0,0,0.1,0,0.1     C205.6,199.1,203.7,200.5,200.1,200.5z"/>
			<path class="st2" d="M219.3,203.7c0-0.2-0.1-0.5-0.2-0.7c-0.1-0.2-0.3-0.5-0.6-0.7c-1.2-1.1-3.5-1.8-6.2-1.8     c-1.4,0-2.7,0.2-3.8,0.5c-0.2,0.1-0.5,0.2-0.7,0.2c-0.2,0.1-0.5,0.2-0.7,0.3c-0.4,0.2-0.7,0.4-1,0.7c-0.2,0.2-0.4,0.5-0.6,0.7     c-0.1,0.2-0.2,0.5-0.2,0.7h0v0.1v6.7v0.8v0.8v0.8c0,2.2,3.1,4.1,7,4.1c3.9,0,7-1.8,7-4.1V203.7L219.3,203.7z"/>
			<path class="st2" d="M212.3,205.7c-1.6,0-2.9-0.3-3.8-0.6c-0.3-0.1-0.5-0.2-0.7-0.3c-0.3-0.2-0.5-0.3-0.7-0.4     c-0.2-0.2-0.4-0.4-0.4-0.5c0,0,0-0.1,0-0.1c0-0.1,0.2-0.3,0.4-0.4c0.1-0.1,0.2-0.2,0.4-0.3c0.1-0.1,0.2-0.1,0.3-0.2     c0.2-0.1,0.5-0.2,0.7-0.3c0.2-0.1,0.5-0.2,0.8-0.2c0.8-0.2,1.8-0.4,3-0.4c1.2,0,2.2,0.2,3,0.4c0.8,0.2,1.4,0.5,1.8,0.7     c0.4,0.3,0.7,0.5,0.8,0.7c0,0,0,0.1,0,0.1C217.9,204.3,215.9,205.7,212.3,205.7z"/>
			<path class="st2" d="M213.3,203c-0.4-0.1-0.7-0.1-1-0.1c-0.3,0-0.6,0-0.9,0.1c-0.2-0.1-0.4-0.1-0.6-0.1c-0.6,0-1.1,0.2-1.1,0.4     c0,0.1,0.1,0.2,0.1,0.2c-0.1,0.1-0.1,0.1-0.1,0.2c0,0,0,0.1,0,0.1c0,0.5,1.6,0.9,2.6,0.9c0.3,0,0.6,0,0.8-0.1     c0.2,0,0.3,0.1,0.6,0.1c0.5,0,1-0.1,1-0.3c0-0.1-0.1-0.1-0.2-0.2c0.2-0.1,0.4-0.3,0.4-0.4c0,0,0-0.1,0-0.1     C214.8,203.4,214.1,203.2,213.3,203z"/>
			<path class="st2" d="M202.7,198.6c-0.1-0.2-0.3-0.3-0.6-0.4c0.1-0.1,0.1-0.2,0.1-0.3c0,0,0,0,0,0c0-0.3-0.4-0.6-0.8-0.6     c-0.4,0-0.8,0.2-0.8,0.5c-0.2,0-0.3,0-0.5,0c-0.3,0-0.7,0-1,0.1c-0.1,0-0.2,0.1-0.4,0.1c-0.1,0-0.1-0.1-0.2-0.1     c-0.1,0-0.2,0-0.3,0s-0.2,0-0.3,0c-0.4,0.1-0.6,0.3-0.6,0.5c0,0.1,0,0.1,0.1,0.2c0,0.1,0.1,0.1,0.2,0.2c0.2,0.5,1.6,0.8,2.6,0.8     c0,0,0.1,0,0.1,0c0.2,0.3,0.7,0.4,1.2,0.4c0.7,0,1.3-0.3,1.3-0.7c0-0.1-0.1-0.2-0.2-0.4C202.6,198.8,202.7,198.8,202.7,198.6     C202.7,198.6,202.7,198.6,202.7,198.6z"/>
		</g>
	</g>
</g>
</svg>