<svg xmlns="http://www.w3.org/2000/svg" xmlns:xlink="http://www.w3.org/1999/xlink" version="1.1" id="Capa_1" x="0px" y="0px" style="enable-background:new 0 0 413.3 413.3;" xml:space="preserve" viewBox="184.77 187.98 42.65 36.45">
<style type="text/css">
	.st0{fill:#FFFFFF;stroke:#FBFDFF;stroke-width:0.25;stroke-miterlimit:10;}
	.st1{fill:#030404;stroke:#FBFDFF;stroke-width:0.25;stroke-miterlimit:10;}
</style>
<g>
	<rect x="216.7" y="216" class="st0" width="2" height="6.4"/>
	<rect x="223.1" y="215.9" transform="matrix(0.968 -0.251 0.251 0.968 -47.8884 63.3733)" class="st0" width="2.9" height="7"/>
	<g>
		<rect x="185.1" y="189.9" class="st0" width="41" height="26.7"/>
		<g>
			<path class="st1" d="M188.3,218h0.7h4.4h0.7h0.7h20.9l0,0.7l0,0.7l0.1,3l0,1.1l1.1,0l1.4,0l1.1,0l0-0.4l0-0.7v0l0-0.7h2.5v-2.2     h-2.6l0-0.7l0-0.7h2.6h0.5l0.2,0.7l0.1,0.3l0.1,0.5l0.6,2.6l0.3,1.1l0.2,1l1-0.2l1.4-0.3l1-0.2l-0.2-1l-0.7-2.9l-0.2-0.7L226,218     h0.3v-3.6h-1.1l-0.2-0.7l-0.2-0.7h1.5v-19.9v-0.7v-0.7v-3.6h-41.3v3.6v0.7v0.7V213h30.5l0,0.7l0,0.7h-30.6v3.6h2.5H188.3z      M216.7,213.8l0-0.7l-0.5-16.8l1.1,0l0.4,1.5l0.4,15.3l0,0.7l0,0.7l0.1,2l0,0.7l0,0.7l0,0.2l0,0.7l0,0.7l0.1,2.2l0,0.7l0,0     l-1.4,0l0-0.1l-0.1-2.9l0-0.7l0-0.7l0-0.9l0-0.7l-0.1-2L216.7,213.8z M223.9,213.8l0.2,0.7l0.8,3.6l0.2,0.7l0.2,0.7l0.7,3.2     l-1.4,0.3l-0.8-3.5l-0.2-0.7l-0.2-0.7l-0.2-0.7l-0.2-0.9l-0.5-2l-0.2-0.7l-0.2-0.7l-3.6-15.4l-0.6-2.5l-0.5-2l-0.1-0.2l1.4-0.3     l0.1,0.5l4.6,19.9L223.9,213.8z M211.5,211.3c-0.2,0-0.4,0-0.7,0c-3.9-0.3-6.4-1-6.5-4c0-0.2,0-0.4,0-0.6c0.9,2.4,3.9,2.8,6.7,3     c0.3,0,0.5,0,0.7,0c0.8,0,1.4-0.1,1.7-0.4C213.5,210.5,213.6,211.3,211.5,211.3z M200.2,211.3c-0.2,0-0.4,0-0.7,0     c-3.9-0.3-6.4-1-6.5-4c0-0.2,0-0.4,0-0.6c0.9,2.4,3.9,2.8,6.7,3c0.3,0,0.5,0,0.7,0c0.8,0,1.4-0.1,1.7-0.4     C202.1,210.5,202.2,211.3,200.2,211.3z M187.8,193.1c0.1-0.1,0.1-0.3,0.2-0.4c0.1-0.1,0.1-0.2,0.2-0.3c0.1-0.1,0.2-0.3,0.4-0.4     c0.1-0.1,0.2-0.2,0.3-0.3c0.5-0.4,1.2-0.8,2.2-0.8c0.8,0,1.6,0.2,2.4,0.7c0,0,0.1,0,0.1,0.1c0.3,0.2,0.6,0.4,1,0.7     c0.3,0.2,0.5,0.5,0.8,0.7c0.4,0.4,0.7,0.8,0.8,1.3c0,0.1,0,0.2,0,0.2c0,0.2,0,0.3-0.1,0.5c0,0.1,0,0.1-0.1,0.2     c0,0.1-0.1,0.1-0.1,0.2c-0.4,0.8-0.5,1.5-0.5,2c-0.1,0.9-0.1,1.2-1.5,1.2c-0.2,0-0.4,0-0.7,0c-4.4-0.3-5.9-1.2-6-3.5     c0-0.2,0-0.5,0.1-0.7c0-0.3,0.1-0.6,0.2-0.8C187.7,193.4,187.8,193.3,187.8,193.1z M200.4,192.4c0.1-0.1,0.2-0.3,0.4-0.4     c0.1-0.1,0.2-0.2,0.3-0.3c0.5-0.4,1.2-0.8,2.2-0.8c0.8,0,1.6,0.2,2.4,0.7c0,0,0.1,0,0.1,0.1c0.3,0.2,0.6,0.4,1,0.7     c0.3,0.2,0.5,0.5,0.8,0.7c0.4,0.4,0.7,0.8,0.8,1.3c0,0.1,0,0.2,0,0.2c0,0.2,0,0.3-0.1,0.5c0,0.1,0,0.1-0.1,0.2     c0,0.1-0.1,0.1-0.1,0.2c-0.4,0.8-0.5,1.5-0.5,2c-0.1,0.9-0.1,1.2-1.5,1.2c-0.2,0-0.4,0-0.7,0c-4.4-0.3-5.9-1.2-6-3.5     c0-0.2,0-0.5,0.1-0.7c0-0.3,0.1-0.6,0.2-0.8c0.1-0.2,0.1-0.3,0.2-0.5c0.1-0.1,0.1-0.3,0.2-0.4     C200.2,192.6,200.3,192.5,200.4,192.4z M207.8,199.9c-0.8,0.2-1.5,0.6-2.2,1.3c0,0-0.1,0.1-0.1,0.1c-0.1,0-0.2,0-0.4,0     c-3.9-0.3-6.4-1-6.5-4c0-0.2,0-0.4,0-0.6c0.9,2.4,3.9,2.8,6.7,3c0.3,0,0.5,0,0.7,0c0.8,0,1.4-0.1,1.7-0.4     C207.9,199.6,207.8,199.7,207.8,199.9z M202.6,205c0,0.1,0,0.1-0.1,0.2c0,0.1-0.1,0.1-0.1,0.2c-0.4,0.8-0.5,1.5-0.5,2     c-0.1,0.9-0.1,1.2-1.5,1.2c-0.2,0-0.4,0-0.7,0c-4.4-0.3-5.9-1.2-6-3.5c0-0.2,0-0.5,0.1-0.7c0-0.3,0.1-0.6,0.2-0.8     c0.1-0.3,0.2-0.6,0.4-0.8c0.2-0.3,0.4-0.5,0.6-0.8c0,0,0.1-0.1,0.1-0.1c0.2-0.2,0.6-0.5,0.9-0.7c0.4-0.2,0.9-0.3,1.5-0.3     c0.8,0,1.6,0.2,2.4,0.7c0.6,0.4,2.4,1.6,2.7,2.8c0,0.1,0,0.2,0,0.2C202.7,204.7,202.6,204.9,202.6,205z M214,205     c0,0.1,0,0.1-0.1,0.2c0,0.1-0.1,0.1-0.1,0.2c-0.4,0.8-0.5,1.5-0.5,2c-0.1,0.9-0.1,1.2-1.5,1.2c-0.2,0-0.4,0-0.6,0     c-4.4-0.3-5.9-1.2-6-3.5c0-0.2,0-0.5,0.1-0.7c0-0.3,0.1-0.6,0.2-0.8c0.1-0.3,0.2-0.6,0.4-0.8c0.1-0.2,0.3-0.5,0.5-0.7     c0,0,0-0.1,0.1-0.1c0.1-0.1,0.2-0.2,0.4-0.3c0.3-0.2,0.6-0.4,1-0.6c0.1-0.1,0.3-0.1,0.5-0.1c0.2,0,0.4-0.1,0.6-0.1     c0.8,0,1.6,0.2,2.4,0.7c0.6,0.4,2.4,1.6,2.7,2.8c0,0.1,0,0.2,0,0.2C214,204.7,214,204.9,214,205z M186.6,196.7     c0.9,2.4,3.9,2.8,6.7,3c0.3,0,0.5,0,0.7,0c0.8,0,1.4-0.1,1.7-0.4c0,0.3,0,0.6-0.1,0.8c-0.5,0.2-1,0.6-1.4,1c0,0-0.1,0.1-0.1,0.1     c-0.1,0-0.3,0-0.4,0c-0.2,0-0.4,0-0.7,0c-3.9-0.3-6.4-1-6.5-4C186.6,197.1,186.6,196.9,186.6,196.7z M219.2,214.5l0-0.7l0-0.7     h2.1l0.2,0.7l0.2,0.7H219.2z"/>
			<path class="st1" d="M193,196.6c1.7-0.2,0.7-0.9,0.7-1.8c0-0.9-2.2-1.7-2.2-1.7c-0.3-0.2-0.6-0.1-0.9,0c-0.7,0.3-1.1,1.4-1.1,2.1     C189.4,196.3,191.3,196.8,193,196.6z"/>
			<path class="st1" d="M205.1,196.6c1.7-0.2,0.7-0.9,0.7-1.8c0-0.9-2.2-1.7-2.2-1.7c-0.3-0.2-0.6-0.1-0.9,0     c-0.7,0.3-1.1,1.4-1.1,2.1C201.5,196.3,203.4,196.8,205.1,196.6z"/>
			<path class="st1" d="M209.3,203.1c-1.2-0.6-1.9,1.1-2,2.1c-0.1,1.1,1.8,1.5,3.5,1.3c1.7-0.2,0.7-0.9,0.7-1.8     C211.5,203.8,209.3,203.1,209.3,203.1z"/>
			<path class="st1" d="M197.9,203.1c-1.2-0.6-1.9,1.1-2,2.1c-0.1,1.1,1.8,1.5,3.5,1.3c1.7-0.2,0.7-0.9,0.7-1.8     C200.1,203.8,197.9,203.1,197.9,203.1z"/>
		</g>
	</g>
</g>
</svg>