<svg xmlns="http://www.w3.org/2000/svg" xmlns:xlink="http://www.w3.org/1999/xlink" version="1.1" id="Capa_1" x="0px" y="0px" style="enable-background:new 0 0 413.3 413.3;" xml:space="preserve" viewBox="188.43 191.23 35.4 29.9">
<style type="text/css">
	.st0{fill:#030404;}
	.st1{fill:#FFFFFF;}
	.st2{fill:none;stroke:#FBFDFF;stroke-width:0.25;stroke-miterlimit:10;}
</style>
<g>
	<g id="XMLID_2_">
		<g>
			<path class="st0" d="M223.5,201c0.3,0.5,0.2,1.2-0.4,1.5l-12.2,7.7v2.3c0,1.4-1.1,2.7-3.1,3.6c-1.7,0.8-3.9,1.2-6.3,1.2     c-0.6,0-1.3,0-1.9-0.1l-5.7,3.6c-0.2,0.1-0.4,0.2-0.6,0.2c-0.4,0-0.7-0.2-0.9-0.5c-0.3-0.5-0.2-1.2,0.4-1.5l3.7-2.3     c-0.4-0.1-0.8-0.3-1.2-0.4c-2-0.9-3.1-2.1-3.1-3.6v-0.5l-1.9,1.4c-0.2,0.2-0.4,0.2-0.6,0.2c-0.3,0-0.7-0.2-0.9-0.4     c-0.4-0.5-0.2-1.2,0.2-1.6l3.2-2.3v-5.6c0-1.4,1.1-2.7,3.1-3.6c1.7-0.8,3.9-1.2,6.2-1.2c1.5,0,2.9,0.2,4.2,0.5l10.6-7.8     c0.5-0.4,1.2-0.2,1.6,0.2c0.4,0.5,0.2,1.2-0.2,1.6l-9.4,6.9c1.7,0.9,2.6,2,2.6,3.4v3.9l11.1-6.9     C222.5,200.4,223.2,200.5,223.5,201z M208.7,212.6v-1l-5.5,3.4C206.6,214.7,208.7,213.4,208.7,212.6z M208.7,209v-2.1     c-0.3,0.1-0.5,0.3-0.8,0.4c-1.7,0.8-3.9,1.2-6.3,1.2c-2.3,0-4.6-0.4-6.2-1.2c-0.3-0.1-0.6-0.3-0.8-0.4v5.7c0,0.8,1.8,1.9,4.7,2.4     L208.7,209z M208.7,203.7c0-1-2.8-2.5-7.1-2.5c-4.3,0-7.1,1.5-7.1,2.5c0,1,2.8,2.6,7.1,2.6C205.9,206.2,208.7,204.7,208.7,203.7z     "/>
			<path class="st1" d="M208.7,211.6v1c0,0.9-2.1,2.2-5.5,2.5L208.7,211.6z"/>
			<path class="st1" d="M208.7,206.9v2.1l-9.5,6c-2.9-0.4-4.7-1.6-4.7-2.4v-5.7c0.3,0.1,0.5,0.3,0.8,0.4c1.7,0.8,3.9,1.2,6.2,1.2     c2.4,0,4.6-0.4,6.3-1.2C208.2,207.2,208.5,207,208.7,206.9z"/>
			<path class="st1" d="M201.6,201.2c4.3,0,7.1,1.5,7.1,2.5c0,1-2.8,2.6-7.1,2.6c-4.3,0-7.1-1.5-7.1-2.6     C194.5,202.7,197.3,201.2,201.6,201.2z M205,203.7c0-0.5-0.3-1.1-1.5-1.4c-0.5-0.1-1.2-0.2-1.9-0.2c-0.7,0-1.3,0.1-1.8,0.2     c-1.3,0.3-1.5,0.9-1.5,1.4s0.3,1.2,1.5,1.4c0.5,0.1,1.2,0.2,1.8,0.2c0.7,0,1.4-0.1,1.9-0.2C204.7,204.9,205,204.2,205,203.7z"/>
			<path class="st0" d="M203.5,202.3c1.3,0.3,1.5,0.9,1.5,1.4s-0.3,1.2-1.5,1.4c-0.5,0.1-1.2,0.2-1.9,0.2c-0.7,0-1.3-0.1-1.8-0.2     c-1.3-0.3-1.5-0.9-1.5-1.4s0.3-1.1,1.5-1.4c0.5-0.1,1.2-0.2,1.8-0.2C202.3,202.1,203,202.1,203.5,202.3z"/>
		</g>
		<g>
			<path class="st2" d="M223.5,201c-0.3-0.5-1-0.7-1.5-0.3l-11.1,6.9v-3.9c0-1.3-0.9-2.5-2.6-3.4l9.4-6.9c0.5-0.4,0.6-1.1,0.2-1.6     c-0.4-0.5-1.1-0.6-1.6-0.2l-10.6,7.8c-1.3-0.3-2.7-0.5-4.2-0.5c-2.3,0-4.6,0.4-6.2,1.2c-2,0.9-3.1,2.2-3.1,3.6v5.6l-3.2,2.3     c-0.5,0.4-0.6,1.1-0.2,1.6c0.2,0.3,0.6,0.4,0.9,0.4c0.2,0,0.4-0.1,0.6-0.2l1.9-1.4v0.5c0,1.4,1.1,2.7,3.1,3.6     c0.4,0.2,0.8,0.3,1.2,0.4l-3.7,2.3c-0.5,0.3-0.7,1-0.4,1.5c0.2,0.3,0.6,0.5,0.9,0.5c0.2,0,0.4-0.1,0.6-0.2l5.7-3.6     c0.6,0.1,1.3,0.1,1.9,0.1c2.4,0,4.6-0.4,6.3-1.2c2-0.9,3.1-2.1,3.1-3.6v-2.3l12.2-7.7C223.7,202.2,223.9,201.6,223.5,201z"/>
			<path class="st2" d="M201.6,201.2c4.3,0,7.1,1.5,7.1,2.5c0,1-2.8,2.6-7.1,2.6c-4.3,0-7.1-1.5-7.1-2.6     C194.5,202.7,197.3,201.2,201.6,201.2z"/>
			<path class="st2" d="M194.5,212.6v-5.7c0.3,0.1,0.5,0.3,0.8,0.4c1.7,0.8,3.9,1.2,6.2,1.2c2.4,0,4.6-0.4,6.3-1.2     c0.3-0.1,0.6-0.3,0.8-0.4v2.1l-9.5,6C196.3,214.5,194.5,213.4,194.5,212.6z"/>
			<path class="st2" d="M208.7,212.6c0,0.9-2.1,2.2-5.5,2.5l5.5-3.4V212.6z"/>
			<path class="st2" d="M199.8,205.1c0.5,0.1,1.2,0.2,1.8,0.2c0.7,0,1.4-0.1,1.9-0.2c1.3-0.3,1.5-0.9,1.5-1.4s-0.3-1.1-1.5-1.4     c-0.5-0.1-1.2-0.2-1.9-0.2c-0.7,0-1.3,0.1-1.8,0.2c-1.3,0.3-1.5,0.9-1.5,1.4S198.5,204.9,199.8,205.1z"/>
		</g>
	</g>
</g>
</svg>