<svg xmlns="http://www.w3.org/2000/svg" xmlns:xlink="http://www.w3.org/1999/xlink" version="1.1" id="Capa_1" x="0px" y="0px" style="enable-background:new 0 0 413.3 413.3;" xml:space="preserve" viewBox="188.17 194.88 37.05 23.65">
<style type="text/css">
	.st0{fill:#FFFFFF;}
	.st1{fill:#030404;}
	.st2{fill:none;stroke:#FBFDFF;stroke-width:0.25;stroke-miterlimit:10;}
</style>
<g id="XMLID_4_">
	<g>
		<path class="st0" d="M209.6,198.8c0,1.5-3,2.6-6.7,2.6s-6.7-1.2-6.7-2.6c0-1.5,3-2.6,6.7-2.6S209.6,197.4,209.6,198.8z     M198.8,198.6c0,0.7,1.7,1.2,3.7,1.2c2.1,0,3.7-0.6,3.7-1.2c0-0.7-1.7-1.3-3.7-1.3C200.5,197.4,198.8,197.9,198.8,198.6z"/>
		<path class="st1" d="M202.5,199.9c-2.1,0-3.7-0.6-3.7-1.2c0-0.7,1.7-1.3,3.7-1.3c2.1,0,3.7,0.6,3.7,1.3    C206.3,199.3,204.6,199.9,202.5,199.9z"/>
		<path class="st1" d="M201.4,208.1c-0.7,1.2-3.6,1.3-4.8,1.3c-0.2,0-0.4,0-0.5,0c-1.2,0-2.9-0.3-3.4-1.1c-0.2-0.4-0.3-0.8-0.1-1.1    c0.6-1.1,3.1-1.1,3.8-1.1c1.3,0.1,2.2,0.3,2.5,0.9c0.1,0.1,0.1,0.2,0.1,0.3c0.2,0,0.3-0.1,0.4-0.1c0.3-0.4,0.9-0.5,1.4-0.3    C201.4,207,201.6,207.6,201.4,208.1z"/>
		<path class="st1" d="M216.2,206.8c3.7,0,6.7-1.2,6.7-2.6c0-1.5-3-2.6-6.7-2.6c-3.7,0-6.7,1.2-6.7,2.6    C209.5,205.6,212.5,206.8,216.2,206.8z M197.1,210.5c3.7,0,6.7-1.2,6.7-2.6c0-1.5-3-2.6-6.7-2.6c-3.7,0-6.7,1.2-6.7,2.6    C190.4,209.4,193.4,210.5,197.1,210.5z M196.1,198.8c0,1.5,3,2.6,6.7,2.6s6.7-1.2,6.7-2.6c0-1.5-3-2.6-6.7-2.6    S196.1,197.4,196.1,198.8z M194.1,203v-4.6c0-1.9,3.9-3.4,8.8-3.4s8.8,1.5,8.8,3.4v1.2c0,0.7,0.6,1,1.5,0.9c1-0.1,2-0.2,3.1-0.2    c4.8,0,8.8,1.5,8.8,3.4v7.4c0,1.9-3.9,3.4-8.8,3.4c-4.8,0-8.8-1.5-8.8-3.4V210c0-0.7-0.4-1.1-0.8-1c-0.4,0.1-0.8,0.7-0.8,1.4v4.6    c0,1.9-3.9,3.4-8.8,3.4s-8.8-1.5-8.8-3.4v-7.5c0-1.2,1.7-2.3,4.2-2.9C193.4,204.3,194.1,203.7,194.1,203z"/>
		<path class="st0" d="M222.9,204.2c0,1.5-3,2.6-6.7,2.6c-3.7,0-6.7-1.2-6.7-2.6c0-1.5,3-2.6,6.7-2.6    C219.9,201.5,222.9,202.7,222.9,204.2z M216.2,205.3c2.1,0,3.7-0.6,3.7-1.3c0-0.7-1.7-1.2-3.7-1.2c-2.1,0-3.7,0.6-3.7,1.2    C212.5,204.7,214.2,205.3,216.2,205.3z"/>
		<path class="st1" d="M219.9,204c0,0.7-1.7,1.3-3.7,1.3c-2.1,0-3.7-0.6-3.7-1.3c0-0.7,1.7-1.2,3.7-1.2    C218.3,202.8,219.9,203.3,219.9,204z"/>
		<path class="st0" d="M203.8,207.9c0,1.5-3,2.6-6.7,2.6c-3.7,0-6.7-1.2-6.7-2.6c0-1.5,3-2.6,6.7-2.6    C200.8,205.3,203.8,206.4,203.8,207.9z M198.9,207c-0.4-0.5-1.2-0.8-2.5-0.9c-0.7,0-3.2,0-3.8,1.1c-0.2,0.4-0.2,0.8,0.1,1.1    c0.6,0.8,2.2,1,3.4,1.1c0.1,0,0.3,0,0.5,0c1.2,0,4.1-0.1,4.8-1.3c0.3-0.5,0.1-1-0.5-1.3c-0.5-0.2-1.1-0.1-1.4,0.3    c-0.1,0-0.2,0.1-0.4,0.1C199,207.2,198.9,207.1,198.9,207z"/>
	</g>
	<g>
		<path class="st2" d="M216.2,200.3c-1.1,0-2.2,0.1-3.1,0.2c-0.8,0.1-1.5-0.2-1.5-0.9v-1.2c0-1.9-3.9-3.4-8.8-3.4s-8.8,1.5-8.8,3.4    v4.6c0,0.7-0.7,1.4-1.5,1.6c-2.5,0.6-4.2,1.7-4.2,2.9v7.5c0,1.9,3.9,3.4,8.8,3.4s8.8-1.5,8.8-3.4v-4.6c0-0.7,0.4-1.3,0.8-1.4    c0.4-0.1,0.8,0.4,0.8,1v1.2c0,1.9,3.9,3.4,8.8,3.4c4.8,0,8.8-1.5,8.8-3.4v-7.4C225,201.8,221,200.3,216.2,200.3z"/>
		<ellipse class="st2" cx="197.1" cy="207.9" rx="6.7" ry="2.6"/>
		<path class="st2" d="M202.8,201.5c-3.7,0-6.7-1.2-6.7-2.6c0-1.5,3-2.6,6.7-2.6s6.7,1.2,6.7,2.6    C209.6,200.3,206.5,201.5,202.8,201.5z"/>
		<path class="st2" d="M216.2,206.8c-3.7,0-6.7-1.2-6.7-2.6c0-1.5,3-2.6,6.7-2.6c3.7,0,6.7,1.2,6.7,2.6    C222.9,205.6,219.9,206.8,216.2,206.8z"/>
		<path class="st2" d="M200.8,206.8c-0.5-0.2-1.1-0.1-1.4,0.3c-0.1,0-0.2,0.1-0.4,0.1c0-0.1-0.1-0.2-0.1-0.3    c-0.4-0.5-1.2-0.8-2.5-0.9c-0.7,0-3.2,0-3.8,1.1c-0.2,0.4-0.2,0.8,0.1,1.1c0.6,0.8,2.2,1,3.4,1.1c0.1,0,0.3,0,0.5,0    c1.2,0,4.1-0.1,4.8-1.3C201.6,207.6,201.4,207,200.8,206.8z"/>
		<path class="st2" d="M202.5,197.4c2.1,0,3.7,0.6,3.7,1.3c0,0.7-1.7,1.2-3.7,1.2c-2.1,0-3.7-0.6-3.7-1.2    C198.8,197.9,200.5,197.4,202.5,197.4z"/>
		<path class="st2" d="M216.2,202.8c2.1,0,3.7,0.6,3.7,1.2c0,0.7-1.7,1.3-3.7,1.3c-2.1,0-3.7-0.6-3.7-1.3    C212.5,203.3,214.2,202.8,216.2,202.8z"/>
	</g>
</g>
</svg>