<svg xmlns="http://www.w3.org/2000/svg" xmlns:xlink="http://www.w3.org/1999/xlink" version="1.1" id="Capa_1" x="0px" y="0px" style="enable-background:new 0 0 413.3 413.3;" xml:space="preserve" viewBox="193.18 195.77 26.91 21">
<style type="text/css">
	.st0{fill:#030404;stroke:#FFFFFF;stroke-width:0.25;stroke-miterlimit:10;}
</style>
<path class="st0" d="M204.8,195.9L204.8,195.9L204.8,195.9c0.2,0,0.4,0.1,0.6,0.3c0.2,0.2,0.5,0.5,0.7,0.8c0.4,0.6,0.7,1.3,0.7,1.3  l0.3,0.7l0.5-0.5c0,0,0.6-0.6,1.4-1.1c0.4-0.3,0.8-0.5,1.2-0.6c0.4-0.1,0.6-0.1,0.8,0c0.3,0.2,0.6,0.5,0.7,1.1  c0.2,0.6,0.3,1.3,0.3,2c0,1.4-0.1,2.7-0.1,2.7l-0.1,0.9l0.9-0.4c0,0,0.6-0.2,1.2-0.4c0.3-0.1,0.6-0.1,0.9-0.1c0.2,0,0.3,0.1,0.4,0.1  c0.2,0.2,0.2,0.5,0.1,1c-0.1,0.5-0.3,1.1-0.5,1.6c-0.5,1.1-1.1,2.1-1.1,2.1l-0.6,0.8l1,0c0,0,0.6,0,1.3,0.1c0.7,0.1,1.4,0.3,1.5,0.5  c0.6,0.7,0.8,1.5,0.8,2.4c-0.1,0.9-0.4,1.8-0.8,2.6s-1,1.6-1.4,2.1c0,0-0.1,0.1-0.1,0.1c-0.9-0.6-1.5-1.5-1.9-2.7  c-0.5-1.5-0.8-3.3-1.2-5.2c-0.4-1.9-1-3.9-2.2-5.5c-1.2-1.7-3-3-5.8-3.7c-0.8-0.2-1.5-0.3-2.2-0.3c0.2-0.3,0.4-0.5,0.6-0.8  c0.4-0.5,0.9-1,1.3-1.4C204.1,196.1,204.5,195.9,204.8,195.9L204.8,195.9z M212.8,198.4c1.3,0.2,2.7,1.6,4,3.6  c1.3,2,2.3,4.7,2.8,7.1c0.5,2.5,0.5,4.8-0.1,6.1c-0.3,0.7-0.8,1.1-1.4,1.3c-0.5,0.2-1.2,0.2-2,0c0.5-0.6,1-1.3,1.4-2.1  c0.5-0.9,0.8-2,0.9-3.1c0.1-1.1-0.2-2.2-1-3.1c-0.6-0.6-1.4-0.8-2.2-0.9c-0.2,0-0.3,0-0.5,0c0.2-0.4,0.5-0.9,0.8-1.5  c0.3-0.6,0.5-1.3,0.6-1.9c0.1-0.6,0.1-1.3-0.4-1.8v0c-0.3-0.4-0.7-0.5-1.1-0.5c-0.4,0-0.8,0.1-1.1,0.1c-0.2,0-0.4,0.1-0.5,0.1  c0-0.5,0.1-1.3,0.1-2.1C212.9,199.3,212.9,198.8,212.8,198.4L212.8,198.4z M201.6,199.7c0.6,0,1.3,0.1,2.1,0.3  c2.6,0.6,4.1,1.8,5.2,3.3s1.6,3.3,2,5.2c0.4,1.9,0.7,3.8,1.3,5.4c0.3,0.9,0.7,1.7,1.3,2.3c-7.5-1.3-14.7-3.9-20.2-6.5  c0.1-0.8,0.6-3.2,1.8-5.5c0.8-1.4,1.8-2.7,3.2-3.5c0.9-0.5,1.9-0.8,3.1-0.9C201.4,199.7,201.5,199.7,201.6,199.7L201.6,199.7z"/>
</svg>