<svg xmlns="http://www.w3.org/2000/svg" xmlns:xlink="http://www.w3.org/1999/xlink" version="1.1" id="Capa_1" x="0px" y="0px" style="enable-background:new 0 0 413.3 413.3;" xml:space="preserve" viewBox="198.27 197.48 16.85 17.65">
<style type="text/css">
	.st0{fill:#030404;stroke:#FFFFFF;stroke-width:0.25;stroke-miterlimit:10;}
</style>
<path class="st0" d="M213.9,213.7c0,0.3-0.3,0.6-0.6,0.6l-2.5,0.7h-9.6l-2.2-0.7c-0.3,0-0.6-0.3-0.6-0.6c0-0.3,0.3-0.6,0.6-0.6h14.4  C213.6,213.1,213.9,213.3,213.9,213.7z M215,206.9c0,1.9-1.1,3.4-2.4,3.4c-0.1,0-0.2,0-0.3,0c-0.6,1.5-2.1,2.5-3.7,2.5h-5.3  c-2.2,0-4.1-1.8-4.1-4.1v-5c0-0.2,0-0.4,0-0.6h13.4c0,0.1,0,0.2,0,0.3c0,0,0,0,0,0C214,203.4,215,204.9,215,206.9z M203.4,211.5  l0-0.4c-0.8,0.1-1.4-0.2-1.9-0.7c-1.5-1.7-0.8-5.9-0.8-5.9l-0.4-0.1c0,0.2-0.8,4.4,0.9,6.3c0.5,0.5,1.1,0.8,1.9,0.8  C203.2,211.5,203.3,211.5,203.4,211.5z M214.2,206.9c0-1.4-0.7-2.6-1.6-2.6v4.4c0,0.3,0,0.5-0.1,0.8c0,0,0.1,0,0.1,0  C213.5,209.5,214.2,208.3,214.2,206.9z M205.1,201.5c0,0.1,0,0.1,0,0.1c0,0.1,0.1,0.2,0.1,0.2c0,0.1,0.1,0.1,0.1,0.2  c0.1,0.1,0.1,0.1,0.1,0.1s0-0.1,0-0.2c0-0.1,0-0.2,0-0.4c0-0.1,0-0.2,0-0.2c0-0.1,0-0.2,0.1-0.2c0-0.1,0.1-0.2,0.1-0.2l0-0.1l0-0.1  l0,0c0-0.1,0.1-0.1,0.1-0.2c0.1-0.1,0.1-0.3,0.1-0.4c0-0.1,0-0.3,0-0.4c0-0.1,0-0.2-0.1-0.3c0-0.1-0.1-0.2-0.1-0.3  c0-0.1-0.1-0.2-0.1-0.2c0-0.1-0.1-0.1-0.1-0.2c0,0-0.1-0.1-0.1-0.1c0,0,0,0,0,0s0,0.1,0,0.2c0,0.1,0,0.2,0,0.4c0,0.2,0,0.3-0.1,0.5  c0,0.1,0,0.2-0.1,0.3c0,0.1,0,0.2-0.1,0.2c0,0,0,0.1-0.1,0.1l0,0l0,0l0,0l0,0c0,0,0,0,0,0l0,0l0,0l0,0.1c0,0.1,0,0.1-0.1,0.2  c0,0.1,0,0.1,0,0.2c0,0.1,0,0.3,0,0.4C205.1,201.4,205.1,201.5,205.1,201.5z M206.7,200.5c0,0.1,0,0.1,0,0.1c0,0.1,0.1,0.2,0.1,0.2  c0,0.1,0.1,0.1,0.1,0.2c0.1,0.1,0.1,0.1,0.1,0.1s0-0.1,0-0.2c0-0.1,0-0.2,0-0.4c0-0.1,0-0.2,0-0.2c0-0.1,0-0.2,0.1-0.2  c0-0.1,0.1-0.2,0.1-0.2l0-0.1l0-0.1l0,0c0-0.1,0.1-0.1,0.1-0.2c0.1-0.1,0.1-0.3,0.1-0.4c0-0.1,0-0.3,0-0.4c0-0.1,0-0.2-0.1-0.3  c0-0.1-0.1-0.2-0.1-0.3c0-0.1-0.1-0.2-0.1-0.2c0-0.1-0.1-0.1-0.1-0.2c0,0-0.1-0.1-0.1-0.1c0,0,0,0,0,0s0,0.1,0,0.2  c0,0.1,0,0.2,0,0.4c0,0.2,0,0.3-0.1,0.5c0,0.1,0,0.2-0.1,0.3c0,0.1,0,0.2-0.1,0.2c0,0,0,0.1-0.1,0.1l0,0l0,0l0,0l0,0c0,0,0,0,0,0  l0,0l0,0l0,0.1c0,0.1,0,0.1-0.1,0.2c0,0.1,0,0.1,0,0.2c0,0.1,0,0.3,0,0.4C206.6,200.4,206.6,200.4,206.7,200.5z"/>
</svg>