<svg xmlns="http://www.w3.org/2000/svg" xmlns:xlink="http://www.w3.org/1999/xlink" version="1.1" id="Layer_1" x="0px" y="0px" style="enable-background:new 0 0 256 256;" xml:space="preserve" viewBox="56.1 4.3 143.9 246.3">
<path d="M167.9,126.9c12-8.5,32.1-23.4,32.1-62.6c0-31.7-18.5-60-18.5-60H74.6c0,0-18.5,28.5-18.5,60.3c0,39.2,20.1,54.1,32,62.6  c13.8,9.8,34.8,28.5,34.8,31.4v78.6H75.9v13.4h102.9v-13.4h-45.7v-78.6C133.1,155.4,154.1,136.8,167.9,126.9z M81.8,14.6h92.5  c4.8,0,15.4,28.6,15.4,49.7c0,0.6,0,1.2,0,1.7H66.3c0-0.5,0-1,0-1.4C66.3,43.5,77,23,81.8,14.6z"/>
</svg>