<?xml version="1.0" standalone="no"?><!DOCTYPE svg PUBLIC "-//W3C//DTD SVG 1.1//EN" "http://www.w3.org/Graphics/SVG/1.1/DTD/svg11.dtd"><svg class="icon" height="512" viewBox="0 0 1024 1024" version="1.1" xmlns="http://www.w3.org/2000/svg"><path d="M472.35072 342.00064c-77.51168 0-140.3648 63.16544-140.3648 141.11232s62.85312 141.1072 140.3648 141.1072 140.34432-63.16032 140.34432-141.1072c0-77.94688-62.82752-141.11232-140.34432-141.11232zM794.07104 535.18848c22.47168 0 44.05248 3.76832 64.22016 10.61888V271.45216c0-29.23008-23.51616-52.9408-52.60288-52.9408h-136.57088c-44.04224-46.1824-105.07776-105.8304-126.59712-105.8304h-35.08224H402.15552c-21.50912 0-82.54976 59.65312-126.592 105.8304h-136.5504c-29.08672 0-52.64896 23.71072-52.64896 52.9408v476.26752c0 29.23008 23.56736 52.89472 52.64896 52.89472h464.9472a202.25024 202.25024 0 0 1-10.32704-63.83616c0.00512-111.36 89.75872-201.58976 200.43776-201.58976zM279.36256 483.11296c0-107.17696 86.39488-194.048 192.99328-194.048 106.57792 0 192.99328 86.87616 192.99328 194.048 0 107.17696-86.41536 194.048-192.99328 194.048-106.60352 0-192.99328-86.87104-192.99328-194.048zM794.07104 563.31264c-95.22688 0-172.4928 77.65504-172.4928 173.46048 0 95.80032 77.27104 173.45536 172.4928 173.45536 95.31904 0 172.49792-77.65504 172.49792-173.45536 0-95.80544-77.17888-173.46048-172.49792-173.46048z m88.6016 187.52h-74.58816V825.856c0 10.32192-8.35072 18.71872-18.62144 18.71872a18.69824 18.69824 0 0 1-18.66752-18.71872v-75.01824h-74.63424c-10.27072 0-18.62656-8.40192-18.62656-18.7648 0-10.368 8.35584-18.7648 18.62656-18.7648h74.63424v-74.97216c0-10.368 8.35072-18.76992 18.66752-18.76992 10.27072 0 18.62144 8.40192 18.62144 18.76992v74.97216h74.58816c10.27072 0 18.62144 8.3968 18.62144 18.7648 0 10.36288-8.35072 18.75968-18.62144 18.75968z" /></svg>