<?xml version="1.0" encoding="utf-8"?>
<!-- Generator: Adobe Illustrator 25.1.0, SVG Export Plug-In . SVG Version: 6.00 Build 0)  -->
<svg version="1.1" id="Capa_1" xmlns="http://www.w3.org/2000/svg" xmlns:xlink="http://www.w3.org/1999/xlink" x="0px" y="0px"
	 viewBox="0 0 490.3 490.3" style="enable-background:new 0 0 490.3 490.3;" xml:space="preserve">
<style type="text/css">
	.st0{fill:#030305;stroke:#030305;stroke-width:0.5;stroke-miterlimit:10;}
</style>
<g>
	<g>
		<path class="st0" d="M236.1,239.9v10c0,1.4,0.9,2.5,2,2.5h6.6c1.1,0,2-1.1,2-2.5v-1.6c0-0.3-0.2-0.5-0.4-0.5s-0.4,0.2-0.4,0.5v1.6
			c0,0.8-0.6,1.5-1.2,1.5h-6.6c-0.7,0-1.2-0.7-1.2-1.5v-10c0-0.8,0.6-1.5,1.2-1.5h6.6c0.7,0,1.2,0.7,1.2,1.5v1.6
			c0,0.3,0.2,0.5,0.4,0.5s0.4-0.2,0.4-0.5v-1.6c0-1.4-0.9-2.5-2-2.5h-6.6C237,237.4,236.1,238.5,236.1,239.9z"/>
		<path class="st0" d="M249.7,248.6c0.1,0.1,0.2,0.1,0.4,0.1s0.3,0,0.4-0.1l3.4-3.4c0.2-0.2,0.2-0.5,0-0.7l-3.4-3.4
			c-0.2-0.2-0.5-0.2-0.7,0c-0.2,0.2-0.2,0.5,0,0.7l2.5,2.5h-9.3c-0.3,0-0.5,0.2-0.5,0.5c0,0.3,0.2,0.5,0.5,0.5h9.3l-2.5,2.5
			C249.5,248.1,249.5,248.4,249.7,248.6z"/>
	</g>
</g>
</svg>
