<?xml version="1.0" encoding="utf-8"?>
<!-- Generator: Adobe Illustrator 25.1.0, SVG Export Plug-In . SVG Version: 6.00 Build 0)  -->
<svg version="1.1" id="Capa_1" xmlns="http://www.w3.org/2000/svg" xmlns:xlink="http://www.w3.org/1999/xlink" x="0px" y="0px"
	 viewBox="0 0 58 58" style="enable-background:new 0 0 58 58;" xml:space="preserve">
<path d="M48,47.5H30c-0.6,0-1-0.4-1-1s0.4-1,1-1h18c0.6,0,1,0.4,1,1S48.6,47.5,48,47.5z"/>
<path d="M41,40.5H30c-0.6,0-1-0.4-1-1s0.4-1,1-1h11c0.6,0,1,0.4,1,1S41.6,40.5,41,40.5z"/>
<path d="M48,33.5H30c-0.6,0-1-0.4-1-1s0.4-1,1-1h18c0.6,0,1,0.4,1,1C49,33.1,48.6,33.5,48,33.5z"/>
<path d="M46,26.5H30c-0.6,0-1-0.4-1-1s0.4-1,1-1h16c0.6,0,1,0.4,1,1S46.6,26.5,46,26.5z"/>
<path d="M42,19.5H30c-0.6,0-1-0.4-1-1s0.4-1,1-1h12c0.6,0,1,0.4,1,1S42.6,19.5,42,19.5z"/>
<path d="M48,12.5H30c-0.6,0-1-0.4-1-1s0.4-1,1-1h18c0.6,0,1,0.4,1,1S48.6,12.5,48,12.5z"/>
<path d="M15,50.5c-0.6,0-1-0.4-1-1v-41c0-0.6,0.4-1,1-1s1,0.4,1,1v41C16,50.1,15.6,50.5,15,50.5z"/>
<path d="M8,16.5c-0.3,0-0.5-0.1-0.7-0.3c-0.4-0.4-0.4-1,0-1.4l7-7c0.4-0.4,1-0.4,1.4,0s0.4,1,0,1.4l-7,7C8.5,16.4,8.3,16.5,8,16.5z"
	/>
<path d="M22,16.5c-0.3,0-0.5-0.1-0.7-0.3l-7-7c-0.4-0.4-0.4-1,0-1.4s1-0.4,1.4,0l7,7c0.4,0.4,0.4,1,0,1.4
	C22.5,16.4,22.3,16.5,22,16.5z"/>
<path d="M15,50.5c-0.3,0-0.5-0.1-0.7-0.3c-0.4-0.4-0.4-1,0-1.4l7-7c0.4-0.4,1-0.4,1.4,0s0.4,1,0,1.4l-7,7
	C15.5,50.4,15.3,50.5,15,50.5z"/>
<path d="M15,50.5c-0.3,0-0.5-0.1-0.7-0.3l-7-7c-0.4-0.4-0.4-1,0-1.4s1-0.4,1.4,0l7,7c0.4,0.4,0.4,1,0,1.4
	C15.5,50.4,15.3,50.5,15,50.5z"/>
</svg>
