<?xml version="1.0" encoding="utf-8"?>
<!-- Generator: Adobe Illustrator 25.1.0, SVG Export Plug-In . SVG Version: 6.00 Build 0)  -->
<svg version="1.1" id="Layer_1" xmlns="http://www.w3.org/2000/svg" xmlns:xlink="http://www.w3.org/1999/xlink" x="0px" y="0px"
	 viewBox="0 0 122.9 122.9" style="enable-background:new 0 0 122.9 122.9;" xml:space="preserve">
<style type="text/css">
	.st0{fill:none;stroke:#000000;stroke-width:2;stroke-linecap:round;stroke-linejoin:round;}
</style>
<g>
	<g id="g10_18_" transform="matrix(1.3333333,0,0,-1.3333333,0,133.33333)">
		<g>
			<g id="g12_16_" transform="scale(0.1)">
				<path id="path16_16_" d="M476.3,600.3c-37.7,0-68.3-30.5-68.3-68.3c0-37.7,30.5-68.3,68.3-68.3c37.7,0,68.3,30.5,68.3,68.3
					C544.5,569.7,514,600.3,476.3,600.3z M476.3,593.9c34.1,0,61.8-27.7,61.8-61.9c0-34.1-27.7-61.8-61.8-61.8s-61.9,27.7-61.9,61.8
					C414.4,566.2,442.2,593.9,476.3,593.9"/>
			</g>
		</g>
	</g>
</g>
<line class="st0" x1="67.9" y1="58.5" x2="59.4" y2="67"/>
<line class="st0" x1="59.4" y1="58.5" x2="67.9" y2="67"/>
</svg>
