<?xml version="1.0" encoding="UTF-8" standalone="no"?>
<svg
   xmlns:dc="http://purl.org/dc/elements/1.1/"
   xmlns:cc="http://creativecommons.org/ns#"
   xmlns:rdf="http://www.w3.org/1999/02/22-rdf-syntax-ns#"
   xmlns:svg="http://www.w3.org/2000/svg"
   xmlns="http://www.w3.org/2000/svg"
   viewBox="0 0 133.34666 133.33333"
   height="133.33333"
   width="133.34666"
   xml:space="preserve"
   id="svg2"
   version="1.1"><metadata
     id="metadata8"><rdf:RDF><cc:Work
         rdf:about=""><dc:format>image/svg+xml</dc:format><dc:type
           rdf:resource="http://purl.org/dc/dcmitype/StillImage" /></cc:Work></rdf:RDF></metadata><defs
     id="defs6" /><g
     transform="matrix(1.3333333,0,0,-1.3333333,0,133.33333)"
     id="g10"><g
       transform="scale(0.1)"
       id="g12"><path
         id="path14"
         style="fill:#e5e5e3;fill-opacity:1;fill-rule:nonzero;stroke:none"
         d="m 543.871,465.145 c -29.734,22.406 -143.523,90.539 -143.523,90.539 0,0 114.418,-63.973 144.207,-85.672 54.722,-39.856 208.383,-153 208.383,-153 0,0 -154.985,107.402 -209.067,148.133 z M 324.488,612.773 C 347.223,595 369.594,577.5 392.934,559.25 c -17.59,-0.07 -68.879,40.43 -68.446,53.523 z m 27.235,22.707 c 11.992,-10.128 38.164,-42.863 40.293,-50.402 -36.887,19.094 -47.145,31.914 -40.293,50.402 z m 12.82,19.454 c 4.559,-6.418 11.117,-11.067 12.367,-19.766 -4.969,5.855 -9.933,11.707 -14.898,17.559 0.843,0.73 1.683,1.472 2.531,2.207 z m 43.953,0.867 c -11.402,7.804 -16.301,20.129 -26.723,27.179 12.059,-1.41 24.258,-14.71 26.723,-27.179 z m 31.106,-39.258 c 20.05,-26.594 66.824,-112.48 66.824,-112.48 0,0 -47.731,75.441 -64.492,103.664 -5.543,9.324 -29.34,44.8 -29.34,44.8 0,0 20.648,-27.554 27.008,-35.984 z M 778.723,328.879 c -14.575,21.394 -32.09,40.476 -50.086,59.109 -53.953,55.907 -113.442,105.977 -173.66,155.254 -20.774,16.992 -44.016,31.758 -62.082,51.113 -25.207,27.012 -49.536,54.825 -75.918,80.821 -7.563,7.453 -7.059,15.996 -1.27,23.094 5.145,6.3 7.645,10.531 3.535,18.871 -2.344,4.773 -5.172,11.55 -8.437,11.89 -5.453,0.571 -7.461,-7.039 -11.137,-10.933 -1.352,-1.438 -0.805,-5.383 0.035,-7.805 2.055,-5.93 1.473,-11.73 1.102,-20.234 -8.739,9.461 -7.723,17.921 -4.981,26.457 2.844,8.816 -1.011,16.328 -8.019,19.507 -9.629,4.36 -20.657,6.313 -31.637,4.961 -1.773,-0.214 -4.023,-2.332 -4.891,0.071 -3.972,11.047 -6.953,1.758 -10.039,-0.41 -2.414,-1.7 -4.886,-5.899 -7.043,-0.528 -6.265,15.598 -19.972,14.649 -33.57,16.414 -8.297,1.086 -7.988,-1.172 -8.246,-7.234 -0.199,-4.746 -1.949,-12.649 -8.086,-10.781 -10.773,3.261 -18.324,-6.368 -28.27,-4.317 -2.332,0.481 -2.375,-1.855 -2.14,-4.109 1.191,-11.496 1.152,-23.07 9.5,-32.863 2.785,-3.274 3.781,-8.731 1.441,-13.332 -4.941,-9.723 -5.027,-19.454 -0.719,-29.332 0.86,-1.055 2.282,-2.129 0.762,-3.508 -1.527,-1.399 -2.504,0.175 -3.558,0.988 -4.161,-6.289 -10.008,-8.137 -17.5,-7.102 -3.481,0.481 -9.457,1.485 -6.043,-5.578 4.949,-10.242 4.605,-21.668 10.453,-32.293 7.703,-13.996 16.004,-21.132 32.344,-17.578 15.078,3.274 23.332,2.188 33.21,-4.375 -47.433,-9.375 -47.433,-9.375 -53.312,-18.097 10.246,0.714 16.312,-7.704 26.301,-9.344 6.551,-1.082 11.25,-2.735 16.207,1.484 18.105,15.41 23.863,15.735 43.191,1.758 2.887,-2.078 5.856,-4.063 8.727,-6.152 34.683,-25.286 71.801,-46.922 101.054,-79.539 55.118,-61.465 113.59,-119.973 175.797,-174.856 18.75,-16.543 40.078,-29.629 59.285,-45.527 17.977,-14.883 36.36,-15.02 56.832,-3.114 10.368,6.036 19.497,13.512 27.321,22.469 17.09,19.551 18.047,33.379 3.547,54.68" /><path
         id="path16"
         style="fill:#e5e5e3;fill-opacity:1;fill-rule:nonzero;stroke:none"
         d="M 500.051,907.996 C 274.719,907.996 92.0508,725.332 92.0508,500 92.0508,274.668 274.719,92.0039 500.051,92.0039 c 225.332,0 408,182.6641 408,407.9961 0,225.332 -182.668,407.996 -408,407.996 z m 0,-38.25 c 203.879,0 369.75,-165.867 369.75,-369.746 0,-203.879 -165.871,-369.746 -369.75,-369.746 -203.883,0 -369.754,165.867 -369.754,369.746 0,203.879 165.871,369.746 369.754,369.746" /></g></g></svg>