<?xml version="1.0" encoding="UTF-8" standalone="no"?>
<svg
   xmlns:dc="http://purl.org/dc/elements/1.1/"
   xmlns:cc="http://creativecommons.org/ns#"
   xmlns:rdf="http://www.w3.org/1999/02/22-rdf-syntax-ns#"
   xmlns:svg="http://www.w3.org/2000/svg"
   xmlns="http://www.w3.org/2000/svg"
   viewBox="0 0 133.34666 133.33333"
   height="133.33333"
   width="133.34666"
   xml:space="preserve"
   id="svg2"
   version="1.1"><metadata
     id="metadata8"><rdf:RDF><cc:Work
         rdf:about=""><dc:format>image/svg+xml</dc:format><dc:type
           rdf:resource="http://purl.org/dc/dcmitype/StillImage" /></cc:Work></rdf:RDF></metadata><defs
     id="defs6" /><g
     transform="matrix(1.3333333,0,0,-1.3333333,0,133.33333)"
     id="g10"><g
       transform="scale(0.1)"
       id="g12"><path
         id="path14"
         style="fill:#e5e5e3;fill-opacity:1;fill-rule:nonzero;stroke:none"
         d="m 752.219,458.254 c -12.215,-3.449 -23.879,-8.559 -34.77,-14.934 -1.254,14.551 -5.203,26.961 -11.597,37.45 0.656,0.746 1.429,1.386 2.039,2.168 0.722,0.917 1.422,1.875 2.336,2.628 0.894,0.735 1.961,1.231 3.019,1.719 4.242,1.961 8.496,3.938 12.738,5.906 3.25,1.504 6.864,3.43 7.711,6.821 0.524,2.097 -0.16,4.285 -0.879,6.336 -2.55,7.257 -5.73,14.289 -9.269,21.152 -0.051,0.527 -0.109,1.094 -0.27,1.75 -7.039,28.379 -14.57,57.754 -33.332,80.563 -3.066,3.734 -6.476,7.355 -8.183,11.835 -1.192,3.125 -1.473,6.504 -1.707,9.829 -0.703,10.093 -1,20.339 -3.946,30.046 -3.222,10.633 -9.484,20.157 -16.402,28.977 -7.766,9.883 -16.699,19.266 -28.043,25.047 -16.894,8.601 -38.406,7.969 -54.73,-1.621 1.418,-8.328 11.871,-11.199 19.214,-15.723 4.797,-2.961 8.641,-7.14 12.411,-11.262 4.136,-4.519 8.273,-9.031 12.41,-13.543 -11.453,2.715 -24.992,7.442 -27.281,18.665 -5.481,-0.254 -9.743,-5.239 -10.797,-10.461 -1.051,-5.215 0.386,-10.586 2.007,-15.664 5.477,-17.2 13.207,-33.731 22.93,-49.063 2.285,-3.594 4.688,-7.148 7.555,-10.32 10.832,-12.004 27.129,-17.649 42.68,-22.825 -3.047,-7.335 0.582,-15.554 4.378,-22.558 10.141,-18.672 22.075,-36.399 35.43,-53.047 -1.367,-3.184 -4.098,-6.191 -7.234,-9.082 -37.489,32.961 -109.516,39.187 -192.301,39.187 -80.801,0 -151.227,-3.113 -189.422,-34.019 -3.269,2.984 -6.148,6.082 -7.566,9.383 13.355,16.648 25.293,34.375 35.429,53.047 3.797,7.004 7.426,15.222 4.379,22.558 15.559,5.176 31.848,10.821 42.684,22.821 2.863,3.175 5.269,6.73 7.551,10.324 9.726,15.332 17.453,31.867 22.929,49.062 1.621,5.078 3.059,10.449 2.008,15.664 -1.055,5.227 -5.316,10.203 -10.797,10.457 -2.289,-11.218 -15.828,-15.945 -27.273,-18.66 4.129,4.512 8.265,9.024 12.402,13.543 3.774,4.121 7.617,8.305 12.41,11.262 7.344,4.519 17.797,7.391 19.215,15.723 -16.324,9.589 -37.836,10.222 -54.73,1.621 -11.34,-5.782 -20.282,-15.164 -28.043,-25.047 -6.918,-8.821 -13.18,-18.34 -16.403,-28.977 -2.937,-9.707 -3.242,-19.949 -3.937,-30.051 -0.234,-3.316 -0.524,-6.699 -1.715,-9.824 -1.703,-4.48 -5.117,-8.101 -8.184,-11.836 -18.761,-22.808 -26.289,-52.183 -33.332,-80.562 -0.16,-0.656 -0.218,-1.211 -0.265,-1.75 -3.535,-6.864 -6.723,-13.899 -9.27,-21.153 -0.722,-2.05 -1.406,-4.238 -0.883,-6.336 0.848,-3.39 4.461,-5.312 7.715,-6.82 4.242,-1.972 8.492,-3.941 12.739,-5.906 1.054,-0.488 2.121,-0.984 3.015,-1.719 0.918,-0.754 1.613,-1.711 2.336,-2.629 0.485,-0.613 1.098,-1.109 1.61,-1.707 -7.434,-11.203 -12.125,-24.863 -13.637,-41.445 -9.926,5.469 -20.457,9.902 -31.418,13 -32.985,-19.387 -63.61,-42.551 -91.035,-68.852 4.836,-2.976 11.195,-2.73 16.57,-0.789 5.371,1.946 10.004,5.379 14.645,8.645 19.753,13.887 41.21,25.484 63.773,34.488 6.301,-10.887 16.453,-19.07 26.383,-27.012 2.422,-1.929 4.84,-3.867 7.261,-5.789 0.141,-0.371 0.286,-0.742 0.438,-1.113 -6.926,1.445 -13.914,2.551 -20.984,2.852 -23.688,-22.852 -44.598,-48.418 -62.145,-75.996 4.699,-1.551 10.004,-0.086 14.113,2.617 4.118,2.695 7.293,6.504 10.516,10.175 13.699,15.606 29.324,29.629 46.426,41.68 7.594,-7.91 17.867,-12.793 27.894,-17.5 3.75,-1.765 7.5,-3.523 11.25,-5.281 1.235,-1.328 2.364,-2.688 3.66,-3.984 -6.011,-0.415 -12.003,-1.118 -17.875,-2.434 -14.781,-25.391 -26.472,-52.473 -34.753,-80.496 4.46,-0.235 8.683,2.281 11.566,5.594 2.887,3.308 4.684,7.363 6.555,11.296 7.949,16.758 17.961,32.59 29.75,47.063 8.554,-5.059 18.679,-6.863 28.547,-8.574 4.621,-0.801 9.234,-1.602 13.855,-2.403 0.066,0.196 0.133,0.418 0.199,0.606 38.567,-23.555 88.774,-38.723 143.844,-38.723 62.605,0 118.965,19.571 159,48.852 0.844,0.144 1.687,0.293 2.535,0.437 9.863,1.707 19.992,3.516 28.551,8.575 11.789,-14.473 21.797,-30.301 29.754,-47.059 1.863,-3.938 3.66,-7.988 6.547,-11.301 2.882,-3.308 7.109,-5.832 11.57,-5.598 -8.285,28.032 -19.977,55.098 -34.754,80.493 -4.527,1.023 -9.121,1.773 -13.746,2.254 0.559,0.644 1.172,1.269 1.719,1.914 1.742,0.664 3.492,1.32 5.234,1.972 10.391,3.907 21.039,7.969 29.27,15.266 16.039,-13.352 30.441,-28.547 42.804,-45.18 2.907,-3.902 5.754,-7.957 9.625,-10.965 3.875,-3.015 9.043,-4.89 13.86,-3.718 -15.207,28.867 -33.914,55.984 -55.621,80.625 -6.243,0.214 -12.477,-0.168 -18.684,-0.852 1.961,1.57 3.918,3.137 5.879,4.695 9.93,7.942 20.09,16.125 26.383,27.012 22.562,-9.004 44.023,-20.601 63.773,-34.488 4.645,-3.266 9.278,-6.699 14.649,-8.645 5.371,-1.941 11.73,-2.187 16.574,0.789 -27.43,26.301 -58.059,49.465 -91.039,68.852" /><path
         id="path16"
         style="fill:#e5e5e3;fill-opacity:1;fill-rule:nonzero;stroke:none"
         d="m 500.051,904.504 c -224.367,0 -406.2541,-181.887 -406.2541,-406.25 0,-224.367 181.8871,-406.2501 406.2541,-406.2501 224.363,0 406.25,181.8831 406.25,406.2501 0,224.363 -181.887,406.25 -406.25,406.25 z m 0,-38.086 c 203.008,0 368.164,-165.156 368.164,-368.164 0,-203.012 -165.156,-368.164 -368.164,-368.164 -203.004,0 -368.164,165.152 -368.164,368.164 0,203.008 165.16,368.164 368.164,368.164" /></g></g></svg>