<?xml version="1.0" encoding="UTF-8" standalone="no"?>
<svg
   xmlns:dc="http://purl.org/dc/elements/1.1/"
   xmlns:cc="http://creativecommons.org/ns#"
   xmlns:rdf="http://www.w3.org/1999/02/22-rdf-syntax-ns#"
   xmlns:svg="http://www.w3.org/2000/svg"
   xmlns="http://www.w3.org/2000/svg"
   viewBox="0 0 133.34666 133.33333"
   height="133.33333"
   width="133.34666"
   xml:space="preserve"
   id="svg2"
   version="1.1"><metadata
     id="metadata8"><rdf:RDF><cc:Work
         rdf:about=""><dc:format>image/svg+xml</dc:format><dc:type
           rdf:resource="http://purl.org/dc/dcmitype/StillImage" /></cc:Work></rdf:RDF></metadata><defs
     id="defs6" /><g
     transform="matrix(1.3333333,0,0,-1.3333333,0,133.33333)"
     id="g10"><g
       transform="scale(0.1)"
       id="g12"><path
         id="path14"
         style="fill:#e5e5e3;fill-opacity:1;fill-rule:nonzero;stroke:none"
         d="m 502.305,439.59 c -5.004,-5.07 -28.289,0 -28.289,0 H 296.305 c 0,0 -21.969,-4.785 -26.688,0 -4.398,4.465 0,25.234 0,25.234 v 51.336 c 0,0 -7.976,37.68 0,45.766 3.84,3.894 21.723,0 21.723,0 h 187.64 c 0,0 19.2,4.179 23.325,0 3.238,-3.281 0,-18.586 0,-18.586 v -76.504 c 0,0 4.75,-22.434 0,-27.246 z m 52.203,-4.207 c 0,37.793 -3.356,121.094 -4.789,158.543 -0.735,19.004 -3.817,67.187 -3.817,67.187 0,0 10.161,19.992 6.793,23.407 -3.804,3.847 -28.297,-4.082 -28.297,-4.082 0,0 -132.722,9.242 -175.726,9.242 -29.039,0 -112.434,-9.242 -112.434,-9.242 0,0 -21.148,12.082 -24.574,8.605 -2.84,-2.883 5.211,-24.91 5.211,-24.91 0,0 6.703,-45.356 6.703,-61.945 0,-40.032 -12.672,-136.875 -13.359,-182.657 -0.391,-26.289 6.656,-104.941 6.656,-104.941 0,0 -9.469,-21.211 -5.816,-24.91 3.418,-3.481 25.175,3.965 25.175,3.965 0,0 175.914,-8.274 233.809,-8.274 12.285,0 46.91,8.274 46.91,8.274 0,0 31.309,-12.18 36.43,-6.997 4.836,4.915 -7.481,34.739 -7.481,34.739 0,0 8.606,85.871 8.606,113.996" /><path
         id="path16"
         style="fill:#e5e5e3;fill-opacity:1;fill-rule:nonzero;stroke:none"
         d="m 741.68,372.938 c 2.8,4.425 3.574,8.957 3.726,13.593 0.067,2.16 2.328,6.328 -2.734,5.293 -3.766,-0.761 -10.391,2.309 -10.035,-5.894 0.273,-6.184 5.429,-8.75 9.043,-12.992 z m -30.063,-81.661 c 3.942,2.844 3.828,5.715 4.555,8.215 7.875,27.063 6.516,54.278 1.312,81.555 -0.339,1.797 0.407,4.422 -2.129,4.93 -2.281,0.449 -4.164,-1.141 -5.71,-2.754 -1.825,-1.895 -1.77,-4.446 -2.207,-6.856 -3.129,-17.129 -0.891,-34.238 0.41,-51.308 0.824,-10.899 2.394,-21.739 3.769,-33.782 z m -24.98,87.407 c 3.613,5.027 4.703,11.597 11.008,13.621 2.46,0.793 2.418,2.441 0.902,4.57 -10.738,15.09 -22.555,28.801 -39.359,37.695 -7.168,3.797 -13.114,4.035 -19.719,-0.195 -1.742,-1.113 -3.321,-2.957 -6.211,-2.578 -0.375,3.535 1.59,6.101 3.808,8.164 4.961,4.629 1.914,5.898 -2.414,7.805 -10.57,4.644 -21.16,1.504 -31.761,0.742 -2.129,-0.156 -4.235,-1.406 -6.446,-0.156 -0.703,3.406 3.899,3.523 3.953,7.339 -6.918,0.864 -13.96,1.75 -21.011,2.629 12.73,5.371 25.941,1.707 39.011,2.84 -11.89,6.176 -24.878,9.113 -36.5,15.903 11.461,3.406 22.668,0.054 34.356,-1.731 -1.563,4.324 -5.281,6.965 -6.254,12.07 10.531,-2.851 17.766,-10.019 27.188,-15.461 -1.829,8.079 3.718,11.985 7.332,16.914 2.73,3.743 6.082,3.657 9.703,1.821 3.273,-1.66 4.504,-3.442 0.636,-6.211 -1.058,-0.754 0.86,-2.492 1.696,-3.637 2.461,-3.348 5.55,-6.402 7.312,-10.098 4.613,-9.636 12.477,-12.886 22.969,-12.832 -3.25,5.082 -8.734,7.336 -12.207,11.614 -1.188,1.457 -3.484,2.746 -2.41,4.89 1.082,2.168 3.429,1.172 5.277,0.832 1.676,-0.3 3.32,-0.8 4.961,-1.281 11.676,-3.418 18.328,2.133 17.426,14.485 -0.238,3.3 -2.324,6.503 3.183,8.796 3.051,1.274 -8.933,33.989 -6.5,40.813 2.043,5.691 -1.796,10.945 -4.656,15.676 -2.555,4.207 -4.437,8.172 -2.625,13.062 0.539,1.457 0.715,2.746 -0.121,4.192 -4.621,8.015 -20.434,9.433 -25.773,2.07 -4.309,-5.938 -10.828,-5.559 -16.598,-5.606 -11.055,-0.105 -21.41,14.961 -18.473,25.539 1.039,3.75 3.321,3.817 6.149,2.672 2.859,-1.148 5.621,-2.547 9.027,-4.121 0.582,4.602 -1.898,7.278 -3.176,10.266 -2.484,5.82 -1.808,10.754 4.176,13.625 2.598,1.25 3.707,2.437 2.121,4.859 -2.304,3.528 -4.281,6.86 -3.957,11.496 0.195,2.813 -2.156,2.215 -4.168,1.043 -15.031,-8.738 -30.422,-1.929 -34.883,15.239 -0.468,1.816 -1.796,3.425 -2.843,5.066 -1.922,3 -2,5.273 1.707,7.078 4.699,2.297 5.308,4.953 -0.024,7.453 -1.344,0.637 -2.992,1.692 -2.531,3.211 2.391,7.973 -3.391,7.492 -8.125,8.41 -2.848,0.559 -6.152,0.891 -8.273,2.571 -3.36,2.664 -7.254,6.062 -7.012,10.672 0.293,5.5 6.894,3.32 9.914,6.398 -5.121,2.852 -10.543,5.137 -15.055,8.602 -4.16,3.203 -12.359,5.808 -5.215,13.757 0.75,0.832 0.457,2.004 -0.351,2.618 -5.047,3.808 -5.317,9.64 -6.485,15.097 -0.386,1.801 -1.371,3.625 -3.031,3.86 -7.113,1.003 -10.715,7.968 -17.359,9.914 -4.274,1.25 -7.555,4.39 -9.09,8.964 -1.367,4.063 -4.145,7.059 -7.258,9.95 -10.758,10 -21.637,19.968 -35.219,25.793 -6.3,2.695 -11.64,6.715 -17.601,9.675 -4.949,2.461 -7.414,6.309 -9.07,10.899 -2.727,7.551 -0.165,11.758 7.789,12.812 14.711,1.954 29.066,1.465 42.675,-5.839 3.914,-2.11 9.164,-1.457 13.453,-1.504 14.055,-0.149 26.997,-5.789 41.047,-6.629 13.125,-0.782 26.637,-4.836 38.606,-11.535 4.043,-2.254 6.816,-6.282 7.914,-11.102 0.418,-1.809 0.277,-3.977 2.558,-4.746 0.524,0.391 0.977,0.586 1.247,0.934 1.875,2.445 -2.997,7.25 1.949,7.992 4.867,0.742 10.472,1.101 14.199,-3.696 2.914,-3.738 4.672,-7.3 11.27,-7.136 5.847,0.156 8.582,-7.168 10.668,-12.743 1.425,-3.808 1.742,-8 7.382,-3.105 4.215,3.66 9.961,-0.988 11.821,-9.082 3.14,0.855 4.425,6.949 8.183,4.375 4.531,-3.117 9.571,-7.758 8.297,-13.723 -1.754,-8.203 1.168,-14.453 4.82,-21.023 1.231,-2.219 1.723,-4.067 4.645,-1.789 2.199,1.711 4.07,7.097 7.234,3.633 3.133,-3.426 7.785,-7.071 6.442,-13.196 -0.676,-3.047 -1.778,-6.07 -1.207,-9.226 1.832,-0.821 2.855,0.617 4.164,1.047 3.644,1.211 7.652,5.839 10.992,0.82 2.973,-4.484 4.633,-10.305 0.43,-15.09 -4.297,-4.902 -4.512,-6.418 1.867,-10.715 9.445,-6.355 15.039,-16.265 12.246,-29.207 -1.684,-7.761 6.824,-19.211 6.891,-19.531 1.574,-7.293 8.668,-9.207 12.722,-13.898 2.492,-2.879 -0.125,-8.075 -2.754,-11.473 -2.343,-3.02 -3.554,-6.184 -3.867,-10.047 -0.504,-6.312 -3.105,-11.621 -8.234,-15.812 -4.532,-3.692 -6.899,-8.067 0.07,-12.032 3.742,-2.129 2.012,-8.176 7.063,-9.609 3.687,-1.043 7.152,-2.93 11.277,-4.68 -2.535,-3.965 -5.785,-3.355 -8.414,-0.945 -5.035,4.609 -9.805,4.773 -14.578,0.098 -6.477,-6.348 -13.684,-4.582 -20.946,-2.207 -8.875,2.91 -6.336,-5.821 -8.839,-9.09 -2.59,-3.379 1.496,-22.278 3.914,-24.219 6.796,-5.461 1.777,-29.27 7.296,-33.984 5.907,-5.059 7.118,-13.325 8.231,-20.813 1.621,-10.879 5.668,-20.574 11.672,-29.609 2.953,0.605 2.308,3.015 2.492,4.746 1.996,18.515 7.84,35.859 15.484,52.695 0.789,1.738 1.875,3.887 1.5,5.535 -1.265,5.547 -0.152,8.215 6.196,8.371 3.711,0.086 4.453,4.063 4.742,7.325 0.324,3.718 1.543,6.054 5.914,5.449 4.195,-0.574 6.441,1.992 7.094,5.793 1.332,7.781 6.285,11.093 13.562,12.215 3.082,0.468 6.047,1.738 9.699,2.832 -0.25,-2.832 0.336,-5.379 2.762,-7.325 1.625,-1.289 -8.262,-6.23 -9.656,-8.886 -2.516,-4.778 -3.301,-10.078 -5.109,-15.039 -1.04,-2.871 -6.77,-10.95 -8.36,-14.786 -1.922,-4.648 -5.762,-7.753 -9.34,-11.14 -7.59,-7.192 -13.601,-15.254 -12.25,-26.738 0.391,-3.301 -1.09,-6.262 -3.023,-8.872 -1.899,-2.554 -3.988,-4.96 -5.953,-7.468 -1.774,-2.266 -5.051,-4.817 -3.16,-7.5 1.847,-2.617 4.878,0.449 7.168,1.34 15.492,6.023 30.925,12.058 47.687,13.66 4.102,0.39 7.996,2.043 11.754,3.925 16.383,8.211 34.246,9.012 52,10.223 1.832,0.129 3.961,0.293 5.504,-1.89 -22.625,-11.958 -45.004,-23.657 -71.363,-25.493 -15.461,-1.082 -31.239,-1.89 -46.118,-7.371 -2.175,-0.801 -4.867,-0.808 -6.504,-4.082 15.075,0.293 30.024,2.481 45.172,-4.336 -2.808,-2.004 -4.609,-1.093 -6.312,-0.754 -10.828,2.168 -21.363,0.411 -31.828,-2.332 -1.449,-0.382 -3.117,-0.949 -2.727,-2.773 0.418,-1.934 2.293,-1.68 3.637,-1.223 17.308,5.871 34.359,0.996 51.371,-1.511 6.43,-0.95 11.875,0.285 17.633,2.656 9.144,3.769 18.551,4.961 28.195,-0.176 -7.211,-1.594 -14.379,-3.469 -21.66,-4.668 -5.371,-0.891 -1.367,-3.098 -0.883,-4.988 -5.836,-0.774 -11.851,0.242 -17.262,-2.922 1.289,-3.438 6.055,-1.863 7.379,-5.625 -13.59,-1.25 -27.019,-2.488 -41.875,-3.86 6.469,-3.699 11.739,-7.097 16.25,-14.468 -11.09,5.027 -20.586,8.511 -30.578,10.371 -2.394,0.437 -4.758,1.16 -7.172,1.394 -12.117,1.172 -12.929,0.418 -14.941,-11.75 -0.641,-3.855 -1.254,-7.832 -2.699,-11.414 -9.262,-23.015 -9.157,-48.015 -15.215,-71.679 -4.707,-18.371 -10.305,-36.504 -15.762,-54.676 -3.598,-11.965 -7.574,-23.82 -11.539,-35.664 -1.719,-5.149 -13.504,-8.977 -17.965,-6.059 -2.461,1.621 -0.719,3.606 -0.238,5.246 3.391,11.532 6.465,23.184 10.531,34.473 8.332,23.125 7.098,46.699 4.86,70.516 -1.973,21 -3.84,42.05 -1.032,63.148 0.543,4.051 -0.375,6.277 -5.062,5.164 -3.039,-0.723 -6.16,-1.113 -9.246,-1.648" /><path
         id="path18"
         style="fill:#e5e5e3;fill-opacity:1;fill-rule:nonzero;stroke:none"
         d="M 500.051,910.031 C 273.598,910.031 90.0234,726.453 90.0234,500 90.0234,273.547 273.598,89.9727 500.051,89.9727 726.5,89.9727 910.074,273.547 910.074,500 c 0,226.453 -183.574,410.031 -410.023,410.031 z m 0,-38.449 c 204.89,0 371.586,-166.687 371.586,-371.582 0,-204.895 -166.696,-371.582 -371.586,-371.582 -204.895,0 -371.582,166.687 -371.582,371.582 0,204.895 166.687,371.582 371.582,371.582" /></g></g></svg>