<?xml version="1.0" encoding="UTF-8" standalone="no"?>
<svg
   xmlns:dc="http://purl.org/dc/elements/1.1/"
   xmlns:cc="http://creativecommons.org/ns#"
   xmlns:rdf="http://www.w3.org/1999/02/22-rdf-syntax-ns#"
   xmlns:svg="http://www.w3.org/2000/svg"
   xmlns="http://www.w3.org/2000/svg"
   viewBox="0 0 133.34666 133.33333"
   height="133.33333"
   width="133.34666"
   xml:space="preserve"
   id="svg2"
   version="1.1"><metadata
     id="metadata8"><rdf:RDF><cc:Work
         rdf:about=""><dc:format>image/svg+xml</dc:format><dc:type
           rdf:resource="http://purl.org/dc/dcmitype/StillImage" /></cc:Work></rdf:RDF></metadata><defs
     id="defs6" /><g
     transform="matrix(1.3333333,0,0,-1.3333333,0,133.33333)"
     id="g10"><g
       transform="scale(0.1)"
       id="g12"><path
         id="path14"
         style="fill:#e5e5e3;fill-opacity:1;fill-rule:nonzero;stroke:none"
         d="m 589.047,313.672 c 0,0 -75.274,-6.082 -101.781,-5.984 -23.301,0.093 -88.926,5.984 -88.926,5.984 v 197.344 c 0,0 65.371,-8.157 88.926,-8.157 26.164,0 101.781,8.157 101.781,8.157 z m 48.078,178.699 c -0.051,10.266 -1.207,20.52 -1.773,30.766 -0.196,3.593 -0.911,7.183 -1.172,10.769 -0.348,4.617 -1.09,9.239 -1.539,13.86 -0.512,5.308 -1.746,10.507 -3.364,15.593 -3.031,9.551 -7.48,18.516 -12.269,27.278 -7.246,13.25 -15.637,25.816 -24.43,38.101 -6.43,8.977 -13.129,17.766 -20.058,26.367 -0.332,0.415 -0.68,0.825 -0.977,1.25 -0.383,0.547 -0.305,0.891 0.277,1.321 0.243,0.176 0.5,0.332 0.762,0.476 0.898,0.52 1.18,1.321 1.086,2.297 -0.328,3.438 -0.129,6.887 -0.234,10.324 -0.028,0.672 0.019,1.368 -0.153,2.008 -0.222,0.824 -0.261,1.606 -0.101,2.434 0.113,0.578 0.125,1.191 0.14,1.789 0.172,8.457 -0.035,16.914 0.43,25.371 0.211,3.809 0.098,7.637 0.121,11.453 0.02,2.551 0.07,5.09 0.012,7.637 -0.031,1.211 -0.074,2.363 0.465,3.508 0.437,0.933 0.226,1.902 -0.227,2.808 -0.437,0.891 -1.086,1.621 -1.848,2.246 -0.925,0.786 -1.96,1.399 -3.039,1.946 -2.496,1.269 -5.109,2.246 -7.793,3.027 -4.937,1.453 -9.961,2.5 -15.039,3.273 -2.613,0.387 -5.234,0.731 -7.851,1.09 -1.344,0.188 -2.25,0.805 -2.406,2.239 -0.047,0.371 -0.168,0.734 -0.243,1.093 -5.922,29.219 -11.839,58.438 -17.757,87.657 -0.747,3.671 -1.512,7.336 -2.231,11.015 -0.226,1.16 -0.695,2.11 -1.73,2.766 -5.789,3.64 -11.262,3.66 -17.028,0.086 -0.871,-0.547 -1.437,-1.309 -1.652,-2.317 -0.156,-0.73 -0.316,-1.464 -0.465,-2.195 -1.719,-8.523 -3.43,-17.039 -5.152,-25.559 -4.797,-23.789 -9.598,-47.578 -14.403,-71.367 -0.117,-0.586 -0.254,-1.172 -0.402,-1.746 -0.211,-0.801 -0.707,-1.301 -1.551,-1.426 -0.972,-0.144 -1.937,-0.312 -2.91,-0.437 -6.68,-0.832 -13.312,-1.926 -19.805,-3.684 -3.503,-0.957 -6.925,-2.129 -10.125,-3.879 -1.203,-0.652 -2.293,-1.441 -3.234,-2.429 -1.113,-1.16 -1.656,-2.5 -1.289,-4.102 0.25,-1.113 0.25,-2.226 0.25,-3.348 0.012,-6.742 0.027,-13.476 0.043,-20.226 0.019,-7.93 0.027,-15.867 0.055,-23.809 0.004,-0.898 -0.086,-1.843 0.168,-2.675 0.359,-1.18 0.265,-2.317 0.246,-3.497 -0.055,-3.671 -0.149,-7.343 0.215,-11.003 0.125,-1.321 -0.071,-2.5 -0.829,-3.625 -1.597,-2.364 -3.113,-4.786 -4.73,-7.129 -6.18,-8.965 -12.41,-17.903 -18.578,-26.868 -5.356,-7.8 -10.61,-15.671 -15.629,-23.687 -6.172,-9.863 -12.141,-19.848 -16.953,-30.461 -2.899,-6.387 -5.238,-12.93 -5.992,-19.941 -0.543,-5.059 -1.055,-10.125 -1.375,-15.204 -0.414,-6.347 -0.664,-12.707 -0.895,-19.062 -0.254,-6.809 -0.035,-13.625 -0.441,-20.434 -0.207,-3.504 -0.106,-7.031 -0.078,-10.554 0.113,-15.645 -0.207,-31.289 0.32,-46.934 0.344,-10.476 -0.035,-20.969 0.445,-31.445 0.34,-7.395 0.051,-14.817 0.449,-22.227 0.34,-6.203 0.094,-12.414 0.442,-18.633 0.336,-6.043 0.117,-12.121 0.476,-18.171 0.301,-4.934 0.133,-9.883 0.426,-14.817 0.313,-5.305 0.16,-10.625 0.492,-15.937 0.266,-4.258 0.188,-8.528 0.403,-12.793 0.261,-5.301 0.3,-10.625 0.55,-15.926 0.157,-3.449 0.157,-6.887 0.364,-10.324 0.293,-4.93 0.211,-9.883 0.531,-14.817 0.203,-3.133 0.184,-6.277 0.375,-9.422 0.324,-5.371 0.484,-10.761 0.57,-16.152 0.055,-3.391 0.364,-6.727 0.942,-10.051 1.73,-10.066 5.648,-19.215 11.8,-27.429 0.922,-1.231 2.036,-2.168 3.422,-2.852 3.118,-1.543 6.282,-2.957 9.508,-4.238 15.5,-6.16 31.598,-10.117 48.063,-12.703 5.746,-0.903 11.515,-1.614 17.3,-2.114 3.008,-0.254 6.012,-0.586 9.04,-0.625 2.339,-0.039 4.671,-6.89 7.007,-7.078 0.446,-0.039 0.875,5.781 1.313,-6.933 6.344,0 12.691,0 19.039,0 0.855,12.714 1.762,6.964 2.672,6.992 5.203,0.183 10.418,3.547 15.613,3.887 5.648,0.371 11.305,2.285 16.945,2.792 8.36,0.75 16.672,2.571 24.926,4.036 7.371,1.304 14.649,3.418 21.785,5.664 7.793,2.449 15.332,5.711 22.469,9.715 2.832,1.582 5.492,3.535 8.195,5.312 0.832,0.547 1.493,1.309 2.067,2.109 6.035,8.387 9.875,17.696 11.211,27.918 0.449,3.403 0.48,6.875 0.582,10.317 0.23,7.715 0.25,15.429 0.625,23.133 0.25,5.168 0.117,10.339 0.426,15.488 0.367,6.062 0.136,12.141 0.476,18.183 0.332,5.84 0.109,11.692 0.43,17.508 0.386,7.043 0.113,14.082 0.48,21.117 0.371,7.176 0.121,14.375 0.41,21.551 0.633,15.723 2.707,31.446 2.891,47.168 0.008,0.906 2.777,1.785 2.777,2.656 0,27.415 0,54.825 0,82.239 0,0.879 -2.773,1.758 -2.777,2.652" /><path
         id="path16"
         style="fill:#e5e5e3;fill-opacity:1;fill-rule:nonzero;stroke:none"
         d="m 500.051,912.043 c -224.692,0 -406.8362,-182.141 -406.8362,-406.84 0,-224.683 182.1442,-406.8358 406.8362,-406.8358 224.691,0 406.84,182.1528 406.84,406.8358 0,224.699 -182.149,406.84 -406.84,406.84 z m 0,-38.137 c 203.301,0 368.695,-165.398 368.695,-368.703 0,-203.301 -165.394,-368.687 -368.695,-368.687 -203.305,0 -368.699,165.386 -368.699,368.687 0,203.305 165.394,368.703 368.699,368.703" /></g></g></svg>