<?xml version="1.0" encoding="UTF-8" standalone="no"?>
<svg
   xmlns:dc="http://purl.org/dc/elements/1.1/"
   xmlns:cc="http://creativecommons.org/ns#"
   xmlns:rdf="http://www.w3.org/1999/02/22-rdf-syntax-ns#"
   xmlns:svg="http://www.w3.org/2000/svg"
   xmlns="http://www.w3.org/2000/svg"
   viewBox="0 0 133.34666 133.33333"
   height="133.33333"
   width="133.34666"
   xml:space="preserve"
   id="svg2"
   version="1.1"><metadata
     id="metadata8"><rdf:RDF><cc:Work
         rdf:about=""><dc:format>image/svg+xml</dc:format><dc:type
           rdf:resource="http://purl.org/dc/dcmitype/StillImage" /></cc:Work></rdf:RDF></metadata><defs
     id="defs6" /><g
     transform="matrix(1.3333333,0,0,-1.3333333,0,133.33333)"
     id="g10"><g
       transform="scale(0.1)"
       id="g12"><path
         id="path14"
         style="fill:#e5e5e3;fill-opacity:1;fill-rule:nonzero;stroke:none"
         d="m 593.121,264.641 c -8.957,-8.735 -19.308,-13.481 -29.273,-13.481 -0.442,0 -0.875,0.024 -1.297,0.031 -12.547,0.528 -27.879,6.219 -29.715,30.403 l -0.008,0.398 c -0.262,17 7.695,35.86 20.727,49.219 8.883,9.102 18.894,14.148 28.238,14.258 0.164,0 0.332,0 0.512,0 19.769,0 29.98,-11.914 30.351,-35.449 0.235,-16.036 -7.246,-33.426 -19.535,-45.379 z M 472.227,190.852 c -0.504,-0.032 -1,-0.039 -1.504,-0.039 -7.262,0 -13.844,2.578 -19.086,7.5 -6.969,6.542 -10.895,16.675 -11.074,28.535 v 0.007 c -0.231,15.958 7.722,34.454 20.273,47.129 8.875,8.954 18.984,13.899 28.477,13.899 0.039,0 0.062,0 0.101,0 13.891,-0.051 30.66,-6.235 31.637,-35.383 0.906,-27.117 -25.559,-60.547 -48.824,-61.648 z m -71.211,17.261 c -0.258,0 -0.52,-0.008 -0.774,-0.008 -9.183,0 -18.91,4.59 -27.476,12.981 -13.114,12.84 -21.168,31.656 -21.036,49.129 l 0.008,0.312 c 1.489,27.453 18.196,32.578 32.598,32.227 23.027,-0.762 47.34,-30.828 47.273,-58.516 -0.078,-29.16 -16.675,-35.742 -30.593,-36.125 z m -59.707,96.75 c -0.899,-0.05 -1.766,-0.078 -2.625,-0.078 -24.852,0 -29.164,21.985 -32.039,36.692 -0.551,2.761 -1.075,5.496 -1.704,8.074 l -0.347,1.406 1.414,7.434 c 3.394,18.601 8.055,44.07 37.328,45.547 9.789,0.488 17.703,-2.129 23.633,-7.778 10.531,-10.015 11.746,-26.883 11.746,-38.699 -0.024,-41.641 -20.356,-51.594 -37.406,-52.598 z m 43.246,194.571 c 9.543,8.703 19.972,13.093 29.25,12.312 25.785,-2.144 27.812,-24.898 28.476,-32.371 l 0.028,-0.547 c 0.113,-17.734 -8.356,-37.41 -21.579,-50.129 -8.363,-8.047 -17.792,-12.429 -26.699,-12.429 -0.41,0 -0.816,0.007 -1.215,0.039 -11.586,0.527 -30.98,5.976 -30.8,36.394 0.101,15.942 8.941,34.289 22.539,46.731 z m 78.41,-130.684 c 0.023,-15.703 -8.672,-34.238 -22.145,-47.234 -8.918,-8.594 -18.636,-13.293 -27.504,-13.293 -0.324,0 -0.628,0 -0.937,0.019 -12.852,0.488 -28.492,6.719 -29.992,33.672 -0.848,15.391 6.133,33.137 18.215,46.328 9.121,9.949 19.64,15.625 29.632,15.938 8.356,0.261 16.422,-2.676 22.262,-8.328 6.731,-6.504 10.453,-16.133 10.469,-27.102 z m 1.625,129.57 c 8.57,8.133 18.23,12.356 26.84,12.078 13.379,-0.515 29.504,-6.835 30.273,-34.011 v -0.34 c -0.41,-17.629 -9.277,-37.109 -22.594,-49.629 -8.093,-7.609 -16.711,-11.605 -25,-11.605 -0.336,0 -0.668,0 -1,0.023 -13.894,0.547 -30.39,7.398 -30.004,36.988 0.192,16.028 8.633,34.27 21.485,46.496 z m 87.348,-129.218 c 0.796,-14.864 -6.364,-32.383 -18.676,-45.723 -9.207,-10.012 -19.641,-15.664 -29.367,-15.938 -0.434,-0.007 -0.86,-0.007 -1.278,-0.007 -27.301,0 -30.121,24.468 -31.058,32.593 l -0.039,0.664 c -0.231,16.282 7.418,34.204 19.96,46.758 9.122,9.153 19.59,14.172 29.516,14.172 0.133,0 0.242,0 0.359,0 13.192,-0.168 29.204,-5.945 30.583,-32.519 z M 593.777,827.98 C 501.648,833.672 432.184,782.48 420.918,691.824 412.168,621.348 390.613,558.02 345.133,501.672 318.121,468.203 301.379,428.828 292.996,386.504 271.113,275.957 360.059,171.301 479.973,171.785 c 26.394,-1.531 54.582,5.988 81.027,20.805 77.063,43.152 122.359,133.594 108.965,221.082 -7.996,52.219 -3.754,102.617 15.383,152.121 13.035,33.727 23.406,68.309 34.109,102.852 20.43,65.925 -46.41,154.429 -125.68,159.335" /><path
         id="path16"
         style="fill:#e5e5e3;fill-opacity:1;fill-rule:nonzero;stroke:none"
         d="M 500.051,907.996 C 274.719,907.996 92.0508,725.332 92.0508,500 92.0508,274.668 274.719,92.0039 500.051,92.0039 c 225.332,0 408,182.6641 408,407.9961 0,225.332 -182.668,407.996 -408,407.996 z m 0,-38.25 c 203.879,0 369.75,-165.867 369.75,-369.746 0,-203.879 -165.871,-369.746 -369.75,-369.746 -203.883,0 -369.754,165.867 -369.754,369.746 0,203.879 165.871,369.746 369.754,369.746" /></g></g></svg>