<?xml version="1.0" encoding="UTF-8" standalone="no"?>
<svg
   xmlns:dc="http://purl.org/dc/elements/1.1/"
   xmlns:cc="http://creativecommons.org/ns#"
   xmlns:rdf="http://www.w3.org/1999/02/22-rdf-syntax-ns#"
   xmlns:svg="http://www.w3.org/2000/svg"
   xmlns="http://www.w3.org/2000/svg"
   viewBox="0 0 133.34666 133.33333"
   height="133.33333"
   width="133.34666"
   xml:space="preserve"
   id="svg2"
   version="1.1"><metadata
     id="metadata8"><rdf:RDF><cc:Work
         rdf:about=""><dc:format>image/svg+xml</dc:format><dc:type
           rdf:resource="http://purl.org/dc/dcmitype/StillImage" /></cc:Work></rdf:RDF></metadata><defs
     id="defs6" /><g
     transform="matrix(1.3333333,0,0,-1.3333333,0,133.33333)"
     id="g10"><g
       transform="scale(0.1)"
       id="g12"><path
         id="path14"
         style="fill:#e5e5e3;fill-opacity:1;fill-rule:nonzero;stroke:none"
         d="m 530.227,332.488 c -4.071,2.446 -8.747,3.645 -14.016,3.645 -3.762,0 -7.234,-0.664 -10.418,-2.024 -3.188,-1.336 -5.93,-3.289 -8.23,-5.879 -2.293,-2.566 -4.11,-5.835 -5.446,-9.851 -1.332,-3.984 -1.988,-8.484 -1.988,-13.457 0,-5.02 0.656,-9.57 1.988,-13.621 1.336,-4.055 3.211,-7.434 5.637,-10.09 2.426,-2.676 5.211,-4.68 8.355,-6.016 3.149,-1.316 6.59,-1.98 10.352,-1.98 4.805,0 9.227,1.14 13.258,3.445 4.031,2.285 7.234,5.82 9.629,10.606 2.379,4.777 3.574,10.656 3.574,17.656 0,6.457 -1.102,12.07 -3.293,16.808 -2.191,4.735 -5.328,8.329 -9.402,10.758" /><path
         id="path16"
         style="fill:#e5e5e3;fill-opacity:1;fill-rule:nonzero;stroke:none"
         d="m 613.738,243.699 c -0.824,-0.808 -2.074,-1.219 -3.742,-1.219 h -27.949 c -1.91,0 -3.379,0.5 -4.453,1.504 -1.063,0.996 -1.594,2.168 -1.594,3.516 0,0.867 0.344,2.031 1.027,3.469 0.684,1.426 1.442,2.554 2.243,3.367 3.367,3.32 6.41,6.172 9.121,8.555 2.707,2.382 4.64,3.933 5.808,4.699 2.074,1.387 3.793,2.793 5.188,4.187 1.379,1.414 2.426,2.864 3.148,4.356 0.719,1.465 1.082,2.93 1.082,4.347 0,1.551 -0.39,2.918 -1.156,4.149 -0.777,1.211 -1.824,2.168 -3.16,2.844 -1.332,0.664 -2.778,0.996 -4.344,0.996 -3.316,0 -5.934,-1.379 -7.828,-4.153 -0.25,-0.363 -0.676,-1.336 -1.274,-2.968 -0.589,-1.614 -1.261,-2.852 -2.003,-3.719 -0.754,-0.883 -1.848,-1.301 -3.289,-1.301 -1.27,0 -2.321,0.402 -3.161,1.192 -0.836,0.793 -1.25,1.875 -1.25,3.25 0,1.664 0.391,3.41 1.184,5.207 0.773,1.804 1.957,3.457 3.508,4.921 1.558,1.473 3.535,2.665 5.929,3.555 2.391,0.906 5.2,1.367 8.418,1.367 3.868,0 7.176,-0.586 9.911,-1.738 1.769,-0.769 3.32,-1.824 4.668,-3.184 1.343,-1.347 2.378,-2.902 3.136,-4.675 0.742,-1.789 1.117,-3.625 1.117,-5.52 0,-2.988 -0.777,-5.723 -2.335,-8.152 -1.555,-2.446 -3.141,-4.367 -4.77,-5.742 -1.613,-1.399 -4.34,-3.579 -8.145,-6.536 -3.808,-2.968 -6.425,-5.273 -7.839,-6.906 -0.614,-0.664 -1.239,-1.433 -1.864,-2.351 h 19.825 c 1.968,0 3.476,-0.379 4.519,-1.161 1.035,-0.773 1.551,-1.82 1.551,-3.144 0,-1.191 -0.399,-2.18 -1.227,-3.012 z m -54.675,42.485 c -1.946,-5.586 -4.852,-10.442 -8.747,-14.536 -3.875,-4.089 -8.644,-7.222 -14.296,-9.39 -5.653,-2.18 -12.137,-3.266 -19.434,-3.266 -7.262,0 -13.766,1.113 -19.492,3.344 -5.742,2.234 -10.535,5.379 -14.379,9.434 -3.832,4.058 -6.742,8.945 -8.699,14.648 -1.969,5.699 -2.946,11.875 -2.946,18.504 0,6.789 1.024,13.008 3.075,18.683 2.043,5.665 5.011,10.477 8.886,14.461 3.895,3.985 8.617,7.024 14.18,9.129 5.578,2.114 11.906,3.176 19,3.176 9.617,0 17.883,-1.863 24.773,-5.586 6.907,-3.711 12.129,-9.004 15.676,-15.84 3.535,-6.867 5.317,-14.902 5.317,-24.14 0,-6.836 -0.981,-13.047 -2.914,-18.621 z M 455.09,272.617 c -2.902,-4.258 -7.129,-7.605 -12.695,-10.012 -5.575,-2.402 -12.176,-3.613 -19.813,-3.613 -9.16,0 -16.715,1.653 -22.664,4.934 -4.219,2.383 -7.652,5.547 -10.289,9.504 -2.641,3.965 -3.961,7.8 -3.961,11.543 0,2.168 0.801,4.019 2.379,5.574 1.582,1.555 3.594,2.312 6.051,2.312 1.976,0 3.652,-0.593 5.027,-1.796 1.367,-1.2 2.535,-2.997 3.516,-5.379 1.175,-2.801 2.453,-5.157 3.828,-7.039 1.367,-1.899 3.301,-3.45 5.789,-4.668 2.484,-1.235 5.765,-1.848 9.816,-1.848 5.563,0 10.09,1.23 13.578,3.699 3.481,2.485 5.223,5.567 5.223,9.27 0,2.922 -0.941,5.3 -2.816,7.136 -1.887,1.821 -4.305,3.227 -7.289,4.184 -2.965,0.965 -6.954,2 -11.926,3.086 -6.672,1.48 -12.242,3.211 -16.75,5.203 -4.489,1.981 -8.063,4.695 -10.699,8.137 -2.629,3.433 -3.95,7.703 -3.95,12.808 0,4.856 1.395,9.184 4.176,12.953 2.793,3.778 6.813,6.688 12.09,8.708 5.281,2.035 11.48,3.058 18.613,3.058 5.703,0 10.629,-0.683 14.778,-2.031 4.164,-1.336 7.617,-3.137 10.347,-5.36 2.746,-2.226 4.754,-4.574 6.024,-7.023 1.261,-2.449 1.898,-4.844 1.898,-7.18 0,-2.117 -0.793,-4.043 -2.383,-5.75 -1.578,-1.699 -3.547,-2.558 -5.914,-2.558 -2.148,0 -3.781,0.508 -4.906,1.543 -1.117,1.015 -2.332,2.683 -3.637,5.019 -1.691,3.352 -3.718,5.938 -6.074,7.805 -2.367,1.875 -6.164,2.801 -11.398,2.801 -4.852,0 -8.77,-1.004 -11.746,-3.035 -2.973,-2.036 -4.458,-4.465 -4.458,-7.329 0,-1.765 0.504,-3.281 1.524,-4.578 1.008,-1.289 2.398,-2.382 4.168,-3.308 1.781,-0.93 3.574,-1.653 5.387,-2.168 1.816,-0.539 4.808,-1.289 8.984,-2.309 5.227,-1.148 9.969,-2.449 14.215,-3.836 4.242,-1.418 7.844,-3.125 10.828,-5.136 2.969,-2 5.293,-4.551 6.953,-7.618 1.676,-3.078 2.512,-6.836 2.512,-11.3 0,-5.34 -1.453,-10.145 -4.336,-14.403 z m 259.621,29.903 c -30.023,65.156 -58.316,131.043 -87.594,196.523 -16.574,37.09 -32.922,74.297 -50.801,110.82 -20.339,41.555 -38.718,83.035 -31.984,130.645 1.836,12.976 -0.609,26.164 8.047,38.269 2.976,4.172 8.008,11.594 0.652,18.965 -9.523,-4.336 -16.504,-12.476 -17.621,-21.226 -4.945,-38.684 -9.297,-78.149 1.977,-116.008 7.933,-26.641 22.988,-51.336 34.676,-76.985 24.585,-53.972 48.91,-108.054 73.656,-161.96 7.894,-17.2 2.551,-25.458 -17.024,-25.458 -91.578,-0.019 -183.152,-0.031 -274.73,0.04 -17.402,0.015 -21.973,7.339 -14.824,22.71 31.449,67.629 59.023,136.887 90.511,204.407 19.082,40.926 30.114,81.035 26.77,125.363 -0.863,11.441 -3.43,21.668 -9.402,31.402 -2.817,4.59 -6.051,10.356 -12.043,7.871 -7.317,-3.035 -2.055,-8.875 -0.344,-13.269 14.64,-37.481 14.113,-74.949 -1.813,-111.691 C 386.871,556.895 340.434,451.035 294.008,345.176 281.539,316.73 267.41,289.109 271.055,256.543 c 3.343,-29.934 20.433,-53.898 43.758,-53.977 116.414,-0.425 232.824,-0.418 349.234,0.039 17.23,0.071 36.91,3.696 44.637,19.114 12.679,25.293 19.238,52.129 6.027,80.801" /><path
         id="path18"
         style="fill:#e5e5e3;fill-opacity:1;fill-rule:nonzero;stroke:none"
         d="M 496.211,907.996 C 270.879,907.996 88.2148,725.332 88.2148,500 88.2148,274.668 270.879,92.0039 496.211,92.0039 c 225.332,0 408.004,182.6641 408.004,407.9961 0,225.332 -182.672,407.996 -408.004,407.996 z m 0,-38.25 c 203.883,0 369.75,-165.867 369.75,-369.746 0,-203.879 -165.867,-369.746 -369.75,-369.746 -203.875,0 -369.746,165.867 -369.746,369.746 0,203.879 165.871,369.746 369.746,369.746" /></g></g></svg>