<?xml version="1.0" encoding="utf-8"?>
<!-- Generator: Adobe Illustrator 25.1.0, SVG Export Plug-In . SVG Version: 6.00 Build 0)  -->
<svg version="1.1" id="Capa_1" xmlns="http://www.w3.org/2000/svg" xmlns:xlink="http://www.w3.org/1999/xlink" x="0px" y="0px"
	 viewBox="0 0 413.3 413.3" style="enable-background:new 0 0 413.3 413.3;" xml:space="preserve">
<style type="text/css">
	.st0{fill:#FFFFFF;stroke:#35A8E0;stroke-width:0.5;stroke-miterlimit:10;}
</style>
<path id="XMLID_2_" class="st0" d="M209.6,206.7l-1.4,0.8l1.4,0.8l1.5-0.4c0.2-0.1,0.4,0.1,0.4,0.2c0.1,0.2-0.1,0.4-0.2,0.4
	l-0.9,0.3l0.9,0.5c0.2,0.1,0.2,0.3,0.1,0.5c-0.1,0.2-0.3,0.2-0.5,0.1l-0.9-0.5l0.2,0.9c0,0.2-0.1,0.4-0.3,0.4
	c-0.2,0-0.4-0.1-0.4-0.3l-0.4-1.6l-1.4-0.8v1.6l1.2,1.1c0.1,0.1,0.1,0.4,0,0.5c-0.1,0.1-0.4,0.1-0.5,0l-0.7-0.6v1
	c0,0.2-0.2,0.3-0.3,0.3c-0.2,0-0.3-0.2-0.3-0.3v-1l-0.7,0.6c-0.1,0.1-0.4,0.1-0.5,0c-0.1-0.1-0.1-0.4,0-0.5l1.2-1.1v-1.6l-1.4,0.8
	l-0.4,1.6c0,0.2-0.2,0.3-0.4,0.3c-0.2,0-0.3-0.2-0.3-0.4l0.2-0.9l-0.9,0.5c-0.2,0.1-0.4,0-0.5-0.1c-0.1-0.2,0-0.4,0.1-0.5l0.9-0.5
	l-0.9-0.3c-0.2-0.1-0.3-0.2-0.2-0.4c0.1-0.2,0.2-0.3,0.4-0.2l1.5,0.4l1.4-0.8l-1.4-0.8l-1.5,0.4c-0.2,0.1-0.4-0.1-0.4-0.2
	c-0.1-0.2,0.1-0.4,0.2-0.4l0.9-0.3l-0.9-0.5c-0.2-0.1-0.2-0.3-0.1-0.5c0.1-0.2,0.3-0.2,0.5-0.1l0.9,0.5l-0.2-0.9
	c0-0.2,0.1-0.4,0.3-0.4c0.2,0,0.4,0.1,0.4,0.3l0.4,1.6l1.4,0.8v-1.6l-1.2-1.1c-0.1-0.1-0.1-0.4,0-0.5c0.1-0.1,0.4-0.1,0.5,0l0.7,0.6
	v-1c0-0.2,0.2-0.3,0.3-0.3s0.3,0.2,0.3,0.3v1l0.7-0.6c0.1-0.1,0.4-0.1,0.5,0c0.1,0.1,0.1,0.4,0,0.5l-1.2,1.1v1.6l1.4-0.8l0.4-1.6
	c0-0.2,0.2-0.3,0.4-0.3c0.2,0,0.3,0.2,0.3,0.4l-0.2,0.9l0.9-0.5c0.2-0.1,0.4,0,0.5,0.1c0.1,0.2,0,0.4-0.1,0.5l-0.9,0.5l0.9,0.3
	c0.2,0.1,0.3,0.2,0.2,0.4c-0.1,0.2-0.2,0.3-0.4,0.2L209.6,206.7z"/>
</svg>
