<?xml version="1.0" encoding="utf-8"?>
<!-- Generator: Adobe Illustrator 25.1.0, SVG Export Plug-In . SVG Version: 6.00 Build 0)  -->
<svg version="1.1" id="Capa_1" xmlns="http://www.w3.org/2000/svg" xmlns:xlink="http://www.w3.org/1999/xlink" x="0px" y="0px"
	 viewBox="0 0 413.3 413.3" style="enable-background:new 0 0 413.3 413.3;" xml:space="preserve">
<style type="text/css">
	.st0{fill:#E52E31;}
</style>
<g>
	<g>
		<g>
			<path class="st0" d="M220.5,216.9c-0.3-0.2-0.7-0.6-1.4-1c-2-1.4-5.6-3.9-9-7.6c-1.2-1.4-2.1-3.3-2.9-5.1
				c-1.1-2.5-2.2-4.9-4.3-5.7c-1.1-0.4-2.3-0.4-3.3-0.3c-0.3,0-0.5,0-0.7,0c0,0-0.2-0.1-0.5-0.5c-0.3-0.5-0.6-1.2-1-2
				c-0.3-0.6-0.5-1.2-0.8-1.7c-0.4-0.7-1-1.1-1.8-1.1c-1.1,0-2.4,0.7-3,1.7c-0.4,0.7-0.4,1.4,0,2c0.2,0.3,0.4,0.7,0.7,1
				c0.4,0.6,0.9,1.3,1.2,2c0.4,0.8,0.5,1.1,0.5,1.2c-0.1,0.1-0.1,0.3-0.2,0.5c-0.6,1.3-1.4,3.1-0.8,4.6c0.9,2.1,2.1,4.2,3.6,6.2
				c1.7,2.3,3.6,4.2,5.7,5.8c2.4,1.8,5,3.1,7.7,3.8c1.6,0.4,3.3,0.7,5,0.7c1.5,0,2.9-0.2,4.4-0.5c1.4-0.3,1.8-1.1,1.9-1.5
				C221.9,218.3,221,217.3,220.5,216.9z M194.2,195.5c-0.2-0.3-0.5-0.7-0.6-0.9c0.1-0.1,0.2-0.3,0.6-0.5c0.5-0.3,0.7-0.2,0.8-0.1
				c0.3,0.5,0.5,1.1,0.8,1.6c0.8,1.8,1.6,3.6,3.2,3.6h0c0.2,0,0.5,0,0.8,0c0.5,0,1.1,0,1.6,0c-0.4,0.9-1.2,1.8-2.3,2.3
				c-1.2,0.7-2.5,1-3.8,0.8c0.2-0.5,0.4-0.9,0.5-1.3c0.1-0.2,0.2-0.4,0.2-0.5C196.6,199.3,195.6,197.7,194.2,195.5z M219.3,219
				c-2.9,0.6-5.7,0.6-8.5-0.1c-2.4-0.6-4.8-1.8-7-3.5c-3.6-2.7-6.8-6.9-8.7-11.1c0.2,0,0.5,0,0.7,0c1.4,0,2.9-0.4,4.1-1.1
				c1.4-0.8,2.5-1.9,3.1-3.3c0.9,0.9,1.6,2.4,2.3,4c0.8,1.9,1.8,4,3.2,5.6c3.5,3.9,7.3,6.5,9.3,7.9c0.5,0.4,1,0.7,1.2,0.9
				c0.3,0.3,0.4,0.4,0.5,0.5C219.6,218.9,219.5,218.9,219.3,219z"/>
		</g>
	</g>
	<g>
		<g>
			<path class="st0" d="M201.2,208.7c-0.4-0.6-0.5-1-0.5-1.2l-1.9-0.2c-0.2,1.6,1.4,3.9,2.9,4.2l0.4-1.9
				C202,209.5,201.6,209.2,201.2,208.7z"/>
		</g>
	</g>
</g>
</svg>
