<?xml version="1.0" encoding="utf-8"?>
<!-- Generator: Adobe Illustrator 25.1.0, SVG Export Plug-In . SVG Version: 6.00 Build 0)  -->
<svg version="1.1" id="Capa_1" xmlns="http://www.w3.org/2000/svg" xmlns:xlink="http://www.w3.org/1999/xlink" x="0px" y="0px"
	 viewBox="0 0 1200 1200" style="enable-background:new 0 0 1200 1200;" xml:space="preserve">
<style type="text/css">
	.st0{fill:#88C039;}
	.st1{fill:#06AA51;}
	.st2{fill:#FFFFFF;}
</style>
<path class="st0" d="M964.4,359.2l28.1-20.7l12.3,32.7c16.2,43.2,21.2,92.7,21.4,136.1c66.5-39,123.8-95.9,123.8-95.9
	c-26.9-17.4-67.8-51.1-67.8-51.1c9.2-21.1-5.1-109-5.1-109c-14.2,17.5-110.6,62.1-170,88.5c8.3,13.3,15.8,27.1,22.5,41.3
	C952,368.2,964,359.5,964.4,359.2z"/>
<path class="st0" d="M306.5,810.3c-36.4,18.9-51.6,34.6-53,36.2l-13,16.1l-18.4-9.4c-25.4-12.1-50.8-45.2-72.5-81.7
	c-61,39.1-99.5,97.9-99.5,97.9c45.3-4,145.1,23.8,145.1,23.8c-5.3,22.4,10.7,121.6,10.7,121.6c75.9-87.8,133-128.6,170.8-147.5
	C351,851,327.5,831.9,306.5,810.3z"/>
<path class="st0" d="M581.4,794.6c-46,0-89.1-12.3-126.2-33.9c-52.8,10.8-93.3,24.5-123.6,37.7c64.4,63,152.6,101.8,249.8,101.8
	c140.3,0,261.8-80.9,320.3-198.6c-42.6,14.4-94.6,25-155.5,31.6C702,771.4,644.4,794.6,581.4,794.6z"/>
<path class="st0" d="M581.4,290.9c101.3,0,188.6,59.8,228.6,146c39.3-14.9,71.7-30.2,96.4-43.2c-56.5-123-180.8-208.5-325-208.5
	C384,185.3,224,345.3,224,542.7c0,3.6,0.1,7.1,0.2,10.6c41.8-17.8,75.5-28.5,106.7-35.3C343.2,390.6,450.7,290.9,581.4,290.9z"/>
<polygon class="st1" points="623.6,618.4 643.4,617.2 632.3,598 "/>
<path class="st0" d="M980.1,380.5c0,0-155.5,115.1-422.4,142.6c-186.7,19.3-213.7-9.7-443.5,113.5c0,0,64.8,166.8,119.3,192.7
	c0,0,88.9-104.9,404.2-115.1c315.3-10.3,353.3-99,353.3-99S1016.7,478.3,980.1,380.5z"/>
<path class="st0" d="M667.2,467.9c6-7.1,11.1-14.8,15.5-22.8c6.1-11.8,10.9-24.6,15.9-36.7c1.4-3.4,3.6-6.7,4.3-10.4
	c0.6-3.2-0.4-6.5-2.7-8.8c-3.2-3.2-9.1-3.6-13.3-4.6c-5.2-1.1-10.4-2.2-15.7-3c-8.9-1.4-17.9-2.2-27-2.4c-4.6-0.1-9.1,0.1-13.7,0.5
	c-4.6,0.4-9.2,1.1-13.7,2.1c-2.5,0.6-5.1,1.3-7.6,2.1c0-0.4-0.1-0.8-0.1-1.1c-1.3-12-3.6-23.7-6.5-35.3c-1.7-6.8-3.8-13.6-5.9-20.3
	c-1.7-5.4-3-13.1-7.7-17c-3.2-2.7-7.8-3.7-11.9-2.5c-4.7,1.4-8.8,4.7-13.1,7c-15.3,8.1-31.5,15.9-46.3,25.5
	c-9.9,6.8-19.5,14.4-28.1,23.2c-14.5,14.9-25.4,32.6-28.6,53.4c-3.8,24.1,3.2,47.6,16.2,67.9c1.8,2.8,3.7,5.5,5.6,8.1
	c1.9,2.6,3.8,5.6,6.9,6.9c3.8,1.6,9.5,2.7,13.1,0.3c3.5-2.3,3.8-6.8,4.8-10.5c3.9-16.6,11.4-31.7,17.7-47.4
	c4.3-10.7,8.9-22.7,9-34.4c-3.4,5-7,9.5-10.4,14.2c-3.4,4.7-6.7,9.5-9.8,14.4c-6.1,10-11.9,20.5-15.6,32.1c-2,5.7-3.3,11.8-4.3,17.9
	l-0.2,2.1c0.3-2.6-7.6-12.2-9.1-15.2c-3.1-6.1-5.6-12.6-7.4-19.2c-7.9-29.5,2.8-57.7,24.1-78.6c16-15.7,35.7-27.1,55.5-37.2
	c5.1-2.6,10.3-5.2,15.2-8.2c2.1-1.2,4.3-2.5,6.4-3.7c-0.7,0.5,7.7,24.1,8,25.3c2.9,10.9,5.1,21.9,6.4,33c0.3,2.2,0.4,4.5,0.6,6.7
	c0.3,4.3,0.5,8.6,0.5,12.9c0,4.5-0.2,8.9-0.6,13.3c-1.5,14.5-6,29.3-15.8,40.4c-1.4,1.6-3,3.1-4.6,4.6c-3.2,2.8-6.7,5.3-10.4,7.5
	c-1.9,1.1-3.8,2.2-5.7,3.2c-3.8,1.9-7.6,3.7-11.5,5.3c-3.2,1.4-6.5,2.6-9.7,4c-0.7,0.3-2.6,1.5-3.2,1.3c5.9,1.2,12,1.4,18.1,0.8
	c5.6-0.6,11.3-2,16.7-4.2c1,0.7,2,1.3,3,1.9c2.1,1.3,4.3,2.5,6.5,3.7c5.1,2.6,10.3,4.7,15.7,6.3c11.8,3.4,24.2,4.2,36.5,1
	c8.5-2.2,16.2-6.1,23-11.1C657.5,478.1,662.6,473.3,667.2,467.9z M599.8,483.5c-5.1-0.9-10.1-2.3-15-4.2c-1.4-0.5-4.7-2.6-7.6-4.1
	c2.3-1.5,4.5-3.2,6.7-5c1.2-0.5,2.4-1,3.6-1.5c8.5-3.6,16-8.7,23-14c3.5-2.7,6.9-5.5,10.2-8.4c3.3-2.9,6.4-5.9,10-8.8
	c-8.8,0.9-17.5,5.2-25.2,9.2c-1.8,0.9-3.5,1.9-5.3,2.8c1.9-3.8,3.6-7.7,4.9-11.7c2-6,3.2-12.1,4-18.3c0.8-6.1,1.1-12.3,1.1-18.4
	c0-1.7-0.1-3.4-0.2-5.1c3-1,6.1-1.9,9.2-2.5c8-1.6,16.4-2.1,24.8-2c8.4,0.2,16.9,1,25.3,2.4c1,0.2,19.3,4.8,19.7,4.2
	c-0.8,1.7-1.6,3.4-2.4,5.1c-1.9,3.9-3.5,8-5.1,12c-6.3,15.6-13.4,31.3-24.1,44.5C643,477.2,622.6,487.3,599.8,483.5z"/>
<g>
	<path class="st2" d="M450.5,600.4c-1.8,3.7-3.1,7.5-3.9,11.4l-2.4,12.5l-8.9,41.8c-1,4.9-2.4,9.7-4,14.5c-0.8,2.4-2.3,3.7-4.4,4
		c-2.8,0.4-5-0.7-6.5-3.4c-6-10.4-13.2-25.6-21.6-45.5l-6.5-14.4c-3.3-7.2-5-12-5.4-14.4c-0.2-1.6,0.1-3.1,1.2-4.3
		c0.9-1.1,2.1-1.8,3.6-2c2.8-0.4,4.8,0.8,6,3.7l3.4,9.2l7.9,17.8c5.5,13,10.6,24.2,15.3,33.4l0.2-0.9l8.8-41.7l2.7-14
		c1.3-5.7,2.9-10.1,4.8-13.2c1-1.6,2.3-2.6,3.9-2.8c1.5-0.2,2.8,0.2,4.1,1.1c1.3,0.9,2.1,2.2,2.3,3.8
		C451.2,598.1,451,599.2,450.5,600.4z"/>
	<path class="st2" d="M512.8,592.7c-0.5,0.1-1.1,0.1-1.7,0c-6.4-0.8-12.4-0.8-18.2,0c-3,0.4-6.2,1.2-9.6,2.2
		c-3.4,1.1-7.1,2.5-11,4.2c0.7,2.3,1.1,4.2,1.3,5.6c0.7,5.1,1.4,12,2.1,21l23.5-5.8c6.9-1.8,11.2-2.7,12.8-3c1.6-0.2,3,0.1,4.3,0.9
		c1.2,0.9,2,2.1,2.2,3.8c0.5,3.3-0.9,5.4-4.2,6.3l-12.8,3l-24.8,6c0.2,2.6,0.5,5.1,0.7,7.4c0.2,2.3,0.5,4.5,0.8,6.5
		c1.2,8,2.4,12.7,3.8,13.9c1,0.9,3.9,1,8.8,0.3c2.3-0.3,5.6-0.9,10.1-1.7c4.5-0.8,7.9-1.4,10.2-1.7c0.7-0.1,1.8-0.4,3.2-0.8
		c1.4-0.4,2.4-0.7,3.1-0.8c3.9-0.6,6.1,1,6.6,4.8c0.4,3.1-0.8,5.1-3.8,6.2c-3.3,1.2-10.7,2.6-22,4.3c-11.3,1.6-18.7,1.2-22.3-1.3
		c-4-2.7-6.8-9.9-8.5-21.6c-0.3-2.3-0.7-4.9-1-7.7c-0.3-2.8-0.6-5.8-0.9-9c-0.5-0.8-0.9-1.6-1-2.6c-0.2-1.2,0-2.4,0.5-3.5
		c-0.8-10.6-1.6-18.4-2.3-23.4c-0.2-1.3-0.7-3.3-1.4-5.8c-0.7-2.5-1.2-4.5-1.4-5.8c-0.6-4.3,0.9-6.8,4.5-7.3c1.5-0.2,2.9,0.1,4.2,1
		c4.2-1.8,8.2-3.3,12-4.4c3.8-1.1,7.4-2,10.8-2.5c8.8-1.3,16-1.3,21.6,0.1c2.6,0.6,4.1,2.2,4.4,4.7c0.2,1.5-0.1,2.8-0.9,4.1
		C515.6,591.6,514.4,592.4,512.8,592.7z"/>
	<path class="st2" d="M598.5,621.4c-0.6,11.5-4,21.1-10.3,28.8c-6.2,7.7-14.3,12.3-24.1,13.7c-8.9,1.3-16-0.2-21.2-4.5
		c-5.2-4.3-8.5-11.5-10-21.5c-1.4-9.4-0.6-19.4,2.4-30.1c3-10.6,7.5-19.5,13.6-26.7c4-4.8,8.7-7.6,13.9-8.3c3.3-0.5,7.8,0,13.6,1.4
		c7,1.6,10.7,4.1,11.2,7.2c0.2,1.5-0.1,2.9-1.1,4.2c-0.9,1.3-2.1,2.1-3.7,2.3c-0.8,0.1-2-0.2-3.6-0.9c-6.1-2.6-11-3.6-14.8-3
		c-2.7,0.4-5.4,2.2-7.9,5.5c-1.3,1.6-3,4.5-5.3,8.7c-6.8,12.3-9.2,25-7.3,38c1,6.8,2.8,11.5,5.3,13.9c2.7,2.6,7.2,3.5,13.3,2.6
		c6.5-1,11.9-3.8,16-8.6c4.4-5.1,7-11.8,7.8-20.2c-10,2-18.3,5.2-25,9.6c-0.8,0.5-1.6,0.8-2.4,1c-1.6,0.2-3-0.2-4.3-1.3
		c-1.1-1-1.8-2.2-2-3.7c-0.3-2,0.4-3.7,2.2-5.2c7.1-5.9,20.3-10.3,39.6-13.1c1.6-0.2,2.9,0.1,4.2,1c1.2,0.9,1.9,2.1,2.2,3.7
		C601.1,618.2,600.4,620.1,598.5,621.4z"/>
	<path class="st2" d="M676.7,645.3c-3.3,0.5-6.9-3.4-10.6-11.6c-1.4-3.1-3.4-8.7-6.1-16.7c-3.6,1.1-8.3,2.7-14.2,4.9l-14.1,5.1
		c-1.1,5-3.2,12.4-6.3,22.2c-0.9,2.2-2.3,3.5-4.3,3.7c-1.5,0.2-2.8-0.1-4.1-1s-2.1-2.1-2.3-3.7c-0.3-1.7,1.5-8.8,5.3-21.1
		c-0.8-0.9-1.2-1.9-1.4-3.1c-0.4-2.9,1.1-5.1,4.5-6.5c3-8.4,6.9-18.1,11.8-29.1c6.6-15,10.9-22.7,13.1-23c2.9-0.4,5.1,1.3,6.8,5.1
		l6.1,17.8l13.7,36.7l4.4,8.2c1.5,2.8,2.3,4.7,2.4,5.7c0.2,1.6-0.1,3-1.1,4.2C679.4,644.3,678.2,645.1,676.7,645.3z M648.4,585.8
		l-11.9,27.4c4.2-1.8,10.7-4.1,19.4-7L648.4,585.8z"/>
	<path class="st2" d="M772.2,617.3c0.3,1.7,0.4,4.7,0.4,8.8c0,3.8-1.7,5.9-5,6.4c-2,0.3-4.6-0.7-7.7-2.9
		c-16.8-11.8-36.8-29.5-59.8-53.1l1.5,12.4l1.7,12.5c0.4,3,1.2,7.5,2.2,13.5c1,6,1.7,10.5,2.2,13.6c1.4,9.8,0.3,14.9-3.5,15.5
		c-2,0.3-3.7-0.1-5-1.2c-1.2-1-1.9-2.2-2.2-3.8c-0.2-1.5-0.4-3.9-0.7-7c-0.2-3.1-0.4-5.4-0.7-7c-0.3-2.3-0.8-5.6-1.3-10.1
		c-0.5-4.5-0.9-7.9-1.3-10.1c-0.4-2.4-0.9-6-1.8-10.8c-0.8-4.8-1.4-8.5-1.8-10.9c-0.3-2.3-1.1-5.7-2.2-10.1
		c-1.1-4.5-1.8-7.8-2.2-10.1c-0.2-1.7,0.2-3.3,1.5-4.9c1.2-1.6,2.8-2.5,4.6-2.8c1.9-0.3,4.6,1.5,8.1,5.3
		c11,12.2,20.8,22.3,29.4,30.2c10.2,9.4,21.1,18.2,32.8,26.4c-0.1-1.6-0.5-3.9-1-6.9l-1.2-6.8c-2.3-16-4.8-28.6-7.4-37.8
		c-0.3-0.9-1.1-2.8-2.3-5.5c-1.1-2.4-1.7-4.2-1.9-5.6c-0.6-4.2,1-6.6,4.9-7.2c6.3-0.9,11.2,10.4,14.7,34c0.6,4,1.4,10.1,2.5,18.1
		C770.8,607.2,771.6,613.2,772.2,617.3z"/>
</g>
</svg>
